<?xml version="1.0" encoding="UTF-8"?>
<svg version="1.1" xmlns="http://www.w3.org/2000/svg" width="940" height="157">
<path d="M0 0 C0.85428589 -0.00287018 1.70857178 -0.00574036 2.58874512 -0.00869751 C4.39429385 -0.01073831 6.19986469 -0.00520733 8.00537109 0.00732422 C10.77101012 0.02337806 13.53518775 0.00747651 16.30078125 -0.01171875 C18.05469073 -0.00973632 19.8085993 -0.00589265 21.5625 0 C22.39068237 -0.00607269 23.21886475 -0.01214539 24.07214355 -0.0184021 C29.77974716 0.05161201 29.77974716 0.05161201 31.89500427 1.51446533 C33.84433602 4.16369749 34.46992961 6.75869946 35.33422852 9.93017578 C35.51677185 10.58915359 35.69931519 11.24813141 35.88739014 11.92707825 C36.48805664 14.10509356 37.07420538 16.28673397 37.66015625 18.46875 C38.07624156 19.9901233 38.49315998 21.51126897 38.91087341 23.03219604 C39.78513321 26.22329171 40.65286868 29.41606091 41.51538086 32.61035156 C42.61541646 36.68429118 43.72585545 40.75529158 44.84054661 44.825243 C45.90870082 48.72635099 46.97238218 52.62867336 48.03515625 56.53125 C48.23566652 57.26675205 48.4361768 58.0022541 48.64276314 58.7600441 C50.68713339 66.27295903 52.68500781 73.77530678 54.28125 81.3984375 C56.95792579 71.81170406 59.6104131 62.21885186 62.21875 52.61328125 C62.46890869 51.69261871 62.71906738 50.77195618 62.97680664 49.82339478 C64.00287482 46.04621197 65.02856621 42.26892998 66.05175781 38.4909668 C67.54280072 32.98765437 69.0447066 27.48756047 70.56542969 21.99237061 C71.04094007 20.26925365 71.51297243 18.54517296 71.98144531 16.82012939 C72.63284574 14.42764233 73.29869727 12.03966342 73.96875 9.65234375 C74.15896729 8.94270981 74.34918457 8.23307587 74.54516602 7.50193787 C75.60571181 3.79074962 75.95263745 2.61751253 79.28125 0.3984375 C82.2196112 0.19006279 85.06088189 0.09442178 88 0.09765625 C88.85428589 0.09337112 89.70857178 0.089086 90.58874512 0.08467102 C92.39427809 0.07893004 94.1998342 0.07842576 96.00537109 0.08276367 C98.77090773 0.08592568 101.53537674 0.06245523 104.30078125 0.03710938 C106.05468615 0.0348366 107.80859393 0.03413279 109.5625 0.03515625 C110.39068237 0.0259465 111.21886475 0.01673676 112.07214355 0.00724792 C117.79141992 0.05345909 117.79141992 0.05345909 119.999506 1.60857391 C121.70400943 3.98879073 121.65853695 5.49189681 121.66220093 8.40856934 C121.6706604 9.4432988 121.67911987 10.47802826 121.68783569 11.54411316 C121.67872665 13.24607597 121.67872665 13.24607597 121.66943359 14.98242188 C121.67731903 16.77538445 121.67731903 16.77538445 121.68536377 18.60456848 C121.69631559 21.88353592 121.69373395 25.16214089 121.68422651 28.44110298 C121.67663617 31.87102145 121.68367378 35.30091555 121.68838501 38.73083496 C121.6938444 44.49101109 121.68664621 50.25107185 121.67236328 56.01123047 C121.65603631 62.67270003 121.66132469 69.33389415 121.6778425 75.99535704 C121.69145221 81.71263854 121.69337958 87.42983707 121.68552649 93.14712954 C121.68084709 96.56274716 121.68023231 99.97823528 121.69013596 103.3938446 C121.69772805 107.20090539 121.68617685 111.00743225 121.66943359 114.81445312 C121.67550629 115.949095 121.68157898 117.08373688 121.68783569 118.25276184 C121.67514648 119.80485603 121.67514648 119.80485603 121.66220093 121.38830566 C121.66106985 122.28868813 121.65993877 123.18907059 121.65877342 124.11673737 C121.20370025 126.86713761 120.50281807 127.75809428 118.28125 129.3984375 C115.67749023 129.77075195 115.67749023 129.77075195 112.58984375 129.76171875 C111.48060547 129.76107422 110.37136719 129.76042969 109.22851562 129.75976562 C107.49118164 129.7355957 107.49118164 129.7355957 105.71875 129.7109375 C104.55666016 129.71416016 103.39457031 129.71738281 102.19726562 129.72070312 C93.54816946 129.66535696 93.54816946 129.66535696 91.28125 127.3984375 C91.06409399 124.93133107 90.9698874 122.57293968 90.96240234 120.10302734 C90.95235672 119.35171036 90.9423111 118.60039337 90.93196106 117.8263092 C90.90101449 115.33733909 90.88406235 112.84847707 90.8671875 110.359375 C90.84848505 108.63586489 90.82891234 106.91236402 90.8085022 105.18887329 C90.75707735 100.64824869 90.71750722 96.10759436 90.68035889 91.5668335 C90.64038396 86.93510524 90.589262 82.30350172 90.5390625 77.671875 C90.44218073 68.58081666 90.35781533 59.48968805 90.28125 50.3984375 C89.96486572 51.56375 89.64848145 52.7290625 89.32250977 53.9296875 C86.45892467 64.47210632 83.58594095 75.01191317 80.70121765 85.54856873 C79.20042624 91.03130868 77.7062012 96.51573729 76.22053528 102.00259399 C75.41455555 104.97105053 74.60025665 107.93717068 73.78317261 110.90258789 C73.40845192 112.2691281 73.03726476 113.63664241 72.66970825 115.00512695 C72.16284676 116.89006984 71.64233216 118.77132573 71.12109375 120.65234375 C70.83613037 121.69720947 70.55116699 122.7420752 70.25756836 123.81860352 C69.24079755 126.50532949 68.65214678 127.79300648 66.28125 129.3984375 C62.3116769 130.04100826 58.29695871 129.86167922 54.28125 129.8359375 C52.62222656 129.8659082 52.62222656 129.8659082 50.9296875 129.89648438 C49.34027344 129.89551758 49.34027344 129.89551758 47.71875 129.89453125 C46.26275391 129.89731079 46.26275391 129.89731079 44.77734375 129.90014648 C42.28125 129.3984375 42.28125 129.3984375 40.7535553 127.78340149 C38.93627807 124.83962295 38.1378971 122.07733163 37.22827148 118.73730469 C37.04572815 118.07657455 36.86318481 117.41584442 36.67510986 116.73509216 C36.07573778 114.55738148 35.48897658 112.3764861 34.90234375 110.1953125 C34.48618412 108.67299327 34.0692666 107.15088104 33.65162659 105.62896729 C32.55458709 101.62286331 31.46832792 97.6139113 30.38415527 93.60430908 C29.28445043 89.54552869 28.17377946 85.48975263 27.06445312 81.43359375 C25.43928949 75.48288021 23.81695534 69.53140984 22.20483398 63.57714844 C21.88079086 62.38120056 21.55674774 61.18525269 21.22288513 59.95306396 C20.20483269 56.10996589 19.23723562 52.25739814 18.28125 48.3984375 C18.28791183 49.35421692 18.29457367 50.30999634 18.30143738 51.29473877 C18.36223854 60.29973643 18.40721783 69.30469247 18.43668652 78.30984879 C18.45234597 82.939563 18.47358932 87.56911158 18.50756836 92.19873047 C18.54015188 96.66614155 18.55810091 101.13339326 18.56588173 105.600914 C18.57142705 107.3057786 18.58225568 109.01063442 18.59844017 110.71543121 C18.62020135 113.10247178 18.62321752 115.48885284 18.62182617 117.87597656 C18.632612 118.58160233 18.64339783 119.28722809 18.6545105 120.01423645 C18.63514484 123.08245182 18.42770642 125.13682272 16.91596985 127.8372345 C14.59437028 130.05442677 13.01516812 129.90058558 9.84375 129.89453125 C8.78414063 129.89517578 7.72453125 129.89582031 6.6328125 129.89648438 C5.52679688 129.87650391 4.42078125 129.85652344 3.28125 129.8359375 C2.17523438 129.84302734 1.06921875 129.85011719 -0.0703125 129.85742188 C-8.18712636 129.79323782 -8.18712636 129.79323782 -10.35094643 128.18631744 C-12.16821868 125.81092914 -12.09596323 124.36366249 -12.09970093 121.38830566 C-12.1081604 120.3535762 -12.11661987 119.31884674 -12.12533569 118.25276184 C-12.119263 117.11811996 -12.11319031 115.98347809 -12.10693359 114.81445312 C-12.11481903 113.02149055 -12.11481903 113.02149055 -12.12286377 111.19230652 C-12.13381559 107.91333908 -12.13123395 104.63473411 -12.12172651 101.35577202 C-12.11413617 97.92585355 -12.12117378 94.49595945 -12.12588501 91.06604004 C-12.1313444 85.30586391 -12.12414621 79.54580315 -12.10986328 73.78564453 C-12.09353631 67.12417497 -12.09882469 60.46298085 -12.1153425 53.80151796 C-12.12895221 48.08423646 -12.13087958 42.36703793 -12.12302649 36.64974546 C-12.11834709 33.23412784 -12.11773231 29.81863972 -12.12763596 26.4030304 C-12.13522805 22.59596961 -12.12367685 18.78944275 -12.10693359 14.98242188 C-12.11300629 13.84778 -12.11907898 12.71313812 -12.12533569 11.54411316 C-12.11687622 10.5093837 -12.10841675 9.47465424 -12.09970093 8.40856934 C-12.09856985 7.50818687 -12.09743877 6.60780441 -12.09627342 5.68013763 C-11.71875 3.3984375 -11.71875 3.3984375 -10.437006 1.60956573 C-7.37220269 -0.55068851 -3.61911609 -0.02653737 0 0 Z " fill="#EE463E" transform="translate(356.71875,-0.3984375)"/>
<path d="M0 0 C1.13669569 0.92328444 2.26641341 1.85564733 3.375 2.8125 C3.684375 2.008125 3.99375 1.20375 4.3125 0.375 C5.375 -2.1875 5.375 -2.1875 6.375 -3.1875 C8.21659023 -3.28709621 10.06196967 -3.31830411 11.90625 -3.3203125 C13.02644531 -3.32160156 14.14664063 -3.32289062 15.30078125 -3.32421875 C16.48027344 -3.32035156 17.65976563 -3.31648438 18.875 -3.3125 C20.64423828 -3.31830078 20.64423828 -3.31830078 22.44921875 -3.32421875 C24.12951172 -3.32228516 24.12951172 -3.32228516 25.84375 -3.3203125 C26.87951172 -3.31918457 27.91527344 -3.31805664 28.98242188 -3.31689453 C31.375 -3.1875 31.375 -3.1875 32.375 -2.1875 C32.48616446 0.52884295 32.53239622 3.21999326 32.53613281 5.93725586 C32.54358017 7.21548218 32.54358017 7.21548218 32.55117798 8.51953125 C32.56585048 11.35547684 32.57261311 14.19136634 32.578125 17.02734375 C32.58387614 18.99736025 32.58963388 20.96737673 32.59539795 22.93739319 C32.60592502 27.07943992 32.61175523 31.22146716 32.61523438 35.36352539 C32.62069604 40.65263791 32.6446667 45.94148997 32.67320633 51.2305212 C32.69190856 55.30651069 32.69704253 59.38243872 32.69857025 63.45846748 C32.70158465 65.40676852 32.70957192 67.35506879 32.72275543 69.30332756 C32.80882874 83.01184912 32.66460901 94.85239112 23.375 105.8125 C13.90790872 115.3171591 1.4224893 117.89082251 -11.625 118.0625 C-24.90675169 117.94426482 -38.44583472 115.81176911 -48.5 106.5 C-52.40065563 102.26737368 -55.24840102 97.69975888 -56 91.9375 C-55.625 89.8125 -55.625 89.8125 -53.625 87.8125 C-49.49748852 87.35434012 -45.33749232 87.48849142 -41.1875 87.5 C-40.02927734 87.48388672 -38.87105469 87.46777344 -37.67773438 87.45117188 C-36.56849609 87.45052734 -35.45925781 87.44988281 -34.31640625 87.44921875 C-32.78802124 87.44474731 -32.78802124 87.44474731 -31.22875977 87.44018555 C-28.625 87.8125 -28.625 87.8125 -26.76928711 89.21020508 C-25.625 90.8125 -25.625 90.8125 -25.625 92.8125 C-17.87118848 95.76633296 -11.3279422 97.20380541 -3.42578125 93.828125 C-0.09936205 91.95205344 0.91064631 90.35135475 2.375 86.8125 C2.68611058 82.45695186 2.60776431 78.1703651 2.375 73.8125 C1.87871094 74.22242187 1.38242188 74.63234375 0.87109375 75.0546875 C-7.72768419 81.87497057 -15.79674261 82.76130678 -26.625 81.8125 C-36.58833803 79.55568212 -45.53003063 74.43417273 -51.34765625 65.94140625 C-59.54255842 52.28323596 -60.28984427 37.51925 -56.66015625 22.20703125 C-53.4970093 11.83429652 -47.34590372 2.64104258 -37.625 -2.5625 C-25.25531966 -7.99074807 -11.16359539 -8.29912276 0 0 Z M-25.875 23.125 C-29.99320173 29.44938123 -30.43085524 36.46914416 -29.625 43.8125 C-27.9296473 50.60354347 -25.48003661 54.95066734 -19.625 58.8125 C-14.22769529 60.61160157 -9.52451716 60.50718904 -4.375 58.1875 C0.08680587 55.67664062 2.35456821 52.66747857 4.08984375 47.8125 C6.34373165 39.56297565 5.77932561 30.97249418 1.55078125 23.46875 C-0.92876839 19.97596246 -3.61414564 18.14945145 -7.625 16.8125 C-15.66857342 15.96799401 -20.11790996 17.20799079 -25.875 23.125 Z " fill="#489E58" transform="translate(146.625,39.1875)"/>
<path d="M0 0 C11.6368892 9.18434714 17.44631791 21.84398163 19.56640625 36.328125 C20.51262175 44.57514011 20.51262175 44.57514011 18.998703 47.45501709 C17.125 49.3125 17.125 49.3125 14.37251282 49.79351807 C13.25998642 49.78463562 12.14746002 49.77575317 11.0012207 49.76660156 C9.74013992 49.76629944 8.47905914 49.76599731 7.17976379 49.76568604 C5.80342987 49.74525946 4.42710239 49.72439548 3.05078125 49.703125 C1.64260155 49.69566348 0.23441145 49.68997013 -1.17378235 49.68597412 C-4.87794729 49.67071038 -8.58148362 49.63142336 -12.28540039 49.5871582 C-16.06583146 49.54622076 -19.84636423 49.52796644 -23.62695312 49.5078125 C-31.04325516 49.46492883 -38.45903946 49.3966698 -45.875 49.3125 C-45.26271215 50.92034417 -44.64273327 52.52526087 -44.01953125 54.12890625 C-43.67510986 55.02295166 -43.33068848 55.91699707 -42.97583008 56.83813477 C-40.87518318 61.55981502 -37.9644374 63.72743177 -33.5 66.125 C-28.1825662 67.86691797 -24.5674338 67.86691797 -19.25 66.125 C-15.78261931 64.5714463 -15.78261931 64.5714463 -13.95703125 61.7265625 C-9.09852231 57.92103839 -4.17021938 58.7027139 1.8125 58.875 C2.96556641 58.88080078 4.11863281 58.88660156 5.30664062 58.89257812 C13.83005487 59.01755487 13.83005487 59.01755487 16.125 61.3125 C16.70741688 64.37018862 16.59880952 66.44054635 15.09765625 69.203125 C7.60699791 79.74399601 -2.13171551 86.65960089 -14.75 89.625 C-29.53081365 92.01874812 -45.05722319 90.05346111 -57.4765625 81.2890625 C-67.01919757 73.42493653 -73.02401005 63.38235074 -75.5 51.25 C-77.08885696 34.56700192 -74.57048219 20.06637857 -64.1875 6.5625 C-48.12086635 -10.79445915 -19.19838806 -13.05073598 0 0 Z M-42.125 20.625 C-44.39025281 23.81534413 -44.39025281 23.81534413 -45.875 30.3125 C-34.325 30.3125 -22.775 30.3125 -10.875 30.3125 C-13.78099464 20.93478384 -13.78099464 20.93478384 -20.69921875 15.20703125 C-29.0104609 11.79002146 -36.18302599 14.51797116 -42.125 20.625 Z " fill="#EE463E" transform="translate(683.875,41.6875)"/>
<path d="M0 0 C6.4211545 4.70791805 10.54204768 13.09034149 12.05078125 20.8203125 C12.1479992 23.00960801 12.18893772 25.20162495 12.19604492 27.39306641 C12.19940353 28.04392715 12.20276215 28.6947879 12.20622253 29.3653717 C12.21569513 31.50922571 12.21767335 33.65300139 12.21875 35.796875 C12.22196364 37.28852368 12.22532779 38.78017205 12.22883606 40.27182007 C12.23481699 43.39378593 12.23667687 46.51572413 12.23608398 49.63769531 C12.23598207 53.64392042 12.24966857 57.64996945 12.26685619 61.65615273 C12.27795285 64.73414938 12.28000397 67.81210303 12.27947426 70.89011765 C12.28065659 72.36774684 12.28509245 73.84537707 12.29280663 75.3229866 C12.30256564 77.38423447 12.29974572 79.44509401 12.29370117 81.50634766 C12.29512619 82.68008942 12.29655121 83.85383118 12.29801941 85.06314087 C12.05078125 87.8203125 12.05078125 87.8203125 10.05078125 89.8203125 C5.73520726 90.27937271 1.3879397 90.14432301 -2.94921875 90.1328125 C-4.77066406 90.15698242 -4.77066406 90.15698242 -6.62890625 90.18164062 C-7.78648437 90.18228516 -8.9440625 90.18292969 -10.13671875 90.18359375 C-11.73580078 90.18806519 -11.73580078 90.18806519 -13.3671875 90.19262695 C-14.21925781 90.06976318 -15.07132813 89.94689941 -15.94921875 89.8203125 C-18.18489379 86.46679994 -18.20318634 85.35375234 -18.22045898 81.43432617 C-18.2306456 80.33275681 -18.24083221 79.23118744 -18.25132751 78.09623718 C-18.25346756 76.90561172 -18.2556076 75.71498627 -18.2578125 74.48828125 C-18.28297478 71.973305 -18.30837277 69.45833109 -18.33398438 66.94335938 C-18.36272435 62.97355772 -18.38673775 59.00379693 -18.40551758 55.03393555 C-18.42717661 51.20600001 -18.46662162 47.37854915 -18.5078125 43.55078125 C-18.50792831 42.36622849 -18.50804413 41.18167572 -18.50816345 39.96122742 C-18.58902129 33.22634047 -18.89011155 28.23239361 -23.57421875 23.0078125 C-27.81186861 20.88898757 -32.32346324 20.09207562 -36.94921875 21.375 C-41.16235454 23.42708769 -43.17144892 26.20069656 -45.13742065 30.35775757 C-46.74306724 35.22841807 -46.48989724 40.22820948 -46.453125 45.30859375 C-46.46254623 46.48874557 -46.47196747 47.6688974 -46.48167419 48.8848114 C-46.51023839 52.63432411 -46.51340397 56.38319991 -46.51171875 60.1328125 C-46.51532159 63.90018403 -46.5247665 67.66709699 -46.55247498 71.43437195 C-46.56932168 73.77367809 -46.57209392 76.11313617 -46.5594635 78.45246887 C-46.56634689 79.50754135 -46.57323029 80.56261383 -46.58032227 81.6496582 C-46.5793605 82.57817093 -46.57839874 83.50668365 -46.57740784 84.46333313 C-47.01996487 87.26878547 -47.67944511 88.15903371 -49.94921875 89.8203125 C-52.55297852 90.19262695 -52.55297852 90.19262695 -55.640625 90.18359375 C-56.74986328 90.18294922 -57.85910156 90.18230469 -59.00195312 90.18164062 C-60.73928711 90.1574707 -60.73928711 90.1574707 -62.51171875 90.1328125 C-63.67380859 90.13603516 -64.83589844 90.13925781 -66.03320312 90.14257812 C-74.68229929 90.08723196 -74.68229929 90.08723196 -76.94921875 87.8203125 C-77.13739275 84.98858155 -77.20095255 82.25540498 -77.17626953 79.42333984 C-77.17656158 78.55498001 -77.17685364 77.68662018 -77.17715454 76.79194641 C-77.17575792 73.91328032 -77.16018117 71.03487104 -77.14453125 68.15625 C-77.1408023 66.1637079 -77.13795477 64.17116397 -77.13595581 62.17861938 C-77.12831007 56.92768311 -77.10865352 51.67685702 -77.08654785 46.42596436 C-77.06610966 41.07044974 -77.05695844 35.71491736 -77.046875 30.359375 C-77.0254085 19.84630569 -76.99126124 9.33331825 -76.94921875 -1.1796875 C-73.87405511 -2.80552595 -71.82156966 -3.43534448 -68.32421875 -3.4453125 C-67.01710938 -3.44917969 -67.01710938 -3.44917969 -65.68359375 -3.453125 C-64.78125 -3.44539063 -63.87890625 -3.43765625 -62.94921875 -3.4296875 C-62.046875 -3.43742187 -61.14453125 -3.44515625 -60.21484375 -3.453125 C-59.3434375 -3.45054688 -58.47203125 -3.44796875 -57.57421875 -3.4453125 C-56.38699219 -3.44192871 -56.38699219 -3.44192871 -55.17578125 -3.43847656 C-52.68238601 -3.14867405 -51.07017641 -2.50925182 -48.94921875 -1.1796875 C-47.83207291 1.44455131 -47.49552063 3.99775281 -46.94921875 6.8203125 C-46.53671875 6.36140625 -46.12421875 5.9025 -45.69921875 5.4296875 C-33.58469341 -7.44199567 -14.99211885 -9.07338656 0 0 Z " fill="#EE463E" transform="translate(593.94921875,39.1796875)"/>
<path d="M0 0 C0.82483887 0.00563965 1.64967773 0.0112793 2.49951172 0.01708984 C14.49122025 0.25286219 24.83417647 2.38147686 33.52734375 11.09375 C40.97011823 19.9741264 41.19035237 31.03283385 41.19140625 42.1171875 C41.21158522 44.07604752 41.2317744 46.0349075 41.25257015 47.99376106 C41.27802852 50.7046555 41.29071784 53.4155443 41.30297852 56.12652588 C41.32501643 60.89674506 41.35770917 65.66675294 41.40428162 70.4367981 C41.42858308 72.96868528 41.44348673 75.50068435 41.44789124 78.03268433 C41.46317116 79.75069748 41.46317116 79.75069748 41.47875977 81.50341797 C41.48517235 83.009189 41.48517235 83.009189 41.49171448 84.54537964 C41.76461896 87.46911897 42.52812824 89.65641536 43.75 92.3125 C41.34983668 94.71266332 35.28296673 93.54612128 32.0625 93.5625 C31.06798828 93.583125 30.07347656 93.60375 29.04882812 93.625 C23.55068421 93.6542649 19.4426521 93.52966667 14.75 90.3125 C12.875 87.625 12.875 87.625 11.75 85.3125 C11.32589844 85.71082031 10.90179687 86.10914062 10.46484375 86.51953125 C1.93215185 94.22708371 -6.34009062 95.64188777 -17.67578125 95.5234375 C-26.28798532 95.01517628 -32.97438064 92.26852763 -39.25 86.3125 C-45.31203769 78.81471654 -46.05691572 70.64789415 -45.25 61.3125 C-43.74229101 54.62135355 -40.45674156 49.67745141 -34.875 45.75 C-25.54527102 40.28911276 -14.47211246 38.80675981 -3.91088867 37.43896484 C1.10896672 36.74916519 5.25251409 35.70178939 9.75 33.3125 C10.89934913 30.13488771 11.02601681 28.30616051 10.125 25.0625 C8.21646181 22.63345139 6.73169937 22.10761983 3.75 21.3125 C-1.71115077 20.80683789 -5.48268986 21.57571084 -10.25 24.3125 C-11.75284945 26.06119817 -12.99535247 27.82887226 -14.20703125 29.7890625 C-15.25 31.3125 -15.25 31.3125 -17.25 32.3125 C-20.36877202 32.57592328 -23.49632632 32.54398714 -26.625 32.5625 C-27.48867188 32.583125 -28.35234375 32.60375 -29.2421875 32.625 C-35.56668096 32.66404008 -35.56668096 32.66404008 -38.81640625 30.9921875 C-40.25 29.3125 -40.25 29.3125 -40.8125 26.1875 C-39.67169776 18.3286401 -35.50860949 12.74900432 -29.41796875 7.8125 C-20.62272064 1.72713914 -10.5206637 -0.0760949 0 0 Z M-0.0625 54 C-0.95259766 54.24427734 -1.84269531 54.48855469 -2.75976562 54.74023438 C-8.36004299 56.38004872 -12.14274164 58.11939862 -16.25 62.3125 C-17.51030892 65.87101929 -17.57381489 67.4934388 -16.1875 71 C-13.67349499 74.00058662 -11.99477065 75.0869387 -8.25 76.3125 C-1.90328671 76.57049648 2.83465178 75.52565562 7.75 71.3125 C13.52441036 65.22595935 12.88896657 59.26447602 12.75 51.3125 C8.25046234 51.3125 4.23471039 52.74370332 -0.0625 54 Z " fill="#EE463E" transform="translate(896.25,31.6875)"/>
<path d="M0 0 C5.35707721 4.96223288 8.44361987 11.15879647 8.83226013 18.47520447 C8.841772 19.51713455 8.85128387 20.55906464 8.86108398 21.63256836 C8.87457382 22.81737289 8.88806366 24.00217743 8.90196228 25.22288513 C8.91761986 27.13702965 8.91761986 27.13702965 8.93359375 29.08984375 C8.95809702 31.09781196 8.98261153 33.10578011 9.00779057 35.11373997 C9.06848125 40.06166288 9.11925318 45.00967554 9.16430664 49.95776367 C9.18998298 52.73589191 9.22080766 55.51387559 9.25709534 58.29188538 C9.2908896 60.90722062 9.31681807 63.52267179 9.33409119 66.13816833 C9.35073318 67.32612503 9.36737518 68.51408173 9.38452148 69.73803711 C9.39998268 71.30212563 9.39998268 71.30212563 9.41575623 72.89781189 C9.69884187 75.86904283 10.5289786 78.02009148 11.6875 80.75 C11.6875 81.74 11.6875 82.73 11.6875 83.75 C7.81289922 83.89584726 3.93900883 83.98425444 0.0625 84.0625 C-1.03191406 84.10439453 -2.12632813 84.14628906 -3.25390625 84.18945312 C-12.3699606 84.32757516 -12.3699606 84.32757516 -15.9609375 81.35546875 C-17.12496094 80.06576172 -17.12496094 80.06576172 -18.3125 78.75 C-19.3025 77.76 -19.3025 77.76 -20.3125 76.75 C-20.78558594 77.14832031 -21.25867187 77.54664062 -21.74609375 77.95703125 C-31.65007655 85.89180109 -41.89662982 87.07780417 -54.3125 85.75 C-61.91323318 84.09263028 -68.01412487 81.1185926 -72.78125 74.8046875 C-77.55109088 66.98744827 -77.24002811 58.57901762 -76.3125 49.75 C-74.74153914 43.45691561 -70.67025751 39.22838908 -65.3125 35.75 C-58.21837121 31.81622558 -50.48664563 30.74768269 -42.59375 29.47265625 C-35.41350955 28.30119422 -28.36335092 26.52527363 -21.3125 24.75 C-21.27125 23.491875 -21.23 22.23375 -21.1875 20.9375 C-21.16429687 20.22980469 -21.14109375 19.52210937 -21.1171875 18.79296875 C-21.17995538 16.43640281 -21.17995538 16.43640281 -23.3125 13.75 C-28.21697273 12.11517576 -33.19450089 12.25135868 -38.3125 12.75 C-42.39966595 15.00211185 -44.04697534 17.75836131 -46.3125 21.75 C-49.94659798 23.56704899 -54.18587548 23.02040718 -58.1875 23.0625 C-59.09886719 23.09150391 -60.01023437 23.12050781 -60.94921875 23.15039062 C-67.64084064 23.2140737 -67.64084064 23.2140737 -70.94140625 20.93359375 C-72.3125 18.75 -72.3125 18.75 -72.375 15.5 C-69.85236204 6.59657192 -64.1112977 0.22278743 -56.21875 -4.50390625 C-39.53576723 -12.69428366 -14.65648846 -11.82757065 0 0 Z M-30.5 44.5 C-31.44681641 44.75265625 -32.39363281 45.0053125 -33.36914062 45.265625 C-38.70698903 46.75560362 -42.97480913 48.25712945 -47.3125 51.75 C-48.86274464 54.85048928 -48.60242015 57.32894218 -48.3125 60.75 C-46.17570715 64.13939556 -45.1350233 65.47582557 -41.3125 66.75 C-35.33781711 67.35209983 -30.60882363 66.80557132 -25.3125 63.75 C-21.5443189 60.17706144 -19.37988166 56.91429879 -19.21484375 51.61328125 C-19.22644531 50.44152344 -19.23804687 49.26976562 -19.25 48.0625 C-19.25902344 46.88300781 -19.26804687 45.70351562 -19.27734375 44.48828125 C-19.28894531 43.58464844 -19.30054687 42.68101563 -19.3125 41.75 C-22.97017503 41.75 -27.00038311 43.52879211 -30.5 44.5 Z " fill="#489E58" transform="translate(76.3125,42.25)"/>
<path d="M0 0 C1.16208984 0.00322266 2.32417969 0.00644531 3.52148438 0.00976562 C4.67970703 -0.00634766 5.83792969 -0.02246094 7.03125 -0.0390625 C8.14048828 -0.03970703 9.24972656 -0.04035156 10.39257812 -0.04101562 C11.92096313 -0.04548706 11.92096313 -0.04548706 13.48022461 -0.05004883 C16.08398438 0.32226562 16.08398438 0.32226562 17.81152344 1.48999023 C19.47987853 3.89233194 20.25376622 6.21113328 21.13476562 9.00195312 C21.50093994 10.14929932 21.86711426 11.29664551 22.24438477 12.47875977 C22.62457764 13.7058667 23.00477051 14.93297363 23.39648438 16.19726562 C23.7902124 17.44693115 24.18394043 18.69659668 24.58959961 19.98413086 C27.0298245 27.75779592 29.38535948 35.5570963 31.64648438 43.38476562 C31.89760986 44.25149902 32.14873535 45.11823242 32.4074707 46.01123047 C32.63200928 46.80609863 32.85654785 47.6009668 33.08789062 48.41992188 C33.2819751 49.10578369 33.47605957 49.79164551 33.67602539 50.49829102 C34.08398438 52.32226562 34.08398438 52.32226562 34.08398438 55.32226562 C34.74398437 55.32226562 35.40398438 55.32226562 36.08398438 55.32226562 C36.19500488 54.351521 36.30602539 53.38077637 36.42041016 52.38061523 C37.06361583 47.90433864 38.35257577 43.69618654 39.70117188 39.38867188 C39.95899445 38.55190414 40.21681702 37.71513641 40.48245239 36.85301208 C41.02633309 35.09158378 41.57275473 33.33093824 42.12158203 31.57104492 C42.95482188 28.89811837 43.77982649 26.22275824 44.60351562 23.546875 C45.13558371 21.82732412 45.66812047 20.10791818 46.20117188 18.38867188 C46.56696854 17.20393028 46.56696854 17.20393028 46.94015503 15.99525452 C48.49091813 11.03367659 50.09760935 6.12843392 52.08398438 1.32226562 C56.20260728 -0.73704583 61.55757483 0.137373 66.08398438 0.13476562 C67.20289063 0.12251953 68.32179688 0.11027344 69.47460938 0.09765625 C71.075625 0.09475586 71.075625 0.09475586 72.70898438 0.09179688 C73.69125 0.08768799 74.67351562 0.0835791 75.68554688 0.0793457 C78.08398438 0.32226562 78.08398438 0.32226562 80.08398438 2.32226562 C80.79066469 8.63786497 78.86467954 13.77256748 76.75195312 19.66992188 C76.40410767 20.66768143 76.05626221 21.66544098 75.69787598 22.69343567 C74.56683912 25.92789962 73.41993501 29.15644776 72.27148438 32.38476562 C71.49006912 34.60152366 70.70922802 36.81848416 69.92895508 39.03564453 C68.0095947 44.47931089 66.07562349 49.91766661 64.13818359 55.35491943 C62.89346035 58.85855017 61.66307411 62.36706646 60.43486023 65.87651062 C59.44836033 68.68761623 58.45041377 71.49451621 57.44741821 74.29977417 C56.78606058 76.15634708 56.13545887 78.01674036 55.48510742 79.87719727 C55.088479 80.9702417 54.69185059 82.06328613 54.28320312 83.18945312 C53.78566528 84.58333252 53.78566528 84.58333252 53.27807617 86.00537109 C51.86039662 88.75609262 50.81133407 89.86096322 48.08398438 91.32226562 C45.21484375 91.71044922 45.21484375 91.71044922 41.92773438 91.72070312 C40.74050781 91.72457031 39.55328125 91.7284375 38.33007812 91.73242188 C37.09386719 91.72082031 35.85765625 91.70921875 34.58398438 91.69726562 C33.34777344 91.70886719 32.1115625 91.72046875 30.83789062 91.73242188 C29.65066406 91.72855469 28.4634375 91.7246875 27.24023438 91.72070312 C26.15548828 91.71731934 25.07074219 91.71393555 23.953125 91.71044922 C20.64062659 91.26228104 19.52613567 90.55505252 17.08398438 88.32226562 C15.94221497 86.0796814 15.94221497 86.0796814 15.02856445 83.42138672 C14.67752151 82.421185 14.32647858 81.42098328 13.96479797 80.39047241 C13.5980748 79.30319855 13.23135162 78.21592468 12.85351562 77.09570312 C12.45879562 75.96065338 12.06407562 74.82560364 11.65739441 73.65615845 C10.39137528 70.00733879 9.14347435 66.35262706 7.89648438 62.69726562 C6.66838388 59.13647791 5.43658079 55.57698733 4.20431519 52.01763916 C3.38686595 49.6522931 2.57251505 47.285874 1.76126099 44.918396 C-0.27354862 38.9928958 -2.35425011 33.09104726 -4.53564453 27.21777344 C-4.95445389 26.08449615 -5.37326324 24.95121887 -5.80476379 23.78359985 C-6.59844918 21.64646169 -7.40134977 19.5127143 -8.21513367 17.38314819 C-10.14659781 12.17192446 -11.61663221 7.89651437 -10.91601562 2.32226562 C-7.76727524 -0.82647476 -4.29701412 0.02749689 0 0 Z " fill="#EE463E" transform="translate(778.916015625,33.677734375)"/>
<path d="M0 0 C3.04523242 1.31825751 3.67437707 3.27857916 5.12890625 6.20703125 C7.19351653 10.30997366 7.19351653 10.30997366 9.75390625 14.10546875 C11.06640625 15.89453125 11.06640625 15.89453125 11.00390625 18.20703125 C10.02209857 21.02154661 8.69610244 23.43702585 7.1015625 25.953125 C2.54304643 34.50249288 2.70139219 45.8073064 4.7890625 55.1171875 C6.59478664 59.96413126 8.78287696 63.84846597 13.06640625 66.89453125 C17.50663253 68.62546692 21.09749925 69.0398673 25.81640625 68.33203125 C31.88690283 65.64700391 34.68372425 61.54934829 37.23950195 55.6472168 C38.84419255 50.30535484 38.47541689 44.85765086 38.31640625 39.33203125 C38.29835938 38.13255859 38.2803125 36.93308594 38.26171875 35.69726562 C38.21494433 32.76217073 38.14941208 29.82878722 38.06640625 26.89453125 C39.14019531 26.78496094 40.21398437 26.67539063 41.3203125 26.5625 C42.75657405 26.40291538 44.19276858 26.24272683 45.62890625 26.08203125 C46.33337891 26.01177734 47.03785156 25.94152344 47.76367188 25.86914062 C51.42149348 25.44773261 54.44397141 24.84729433 57.78125 23.2578125 C61.23443054 21.82480417 62.58859181 21.73525977 66.06640625 22.89453125 C71.08163944 36.44760189 70.80990699 51.63616973 65.06640625 64.89453125 C59.15576813 77.4883225 49.54410616 84.17778619 36.87890625 89.14453125 C23.22970459 92.78431836 8.66818871 91.61199953 -3.87109375 85.01953125 C-15.54887939 78.0905991 -22.21316575 68.91602926 -25.93359375 55.89453125 C-29.55770835 41.37391208 -26.40440628 26.59266907 -18.93359375 13.89453125 C-15.44842356 8.8161404 -6.82049609 -0.37202706 0 0 Z " fill="#489E58" transform="translate(264.93359375,38.10546875)"/>
<path d="M0 0 C1.30324219 -0.02126953 1.30324219 -0.02126953 2.6328125 -0.04296875 C4.875 0.1875 4.875 0.1875 6.875 2.1875 C7.13378906 4.40234375 7.13378906 4.40234375 7.140625 7.125 C7.14449219 8.59066406 7.14449219 8.59066406 7.1484375 10.0859375 C7.14070312 11.10945313 7.13296875 12.13296875 7.125 13.1875 C7.13660156 14.72277344 7.13660156 14.72277344 7.1484375 16.2890625 C7.14585937 17.26617187 7.14328125 18.24328125 7.140625 19.25 C7.13836914 20.14847656 7.13611328 21.04695313 7.13378906 21.97265625 C6.875 24.1875 6.875 24.1875 4.875 26.1875 C2.84041832 26.47280253 0.79633981 26.6922063 -1.25 26.875 C-7.99580389 27.8440105 -11.9608562 29.75154874 -16.125 35.1875 C-19.23019246 40.58072901 -21.22557168 46.10793195 -21.28271484 52.35766602 C-21.29810806 53.57396446 -21.29810806 53.57396446 -21.31381226 54.81483459 C-21.32111359 55.68160324 -21.32841492 56.54837189 -21.3359375 57.44140625 C-21.36398977 59.28321226 -21.3926541 61.12500903 -21.421875 62.96679688 C-21.46323662 65.86580301 -21.50013242 68.76463349 -21.52636719 71.66381836 C-21.55390229 74.4650405 -21.59975206 77.26548273 -21.6484375 80.06640625 C-21.65169037 80.93519913 -21.65494324 81.803992 -21.65829468 82.69911194 C-21.67486115 83.50682541 -21.69142761 84.31453888 -21.70849609 85.14672852 C-21.71658295 85.85636246 -21.7246698 86.5659964 -21.73300171 87.2971344 C-22.24291111 89.75611246 -23.16649872 90.65827685 -25.125 92.1875 C-29.0945731 92.83007076 -33.10929129 92.65074172 -37.125 92.625 C-38.23101563 92.64498047 -39.33703125 92.66496094 -40.4765625 92.68554688 C-42.06597656 92.68458008 -42.06597656 92.68458008 -43.6875 92.68359375 C-44.65816406 92.68544678 -45.62882813 92.6872998 -46.62890625 92.68920898 C-49.125 92.1875 -49.125 92.1875 -50.75575256 90.65675354 C-52.66342468 87.21652353 -52.5518924 84.0105827 -52.52905273 80.17773438 C-52.53591599 79.37402908 -52.54277924 78.57032379 -52.54985046 77.74226379 C-52.5681362 75.0884123 -52.56427892 72.4351509 -52.55859375 69.78125 C-52.56315435 67.93566699 -52.56845956 66.09008567 -52.57447815 64.24450684 C-52.58341246 60.37761533 -52.58098208 56.51093033 -52.57104492 52.64404297 C-52.5595484 47.68720873 -52.57977544 42.73108614 -52.60896206 37.7743454 C-52.62730125 33.96363799 -52.62703628 30.1531019 -52.62132454 26.34236145 C-52.62117108 24.5147044 -52.6272358 22.68703591 -52.63961601 20.85942078 C-52.65448331 18.3049136 -52.64388162 15.75173115 -52.62670898 13.19726562 C-52.63637695 12.44181961 -52.64604492 11.6863736 -52.65600586 10.90803528 C-52.60682848 7.41709629 -52.38640359 5.52966043 -50.23854065 2.71824646 C-47.7105675 0.88734439 -46.37908073 0.68451819 -43.28125 0.69140625 C-42.36472656 0.69076172 -41.44820312 0.69011719 -40.50390625 0.68945312 C-39.55386719 0.70943359 -38.60382812 0.72941406 -37.625 0.75 C-36.67496094 0.74291016 -35.72492187 0.73582031 -34.74609375 0.72851562 C-26.79642739 0.8011919 -26.79642739 0.8011919 -23.125 4.1875 C-22.3210452 6.88280999 -22.31080498 9.35397402 -22.125 12.1875 C-21.59712891 11.49914062 -21.59712891 11.49914062 -21.05859375 10.796875 C-15.32179781 3.66707117 -9.28289235 0.06927532 0 0 Z " fill="#EE463E" transform="translate(759.125,32.8125)"/>
<path d="M0 0 C1.77057283 2.32162982 1.73207723 3.69814228 1.72192383 6.59790039 C1.7212793 7.52666992 1.72063477 8.45543945 1.7199707 9.41235352 C1.70385742 10.37979492 1.68774414 11.34723633 1.67114258 12.34399414 C1.67436523 13.31530273 1.67758789 14.28661133 1.6809082 15.28735352 C1.62566267 22.51447405 1.62566267 22.51447405 -0.64135742 24.78149414 C-2.54649431 25.14084631 -4.46686938 25.42191724 -6.39135742 25.65649414 C-12.65978794 26.62375196 -16.26178069 28.40191741 -20.76635742 32.90649414 C-27.84422717 43.75922775 -27.24105174 54.67897357 -27.26635742 67.21899414 C-27.28271505 70.11694061 -27.30470976 73.01456587 -27.33798218 75.91236877 C-27.35758188 77.70634136 -27.36695032 79.50046193 -27.36489868 81.29454041 C-27.37533707 82.50709251 -27.37533707 82.50709251 -27.38598633 83.74414062 C-27.38724518 84.45344223 -27.38850403 85.16274384 -27.38980103 85.89353943 C-27.64135742 87.78149414 -27.64135742 87.78149414 -29.64135742 90.78149414 C-32.22338867 91.16967773 -32.22338867 91.16967773 -35.45385742 91.17993164 C-37.19022461 91.18573242 -37.19022461 91.18573242 -38.96166992 91.19165039 C-40.1759668 91.18004883 -41.39026367 91.16844727 -42.64135742 91.15649414 C-43.8556543 91.1680957 -45.06995117 91.17969727 -46.32104492 91.19165039 C-47.47862305 91.1877832 -48.63620117 91.18391602 -49.82885742 91.17993164 C-50.89491211 91.17654785 -51.9609668 91.17316406 -53.05932617 91.16967773 C-54.33743164 90.97752686 -54.33743164 90.97752686 -55.64135742 90.78149414 C-58.1393174 87.03455417 -57.9229515 84.11479603 -57.90014648 79.77758789 C-57.90365112 78.96266876 -57.90715576 78.14774963 -57.9107666 77.30813599 C-57.91957641 74.61166898 -57.91373743 71.91546387 -57.90698242 69.21899414 C-57.90832929 67.34716746 -57.91027 65.47534111 -57.91278076 63.60351562 C-57.91573101 59.6794095 -57.91143757 55.75539438 -57.90209961 51.83129883 C-57.89070514 46.79718278 -57.89726514 41.76327998 -57.90924454 36.72917175 C-57.91646581 32.86363107 -57.91417397 28.99814108 -57.90898895 25.13259888 C-57.9076532 23.27621434 -57.90929759 21.41982523 -57.91394806 19.56344604 C-57.91901766 16.97063983 -57.91129699 14.37818071 -57.90014648 11.78540039 C-57.90419495 11.01543732 -57.90824341 10.24547424 -57.91241455 9.45217896 C-57.88234657 5.68503681 -57.78468919 3.99649179 -55.64135742 0.78149414 C-53.13525391 0.42504883 -53.13525391 0.42504883 -50.01245117 0.45336914 C-48.89547852 0.45852539 -47.77850586 0.46368164 -46.62768555 0.46899414 C-45.45657227 0.48961914 -44.28545898 0.51024414 -43.07885742 0.53149414 C-41.31638672 0.53922852 -41.31638672 0.53922852 -39.51831055 0.54711914 C-30.79510196 0.62774961 -30.79510196 0.62774961 -29.64135742 1.78149414 C-29.40848734 3.46333362 -29.22871576 5.15273574 -29.07885742 6.84399414 C-28.95317383 8.22264648 -28.95317383 8.22264648 -28.82495117 9.62915039 C-28.76436523 10.33942383 -28.7037793 11.04969727 -28.64135742 11.78149414 C-28.2778418 11.32258789 -27.91432617 10.86368164 -27.53979492 10.39086914 C-22.23421905 3.91534576 -8.87307952 -6.5871694 0 0 Z " fill="#489E58" transform="translate(240.641357421875,35.218505859375)"/>
<path d="M0 0 C0.95455078 -0.01224609 1.90910156 -0.02449219 2.89257812 -0.03710938 C3.81361328 -0.03904297 4.73464844 -0.04097656 5.68359375 -0.04296875 C6.5233374 -0.04707764 7.36308105 -0.05118652 8.22827148 -0.05541992 C10.81625131 0.21390755 12.4006601 0.74457171 14.5625 2.1875 C15.79615821 5.88847462 15.71802478 9.32069945 15.72363281 13.17553711 C15.72859772 13.98884995 15.73356262 14.80216278 15.73867798 15.64012146 C15.75328823 18.33170414 15.760099 21.02322792 15.765625 23.71484375 C15.77137651 25.58427431 15.77713424 27.45370485 15.78289795 29.32313538 C15.79340409 33.24301427 15.79924958 37.16287268 15.80273438 41.08276367 C15.80822439 46.10785781 15.83226485 51.13268171 15.86070633 56.157691 C15.87931857 60.01897477 15.88453751 63.88019318 15.88607025 67.74151802 C15.8890995 69.59429976 15.89713717 71.44708027 15.91025543 73.29981804 C15.92728971 75.89011173 15.92544245 78.47974155 15.91894531 81.07006836 C15.9281601 81.83643616 15.93737488 82.60280396 15.9468689 83.39239502 C15.92173838 86.58699316 15.75481757 88.83750894 14.20196533 91.66348267 C11.82459847 93.87343992 10.11112686 93.68945882 6.90625 93.68359375 C5.80152344 93.68423828 4.69679688 93.68488281 3.55859375 93.68554688 C2.40488281 93.66556641 1.25117188 93.64558594 0.0625 93.625 C-1.09121094 93.63208984 -2.24492187 93.63917969 -3.43359375 93.64648438 C-11.79806736 93.58304321 -11.79806736 93.58304321 -14.07597351 92.17396545 C-16.22986599 89.03143901 -15.84546225 85.67806348 -15.80981445 82 C-15.81529045 80.7483606 -15.81529045 80.7483606 -15.82087708 79.47143555 C-15.82899098 76.70991743 -15.81536559 73.94898456 -15.80078125 71.1875 C-15.80026274 69.27083334 -15.80078008 67.35416614 -15.80229187 65.4375 C-15.80220211 61.41919015 -15.79176474 57.40108077 -15.77368164 53.3828125 C-15.75099438 48.22761621 -15.75044997 43.07271294 -15.75719929 37.91748047 C-15.76053803 33.95928332 -15.75391095 30.00115319 -15.74407005 26.04296875 C-15.74021614 24.14193065 -15.73907063 22.2408851 -15.7406559 20.33984375 C-15.74102605 17.68475091 -15.72842052 15.03003615 -15.7121582 12.375 C-15.71463562 11.58633545 -15.71711304 10.7976709 -15.71966553 9.98510742 C-15.68245091 6.18524888 -15.5973156 4.42722339 -13.4375 1.1875 C-8.99726774 -0.29257742 -4.65074702 0.0031276 0 0 Z " fill="#EE463E" transform="translate(497.4375,35.8125)"/>
<path d="M0 0 C6.92512437 0.14734307 11.18912547 3.12789615 16 8 C18.27849262 11.20443324 20.15242154 14.53503318 22 18 C22.66 18.99 23.32 19.98 24 21 C25.19882812 20.566875 25.19882812 20.566875 26.421875 20.125 C38.75424792 15.95631056 49.47705226 15.41954084 61.36328125 21.13671875 C64.45742624 22.87889275 66.54601705 24.23648322 68.375 27.3125 C67.48787569 33.67022421 61.72504161 38.77271607 56.9296875 42.68359375 C47.47279921 49.13495276 37.12466109 50.04011059 26 49 C23.79571138 47.95994833 22.45645182 46.8791277 20.69921875 45.21875 C18.36795865 43.54667379 16.32995012 43.46108045 13.5 43.125 C8.4327205 42.36038992 5.75755143 40.996575 2.4375 37.0859375 C-3.8035877 28.02957654 -3.91155356 18.63479151 -3 8 C-2.28210323 4.98483356 -1.41418604 2.76944767 0 0 Z " fill="#B1D082" transform="translate(273,12)"/>
<path d="M0 0 C1.10472656 -0.00515625 2.20945312 -0.0103125 3.34765625 -0.015625 C4.50136719 -0.00015625 5.65507812 0.0153125 6.84375 0.03125 C7.99746094 0.01578125 9.15117187 0.0003125 10.33984375 -0.015625 C11.44457031 -0.01046875 12.54929687 -0.0053125 13.6875 0 C15.20633789 0.00676758 15.20633789 0.00676758 16.75585938 0.01367188 C19.34375 0.53125 19.34375 0.53125 21.17236328 2.31640625 C22.99230324 5.75752657 22.77674005 9.23612308 22.71875 13.03125 C22.73035156 13.79050781 22.74195313 14.54976562 22.75390625 15.33203125 C22.73752214 18.45047359 22.64593009 20.95989157 21.17236328 23.74609375 C18.6696885 26.18929241 17.14687015 26.04708587 13.6875 26.0625 C12.58277344 26.06765625 11.47804688 26.0728125 10.33984375 26.078125 C9.18613281 26.06265625 8.03242188 26.0471875 6.84375 26.03125 C5.69003906 26.04671875 4.53632813 26.0621875 3.34765625 26.078125 C2.24292969 26.07296875 1.13820313 26.0678125 0 26.0625 C-1.51883789 26.05573242 -1.51883789 26.05573242 -3.06835938 26.04882812 C-5.65625 25.53125 -5.65625 25.53125 -7.48486328 23.74609375 C-9.30480324 20.30497343 -9.08924005 16.82637692 -9.03125 13.03125 C-9.04285156 12.27199219 -9.05445313 11.51273438 -9.06640625 10.73046875 C-9.05002214 7.61202641 -8.95843009 5.10260843 -7.48486328 2.31640625 C-4.9821885 -0.12679241 -3.45937015 0.01541413 0 0 Z " fill="#EE463E" transform="translate(490.65625,-0.53125)"/>
</svg>
