<?xml version="1.0" encoding="UTF-8"?>
<svg version="1.1" xmlns="http://www.w3.org/2000/svg" width="1080" height="1080">
<path d="M0 0 C0.96928185 -0.01073296 0.96928185 -0.01073296 1.95814514 -0.02168274 C4.0828538 -0.03851861 6.20543675 -0.01920191 8.33007812 0.00219727 C9.81311212 0.00136807 11.29614602 -0.00109322 12.7791748 -0.00511169 C15.88285076 -0.00796614 18.98580365 0.00669542 22.08935547 0.03417969 C26.06084262 0.06826316 30.03103733 0.06224164 34.00258636 0.04351711 C37.06364651 0.03293103 40.12440769 0.04189927 43.18544006 0.05690193 C44.64941011 0.06207249 46.11341152 0.06161561 47.57737732 0.05535698 C49.62648262 0.04988475 51.67375955 0.07033848 53.72265625 0.09765625 C54.88671997 0.10385483 56.05078369 0.11005341 57.25012207 0.11643982 C61.13564248 0.75919259 62.683244 1.75273185 65.36132812 4.63110352 C66.75398254 7.84716797 66.75398254 7.84716797 67.8371582 11.68188477 C68.04013173 12.38243484 68.24310526 13.08298492 68.4522295 13.80476379 C69.10557117 16.07576174 69.73369297 18.35288212 70.36132812 20.63110352 C70.78996621 22.13722407 71.22009599 23.64292088 71.65170288 25.14819336 C73.04422202 30.03091165 74.3977963 34.92405668 75.74804688 39.81860352 C76.25493894 41.65049729 76.76192468 43.48236515 77.26899719 45.31420898 C78.32892476 49.14604701 79.38670552 52.97847001 80.44311523 56.8112793 C81.50118433 60.64915893 82.56266944 64.48606391 83.62768555 68.32202148 C90.94064968 94.66365758 97.87341706 121.07389347 104.36132812 147.63110352 C104.56659874 146.79217308 104.56659874 146.79217308 104.77601624 145.93629456 C112.86426047 112.95081334 121.57249516 80.17186285 130.83506393 47.4973259 C131.61180145 44.75443205 132.38569195 42.01074828 133.15896606 39.26687622 C134.38702035 34.912408 135.62342245 30.56039632 136.8666935 26.21024895 C137.32726647 24.59548823 137.78556498 22.98007682 138.24144554 21.36398506 C138.86975189 19.13990717 139.50731432 16.91869237 140.14746094 14.69799805 C140.50414856 13.44810089 140.86083618 12.19820374 141.22833252 10.91043091 C142.84412167 6.23371231 144.2107893 3.3981294 148.36132812 0.63110352 C151.23202515 0.3704071 151.23202515 0.3704071 154.77294922 0.35644531 C155.74179298 0.34877892 155.74179298 0.34877892 156.73020935 0.34095764 C158.86515576 0.3270593 160.99977935 0.32801878 163.13476562 0.33032227 C164.62065755 0.32643491 166.10654837 0.32210016 167.59243774 0.31733704 C170.70782064 0.30987392 173.82309022 0.31016632 176.93847656 0.31542969 C180.92548582 0.32121871 184.91202968 0.30430794 188.89896202 0.28108501 C191.96852316 0.26633121 195.03797271 0.26547829 198.10756302 0.26859474 C199.57713364 0.26808216 201.04671061 0.26285629 202.5162468 0.25278282 C204.57477504 0.24040583 206.63240345 0.24721693 208.69091797 0.25878906 C209.8610141 0.25815964 211.03111023 0.25753021 212.23666382 0.25688171 C215.69925778 0.67157527 217.58374209 1.55758321 220.36132812 3.63110352 C221.99302347 6.8944942 221.5092903 10.49625833 221.50849915 14.08285522 C221.51217583 14.96787267 221.51585252 15.85289012 221.51964062 16.76472628 C221.53070641 19.74802316 221.53452617 22.73128525 221.53833008 25.71459961 C221.54459244 27.84630953 221.55123904 29.97801834 221.5582428 32.10972595 C221.57567134 37.91340621 221.58620917 43.71707822 221.59444833 49.52077818 C221.59959353 53.14338672 221.60566941 56.76599268 221.61195946 60.3885994 C221.63101492 71.7133807 221.64524647 83.03815547 221.65357143 94.36294973 C221.66335242 107.45366332 221.68969305 120.5442082 221.73007232 133.6348623 C221.76018323 143.74188935 221.77503544 153.84886789 221.77835244 163.95593894 C221.78070828 169.99796818 221.78973816 176.03981726 221.81481361 182.08179855 C221.83801209 187.76333609 221.84236076 193.44457379 221.83205223 199.12614632 C221.83155478 201.21435223 221.83793627 203.3025725 221.85160828 205.39073372 C221.86919876 208.23598133 221.86228465 211.0801378 221.84907532 213.92538452 C221.86004456 214.7567047 221.87101381 215.58802487 221.88231546 216.44453657 C221.84134604 220.08569711 221.70836935 222.17913436 219.45584393 225.11271095 C215.28139196 228.13892676 211.55110816 227.79254945 206.55664062 227.79907227 C205.24335281 227.80406487 205.24335281 227.80406487 203.90353394 227.80915833 C202.04913865 227.81422622 200.19473423 227.81656669 198.34033203 227.81640625 C195.50472943 227.81858935 192.66951792 227.83673704 189.83398438 227.85571289 C188.03320446 227.85864752 186.23242269 227.86063185 184.43164062 227.86157227 C183.5836087 227.86875778 182.73557678 227.8759433 181.86184692 227.88334656 C181.06777435 227.88026993 180.27370178 227.8771933 179.45556641 227.87402344 C178.75988556 227.87544846 178.06420471 227.87687347 177.34744263 227.87834167 C174.9510997 227.58003691 173.4048102 226.91278821 171.36132812 225.63110352 C169.0420679 222.15221318 169.1137726 220.83219509 169.12081909 216.72761536 C169.1166951 214.87872963 169.1166951 214.87872963 169.11248779 212.99249268 C169.11956606 211.62438868 169.12683568 210.25628566 169.13427734 208.88818359 C169.13484141 207.44933581 169.13452498 206.01048746 169.13339233 204.57164001 C169.13281765 200.66280115 169.1445906 196.75408461 169.15854025 192.84527421 C169.17102839 188.76133227 169.17221659 184.67738765 169.17459106 180.59342957 C169.18081148 172.85865512 169.19722987 165.1239371 169.21729004 157.38918751 C169.2396316 148.58397297 169.25063808 139.77875575 169.26068091 130.97351992 C169.28159562 112.85934911 169.31678249 94.74523085 169.36132812 76.63110352 C169.11665802 77.60207474 168.87198792 78.57304596 168.61990356 79.57344055 C162.39264237 104.24460037 155.81531786 128.79963852 148.94262695 153.29833984 C147.75707028 157.52872404 146.57719334 161.76069244 145.39648438 165.99243164 C143.35975912 173.28950016 141.31259922 180.58357668 139.25829697 187.87571526 C138.01975052 192.27603445 136.79229075 196.67921311 135.5761776 201.08578396 C135.02255031 203.08842008 134.46520476 205.08997715 133.90628052 207.09114075 C133.23605587 209.49234354 132.57209856 211.89530846 131.91574097 214.30033875 C131.62079742 215.34962051 131.32585388 216.39890228 131.02197266 217.47998047 C130.64662888 218.83758232 130.64662888 218.83758232 130.26370239 220.22261047 C129.29071378 222.81957759 128.22568035 224.58211234 126.36132812 226.63110352 C122.47751747 227.92570707 118.76346779 227.83298005 114.71289062 227.86938477 C113.86334808 227.87745651 113.01380554 227.88552826 112.13851929 227.8938446 C110.3413903 227.90766899 108.54423524 227.9183985 106.74707031 227.92626953 C104.00339967 227.94349633 101.26093005 227.98739752 98.51757812 228.03149414 C96.77019114 228.04162041 95.02279393 228.05013672 93.27539062 228.05688477 C92.04860092 228.0831469 92.04860092 228.0831469 90.79702759 228.10993958 C89.64090469 228.10555122 89.64090469 228.10555122 88.46142578 228.10107422 C87.78874664 228.10694046 87.1160675 228.1128067 86.42300415 228.11885071 C83.26254399 227.37115536 81.64773856 225.91035803 79.36132812 223.63110352 C78.07012939 220.66433716 78.07012939 220.66433716 77.11621094 217.13549805 C76.93489876 216.48530071 76.75358658 215.83510338 76.56678009 215.16520309 C75.96567216 212.99404727 75.39034398 210.81688405 74.81445312 208.63891602 C74.38781795 207.07961395 73.95940803 205.52079655 73.52935791 203.96243286 C72.60740622 200.61175626 71.69560329 197.25853743 70.79077148 193.90319824 C69.35661045 188.59575447 67.88368897 183.29956784 66.40234375 178.00512695 C63.81173865 168.73937646 61.24293717 159.46776389 58.68261719 150.19360352 C57.36693114 145.42834031 56.04587364 140.66458324 54.723629 135.9011364 C53.67736633 132.12823354 52.63498729 128.35426502 51.59357452 124.5800209 C51.10870634 122.82516409 50.62251554 121.07067197 50.134758 119.31661606 C46.20257086 105.16741562 42.72027635 90.9266445 39.36132812 76.63110352 C39.3650153 77.37378573 39.36870247 78.11646795 39.37250137 78.88165569 C39.46082942 96.95072813 39.52702652 115.0197575 39.56857681 133.08899975 C39.5892042 141.82715291 39.61732809 150.56516198 39.66308594 159.30322266 C39.70294839 166.91911026 39.72875966 174.53489351 39.7376821 182.15088254 C39.74289789 186.18373456 39.75516027 190.21628805 39.78424835 194.24904442 C39.8114083 198.04525936 39.81977208 201.84105293 39.81375885 205.6373558 C39.81485884 207.03014097 39.82280971 208.42294029 39.83815002 209.8156414 C39.85808254 211.71868046 39.85087534 213.62194586 39.84234619 215.52507019 C39.84603336 216.58974109 39.84972054 217.65441198 39.85351944 218.75134563 C39.23795083 222.35297066 37.86718951 224.022449 35.36132812 226.63110352 C32.07400445 228.27476536 28.42478592 227.81565683 24.81054688 227.83422852 C23.95958939 227.83992859 23.1086319 227.84562866 22.23188782 227.85150146 C20.42877447 227.86095649 18.6256438 227.86748744 16.82250977 227.87133789 C14.07016615 227.88102839 11.31857404 227.91204026 8.56640625 227.94360352 C6.81445756 227.95013514 5.06250353 227.95538499 3.31054688 227.95922852 C2.48955002 227.97157532 1.66855316 227.98392212 0.82267761 227.99664307 C-3.81954671 227.97864281 -6.86911283 227.65042613 -10.63867188 224.63110352 C-12.26945963 221.36952801 -11.79043534 217.77084763 -11.79257202 214.18608093 C-11.7991454 212.85961311 -11.7991454 212.85961311 -11.80585158 211.50634795 C-11.81927015 208.52538873 -11.82542526 205.54445909 -11.83154297 202.56347656 C-11.83944145 200.43338893 -11.84771024 198.30330264 -11.85632324 196.17321777 C-11.88257005 189.16309899 -11.8978523 182.15297414 -11.91210938 175.14282227 C-11.91746773 172.73273019 -11.92284523 170.32263815 -11.92824173 167.91254616 C-11.94987325 157.89038327 -11.96861161 147.86822201 -11.97986412 137.84604168 C-11.99611388 123.4659685 -12.0293137 109.08616509 -12.08626497 94.70619363 C-12.1249144 84.60424785 -12.14449082 74.50237438 -12.14978468 64.40035659 C-12.15344463 58.36216146 -12.16553455 52.32425387 -12.19788742 46.28613853 C-12.22788037 40.60701494 -12.23431112 34.92835421 -12.22250366 29.2491684 C-12.2222822 27.16298768 -12.2306469 25.07678603 -12.2481575 22.99067879 C-12.27074205 20.14558264 -12.26260404 17.30218014 -12.24667358 14.45707703 C-12.26055567 13.62866969 -12.27443776 12.80026236 -12.28874052 11.94675177 C-12.22994526 7.69436789 -11.99743225 6.0922484 -9.29512215 2.61874199 C-5.96940432 0.13033678 -4.12770609 0.00341035 0 0 Z " fill="#F4EFE9" transform="translate(27.638671875,504.368896484375)"/>
<path d="M0 0 C9.24655963 7.49311927 9.24655963 7.49311927 11 11 C11.02578125 10.25234375 11.0515625 9.5046875 11.078125 8.734375 C11.16320312 7.25710938 11.16320312 7.25710938 11.25 5.75 C11.29640625 4.77546875 11.3428125 3.8009375 11.390625 2.796875 C12.17913822 -0.8221985 13.00635831 -1.80544985 16 -4 C19.06968524 -4.60930006 22.09695797 -4.58433482 25.21875 -4.56640625 C26.56108704 -4.57570412 26.56108704 -4.57570412 27.93054199 -4.58518982 C29.8200573 -4.59228467 31.70963517 -4.58911979 33.59912109 -4.57641602 C36.4904269 -4.56254592 39.37849861 -4.5966286 42.26953125 -4.63476562 C44.10677163 -4.63571681 45.94401605 -4.63385806 47.78125 -4.62890625 C48.64488159 -4.64216446 49.50851318 -4.65542267 50.39831543 -4.66908264 C51.60977234 -4.65028297 51.60977234 -4.65028297 52.84570312 -4.63110352 C53.55311646 -4.63014175 54.26052979 -4.62917999 54.98937988 -4.62818909 C58.13080844 -3.64669531 59.19471405 -1.68317005 61 1 C61.49777794 3.80941677 61.49777794 3.80941677 61.49447632 6.93589783 C61.5028653 8.12576294 61.51125427 9.31562805 61.51989746 10.54154968 C61.50865845 11.83873428 61.49741943 13.13591888 61.48583984 14.47241211 C61.48798706 15.85928709 61.49186676 17.2461603 61.49734497 18.63302612 C61.50703143 22.39612429 61.49173754 26.15874723 61.47143888 29.92178798 C61.45382662 33.87237778 61.45739399 37.82295377 61.4581604 41.77357483 C61.45628725 48.41724547 61.43893321 55.06073348 61.41162109 61.7043457 C61.38028659 69.35397592 61.36962098 77.00340539 61.3710922 84.65309519 C61.37245131 92.82690786 61.35851059 101.00064443 61.34019899 109.17443395 C61.3359638 111.51282183 61.33452032 113.85119719 61.33372116 116.18958855 C61.33168813 119.89064938 61.31928588 123.59154647 61.29938889 127.29255295 C61.29090592 129.27458261 61.2918693 131.25664592 61.29327393 133.23869324 C61.16634255 151.32229254 58.470248 169.38048995 47 184 C46.34 184.33 45.68 184.66 45 185 C43.05975275 183.88654551 41.17277161 182.67996923 39.3125 181.4375 C27.43506741 173.83567664 14.65614779 170.05065062 1 167 C1.40992188 166.41992188 1.81984375 165.83984375 2.2421875 165.2421875 C2.78101563 164.46101562 3.31984375 163.67984375 3.875 162.875 C4.40867187 162.10929688 4.94234375 161.34359375 5.4921875 160.5546875 C9.44162591 153.86315195 9.24610715 147.68953899 9.125 140.125 C9.11597656 139.05507813 9.10695313 137.98515625 9.09765625 136.8828125 C9.07419342 134.25497561 9.04136459 131.62760594 9 129 C8.53674316 129.4741333 8.07348633 129.9482666 7.59619141 130.43676758 C6.97921387 131.06220459 6.36223633 131.6876416 5.7265625 132.33203125 C5.11893066 132.95053955 4.51129883 133.56904785 3.88525391 134.20629883 C-5.93299517 143.5477487 -19.85346555 146.11394613 -33 146 C-53.02570725 144.83547289 -69.49896847 136.57142456 -82.97265625 121.84375 C-98.67239641 102.79703226 -100.77869488 78.28848586 -98.79785156 54.58056641 C-96.25351127 34.31705628 -86.53468989 16.20240401 -71 3 C-51.06714632 -11.37516794 -20.71546361 -14.60424515 0 0 Z M-42 41 C-47.61694015 49.62357478 -49.39444788 58.61959935 -49.375 68.75 C-49.37338867 69.62672363 -49.37177734 70.50344727 -49.37011719 71.40673828 C-49.17537997 81.76026726 -46.67140771 91.26654187 -39.21484375 98.8046875 C-31.44994048 106.01602348 -25.44998231 107.72006635 -14.86328125 107.46875 C-6.79140439 106.48935139 -0.30468136 103.0450637 5 96.875 C12.14086413 86.42495493 14.0863116 73.62816345 12.5234375 61.21484375 C10.61941194 51.43317399 7.54216823 42.8128157 0 36 C-14.22786402 26.42402891 -30.56918351 27.88230574 -42 41 Z " fill="#F4EFE9" transform="translate(574,390)"/>
<path d="M0 0 C13.1776201 13.6149305 16.15523919 32.65432694 16.17675781 50.78027344 C16.18172272 51.79768112 16.18668762 52.81508881 16.19180298 53.86332703 C16.20630504 57.19925633 16.21320316 60.53513823 16.21875 63.87109375 C16.22450717 66.20037842 16.23026483 68.52966309 16.23602295 70.85894775 C16.24649593 75.72741922 16.25236415 80.59587434 16.25585938 85.46435547 C16.26136514 91.70432207 16.28545303 97.94407279 16.31383133 104.18397141 C16.33243531 108.98804363 16.33766191 113.79206331 16.33919525 118.59616852 C16.34222259 120.89748578 16.35025381 123.1988021 16.36338043 125.50008392 C16.38040891 128.71213962 16.37856943 131.92365984 16.37207031 135.13574219 C16.3812851 136.08545395 16.39049988 137.03516571 16.3999939 138.01365662 C16.36913885 142.87449768 16.26581497 146.3033509 13.015625 150.19921875 C9.99163962 152.215209 9.38401998 152.4531363 5.99072266 152.48974609 C5.18623688 152.5025058 4.3817511 152.5152655 3.55288696 152.52841187 C2.25440323 152.53175034 2.25440323 152.53175034 0.9296875 152.53515625 C0.03575287 152.54181305 -0.85818176 152.54846985 -1.77920532 152.55532837 C-3.67049095 152.56545344 -5.5618123 152.57014543 -7.453125 152.56982422 C-10.34174766 152.5741921 -13.22883576 152.6104977 -16.1171875 152.6484375 C-17.95572395 152.65430681 -19.79426765 152.65827544 -21.6328125 152.66015625 C-22.49441986 152.67452728 -23.35602722 152.68889832 -24.2437439 152.70370483 C-28.35314663 152.6725177 -30.45156516 152.53488292 -34.00634766 150.29541016 C-37.76815364 146.30888014 -37.13595426 142.4242524 -37.14208984 137.21069336 C-37.14717056 136.2787616 -37.15225128 135.34682983 -37.15748596 134.38665771 C-37.16820538 132.35739527 -37.17681937 130.32812089 -37.18360519 128.29884148 C-37.19538166 125.082674 -37.21483387 121.86664157 -37.23672485 118.65052795 C-37.29836507 109.50412524 -37.35229456 100.35773424 -37.38574219 91.21118164 C-37.40674181 85.61962436 -37.44209425 80.02830976 -37.48649979 74.43689156 C-37.50062524 72.30917795 -37.50937439 70.18142137 -37.51255417 68.05366325 C-37.51748812 65.06668796 -37.54071246 62.08035054 -37.56787109 59.09350586 C-37.56486496 58.2219838 -37.56185883 57.35046173 -37.5587616 56.45252991 C-37.6705329 48.13335585 -39.52598787 40.78015806 -45.328125 34.63671875 C-50.54515703 30.10872868 -57.27703097 29.0588558 -63.984375 29.19921875 C-71.47809461 30.26489143 -77.12552961 33.39019915 -81.984375 39.19921875 C-86.71811742 46.85327987 -88.13099104 53.09584756 -88.14208984 62.01928711 C-88.14717056 62.90916824 -88.15225128 63.79904938 -88.15748596 64.71589661 C-88.1681772 66.64636696 -88.17680226 68.5768496 -88.18360519 70.50733757 C-88.19540473 73.56294588 -88.21485937 76.61841354 -88.23672485 79.67396545 C-88.29831297 88.36096526 -88.35241982 97.04794952 -88.38574219 105.73510742 C-88.40667828 111.0501543 -88.44197002 116.36494272 -88.48649979 121.679842 C-88.50066496 123.70479861 -88.50938339 125.72980093 -88.51255417 127.75480461 C-88.51745882 130.58673063 -88.5406044 133.41796934 -88.56787109 136.24975586 C-88.56486496 137.08576324 -88.56185883 137.92177063 -88.5587616 138.78311157 C-88.62483833 143.40065433 -88.97807874 146.46157245 -91.984375 150.19921875 C-95.00836038 152.215209 -95.61598002 152.4531363 -99.00927734 152.48974609 C-99.81376312 152.5025058 -100.6182489 152.5152655 -101.44711304 152.52841187 C-102.31276886 152.53063751 -103.17842468 152.53286316 -104.0703125 152.53515625 C-104.96424713 152.54181305 -105.85818176 152.54846985 -106.77920532 152.55532837 C-108.67049095 152.56545344 -110.5618123 152.57014543 -112.453125 152.56982422 C-115.34174766 152.5741921 -118.22883576 152.6104977 -121.1171875 152.6484375 C-122.95572395 152.65430681 -124.79426765 152.65827544 -126.6328125 152.66015625 C-127.49441986 152.67452728 -128.35602722 152.68889832 -129.2437439 152.70370483 C-133.35314663 152.6725177 -135.45156516 152.53488292 -139.00634766 150.29541016 C-142.21317575 146.89701148 -142.11380145 144.84883118 -142.13154602 140.2598114 C-142.13870132 138.99375061 -142.14585663 137.72768982 -142.15322876 136.42326355 C-142.15606915 135.01223779 -142.15878087 133.60121177 -142.16137695 132.19018555 C-142.16764055 130.71033569 -142.17428726 129.23048741 -142.18128967 127.75064087 C-142.19870853 123.72369799 -142.20925376 119.69676698 -142.2174952 115.66979575 C-142.22264332 113.15475301 -142.22871913 110.63971397 -142.23500633 108.12467384 C-142.2540606 100.25819473 -142.26829142 92.39172501 -142.2766183 84.52522725 C-142.28639363 75.439976 -142.31271973 66.3549682 -142.35311919 57.26980275 C-142.3832623 50.25063197 -142.39808544 43.23153104 -142.40139931 36.21229678 C-142.40375181 32.01852903 -142.41273789 27.82502128 -142.43786049 23.63132286 C-142.46111496 19.68568437 -142.46538526 15.74047757 -142.45509911 11.79478836 C-142.45460299 10.34718326 -142.46094573 8.8995571 -142.47465515 7.45201683 C-142.49233389 5.47461574 -142.4828957 3.49702779 -142.47212219 1.51957703 C-142.47451055 0.4132577 -142.4768989 -0.69306162 -142.47935963 -1.83290577 C-141.86872289 -5.49421904 -140.53829155 -7.15789981 -137.984375 -9.80078125 C-134.6976012 -11.44416815 -131.04809206 -11.00677978 -127.43359375 -11.0390625 C-126.58263626 -11.04713425 -125.73167877 -11.05520599 -124.85493469 -11.06352234 C-123.05182941 -11.07736419 -121.24869791 -11.0880859 -119.44555664 -11.09594727 C-116.69301433 -11.11314914 -113.94167662 -11.15703174 -111.18945312 -11.20117188 C-109.43750883 -11.21129988 -107.68555433 -11.21981565 -105.93359375 -11.2265625 C-105.11259689 -11.24407059 -104.29160004 -11.26157867 -103.44572449 -11.27961731 C-99.46841624 -11.26458341 -97.45492824 -11.08955335 -93.98754883 -8.96166992 C-90.65848619 -5.37050193 -90.7490259 -1.83360136 -90.421875 2.88671875 C-90.33808594 4.06621094 -90.25429688 5.24570312 -90.16796875 6.4609375 C-90.10738281 7.36457031 -90.04679687 8.26820313 -89.984375 9.19921875 C-89.58347656 8.71453125 -89.18257813 8.22984375 -88.76953125 7.73046875 C-77.95813813 -5.01765919 -66.29123523 -13.19897471 -49.484375 -15.48828125 C-30.50206162 -17.02895906 -14.35672177 -13.02844239 0 0 Z " fill="#F4EFE9" transform="translate(459.984375,579.80078125)"/>
<path d="M0 0 C19.55090308 18.52015819 29.06843678 43.13272176 29.796875 69.92578125 C29.9519354 76.4124748 29.9519354 76.4124748 27.42634583 79.35540771 C22.85363817 82.01529383 18.83251818 81.70389301 13.6315918 81.62988281 C12.5579689 81.63046692 11.48434601 81.63105103 10.37818909 81.63165283 C6.83382704 81.62886885 3.29030867 81.59776051 -0.25390625 81.56640625 C-2.71298259 81.55894502 -5.17206488 81.55325153 -7.63114929 81.54925537 C-14.10035648 81.53398996 -20.5692039 81.49469964 -27.03826904 81.45043945 C-33.64069756 81.40950673 -40.24318427 81.39124858 -46.84570312 81.37109375 C-59.79833049 81.32820685 -72.7507086 81.26071394 -85.703125 81.17578125 C-85.23449152 83.10637349 -84.76208913 85.03605115 -84.28808594 86.96533203 C-84.02541931 88.0400174 -83.76275269 89.11470276 -83.49212646 90.22195435 C-81.32075966 98.35101618 -76.95078543 105.70903228 -69.703125 110.17578125 C-60.86831948 114.93889379 -50.56473187 116.63916436 -40.7890625 113.95703125 C-35.06899441 111.81468365 -31.19300741 108.96706249 -27.58276367 104.05371094 C-24.86992661 100.90882762 -23.18545233 99.61630285 -19.0246582 99.20410156 C-17.26784768 99.17858956 -15.50999039 99.19731498 -13.75390625 99.25390625 C-12.81886765 99.25573914 -11.88382904 99.25757202 -10.92045593 99.25946045 C-8.95449372 99.2714909 -6.98856462 99.30286041 -5.02319336 99.35253906 C-2.01344119 99.42583443 0.99139924 99.43457575 4.00195312 99.43359375 C5.91670923 99.45324921 7.83143204 99.47656029 9.74609375 99.50390625 C10.64406174 99.50835754 11.54202972 99.51280884 12.46720886 99.51739502 C18.63784819 99.70530881 18.63784819 99.70530881 21.85083008 101.99902344 C23.57659509 104.596849 24.0474019 106.67291204 23.8515625 109.7890625 C20.75836251 123.0985357 7.96834277 134.44982401 -3.015625 141.61328125 C-25.22513184 154.33131604 -52.18771966 157.52970853 -76.96484375 151.13671875 C-89.26638377 147.66082521 -99.90651531 142.39863838 -109.703125 134.17578125 C-110.693125 133.45390625 -111.683125 132.73203125 -112.703125 131.98828125 C-125.92053244 120.66950692 -133.22813704 102.78504573 -136.703125 86.17578125 C-136.89390625 85.28632812 -137.0846875 84.396875 -137.28125 83.48046875 C-140.53266082 58.01108396 -135.89302665 33.34738744 -120.70703125 12.42578125 C-107.16553989 -4.9536729 -88.26682276 -15.277919 -66.515625 -18.13671875 C-42.86428479 -20.74416346 -18.37501582 -15.87774018 0 0 Z M-77.703125 29.17578125 C-81.9897867 36.01996344 -84.54436905 42.06448961 -85.703125 50.17578125 C-65.243125 50.17578125 -44.783125 50.17578125 -23.703125 50.17578125 C-24.74583349 40.79140485 -26.8719002 33.00700605 -33.703125 26.17578125 C-47.14445595 16.09478304 -66.04965462 16.18679301 -77.703125 29.17578125 Z " fill="#F4EFE9" transform="translate(617.703125,582.82421875)"/>
<path d="M0 0 C10.83395314 10.23314358 15.70411795 23.87463163 16.3496685 38.58343697 C16.39749324 41.09120645 16.41610645 43.59749859 16.42358398 46.10571289 C16.430271 47.05148697 16.43695801 47.99726105 16.44384766 48.97169495 C16.45782661 51.01231195 16.46974297 53.05294394 16.47979546 55.09358406 C16.49630477 58.32647835 16.51954376 61.55926103 16.54469299 64.792099 C16.61521318 73.9792621 16.67563472 83.16646874 16.72680664 92.35375977 C16.75863936 97.98459705 16.79991629 103.61530141 16.84700203 109.24603081 C16.86298442 111.38656664 16.87532329 113.52713297 16.88390923 115.66771126 C16.8960967 118.66150521 16.92025857 121.65498747 16.94702148 124.64868164 C16.94761063 125.52731873 16.94819977 126.40595581 16.94880676 127.31121826 C17.00550645 136.03920756 17.00550645 136.03920756 21.25 143.3125 C21.25 144.6325 21.25 145.9525 21.25 147.3125 C15.69992205 147.41188156 10.15036982 147.4842096 4.59960938 147.53222656 C2.71410084 147.55225767 0.82865377 147.57949073 -1.05664062 147.61425781 C-3.77749862 147.66315272 -6.49753056 147.68555382 -9.21875 147.703125 C-10.46924133 147.73409271 -10.46924133 147.73409271 -11.74499512 147.76568604 C-18.14337016 147.76810173 -23.4381412 146.29550019 -28.27868652 141.93560791 C-31.18489865 138.70172558 -32.65746139 135.48401106 -33.75 131.3125 C-34.15089844 131.82039062 -34.55179688 132.32828125 -34.96484375 132.8515625 C-44.17002265 143.9979696 -56.40486071 149.91086395 -70.75 151.3125 C-88.96074159 152.44488824 -106.06417187 149.83351828 -120.75 138.3125 C-130.54464764 129.27299526 -134.56645525 115.85330575 -135.125 102.8125 C-134.64574723 91.64382665 -131.84213652 81.07465448 -124.375 72.625 C-123.075625 71.4803125 -123.075625 71.4803125 -121.75 70.3125 C-121.31816406 69.85488281 -120.88632812 69.39726563 -120.44140625 68.92578125 C-106.46910388 55.09864565 -82.38062973 53.35349919 -64.04736328 50.79418945 C-49.56294861 48.81872943 -49.56294861 48.81872943 -36.75 42.3125 C-34.57619585 38.04849954 -34.53512844 35.1142596 -35.8125 30.625 C-37.36554673 26.63726429 -38.94664301 24.47349829 -42.75 22.3125 C-51.04204854 18.99568058 -60.15618565 19.42504741 -68.52734375 22.27734375 C-74.47451232 25.0471147 -77.29898418 29.70188737 -79.79296875 35.578125 C-80.75 37.3125 -80.75 37.3125 -83.75 39.3125 C-86.44876512 39.53237748 -89.04186855 39.64049084 -91.7421875 39.6484375 C-92.91661911 39.6584227 -92.91661911 39.6584227 -94.11477661 39.66860962 C-95.77066704 39.67873027 -97.42659821 39.68342682 -99.08251953 39.68310547 C-101.60908709 39.6874725 -104.13389849 39.72377807 -106.66015625 39.76171875 C-108.27082737 39.76758841 -109.88150678 39.77155681 -111.4921875 39.7734375 C-112.24442596 39.78780853 -112.99666443 39.80217957 -113.771698 39.81698608 C-117.47872762 39.78488991 -119.55772349 39.43643554 -122.70361328 37.40869141 C-125.42789211 34.61810944 -125.70908277 33.77077294 -126.0625 29.8125 C-125.84547829 18.8627682 -118.73907901 9.2549521 -111.2421875 1.828125 C-83.72819726 -22.07615807 -28.25854354 -23.30257637 0 0 Z M-42.0625 75.4375 C-46.77127939 77.08148798 -51.48205057 78.53675815 -56.31640625 79.76953125 C-57.27699951 80.01622559 -58.23759277 80.26291992 -59.22729492 80.51708984 C-61.11318946 80.99408499 -63.00261498 81.45739831 -64.89575195 81.90478516 C-72.35781748 83.80500803 -78.83878668 86.7307577 -83.78515625 92.81640625 C-85.62247536 97.5696326 -85.34699466 102.31266972 -84.75 107.3125 C-82.30298498 112.79381365 -78.9744196 114.79358341 -73.75 117.3125 C-64.54604448 120.17216519 -54.7091827 118.36337344 -46.30078125 114.05859375 C-39.22770295 109.76798261 -35.30791768 104.41010234 -33.1315918 96.4152832 C-32.34926871 92.10424754 -32.54742419 87.74013122 -32.625 83.375 C-32.63402344 82.40498047 -32.64304687 81.43496094 -32.65234375 80.43554688 C-32.67573893 78.06093593 -32.70851824 75.68685224 -32.75 73.3125 C-36.30554476 73.3125 -38.70415922 74.24956633 -42.0625 75.4375 Z " fill="#F4EFE9" transform="translate(1042.75,576.6875)"/>
<path d="M0 0 C2.24493935 -0.00960505 4.48892142 -0.04062546 6.73364258 -0.07226562 C26.53730433 -0.21817384 44.88889376 4.19037789 59.9699707 17.74023438 C69.64122962 27.81768616 73.13827349 41.10578897 73.14794922 54.70043945 C73.15638855 55.59931381 73.16482788 56.49818817 73.17352295 57.42430115 C73.19912334 60.36946199 73.21140484 63.31452262 73.22387695 66.25976562 C73.24007737 68.32566596 73.25725998 70.39155881 73.27537537 72.45744324 C73.32091765 77.88278711 73.35578297 83.30814157 73.38757324 88.73358154 C73.43955506 97.40481838 73.50514151 106.07594305 73.5757885 114.74704552 C73.59839396 117.75793369 73.61481383 120.76880832 73.63050842 123.77973938 C73.16801331 142.17577566 73.16801331 142.17577566 78.8449707 159.24023438 C78.8449707 160.23023438 78.8449707 161.22023438 78.8449707 162.24023438 C73.11583268 162.3145843 67.38697769 162.36893109 61.6574707 162.4050293 C59.70982977 162.42008337 57.76222255 162.44053118 55.81469727 162.46655273 C53.00959942 162.50308491 50.20495116 162.5199947 47.3996582 162.53320312 C46.53380096 162.54868698 45.66794373 162.56417084 44.77584839 162.5801239 C38.21869401 162.58193498 34.10972601 161.24763112 29.0949707 156.80273438 C25.75546163 152.9994046 24.8449707 151.35612253 24.8449707 146.24023438 C24.1849707 146.92085937 23.5249707 147.60148438 22.8449707 148.30273438 C21.84977291 149.28678149 20.84915997 150.2653645 19.8449707 151.24023438 C19.26360352 151.80613281 18.68223633 152.37203125 18.08325195 152.95507812 C5.07500288 165.01343477 -10.55752364 167.03248178 -27.6940918 166.58789062 C-42.35959489 165.87480673 -56.26697341 161.27040913 -66.44018555 150.30664062 C-75.95574786 138.84027965 -78.02617103 125.86297067 -77.1550293 111.24023438 C-75.25018204 99.41897637 -70.97350507 89.48720459 -61.1550293 82.24023438 C-46.11103391 71.6537191 -27.80454296 68.91200588 -9.98364258 66.45849609 C5.78157704 64.41544789 5.78157704 64.41544789 20.1574707 58.11523438 C22.6735643 53.82855639 22.6678243 50.08420273 21.8449707 45.24023438 C19.91618748 40.99691129 18.53255105 39.60277674 14.4074707 37.42773438 C5.9992333 34.62498857 -3.4090644 34.15815042 -11.6550293 37.92773438 C-16.44375571 40.72031799 -19.30539461 44.3562618 -21.5925293 49.42773438 C-23.61910598 53.07557241 -25.31225141 53.69349458 -29.1550293 55.24023438 C-32.60253906 55.62841797 -32.60253906 55.62841797 -36.34643555 55.63867188 C-37.01416489 55.64154205 -37.68189423 55.64441223 -38.36985779 55.64736938 C-39.77245946 55.64939898 -41.17509016 55.64394683 -42.57763672 55.63134766 C-44.71540908 55.61525034 -46.85129868 55.63124471 -48.98901367 55.65039062 C-50.35815843 55.64840849 -51.72730203 55.64456542 -53.09643555 55.63867188 C-54.33079346 55.63528809 -55.56515137 55.6319043 -56.83691406 55.62841797 C-61.2235721 55.11522642 -63.77986204 53.52056251 -66.9675293 50.55273438 C-69.2928328 46.02451176 -68.70895387 42.1020364 -67.3112793 37.40429688 C-62.19365515 23.95324423 -52.90604703 14.24683887 -40.10424805 7.67382812 C-26.91174394 1.94167654 -14.2792742 0.0367904 0 0 Z M16.4699707 90.42773438 C10.23205553 92.58858585 3.95619064 94.23064218 -2.4675293 95.74023438 C-10.6884004 97.71469627 -18.44230631 99.62032947 -24.6550293 105.67773438 C-27.99261492 111.37944316 -28.74624341 115.88852846 -27.1550293 122.24023438 C-24.87568686 127.25478773 -21.53082203 130.29735219 -16.40893555 132.33007812 C-7.08380774 134.9384272 2.42280361 133.92735346 10.8449707 129.24023438 C17.66251214 125.39259194 21.22534629 120.61565762 23.8449707 113.24023438 C25.06863979 107.96316143 24.9601733 102.7490071 24.9074707 97.36523438 C24.90295898 96.48609375 24.89844727 95.60695313 24.89379883 94.70117188 C24.88209407 92.54749635 24.86416139 90.39385621 24.8449707 88.24023438 C21.8193716 88.24023438 19.319474 89.42329992 16.4699707 90.42773438 Z " fill="#F4EFE9" transform="translate(395.155029296875,381.759765625)"/>
<path d="M0 0 C0.77916779 -0.00570007 1.55833557 -0.01140015 2.3611145 -0.01727295 C4.00684256 -0.02670146 5.65258931 -0.03324838 7.29833984 -0.03710938 C9.80469963 -0.04681454 12.31023872 -0.07785707 14.81640625 -0.109375 C16.41926599 -0.11590592 18.02213156 -0.12115604 19.625 -0.125 C20.36894012 -0.1373468 21.11288025 -0.1496936 21.87936401 -0.16241455 C26.67988786 -0.14204815 30.06920842 0.30384629 33.9453125 3.203125 C37.69281615 9.20864658 39.442847 16.50447496 41.484375 23.2265625 C41.9686647 24.79874039 41.9686647 24.79874039 42.46273804 26.40267944 C43.50468723 29.79266202 44.53789459 33.18522869 45.5703125 36.578125 C46.28505437 38.91311713 46.99989874 41.24807788 47.71484375 43.58300781 C53.35632836 62.0579327 58.76938393 80.59261714 63.9453125 99.203125 C65.89545333 96.27791376 66.62746622 94.25362297 67.55004883 90.90576172 C67.8544841 89.81659454 68.15891937 88.72742737 68.47257996 87.60525513 C68.80002701 86.41809906 69.12747406 85.23094299 69.46484375 84.0078125 C70.18353809 81.44955432 70.90383175 78.8918256 71.62744141 76.33496094 C71.81537482 75.67010492 72.00330824 75.00524891 72.19693661 74.32024574 C75.42318289 62.94841656 78.90255084 51.65173324 82.3918457 40.35839844 C83.23261477 37.63456199 84.06465094 34.90826774 84.88989258 32.1796875 C85.91084207 28.80418614 86.94580266 25.43328882 87.99097633 22.06521225 C88.56571009 20.20136657 89.12665203 18.33328555 89.68717957 16.46511841 C91.6003376 10.35914674 93.21472783 5.61757213 97.9453125 1.203125 C101.56680832 -0.00404027 104.91144902 0.02192216 108.68359375 0 C109.82117378 -0.00855011 109.82117378 -0.00855011 110.98173523 -0.01727295 C112.58636077 -0.02671356 114.19100562 -0.03325321 115.7956543 -0.03710938 C118.23846705 -0.04679827 120.68043211 -0.0778224 123.12304688 -0.109375 C124.68489086 -0.11590727 126.24674084 -0.12115686 127.80859375 -0.125 C128.53379715 -0.1373468 129.25900055 -0.1496936 130.00617981 -0.16241455 C134.72830171 -0.14189362 137.95833521 0.66294762 141.9453125 3.203125 C144.45787045 6.97196193 144.44369444 9.84503949 143.9453125 14.203125 C143.13255568 17.56020904 141.99916614 20.76987984 140.82421875 24.015625 C140.49332245 24.96085022 140.16242615 25.90607544 139.82150269 26.87994385 C138.72876241 29.99198175 137.61842434 33.09742492 136.5078125 36.203125 C135.73272033 38.39903139 134.95873119 40.59532739 134.18579102 42.79199219 C132.1788756 48.486395 130.15737715 54.17550823 128.13244629 59.86352539 C126.27710887 65.08289002 124.43562396 70.30712243 122.59375 75.53125 C119.45545649 84.42732071 116.29923684 93.31690008 113.13639832 102.20426941 C110.92582737 108.42310547 108.73488112 114.6485317 106.55696106 120.87887573 C105.08567814 125.08574502 103.60801429 129.29035902 102.12966919 133.49475098 C101.42877039 135.49344226 100.73086639 137.49318652 100.03610229 139.49401855 C99.07871603 142.25011199 98.11088686 145.0023242 97.140625 147.75390625 C96.86014816 148.57021011 96.57967133 149.38651398 96.29069519 150.22755432 C95.8918084 151.34915199 95.8918084 151.34915199 95.48486328 152.4934082 C95.25856232 153.1413887 95.03226135 153.7893692 94.79910278 154.45698547 C93.79130626 156.51809272 92.70250042 157.73374682 90.9453125 159.203125 C88.06404993 160.16354586 86.18368331 160.34535826 83.18603516 160.38012695 C81.73905746 160.39937981 81.73905746 160.39937981 80.2628479 160.41902161 C79.22220184 160.42640854 78.18155579 160.43379547 77.109375 160.44140625 C76.03787201 160.449478 74.96636902 160.45754974 73.86239624 160.46586609 C71.59447851 160.47969976 69.32654003 160.49042512 67.05859375 160.49829102 C63.59074564 160.51552346 60.12384603 160.55941931 56.65625 160.60351562 C54.45313201 160.61364097 52.25000592 160.62215756 50.046875 160.62890625 C49.0102774 160.64641434 47.97367981 160.66392242 46.90567017 160.68196106 C42.59989907 160.66898743 39.73849671 160.63408821 35.91137695 158.5546875 C33.62650949 155.82181237 32.55940959 153.5186181 31.38671875 150.15234375 C31.16548843 149.53147385 30.94425812 148.91060394 30.71632385 148.2709198 C29.9648413 146.14921237 29.2367023 144.02019054 28.5078125 141.890625 C27.96151365 140.33365874 27.41376827 138.77719944 26.86474609 137.22119141 C25.60556988 133.64121142 24.3576249 130.05753796 23.11669922 126.47119141 C20.67018624 119.40113416 18.20031649 112.33927222 15.73046875 105.27734375 C12.88444822 97.13913442 10.04157529 88.99988144 7.21264648 80.85571289 C2.94774898 68.58451749 -1.34103808 56.32580301 -5.8046875 44.125 C-6.16289581 43.14173737 -6.52110413 42.15847473 -6.89016724 41.14541626 C-8.52264907 36.66561224 -10.1675567 32.19135475 -11.83935547 27.72607422 C-12.40914926 26.16917231 -12.97836137 24.61205733 -13.546875 23.0546875 C-13.80509033 22.3825824 -14.06330566 21.71047729 -14.3293457 21.01800537 C-16.08967057 16.12843658 -16.73141077 11.39011439 -16.0546875 6.203125 C-14.45926712 3.46811864 -13.43389895 1.71894103 -10.41748047 0.59082031 C-6.95339348 0.02242084 -3.50109015 0.01989229 0 0 Z " fill="#F4EFE9" transform="translate(778.0546875,563.796875)"/>
<path d="M0 0 C3.31534371 1.75863026 4.03093625 5.21089972 5.30078125 8.5546875 C8.38263375 16.13122321 11.91602643 22.60623764 18.2578125 27.9765625 C19.98828125 30.0546875 19.98828125 30.0546875 19.9453125 32.56640625 C18.88865618 35.31371269 17.73082837 36.77693615 15.67578125 38.8671875 C6.20454221 49.26811872 4.46714204 62.38255298 4.61328125 76.0546875 C4.60167969 77.14007813 4.59007812 78.22546875 4.578125 79.34375 C4.62462949 92.33400417 7.63322256 106.41614219 16.98828125 116.0546875 C25.36360679 122.4272178 33.7239093 123.06621793 43.98828125 122.0546875 C52.89915054 119.52051171 58.79532758 113.2843305 63.23828125 105.3671875 C67.459461 95.86953307 68.25811224 86.62826487 68.30078125 76.3671875 C68.30899902 74.92460571 68.30899902 74.92460571 68.31738281 73.45288086 C68.26203022 67.88755978 67.70423209 62.75021829 66.41479492 57.33276367 C65.94900386 54.84490082 65.85084816 52.58025775 65.98828125 50.0546875 C67.92724727 48.11572148 70.87494863 48.66765963 73.47753906 48.45947266 C84.70935715 47.55499219 95.46507033 46.1499249 105.55078125 40.7421875 C108.98828125 39.0546875 108.98828125 39.0546875 111.5703125 39.19921875 C113.98828125 40.0546875 113.98828125 40.0546875 115.24609375 41.7421875 C124.13063215 65.4342899 123.41212321 92.02665841 112.98828125 115.0546875 C104.2113589 134.36391668 88.57938553 147.50897839 68.98828125 155.23828125 C44.23117093 164.03866031 17.83077876 161.51531835 -5.80859375 150.78515625 C-23.55798736 141.88481003 -37.33718892 125.91247627 -43.68017578 107.06884766 C-51.15619979 82.5098424 -49.83079664 57.15552234 -38.51953125 34 C-32.00507732 21.99969013 -15.16275771 0.41219147 0 0 Z " fill="#F4EFE9" transform="translate(787.01171875,388.9453125)"/>
<path d="M0 0 C2.04030539 2.04030539 1.21210959 6.24609674 1.23828125 9.05078125 C1.246353 9.86113327 1.25442474 10.67148529 1.26274109 11.50639343 C1.27659821 13.2255132 1.28731305 14.94466068 1.29516602 16.66381836 C1.31236182 19.29138557 1.35622923 21.91768913 1.40039062 24.54492188 C1.41051872 26.21353239 1.41903446 27.88215363 1.42578125 29.55078125 C1.44328934 30.33632889 1.46079742 31.12187653 1.47883606 31.93122864 C1.46469742 35.49414268 1.30403404 37.58300647 -0.82348633 40.50097656 C-3.91125419 42.62760524 -6.28089401 42.43362593 -10 42.4375 C-19.72952897 42.76900014 -27.52457196 45.337808 -34.8125 51.9375 C-46.09688082 64.24587182 -49.44569216 79.76604862 -49.41069031 95.97391891 C-49.40614947 98.26158489 -49.4203809 100.54850268 -49.43908691 102.83609009 C-49.48174538 108.50686022 -49.49313594 114.1776082 -49.50531006 119.84851074 C-49.51685166 124.66623825 -49.5404147 129.48361589 -49.58000183 134.30119705 C-49.59352555 136.54863648 -49.58941315 138.79559652 -49.58459473 141.0430603 C-49.59393492 142.4224305 -49.60410363 143.80179543 -49.61523438 145.18115234 C-49.61728882 146.38041351 -49.61934326 147.57967468 -49.62145996 148.8152771 C-50.03703115 152.31154951 -50.90172909 154.20005226 -53 157 C-55.25771476 158.12885738 -56.51316547 158.13768204 -59.01904297 158.16113281 C-59.84685272 158.17074036 -60.67466248 158.1803479 -61.52755737 158.19024658 C-62.42338531 158.19449646 -63.31921326 158.19874634 -64.2421875 158.203125 C-65.1621048 158.20882507 -66.08202209 158.21452515 -67.02981567 158.22039795 C-68.97836149 158.2298534 -70.92692333 158.23638409 -72.87548828 158.24023438 C-75.85607824 158.2499384 -78.83597827 158.28095586 -81.81640625 158.3125 C-83.70832923 158.31903016 -85.60025715 158.32428058 -87.4921875 158.328125 C-88.38396698 158.3404718 -89.27574646 158.3528186 -90.19454956 158.36553955 C-96.3477906 158.34340051 -96.3477906 158.34340051 -99.53173828 156.66699219 C-102.35885461 153.45722327 -102.12907783 150.20791243 -102.14044189 146.13015747 C-102.14615204 144.90479279 -102.15186218 143.6794281 -102.15774536 142.41693115 C-102.15899069 141.0567628 -102.1601158 139.69659433 -102.16113281 138.33642578 C-102.16576151 136.90568921 -102.17078624 135.47495387 -102.17617798 134.04421997 C-102.18929809 130.15575663 -102.19574605 126.26731055 -102.20018864 122.37882853 C-102.20311969 119.94971261 -102.20722454 117.52060142 -102.21169281 115.09148788 C-102.22536606 107.49197732 -102.23503384 99.89247753 -102.2388947 92.29295552 C-102.24337667 83.51904916 -102.26093168 74.74529849 -102.2898953 65.97143948 C-102.31150499 59.19003737 -102.32159858 52.4086791 -102.32293582 45.62724292 C-102.32398426 41.57662082 -102.32990048 37.52614511 -102.34775543 33.47555923 C-102.36422411 29.66538458 -102.3663976 25.85546656 -102.35761642 22.04526901 C-102.35684543 20.64765994 -102.36119709 19.25003714 -102.37107468 17.85246277 C-102.38377796 15.94295367 -102.37613154 14.03334163 -102.36749268 12.12380981 C-102.36895924 11.05566103 -102.3704258 9.98751225 -102.3719368 8.88699532 C-101.90698415 5.27800551 -100.59097332 2.59097332 -98 0 C-95.01700199 -0.1260341 -92.05845006 -0.18869843 -89.07421875 -0.203125 C-87.72551445 -0.21167511 -87.72551445 -0.21167511 -86.3495636 -0.22039795 C-84.44212018 -0.22986422 -82.53466029 -0.23638836 -80.62719727 -0.24023438 C-77.71015758 -0.24992473 -74.79382679 -0.28092623 -71.87695312 -0.3125 C-70.02604586 -0.31903128 -68.17513355 -0.32428126 -66.32421875 -0.328125 C-65.45117599 -0.3404718 -64.57813324 -0.3528186 -63.67863464 -0.36553955 C-60.15125928 -0.35258748 -57.65493703 -0.31977113 -54.45532227 1.24243164 C-52.64207205 3.43226359 -52.46645914 4.62439706 -52.390625 7.44921875 C-52.35839844 8.29677734 -52.32617188 9.14433594 -52.29296875 10.01757812 C-52.27878906 10.89865234 -52.26460937 11.77972656 -52.25 12.6875 C-52.22035156 13.58017578 -52.19070313 14.47285156 -52.16015625 15.39257812 C-52.08948573 17.59514277 -52.03678061 19.79665131 -52 22 C-51.50371094 21.35933594 -51.00742187 20.71867187 -50.49609375 20.05859375 C-41.12941804 8.13252278 -32.34666969 -0.55059241 -16.60546875 -2.75390625 C-4.93585148 -3.85613397 -4.93585148 -3.85613397 0 0 Z " fill="#F4EFE9" transform="translate(744,386)"/>
<path d="M0 0 C2.92038898 3.68721877 3.04408784 6.45801438 2.94238281 10.96923828 C2.9424231 11.72953842 2.94246338 12.48983856 2.94250488 13.2731781 C2.93716168 14.87434188 2.91962991 16.47550605 2.890625 18.07641602 C2.84869968 20.52392831 2.84956461 22.96869233 2.85644531 25.41650391 C2.84595405 26.97576777 2.83301628 28.5350175 2.81738281 30.09423828 C2.81708069 31.18811607 2.81708069 31.18811607 2.81677246 32.30409241 C2.74478819 35.39975777 2.51105024 37.65949212 1.0480957 40.41430664 C-1.73205157 42.95162536 -5.11995194 42.7395485 -8.71386719 42.96533203 C-20.29716654 44.04517244 -28.75246889 46.97996817 -36.65136719 55.96533203 C-44.25841719 66.60918856 -48.755874 78.79914658 -48.79321289 91.89526367 C-48.79668732 92.57231857 -48.80016174 93.24937347 -48.80374146 93.94694519 C-48.81106478 95.40976716 -48.8164283 96.8726 -48.82003212 98.33543587 C-48.82722947 100.65156585 -48.84291765 102.96748788 -48.8613739 105.28355408 C-48.91370835 111.86601011 -48.96185588 118.44834592 -48.97729492 125.03100586 C-48.98737101 129.06351038 -49.01667587 133.0954814 -49.05861473 137.12777519 C-49.07092561 138.66231695 -49.07604581 140.19693399 -49.0738163 141.73152351 C-49.07146538 143.8765286 -49.09360654 146.01999745 -49.12133789 148.16479492 C-49.12720413 149.38437393 -49.13307037 150.60395294 -49.13911438 151.86048889 C-49.7532166 155.58265703 -50.6153888 156.77698101 -53.65136719 158.96533203 C-55.69322205 159.47999573 -55.69322205 159.47999573 -57.8815918 159.4987793 C-59.1182383 159.5225338 -59.1182383 159.5225338 -60.37986755 159.54676819 C-61.70342003 159.53932838 -61.70342003 159.53932838 -63.05371094 159.53173828 C-63.96842667 159.53793686 -64.8831424 159.54413544 -65.82557678 159.55052185 C-67.75797462 159.55761811 -69.69043361 159.55444937 -71.62280273 159.54174805 C-74.57553001 159.52789461 -77.52508007 159.56193947 -80.47753906 159.60009766 C-82.35709713 159.60104901 -84.23665915 159.59918918 -86.11621094 159.59423828 C-86.99655502 159.60749649 -87.87689911 159.6207547 -88.78392029 159.63441467 C-89.61150345 159.62188156 -90.43908661 159.60934845 -91.29174805 159.59643555 C-92.01470566 159.59547379 -92.73766327 159.59451202 -93.48252869 159.59352112 C-96.87009826 158.612335 -98.4065962 156.62704636 -100.65136719 153.96533203 C-101.27777958 151.03427792 -101.27777958 151.03427792 -101.27955627 147.73435974 C-101.29221024 146.47955811 -101.3048642 145.22475647 -101.31790161 143.93193054 C-101.30658637 142.54909864 -101.29475894 141.16627086 -101.2824707 139.78344727 C-101.28761102 138.32122937 -101.29489315 136.85901767 -101.30415344 135.39682007 C-101.32266025 131.43186436 -101.30973462 127.4675815 -101.29006314 123.50265384 C-101.27367222 119.3525151 -101.28249 115.20241883 -101.2875824 111.05226135 C-101.29210237 104.08412939 -101.27623839 97.11626595 -101.24829102 90.14819336 C-101.21622683 82.09154671 -101.21625993 74.03538403 -101.23350579 65.97870296 C-101.24936665 58.22749603 -101.24264102 50.47646657 -101.22556877 42.72526741 C-101.21869532 39.42666972 -101.21973365 36.12821416 -101.22711372 32.82961845 C-101.23477228 28.94623421 -101.22266524 25.06340116 -101.19526482 21.18011093 C-101.18837574 19.75469029 -101.18828867 18.32921821 -101.19548035 16.90379906 C-101.20416235 14.95896754 -101.18579626 13.01407114 -101.16603088 11.06932068 C-101.16322396 9.98072471 -101.16041704 8.89212873 -101.15752506 7.77054501 C-100.53155531 4.30131424 -99.38481351 3.12003298 -96.65136719 0.96533203 C-94.64074707 0.45739746 -94.64074707 0.45739746 -92.49707031 0.44775391 C-91.68943237 0.43514526 -90.88179443 0.42253662 -90.04968262 0.4095459 C-89.18605103 0.41764282 -88.32241943 0.42573975 -87.43261719 0.43408203 C-86.53772583 0.43025513 -85.64283447 0.42642822 -84.7208252 0.42248535 C-82.83128737 0.41976683 -80.94171187 0.42712387 -79.05224609 0.44384766 C-76.16125529 0.4652588 -73.27274952 0.44404469 -70.38183594 0.41845703 C-68.54459087 0.42110032 -66.70734735 0.42622532 -64.87011719 0.43408203 C-63.5746698 0.42193665 -63.5746698 0.42193665 -62.25305176 0.4095459 C-58.43046108 0.46922323 -56.31001253 0.50790423 -53.11328125 2.72802734 C-51.53010927 5.15090444 -51.12384529 6.42859841 -51.04199219 9.29345703 C-51.00976562 10.09267578 -50.97753906 10.89189453 -50.94433594 11.71533203 C-50.93015625 12.54033203 -50.91597656 13.36533203 -50.90136719 14.21533203 C-50.87171875 15.05580078 -50.84207031 15.89626953 -50.81152344 16.76220703 C-50.74105083 18.82940353 -50.6939178 20.89737236 -50.65136719 22.96533203 C-49.92433594 21.89605469 -49.92433594 21.89605469 -49.18261719 20.80517578 C-41.28929468 9.52683228 -32.16850146 0.80367463 -18.14746094 -1.74560547 C-4.35592054 -3.34274786 -4.35592054 -3.34274786 0 0 Z " fill="#F4EFE9" transform="translate(755.6513671875,565.03466796875)"/>
<path d="M0 0 C0.87315353 -0.00570007 1.74630707 -0.01140015 2.6459198 -0.01727295 C4.49611192 -0.02672845 6.34632093 -0.03325911 8.1965332 -0.03710938 C11.02129719 -0.04680065 13.84532919 -0.07781255 16.66992188 -0.109375 C18.4674436 -0.11590652 20.26497052 -0.12115641 22.0625 -0.125 C22.90537064 -0.1373468 23.74824127 -0.1496936 24.61665344 -0.16241455 C29.30762528 -0.14468392 32.42823922 0.1367055 36.23046875 3.203125 C37.60413746 5.95046243 37.36274919 8.1489037 37.37091064 11.22518921 C37.37662079 12.50952347 37.38233093 13.79385773 37.38821411 15.11711121 C37.38945953 16.54861441 37.39058461 17.98011771 37.39160156 19.41162109 C37.39622869 20.91279727 37.40125321 22.41397226 37.40664673 23.91514587 C37.41978246 27.99987604 37.42621791 32.08458976 37.43065739 36.16933775 C37.43358608 38.71988491 37.43769049 41.27042755 37.44216156 43.82097244 C37.45583927 51.79690924 37.46550472 59.77283575 37.46936345 67.74878347 C37.47384573 76.96361059 37.49140033 86.17828949 37.52036405 95.39307153 C37.54196154 102.51074065 37.55206669 109.628368 37.55340457 116.74606955 C37.55445394 120.9995573 37.56038978 125.25290577 37.57822418 129.5063591 C37.59467167 133.50693372 37.59687667 137.50726386 37.58808517 141.50786018 C37.58731302 142.97684063 37.59168095 144.44583403 37.60154343 145.91478157 C37.61421041 147.91884587 37.60661358 149.92300785 37.59796143 151.92709351 C37.59942799 153.04908331 37.60089455 154.17107311 37.60240555 155.32706261 C37.18485144 158.55586835 36.51234347 159.91341388 34.23046875 162.203125 C30.26647594 163.52445594 26.46119556 163.36566303 22.328125 163.37109375 C21.45401474 163.37442215 20.57990448 163.37775055 19.67930603 163.38117981 C17.83088711 163.38624149 15.98245905 163.38858837 14.1340332 163.38842773 C11.30730125 163.39061392 8.48095977 163.4087767 5.65429688 163.42773438 C3.85807425 163.43066851 2.06184977 163.43265317 0.265625 163.43359375 C-1.0017173 163.44437202 -1.0017173 163.44437202 -2.29466248 163.45536804 C-3.08550735 163.45229141 -3.87635223 163.44921478 -4.69116211 163.44604492 C-5.38382675 163.44746994 -6.07649139 163.44889496 -6.79014587 163.45036316 C-9.18273275 163.15151343 -10.72883233 162.48238525 -12.76953125 161.203125 C-15.11881641 157.67919726 -15.02447217 156.23383314 -15.03695679 152.06080627 C-15.04548676 150.77509735 -15.05401672 149.48938843 -15.06280518 148.16471863 C-15.06210613 146.7368468 -15.06118306 145.30897507 -15.06005859 143.88110352 C-15.06604185 142.37977768 -15.07284693 140.87845492 -15.08041382 139.37713623 C-15.09810063 135.29658052 -15.10277029 131.21610865 -15.10404539 127.13551831 C-15.10594322 123.73083607 -15.11329932 120.32617342 -15.12038958 116.92149872 C-15.13668093 108.89028269 -15.14155781 100.85911151 -15.14013672 92.82788086 C-15.13893472 84.53842187 -15.16004642 76.24922301 -15.19162405 67.95982987 C-15.21775812 60.84637746 -15.22850524 53.73301017 -15.2272259 46.61951011 C-15.22671547 42.36935565 -15.23244342 38.11943236 -15.253582 33.86932564 C-15.27291657 29.87277022 -15.27312204 25.87666763 -15.25854874 21.88009644 C-15.25645363 20.41272764 -15.26120324 18.94533086 -15.27326965 17.47801018 C-15.28866615 15.47620607 -15.27704044 13.47424826 -15.26400757 11.47242737 C-15.2650971 10.35173638 -15.26618664 9.2310454 -15.26730919 8.07639408 C-14.65622612 4.54910619 -13.52947142 3.40500451 -10.76953125 1.203125 C-7.42901748 -0.46713189 -3.67425361 0.01839361 0 0 Z " fill="#F4EFE9" transform="translate(272.76953125,568.796875)"/>
<path d="M0 0 C7.33666538 1.82115807 12.36863906 5.02227917 18 10 C19.0209375 10.87978516 19.0209375 10.87978516 20.0625 11.77734375 C28.16638893 19.26394426 33.35744979 28.68878093 37 39 C38.03898438 38.59007812 39.07796875 38.18015625 40.1484375 37.7578125 C60.45121936 29.85347107 79.72879823 27.82549845 100.34765625 36.390625 C112.9159611 42.30878589 112.9159611 42.30878589 116 47 C116.57980498 50.83522378 116.23748736 52.59126326 114.27734375 55.96484375 C111.8822929 59.0076379 109.48225108 62.02772525 107 65 C106.45085937 65.66515625 105.90171875 66.3303125 105.3359375 67.015625 C95.11434693 78.23316542 78.71572689 86.15194222 63.58398438 87.16113281 C60.88919889 87.20657429 58.19513473 87.2351712 55.5 87.25 C54.56285156 87.270625 53.62570312 87.29125 52.66015625 87.3125 C47.58678835 87.34128507 44.10950656 87.30145752 40 84 C39.34257813 83.49339844 38.68515625 82.98679687 38.0078125 82.46484375 C37.38648438 81.96082031 36.76515625 81.45679688 36.125 80.9375 C30.6569932 76.83141311 25.79075624 76.02858526 19.0625 75.75 C11.41631246 75.15963434 7.81207459 72.2588528 2.91015625 66.578125 C-8.26560044 52.17659124 -10.21551548 37.67023308 -9 20 C-7.92789248 11.98897433 -6.23022315 5.53797614 0 0 Z " fill="#B1D082" transform="translate(804,343)"/>
<path d="M0 0 C1.94087721 -0.01655678 3.88169351 -0.04384322 5.82226562 -0.08203125 C8.6218221 -0.13683574 11.41994983 -0.15867898 14.2199707 -0.17333984 C15.51708733 -0.2073439 15.51708733 -0.2073439 16.84040833 -0.24203491 C21.05788493 -0.2272687 23.08128953 -0.00478179 26.65625 2.40991211 C29.03187906 5.99104876 29.30027736 8.75449593 29.20043945 12.91650391 C29.20047974 13.63241196 29.20052002 14.34832001 29.20056152 15.08592224 C29.19522046 16.59293441 29.17769775 18.09994719 29.14868164 19.60668945 C29.10674775 21.90939616 29.10762212 24.209182 29.11450195 26.51220703 C29.10401074 27.98032625 29.09107299 29.44843045 29.07543945 30.91650391 C29.07523804 31.60200821 29.07503662 32.28751251 29.0748291 32.99378967 C28.97521996 37.02679343 28.5584978 39.5056357 25.60668945 42.35009766 C21.64269664 43.67142859 17.83741627 43.51263569 13.7043457 43.51806641 C12.83023544 43.52139481 11.95612518 43.52472321 11.05552673 43.52815247 C9.20710781 43.53321414 7.35867975 43.53556103 5.51025391 43.53540039 C2.68352195 43.53758657 -0.14281953 43.55574936 -2.96948242 43.57470703 C-4.76570505 43.57764117 -6.56192952 43.57962583 -8.3581543 43.58056641 C-9.6254966 43.59134468 -9.6254966 43.59134468 -10.91844177 43.6023407 C-11.70928665 43.59926407 -12.50013153 43.59618744 -13.31494141 43.59301758 C-14.00760605 43.5944426 -14.70027069 43.59586761 -15.41392517 43.59733582 C-17.80651205 43.29848609 -19.35261163 42.62935791 -21.39331055 41.35009766 C-23.78462211 37.76313031 -23.71594385 35.1263319 -23.72924805 30.97900391 C-23.73590485 30.26026596 -23.74256165 29.54152802 -23.74942017 28.80101013 C-23.75953628 27.28216101 -23.76423751 25.76326754 -23.76391602 24.24438477 C-23.76828895 21.92405799 -23.80461372 19.60563472 -23.8425293 17.28564453 C-23.84839787 15.80843748 -23.85236699 14.33122141 -23.85424805 12.85400391 C-23.8758046 11.81633629 -23.8758046 11.81633629 -23.89779663 10.75770569 C-23.86563496 7.35664866 -23.62758166 5.6462262 -21.48950195 2.94360352 C-15.6811909 -1.47182232 -7.04369866 0.04407151 0 0 Z " fill="#F4EFE9" transform="translate(281.393310546875,504.64990234375)"/>
<path d="M0 0 C0.91471573 -0.00619858 1.82943146 -0.01239716 2.77186584 -0.01878357 C4.70426368 -0.02587983 6.63672268 -0.02271109 8.5690918 -0.01000977 C11.52181907 0.00384368 14.47136913 -0.03020119 17.42382812 -0.06835938 C19.30338619 -0.06931073 21.18294821 -0.06745089 23.0625 -0.0625 C23.94284409 -0.07575821 24.82318817 -0.08901642 25.73020935 -0.10267639 C30.14882347 -0.03575987 31.9929482 0.07650662 35.52954102 2.94165039 C36.55325806 4.24090454 36.55325806 4.24090454 37.59765625 5.56640625 C38.46390625 6.43265625 39.33015625 7.29890625 40.22265625 8.19140625 C42.01432292 9.98307292 43.80598958 11.77473958 45.59765625 13.56640625 C44.10878906 14.076875 44.10878906 14.076875 42.58984375 14.59765625 C29.82632844 19.09833331 18.05941306 24.32074603 8.46484375 34.1953125 C6.59765625 35.56640625 6.59765625 35.56640625 4.5 35.37109375 C-3.96795967 31.7891642 -9.40316955 21.84928546 -12.7421875 13.66796875 C-13.75519448 10.44312995 -13.92509964 7.89897504 -13.40234375 4.56640625 C-9.97405709 -0.57225512 -5.62903185 -0.03164128 0 0 Z " fill="#F4EFE9" transform="translate(493.40234375,546.43359375)"/>
</svg>
