<?xml version="1.0" standalone="no"?>
<!DOCTYPE svg PUBLIC "-//W3C//DTD SVG 20010904//EN"
 "http://www.w3.org/TR/2001/REC-SVG-20010904/DTD/svg10.dtd">
<svg version="1.0" xmlns="http://www.w3.org/2000/svg"
 width="622.000000pt" height="769.000000pt" viewBox="0 0 622.000000 769.000000"
 preserveAspectRatio="xMidYMid meet">

<g transform="translate(0.000000,769.000000) scale(0.100000,-0.100000)"
fill="#000000" stroke="none">
<path d="M2900 7664 c-519 -65 -993 -323 -1368 -743 -386 -434 -673 -1017
-807 -1638 -73 -338 -99 -582 -98 -933 1 -682 140 -1297 419 -1853 298 -595
674 -999 1177 -1267 53 -28 97 -56 97 -61 0 -5 -53 -9 -118 -9 -269 0 -633
-70 -712 -137 -32 -27 -46 -73 -31 -101 16 -30 87 -54 191 -62 l95 -8 -115 2
c-131 1 -161 11 -198 66 -27 41 -37 46 -57 30 -12 -10 -15 -42 -15 -155 0
-115 -3 -145 -15 -155 -25 -21 -404 -7 -526 19 -141 30 -223 57 -324 107 -170
83 -298 202 -362 335 -30 62 -48 74 -55 36 -4 -21 20 -263 57 -567 19 -155 41
-214 107 -286 90 -98 241 -176 459 -239 l124 -36 350 3 350 4 130 37 c248 72
423 156 483 234 20 28 27 49 30 100 4 62 6 66 36 78 42 18 268 53 446 71 194
18 697 18 900 0 159 -15 328 -38 435 -59 l60 -12 6 -71 c8 -109 44 -147 225
-237 108 -54 245 -100 378 -127 86 -18 137 -20 411 -20 313 0 313 0 429 29
141 36 265 90 377 163 115 75 164 124 178 173 29 110 93 614 93 744 0 65 -18
56 -63 -31 -24 -45 -65 -105 -91 -132 -53 -55 -78 -56 -30 -2 106 121 139 268
93 417 -51 163 -170 282 -429 428 -48 27 -122 80 -165 117 -64 56 -84 80 -117
147 -22 44 -43 97 -46 119 -8 49 -26 44 -38 -10 -11 -51 29 -595 49 -667 32
-114 134 -228 313 -351 184 -127 201 -142 229 -199 23 -46 31 -54 57 -57 29
-3 27 -5 -47 -56 -146 -101 -312 -163 -517 -194 -47 -7 -173 -12 -280 -13
l-195 0 -3 149 c-1 90 -7 155 -14 163 -18 22 -42 14 -58 -20 -10 -20 -31 -40
-60 -54 -38 -20 -59 -23 -150 -22 -112 1 -99 16 16 18 119 2 164 25 164 82 0
48 -18 69 -85 100 -133 60 -315 93 -604 108 -165 9 -203 14 -190 24 2 2 45 25
94 52 415 221 727 523 1014 980 84 134 236 441 300 606 120 308 202 644 248
1009 25 206 26 782 0 990 -85 697 -275 1243 -603 1738 -344 518 -760 856
-1254 1021 -186 62 -313 82 -540 86 -113 2 -221 1 -240 -1z m421 -79 c836
-111 1538 -771 1920 -1803 91 -245 180 -603 213 -852 118 -900 -52 -1846 -462
-2570 -523 -924 -1352 -1388 -2213 -1241 -541 93 -1072 468 -1437 1014 -348
519 -548 1091 -624 1782 -20 186 -17 743 5 925 63 505 197 950 411 1365 99
192 176 315 310 495 109 147 301 347 431 450 437 346 953 501 1446 435z m2278
-5855 c69 -39 145 -85 170 -102 76 -53 158 -145 193 -216 30 -61 33 -76 33
-157 0 -82 -3 -97 -33 -158 -19 -38 -39 -70 -46 -73 -7 -3 -32 14 -56 37 -24
23 -109 85 -189 138 -236 155 -303 238 -320 397 -5 43 -13 135 -17 203 l-7
125 74 -61 c41 -33 130 -93 198 -133z m-2994 -649 c142 -38 256 -52 445 -58
213 -6 336 7 534 58 l121 31 260 -5 c255 -5 385 -18 539 -53 137 -30 205 -74
174 -111 -18 -22 -177 -12 -363 21 -165 31 -176 31 -221 10 -67 -32 -74 -73
-49 -281 10 -76 12 -130 7 -135 -6 -6 -51 -3 -113 6 -314 46 -610 59 -1049 46
-306 -9 -425 -19 -682 -56 -57 -8 -55 -24 -32 181 20 179 13 209 -52 240 -39
18 -40 18 -234 -14 -238 -39 -360 -41 -360 -7 0 19 40 52 83 70 56 23 224 57
356 72 74 8 196 12 336 9 184 -3 233 -7 300 -24z m-2251 -306 c138 -88 283
-145 478 -187 87 -18 136 -22 313 -22 116 -1 257 2 315 6 71 5 97 4 81 -3 -23
-9 -23 -11 -16 -92 4 -45 8 -84 10 -85 2 -2 51 6 110 18 90 20 111 28 143 57
35 33 40 34 90 28 50 -6 82 4 82 25 0 15 -84 112 -104 119 -17 7 -6 15 62 50
78 41 162 115 162 143 0 7 -9 27 -20 45 -23 38 -12 50 27 31 26 -12 28 -17 27
-73 -2 -150 -28 -493 -40 -522 -32 -80 -368 -193 -707 -238 -267 -35 -488 -16
-708 61 -266 92 -393 178 -437 296 -29 77 -52 244 -52 377 l0 112 66 -57 c37
-30 89 -70 118 -89z m5681 -166 c-8 -58 -24 -133 -36 -167 -24 -70 -83 -143
-140 -172 -45 -24 -49 -24 -49 -6 0 7 -19 37 -41 65 -36 45 -46 52 -73 49 -28
-3 -35 -11 -75 -95 -45 -92 -62 -108 -89 -81 -9 9 -7 19 9 44 l20 33 -20 20
c-24 24 -48 26 -121 10 -67 -14 -80 -35 -80 -127 l0 -73 32 3 c26 2 33 8 40
35 11 43 19 46 64 23 66 -34 109 -24 175 40 42 40 56 44 114 30 29 -7 28 -8
-45 -42 -179 -85 -361 -127 -575 -135 -138 -5 -158 -4 -148 8 7 8 13 44 15 79
3 65 3 65 35 68 28 3 51 27 38 40 -2 3 -50 7 -106 10 l-101 5 4 -24 c2 -19 10
-25 36 -27 32 -3 32 -4 32 -55 0 -29 3 -62 6 -74 6 -21 3 -23 -28 -23 -32 0
-35 2 -31 24 5 25 -15 36 -67 36 -40 0 -50 18 -50 86 0 47 -4 63 -16 68 -41
16 -44 10 -44 -89 l0 -95 -27 1 c-16 0 -36 4 -47 8 -17 7 -16 9 8 24 24 16 26
23 26 85 0 70 -10 92 -42 92 -14 0 -18 -11 -20 -67 -3 -66 -4 -68 -28 -65 -35
3 -50 28 -50 83 0 26 -3 54 -6 63 -8 21 -50 21 -58 0 -12 -30 -5 -89 14 -133
11 -24 20 -45 20 -46 0 -14 -184 52 -280 100 -89 45 -100 65 -100 187 -1 51
-5 138 -10 193 -28 294 -29 285 33 285 l28 0 -20 -26 c-26 -33 -26 -50 -1 -91
24 -41 145 -100 290 -143 117 -34 348 -80 413 -81 46 0 101 -17 62 -18 -36 -2
-45 -21 -45 -103 0 -66 3 -79 19 -88 29 -15 51 -2 51 29 0 43 10 44 56 1 31
-28 52 -40 74 -40 37 0 38 9 4 49 -24 29 -24 32 -10 53 22 31 20 65 -3 78 -11
5 -41 11 -68 11 l-48 1 40 9 c22 4 72 8 110 8 335 3 683 126 890 314 l50 45 3
-102 c2 -56 -4 -148 -13 -207z m-4010 251 c11 -18 -15 -49 -82 -93 -128 -84
-252 -123 -435 -134 l-98 -6 0 96 c0 54 4 99 10 102 6 4 35 -3 66 -14 106 -40
334 -19 474 43 41 18 57 20 65 6z m2363 -30 c169 -36 258 -38 344 -9 76 25 79
22 76 -91 -3 -84 -3 -85 -30 -88 -102 -12 -524 110 -569 164 -15 18 -1 54 20
54 10 0 82 -13 159 -30z m-2622 -278 c-41 -77 -74 -102 -135 -102 l-41 0 0 54
c0 30 -3 61 -6 70 -5 12 0 16 17 17 13 0 62 10 109 23 47 12 86 19 88 15 2 -5
-13 -39 -32 -77z m3252 -64 c-3 -7 -17 -13 -33 -13 -16 0 -30 6 -32 13 -3 8 7
12 32 12 25 0 35 -4 33 -12z m460 -230 c-5 -15 -58 -24 -58 -9 0 11 17 19 43
20 11 1 17 -4 15 -11z m-601 -184 c-3 -3 -12 -4 -19 -1 -8 3 -5 6 6 6 11 1 17
-2 13 -5z"/>
<path d="M2880 7569 c-198 -25 -408 -90 -599 -185 -1078 -534 -1720 -2046
-1525 -3594 99 -790 424 -1520 894 -2014 356 -372 795 -605 1239 -656 130 -15
394 -8 513 14 403 75 763 272 1089 596 160 160 237 254 369 453 742 1118 813
2795 171 4032 -403 778 -1028 1267 -1731 1354 -97 13 -325 12 -420 0z m427
-74 c612 -87 1131 -456 1525 -1083 270 -430 455 -958 529 -1505 26 -195 37
-713 20 -922 -61 -735 -331 -1464 -730 -1970 -336 -426 -760 -700 -1246 -805
-140 -31 -373 -38 -521 -16 -690 101 -1277 568 -1662 1323 -290 569 -424 1143
-424 1823 0 484 59 870 202 1300 244 739 673 1312 1217 1626 344 199 732 280
1090 229z"/>
<path d="M3160 7397 c-9 -20 -42 -338 -36 -344 7 -7 246 -25 260 -20 21 8 21
53 0 61 -9 3 -30 6 -48 6 -18 0 -54 3 -80 6 -44 6 -46 8 -46 38 0 52 8 56 88
48 76 -9 102 -2 102 26 0 31 -22 42 -81 42 -78 0 -89 6 -89 46 0 34 1 34 38
29 142 -17 141 -18 154 10 17 38 2 46 -99 56 -48 5 -103 11 -121 13 -27 4 -35
1 -42 -17z"/>
<path d="M2781 7384 c-36 -8 -66 -16 -69 -19 -5 -5 54 -344 61 -351 2 -3 35 0
73 6 143 23 194 68 194 170 0 77 -16 126 -54 167 -29 32 -39 36 -87 39 -30 2
-83 -4 -118 -12z m120 -70 c35 -17 59 -67 59 -119 0 -41 -40 -91 -82 -101 -35
-8 -43 10 -62 129 -12 79 -12 88 3 97 23 14 48 12 82 -6z"/>
<path d="M3711 7268 c-5 -13 -37 -81 -70 -153 -34 -71 -61 -135 -61 -140 0
-14 228 -118 244 -112 15 6 26 41 17 53 -3 5 -41 26 -83 46 l-77 37 11 32 c6
17 16 33 23 35 7 3 40 -8 74 -25 33 -17 67 -31 74 -31 11 0 37 39 37 55 0 2
-34 20 -75 39 -41 19 -75 38 -75 41 0 6 19 46 25 53 2 2 22 -6 46 -18 23 -12
59 -28 80 -35 33 -12 41 -12 54 1 8 9 15 22 15 29 0 16 -201 115 -232 115 -10
0 -23 -10 -27 -22z"/>
<path d="M2242 7174 c-50 -26 -92 -52 -92 -56 0 -16 164 -308 173 -308 21 0
146 73 173 101 26 27 29 38 29 92 0 73 -33 139 -89 182 -59 45 -89 43 -194
-11z m153 -67 c60 -60 66 -144 13 -181 -37 -26 -53 -19 -83 37 -15 28 -39 71
-52 94 l-24 42 38 20 c53 28 70 26 108 -12z"/>
<path d="M4002 7008 c-123 -169 -136 -188 -126 -197 5 -5 51 -39 103 -76 l94
-67 18 23 c10 13 19 27 19 32 0 4 -28 28 -62 53 -35 26 -62 52 -62 59 1 8 37
62 80 121 l78 107 -23 18 c-13 11 -29 19 -37 19 -8 0 -44 -42 -82 -92z"/>
<path d="M3010 6974 c-14 -2 -59 -9 -100 -15 -91 -13 -283 -75 -370 -119 -923
-466 -1424 -1872 -1150 -3222 117 -572 358 -1054 700 -1399 223 -226 444 -358
720 -432 110 -29 124 -31 310 -31 186 0 200 2 310 31 276 74 497 206 720 432
454 458 727 1152 770 1958 48 903 -249 1808 -765 2328 -239 240 -511 393 -798
451 -73 14 -301 26 -347 18z m341 -94 c181 -37 362 -117 524 -231 107 -76 308
-272 392 -384 299 -397 484 -886 559 -1480 23 -175 26 -634 6 -800 -31 -256
-75 -470 -138 -675 -248 -798 -760 -1352 -1359 -1471 -91 -18 -339 -18 -430 0
-607 120 -1121 684 -1368 1501 -288 953 -144 2082 361 2820 268 391 609 640
987 720 128 27 334 27 466 0z"/>
<path d="M3034 6476 c-144 -35 -263 -182 -393 -487 -71 -168 -109 -235 -238
-424 -51 -74 -113 -175 -138 -224 -32 -66 -53 -94 -79 -110 -54 -34 -141 -134
-172 -198 -24 -50 -28 -70 -29 -148 0 -74 4 -97 22 -132 27 -49 63 -77 121
-92 41 -11 42 -13 42 -54 0 -23 9 -86 19 -140 l19 -98 -24 -192 c-13 -106 -24
-218 -24 -249 0 -50 3 -60 25 -74 16 -10 40 -15 71 -12 l48 3 0 -40 c1 -33 6
-43 33 -60 26 -16 32 -26 31 -50 -2 -41 6 -52 43 -60 56 -12 69 -36 62 -108
-5 -60 -4 -65 25 -98 36 -41 102 -76 166 -88 43 -8 124 -3 243 15 34 5 44 3
49 -9 8 -22 -23 -216 -48 -296 -44 -142 -103 -235 -238 -376 -53 -55 -103
-111 -111 -125 -30 -48 -52 -130 -44 -169 4 -20 6 -48 6 -62 -2 -38 54 -83
174 -140 152 -73 234 -90 458 -96 215 -6 276 2 382 52 97 45 178 115 257 219
160 214 277 521 266 705 -6 100 -35 162 -127 271 -79 92 -140 205 -165 306 -9
34 -16 66 -16 70 0 5 29 8 64 6 335 -18 557 306 435 633 -46 124 -114 176
-239 185 l-75 5 1 90 c1 118 23 184 119 350 101 174 129 263 123 388 -4 85 -8
98 -46 172 -35 66 -44 95 -52 168 -11 98 -35 178 -74 247 -56 101 -196 236
-301 291 -33 18 -95 56 -137 86 -188 131 -383 186 -534 149z m288 -95 c63 -20
94 -39 204 -123 27 -21 70 -45 96 -53 52 -18 227 -162 292 -240 95 -115 142
-234 111 -281 -8 -13 -15 -32 -15 -42 0 -10 28 -65 63 -123 l62 -104 0 -85
c-1 -91 -14 -133 -77 -237 -37 -62 -68 -79 -158 -88 -78 -8 -126 6 -115 33 4
9 8 59 10 110 4 93 3 94 -19 88 -12 -3 -61 0 -108 7 -107 16 -138 8 -179 -43
-18 -22 -36 -40 -40 -40 -5 0 -13 19 -20 43 -15 56 -58 142 -110 218 -67 99
-70 119 -78 436 -6 247 -9 285 -24 300 -26 26 -30 11 -18 -69 6 -40 15 -181
20 -313 9 -274 15 -301 97 -433 56 -89 93 -175 94 -215 0 -27 -1 -28 -37 -21
-102 18 -132 56 -203 254 -59 165 -94 226 -148 262 -63 42 -84 4 -34 -61 84
-106 152 -260 152 -340 0 -102 -101 -188 -208 -178 -91 9 -180 67 -219 141
-24 45 -21 140 5 199 33 74 98 92 139 38 9 -13 8 -20 -9 -38 -50 -53 16 -86
72 -36 25 22 33 39 37 74 5 41 2 50 -26 82 -58 65 -165 76 -221 22 -82 -79
-118 -217 -86 -330 45 -153 259 -262 415 -210 37 12 72 35 117 77 51 48 65 57
70 44 9 -24 -44 -95 -96 -128 -106 -68 -227 -75 -345 -20 -74 35 -160 115
-190 177 -21 43 -26 138 -11 208 11 49 -10 50 -42 1 -32 -50 -90 -74 -179 -74
l-72 0 17 45 c9 24 53 94 98 154 117 156 182 266 309 516 122 241 197 361 243
387 16 10 47 22 68 28 60 15 220 4 296 -19z m-812 -1213 c25 -80 59 -135 124
-196 88 -84 198 -122 347 -122 99 0 119 -31 84 -130 -8 -23 -15 -64 -15 -91 0
-27 -5 -49 -10 -49 -6 0 -41 30 -78 68 -60 60 -75 70 -142 91 -41 12 -105 42
-141 66 -78 52 -304 134 -321 117 -8 -8 -2 -19 18 -40 29 -28 93 -54 165 -66
19 -4 44 -13 55 -22 17 -14 15 -14 -36 -8 -122 14 -212 69 -255 155 -31 61
-32 73 -2 62 12 -4 36 -8 54 -8 20 0 38 -8 46 -19 36 -49 52 45 17 101 -23 39
-67 63 -113 63 -18 0 -42 6 -53 14 -33 25 -3 40 94 46 48 3 96 11 107 17 30
18 36 13 55 -49z m1152 12 c39 -11 76 -24 80 -28 5 -5 10 -32 10 -60 1 -43 -4
-59 -35 -104 -34 -49 -47 -88 -29 -88 4 0 30 8 57 19 47 17 245 39 245 26 0
-3 -23 -50 -50 -105 -35 -70 -55 -100 -68 -100 -9 0 -50 9 -90 19 -82 22 -108
18 -168 -23 -46 -31 -64 -33 -64 -6 0 56 -71 100 -159 100 -82 0 -83 17 -4
103 61 66 72 82 91 151 36 122 55 132 184 96z m-1472 -35 c0 -2 -20 -27 -45
-55 -46 -52 -51 -65 -36 -89 5 -8 0 -29 -16 -57 -25 -44 -28 -94 -6 -101 7 -3
24 19 38 48 29 56 67 99 87 99 7 0 31 -33 53 -72 84 -151 176 -209 338 -214
105 -4 135 -18 188 -88 20 -26 51 -57 70 -68 41 -25 52 -38 85 -108 90 -185
180 -274 337 -332 73 -26 86 -29 115 -18 43 15 60 2 35 -28 -10 -12 -38 -28
-63 -35 -40 -12 -45 -16 -45 -42 0 -27 3 -30 36 -33 50 -4 94 34 111 96 10 34
19 47 32 47 20 0 24 -5 52 -73 22 -55 100 -112 191 -143 130 -43 275 -11 354
78 60 69 97 187 59 188 -11 0 -14 10 -12 38 5 58 -21 47 -41 -17 -20 -62 -72
-116 -130 -135 -46 -16 -58 -47 -27 -71 27 -20 20 -26 -42 -35 -52 -8 -140 13
-198 47 -46 27 -100 79 -100 94 0 28 -26 66 -54 81 -19 10 -77 19 -152 24
-167 12 -219 32 -304 118 -67 68 -137 189 -126 218 9 22 28 11 51 -27 11 -19
45 -60 76 -91 47 -48 68 -61 125 -79 61 -18 69 -19 83 -5 25 25 2 47 -80 75
-89 30 -132 59 -149 100 -16 39 -7 47 33 31 75 -30 106 -34 132 -17 13 9 29
24 34 35 10 17 6 19 -39 18 -41 -1 -55 4 -78 26 -69 66 -60 141 25 215 l56 50
-21 50 c-26 60 -27 83 -7 122 30 59 103 81 126 39 17 -33 4 -82 -35 -134 -41
-54 -45 -89 -14 -122 l22 -23 -22 -45 c-44 -91 -18 -168 71 -212 46 -24 47
-25 47 -72 0 -105 84 -201 207 -237 98 -28 202 3 272 82 71 81 61 117 -15 54
-115 -96 -264 -87 -369 20 l-40 41 2 90 2 90 -32 -6 c-27 -5 -37 -1 -66 29
-48 49 -48 97 -3 137 37 33 51 35 92 14 36 -19 60 -62 60 -110 0 -47 25 -47
70 0 58 60 109 67 233 30 l57 -16 0 -105 c0 -76 3 -104 13 -105 6 0 51 -2 98
-2 110 -2 153 -27 196 -114 50 -103 41 -294 -19 -391 -28 -45 -125 -116 -191
-139 -75 -26 -187 -23 -254 6 -48 21 -116 84 -165 152 -17 24 -17 24 -18 -29
0 -63 17 -100 62 -134 63 -48 96 -89 108 -136 40 -156 91 -272 154 -355 20
-26 37 -52 39 -58 1 -7 -38 -19 -93 -31 -252 -51 -508 -172 -715 -336 -38 -30
-124 -108 -190 -173 -99 -96 -135 -124 -202 -158 -66 -33 -86 -48 -107 -83
l-26 -43 0 30 c0 42 23 75 134 195 203 218 277 377 301 648 8 82 3 77 128 147
80 45 215 149 224 172 12 31 -11 22 -89 -37 -101 -77 -215 -133 -327 -161 -69
-17 -105 -21 -195 -17 -162 6 -196 29 -216 144 -16 90 -29 113 -72 135 -22 11
-38 25 -35 32 2 7 31 14 68 17 49 4 65 9 67 22 5 27 -38 49 -75 39 -17 -5 -51
-6 -77 -4 -46 6 -46 6 -46 43 0 33 5 41 35 59 44 26 60 64 44 103 -6 16 -22
31 -36 34 -33 9 -38 0 -18 -29 19 -29 18 -30 -65 -64 -64 -26 -79 -28 -104
-10 -16 12 -16 18 -6 57 18 67 50 325 50 408 0 49 -7 91 -21 130 -17 46 -22
88 -25 212 -6 176 -9 200 -28 200 -19 0 -26 -32 -26 -127 0 -96 -12 -106 -56
-48 -62 82 -71 178 -23 273 17 34 47 75 67 92 37 31 42 33 42 25z m955 -255
c19 -36 19 -60 1 -60 -13 0 -36 48 -36 76 0 24 19 15 35 -16z m808 -1727 c-2
-18 2 -35 7 -38 5 -3 -27 -26 -73 -50 -58 -30 -83 -49 -85 -64 -2 -14 2 -21
14 -21 13 0 11 -5 -10 -25 -32 -29 -30 -49 5 -53 35 -4 61 19 68 64 5 32 13
42 41 56 19 10 43 28 52 40 l18 23 0 -31 c0 -24 -8 -38 -35 -58 -42 -32 -45
-54 -7 -58 26 -3 27 -5 26 -54 -2 -55 -22 -104 -62 -146 -23 -25 -24 -30 -13
-52 15 -28 17 -22 -29 -104 -31 -55 -38 -62 -60 -57 -29 6 -37 1 -68 -39 -31
-40 -28 -49 13 -42 19 4 35 3 35 -1 0 -20 -35 -56 -66 -69 -19 -8 -41 -26 -50
-39 -16 -24 -16 -27 1 -38 16 -12 14 -16 -20 -46 -41 -36 -56 -35 -32 2 23 36
7 53 -32 33 -64 -33 -79 -100 -18 -77 33 13 35 1 5 -26 -50 -45 -98 -57 -72
-18 20 31 11 59 -16 52 -30 -8 -24 8 15 37 37 29 45 53 19 63 -30 11 -109 -86
-83 -103 5 -3 2 -15 -6 -27 -22 -32 -19 -57 8 -58 21 0 21 -1 -3 -11 -32 -13
-327 -15 -339 -3 -6 6 3 19 24 35 42 31 63 66 48 81 -23 23 -103 -41 -103 -82
0 -35 -23 -37 -138 -8 -137 34 -178 55 -175 92 1 24 0 25 -23 16 -38 -14 -80
-11 -94 6 -11 13 -9 20 12 43 40 43 49 66 34 87 -12 16 -14 16 -34 -10 -12
-15 -24 -42 -28 -60 -4 -23 -10 -32 -20 -28 -21 8 -17 34 15 106 32 70 57 93
146 133 42 18 89 55 176 139 290 279 457 386 733 469 108 33 228 56 266 52 10
-1 14 -11 13 -33z"/>
<path d="M2730 4860 c0 -19 38 -47 86 -65 87 -31 154 -66 164 -86 13 -24 50
-26 50 -2 0 36 -75 89 -179 126 -111 40 -121 42 -121 27z"/>
<path d="M2383 4559 c-34 -10 -73 -51 -73 -78 0 -9 25 -37 55 -64 43 -38 57
-58 69 -100 54 -188 51 -181 80 -152 8 9 18 32 22 53 4 20 11 43 17 50 8 10 7
16 -3 22 -10 6 3 16 48 36 63 27 84 53 62 79 -22 27 -114 65 -178 73 -34 5
-65 12 -69 15 -16 17 18 22 155 25 137 3 190 12 146 25 -88 26 -267 35 -331
16z m118 -137 c-7 -2 -18 1 -23 6 -8 8 -4 9 13 5 13 -4 18 -8 10 -11z"/>
<path d="M4045 4291 c5 -44 3 -66 -9 -89 -20 -39 -66 -77 -111 -92 -44 -15
-47 -40 -5 -40 85 0 170 100 170 200 0 48 -14 80 -36 80 -14 0 -15 -9 -9 -59z"/>
<path d="M3822 3158 c-16 -16 -15 -48 1 -49 31 -3 54 4 75 24 12 11 22 24 22
29 0 13 -85 9 -98 -4z"/>
<path d="M3664 3107 c-32 -28 -25 -47 18 -47 26 0 28 -2 18 -15 -6 -8 -9 -19
-5 -25 4 -6 -2 -20 -14 -31 -12 -11 -21 -26 -21 -33 0 -29 63 -35 98 -10 19
13 22 22 17 45 -5 21 -2 31 9 35 24 9 21 54 -4 54 -17 0 -19 5 -14 25 6 24 4
25 -34 25 -28 0 -49 -7 -68 -23z"/>
<path d="M3533 3071 c-35 -17 -63 -45 -63 -65 0 -11 51 -6 78 8 36 19 66 52
57 65 -9 15 -24 13 -72 -8z"/>
<path d="M3579 3007 c-43 -29 -51 -57 -15 -57 48 0 116 41 116 70 0 19 -67 10
-101 -13z"/>
<path d="M3368 2993 c-25 -16 -62 -72 -53 -81 7 -8 76 32 90 52 31 44 12 59
-37 29z"/>
<path d="M3433 2950 c-33 -20 -70 -66 -60 -76 9 -9 107 38 117 57 24 43 -3 52
-57 19z"/>
<path d="M3501 2904 c-37 -31 -40 -54 -8 -54 34 0 97 47 97 72 0 18 -60 6 -89
-18z"/>
<path d="M3612 2875 c-25 -25 -42 -48 -39 -51 10 -11 74 16 97 41 22 24 22 55
-1 55 -6 0 -32 -20 -57 -45z"/>
<path d="M3860 2888 c-20 -33 -20 -33 0 -36 15 -3 18 -9 14 -31 -8 -39 21 -49
53 -20 29 28 30 49 2 49 -16 0 -20 5 -16 18 12 43 11 47 -10 50 -17 2 -28 -5
-43 -30z"/>
<path d="M3717 2872 c-34 -35 -34 -52 -1 -52 l26 0 -29 -34 c-15 -18 -41 -36
-57 -40 -17 -3 -52 -29 -82 -60 -29 -30 -70 -64 -92 -75 -39 -20 -82 -64 -82
-83 0 -10 45 -6 89 8 22 7 23 5 17 -19 -8 -34 5 -35 58 -4 49 28 65 52 48 69
-11 11 -21 9 -54 -10 -23 -12 -43 -20 -45 -18 -9 8 60 76 108 107 28 18 54 42
59 54 6 16 20 24 47 28 21 4 53 16 71 27 45 28 40 53 -12 60 -35 4 -37 7 -23
19 23 18 22 51 -1 51 -10 0 -30 -13 -45 -28z"/>
<path d="M3183 2868 c-25 -28 -43 -62 -43 -82 0 -13 6 -12 35 5 39 23 75 64
75 85 0 22 -44 16 -67 -8z"/>
<path d="M3293 2860 c-36 -15 -58 -70 -28 -70 29 0 65 31 65 56 0 26 -4 27
-37 14z"/>
<path d="M3391 2834 c-23 -29 -26 -40 -13 -48 15 -9 72 33 72 54 0 29 -34 25
-59 -6z"/>
<path d="M3472 2810 c-26 -24 -56 -79 -48 -87 3 -4 27 7 53 23 35 22 49 37 51
57 4 34 -23 37 -56 7z"/>
<path d="M3551 2771 c-33 -31 -41 -61 -16 -61 19 0 85 58 85 76 0 24 -36 16
-69 -15z"/>
<path d="M3182 2760 c-38 -23 -76 -80 -62 -94 13 -13 72 27 94 64 24 42 10 55
-32 30z"/>
<path d="M3795 2735 c-14 -13 -25 -28 -25 -33 0 -5 -19 -12 -42 -15 -68 -9
-122 -87 -61 -87 18 0 38 13 64 40 28 29 46 40 68 40 34 0 71 33 71 62 0 27
-46 23 -75 -7z"/>
<path d="M3044 2735 c-22 -15 -59 -83 -51 -92 9 -8 66 26 77 46 12 23 13 61 2
61 -4 0 -17 -7 -28 -15z"/>
<path d="M3245 2713 c-25 -38 -33 -73 -16 -73 19 0 81 68 81 89 0 35 -36 26
-65 -16z"/>
<path d="M3354 2700 c-22 -9 -84 -75 -84 -90 0 -19 39 -10 69 16 55 46 65 93
15 74z"/>
<path d="M3424 2671 c-36 -22 -51 -40 -56 -66 -5 -34 30 -29 67 8 53 53 45 92
-11 58z"/>
<path d="M3781 2635 c-39 -34 -40 -55 -2 -55 31 0 85 43 78 63 -7 22 -44 18
-76 -8z"/>
<path d="M2990 2595 c-57 -38 -69 -43 -50 -20 13 16 7 45 -10 45 -16 0 -90
-71 -90 -86 0 -8 7 -14 16 -14 12 0 8 -10 -16 -36 -29 -33 -30 -38 -16 -52 14
-15 18 -14 43 4 40 30 50 50 36 74 -11 16 -10 21 6 29 14 8 22 7 31 -4 10 -12
19 -11 61 10 26 14 51 25 54 25 3 0 5 -13 5 -30 0 -28 2 -29 26 -20 49 19 84
50 84 76 l0 24 -40 -20 c-52 -27 -64 -26 -56 5 9 36 -20 33 -84 -10z"/>
<path d="M3190 2557 c-20 -16 -60 -68 -60 -77 0 -5 16 -3 36 3 33 10 84 57 84
78 0 13 -42 11 -60 -4z"/>
<path d="M3654 2551 c-56 -34 -83 -91 -44 -91 34 0 79 28 95 60 26 51 3 64
-51 31z"/>
<path d="M3282 2544 c-31 -21 -57 -73 -43 -87 7 -7 23 2 51 30 56 57 51 99 -8
57z"/>
<path d="M2751 2494 c-19 -14 -51 -69 -51 -89 0 -3 9 -5 21 -5 l20 0 -20 -29
c-24 -34 -39 -91 -23 -91 14 0 79 74 87 99 4 12 2 28 -4 35 -8 9 -7 22 5 44
24 48 7 65 -35 36z"/>
<path d="M3312 2472 c-41 -41 -60 -82 -38 -82 19 0 93 56 106 80 6 11 8 25 5
30 -12 19 -35 10 -73 -28z"/>
<path d="M2990 2493 c-44 -16 -93 -93 -60 -93 38 0 90 49 90 84 0 17 -5 18
-30 9z"/>
<path d="M3420 2458 c-36 -24 -69 -72 -58 -83 20 -21 103 56 96 89 -3 16 -7
15 -38 -6z"/>
<path d="M3043 2441 c-35 -22 -53 -49 -53 -81 0 -19 2 -20 28 -6 41 21 64 51
60 80 l-3 26 -32 -19z"/>
<path d="M3523 2444 c-37 -19 -67 -59 -59 -80 5 -13 9 -13 35 0 30 16 71 65
71 85 0 15 -9 14 -47 -5z"/>
<path d="M3118 2413 c-35 -37 -64 -83 -53 -83 13 0 71 33 93 53 24 22 30 67 9
67 -7 0 -29 -17 -49 -37z"/>
<path d="M3615 2415 c-56 -57 -42 -95 23 -61 33 17 57 44 66 74 7 19 4 22 -23
22 -21 0 -41 -10 -66 -35z"/>
<path d="M2816 2365 c-30 -28 -34 -55 -7 -55 21 0 71 46 71 66 0 22 -35 16
-64 -11z"/>
<path d="M3174 2361 c-30 -18 -60 -69 -52 -91 5 -17 98 69 98 91 0 24 -7 24
-46 0z"/>
<path d="M3270 2346 c-24 -7 -41 -23 -55 -48 -11 -20 -16 -40 -12 -44 4 -4 27
2 51 13 30 15 47 31 54 52 13 37 7 42 -38 27z"/>
<path d="M3363 2328 c-11 -13 -28 -38 -38 -56 l-16 -34 23 7 c52 17 107 72 93
95 -11 17 -41 11 -62 -12z"/>
<path d="M2841 2293 c-30 -37 -41 -73 -21 -73 17 0 80 70 80 90 0 31 -26 24
-59 -17z"/>
<path d="M2931 2284 c-22 -18 -31 -35 -31 -55 0 -35 2 -35 47 -4 20 13 38 23
40 21 2 -1 -4 -20 -12 -41 -9 -20 -14 -39 -12 -42 8 -7 60 23 90 52 44 45 29
77 -26 56 -25 -10 -27 -8 -27 14 0 33 -29 33 -69 -1z"/>
<path d="M3221 2224 c-29 -24 -44 -74 -22 -74 18 0 71 52 71 70 0 30 -16 32
-49 4z"/>
<path d="M3339 2220 c-18 -10 -45 -67 -36 -76 10 -11 75 25 82 45 11 36 -11
51 -46 31z"/>
<path d="M1928 6959 c-10 -6 -18 -22 -18 -37 0 -28 97 -330 110 -345 13 -14
49 12 56 39 4 14 1 37 -5 51 -11 24 -9 29 16 50 59 49 78 55 124 36 l42 -16
24 27 c13 16 23 29 21 31 -2 1 -72 41 -157 89 -151 85 -179 95 -213 75z m127
-116 c19 -9 35 -20 35 -23 0 -9 -49 -54 -53 -49 -12 16 -34 89 -27 89 5 0 25
-8 45 -17z"/>
<path d="M4407 6739 c-23 -13 -47 -62 -47 -94 0 -14 13 -54 29 -90 24 -53 27
-67 17 -81 -17 -22 -61 -12 -77 18 -7 12 -11 44 -10 70 1 43 -1 50 -25 60 -23
11 -28 10 -40 -7 -8 -10 -14 -42 -14 -70 0 -59 30 -111 83 -144 43 -26 83 -27
125 -1 60 37 64 90 16 195 -28 60 -26 89 3 78 40 -14 55 -36 49 -73 -6 -40 -1
-52 31 -69 52 -27 71 87 25 148 -44 60 -119 87 -165 60z"/>
<path d="M1637 6661 c-29 -28 -63 -67 -75 -89 l-22 -39 126 -104 c69 -57 134
-105 144 -107 35 -6 140 141 140 197 0 52 -66 138 -132 172 -21 11 -58 19 -83
19 -42 0 -51 -5 -98 -49z m164 -56 c20 -14 44 -41 54 -59 16 -29 17 -38 6 -64
-7 -17 -21 -38 -32 -47 -17 -17 -22 -14 -95 46 -43 35 -79 70 -82 77 -2 6 10
25 26 42 38 37 73 39 123 5z"/>
<path d="M1466 6438 c-9 -12 -16 -29 -16 -38 0 -14 269 -200 289 -200 12 0 41
40 41 56 0 9 -281 204 -294 204 -3 0 -12 -10 -20 -22z"/>
<path d="M4566 6356 c-97 -19 -161 -36 -164 -44 -2 -7 4 -24 13 -38 15 -23 21
-25 60 -20 l43 7 32 -53 c32 -51 32 -54 16 -81 -20 -35 -20 -67 -2 -93 13 -17
16 -17 30 -4 22 22 216 292 216 300 0 19 -44 60 -63 59 -12 -1 -94 -15 -181
-33z m124 -64 c0 -5 -14 -21 -31 -38 -30 -28 -31 -29 -45 -9 -8 10 -13 24 -11
29 6 18 87 34 87 18z"/>
<path d="M1356 6256 c-32 -31 -65 -100 -66 -138 0 -14 11 -40 25 -56 50 -60
116 -49 195 32 24 25 50 46 57 46 14 0 33 -31 33 -55 0 -29 -46 -65 -83 -65
-35 0 -47 -15 -47 -64 0 -16 6 -18 55 -14 62 5 95 28 125 88 40 81 30 144 -30
175 -59 31 -97 18 -176 -57 -63 -60 -102 -39 -58 30 8 12 25 22 38 22 28 0 59
32 54 57 -2 14 -14 19 -49 21 -37 2 -50 -2 -73 -22z"/>
<path d="M4765 6074 c-71 -36 -140 -72 -152 -80 l-23 -14 49 -98 c56 -111 73
-131 96 -112 22 18 19 43 -15 109 -22 45 -26 61 -17 69 7 5 63 35 125 66 61
31 112 60 112 66 0 19 -24 60 -34 59 -6 0 -69 -29 -141 -65z"/>
<path d="M1232 5955 c-38 -17 -73 -68 -107 -160 -24 -62 -25 -70 -11 -81 9 -6
84 -37 167 -69 147 -57 152 -58 166 -39 25 34 12 57 -42 77 -71 26 -83 39 -57
65 12 12 38 24 59 27 90 16 113 26 128 55 8 16 15 36 15 44 0 17 -25 15 -117
-10 -28 -8 -53 -14 -56 -14 -3 0 -8 15 -11 34 -11 60 -76 95 -134 71z m62 -91
c14 -14 14 -19 0 -52 -9 -20 -18 -43 -21 -49 -7 -17 -48 -16 -62 1 -8 10 -8
21 -1 40 5 14 14 37 20 51 11 29 41 33 64 9z"/>
<path d="M4888 5787 c-75 -62 -139 -118 -142 -125 -3 -7 1 -26 9 -43 l16 -29
189 0 c203 0 207 1 174 48 -14 21 -22 22 -135 22 -65 0 -119 4 -119 8 0 5 38
38 85 75 47 37 89 75 92 83 7 19 -8 66 -22 70 -5 2 -72 -47 -147 -109z"/>
<path d="M1064 5606 c-21 -55 -71 -237 -66 -240 18 -9 343 -98 347 -94 10 10
75 244 71 254 -6 14 -40 24 -55 15 -6 -4 -22 -43 -34 -87 -23 -79 -23 -79 -56
-77 -18 0 -37 5 -41 10 -5 4 1 43 13 86 18 67 19 80 6 88 -20 13 -59 11 -59
-2 0 -7 -9 -43 -21 -81 -18 -63 -22 -68 -42 -62 -39 11 -41 21 -17 103 12 43
19 84 16 90 -10 16 -56 14 -62 -3z"/>
<path d="M4800 5482 c0 -31 29 -62 58 -62 40 0 48 -9 66 -71 l17 -57 -31 -30
c-30 -30 -38 -64 -21 -91 5 -7 13 -12 19 -10 6 2 74 52 151 112 130 99 141
110 141 140 0 56 -6 59 -166 73 -209 18 -234 18 -234 -4z m269 -81 c10 -6 5
-15 -21 -35 -19 -14 -37 -26 -40 -26 -9 0 -27 58 -21 64 9 9 66 7 82 -3z"/>
<path d="M984 5296 c-3 -8 -4 -27 -2 -43 3 -24 18 -37 107 -90 57 -35 97 -65
90 -67 -8 -2 -60 -9 -117 -14 -111 -10 -142 -25 -142 -69 0 -19 5 -23 33 -23
59 0 339 38 347 46 4 5 10 23 13 41 5 27 2 35 -21 51 -40 28 -291 182 -297
182 -3 0 -8 -6 -11 -14z"/>
<path d="M5060 5151 l-155 -27 3 -54 c8 -155 64 -224 182 -223 36 0 71 8 103
23 80 38 103 93 86 204 -13 83 -23 106 -47 105 -9 -1 -87 -13 -172 -28z m145
-120 c0 -72 -28 -95 -116 -96 -54 0 -63 3 -85 28 -32 37 -32 85 -1 92 49 12
173 33 187 31 11 -1 15 -15 15 -55z"/>
<path d="M910 4905 c-13 -34 -13 -42 3 -52 24 -14 336 -50 347 -39 5 5 10 23
10 38 0 33 2 32 -170 53 -69 9 -137 18 -152 21 -23 5 -30 1 -38 -21z"/>
<path d="M5060 4789 c-65 -27 -100 -85 -100 -164 0 -67 18 -104 67 -142 32
-25 45 -28 112 -28 84 0 127 18 165 68 30 41 30 163 0 203 -40 54 -70 68 -147
71 -40 2 -83 -2 -97 -8z m145 -83 c63 -27 76 -97 25 -140 -56 -46 -150 -43
-185 7 -22 32 -19 80 8 104 50 46 92 54 152 29z"/>
<path d="M890 4728 c0 -33 2 -36 38 -42 20 -3 63 -6 95 -6 31 0 57 -4 57 -8 0
-5 -37 -29 -82 -53 -46 -24 -93 -54 -105 -66 -25 -24 -30 -55 -10 -71 13 -11
322 -33 344 -25 9 4 13 17 11 37 l-3 31 -92 9 c-51 5 -93 12 -93 15 0 3 45 30
100 59 78 42 101 58 106 79 10 37 -7 58 -47 58 -19 1 -98 5 -176 9 l-143 9 0
-35z"/>
<path d="M882 4371 c-8 -5 -12 -21 -10 -41 l3 -33 128 2 c143 3 167 -6 167
-59 0 -57 -16 -65 -154 -68 -139 -4 -157 -12 -140 -60 l9 -26 130 3 c147 3
186 15 209 60 21 39 21 133 0 172 -24 47 -66 59 -206 59 -68 0 -129 -4 -136
-9z"/>
<path d="M4980 4351 c0 -33 10 -38 86 -47 37 -5 54 -11 54 -21 0 -18 -41 -58
-103 -100 -43 -30 -47 -36 -47 -73 0 -22 2 -40 5 -40 11 0 81 39 115 65 l35
26 19 -27 c11 -15 35 -33 54 -41 43 -18 93 -4 117 34 19 29 32 159 21 217 l-7
36 -174 0 -175 0 0 -29z m278 -119 c-3 -56 -4 -57 -33 -57 -29 0 -30 1 -33 55
-4 62 15 88 50 69 16 -9 18 -20 16 -67z"/>
<path d="M1010 3894 c-13 -63 -7 -130 21 -219 10 -33 19 -65 19 -71 0 -6 -18
-18 -40 -27 -31 -12 -40 -21 -40 -39 0 -34 18 -48 60 -48 l37 0 11 -102 c9
-83 17 -115 47 -175 37 -75 48 -85 60 -55 31 82 24 189 -20 289 -26 57 -27 55
30 68 40 9 55 23 55 50 0 34 -23 47 -76 44 l-48 -3 -2 84 c0 47 -6 103 -12
125 -13 45 -67 135 -81 135 -5 0 -15 -25 -21 -56z"/>
<path d="M5114 3905 c-35 -61 -52 -122 -60 -215 l-7 -77 -46 -9 c-44 -9 -46
-11 -46 -43 0 -29 4 -36 32 -45 17 -6 35 -14 38 -18 4 -4 -2 -35 -14 -70 -27
-82 -35 -144 -27 -210 10 -79 21 -90 51 -53 46 55 67 130 66 233 l-1 94 49 -7
c38 -5 52 -3 65 10 34 34 15 70 -42 81 -45 9 -58 28 -39 57 23 35 47 125 47
173 0 55 -19 144 -30 144 -5 0 -21 -20 -36 -45z"/>
<path d="M1317 2995 c-59 -22 -98 -54 -118 -99 -24 -53 -24 -90 1 -142 23 -47
56 -73 108 -85 42 -9 62 -3 62 21 0 35 -12 50 -51 60 -54 15 -76 49 -59 91 16
38 76 79 127 86 31 4 43 0 67 -22 29 -27 29 -31 10 -108 -13 -52 40 -78 69
-33 54 81 7 202 -92 235 -43 14 -76 13 -124 -4z"/>
<path d="M4686 2913 l-17 -36 138 -139 c132 -133 138 -137 150 -115 19 34 15
58 -13 88 l-25 26 25 57 c14 31 31 56 38 57 7 0 27 2 43 2 24 2 34 10 48 37
l17 35 -42 6 c-24 3 -111 9 -194 13 l-150 6 -18 -37z m203 -59 c7 -7 -18 -54
-28 -54 -14 0 -71 50 -71 62 0 9 89 2 99 -8z"/>
<path d="M1460 2615 c-74 -46 -136 -87 -137 -92 -2 -4 25 -55 60 -113 51 -84
68 -106 88 -108 51 -6 51 18 -1 103 -27 44 -46 83 -44 87 9 15 68 41 71 32 11
-31 85 -134 96 -134 8 0 21 8 30 18 15 17 14 22 -23 82 -45 74 -47 85 -21 100
30 15 34 13 60 -33 13 -23 35 -59 48 -80 23 -36 24 -37 48 -21 14 9 25 21 25
26 0 6 -28 57 -61 114 -49 82 -66 104 -83 103 -11 -1 -82 -39 -156 -84z"/>
<path d="M4595 2665 c-81 -29 -126 -115 -104 -197 31 -117 199 -186 289 -120
70 52 93 129 60 197 -24 50 -34 53 -69 26 l-25 -19 19 -42 c17 -38 18 -45 4
-68 -30 -54 -89 -54 -161 1 -33 25 -44 41 -46 66 -4 39 29 81 63 81 29 0 45
19 45 51 0 21 -19 42 -33 39 -1 -1 -20 -7 -42 -15z"/>
<path d="M1675 2314 c-161 -128 -151 -116 -122 -149 l24 -29 74 58 c40 32 75
54 77 48 1 -5 -11 -47 -28 -93 -16 -45 -30 -97 -30 -114 0 -38 32 -73 52 -58
259 201 277 220 246 251 -20 20 -32 15 -112 -48 -42 -33 -76 -57 -76 -54 0 4
17 55 37 114 31 89 36 113 28 136 -17 49 -42 40 -170 -62z"/>
<path d="M4361 2374 c-12 -15 -21 -29 -21 -33 0 -9 270 -216 282 -216 18 0 54
55 42 63 -6 4 -69 53 -141 110 -72 56 -133 102 -136 102 -3 0 -15 -12 -26 -26z"/>
<path d="M4240 2209 c-36 -22 -150 -135 -150 -149 0 -4 56 -61 125 -125 130
-122 145 -129 173 -84 13 20 10 25 -39 71 -75 70 -61 79 109 67 60 -4 65 -2
89 25 l25 30 -23 9 c-13 5 -53 12 -89 15 l-65 7 0 47 c-1 94 -75 136 -155 87z
m64 -65 c26 -10 18 -48 -17 -89 l-34 -39 -26 26 c-32 32 -28 50 22 83 19 14
36 25 38 25 1 0 8 -3 17 -6z"/>
<path d="M2007 2149 c-21 -12 -22 -55 -2 -63 8 -3 20 -17 26 -30 11 -23 5 -32
-84 -127 -90 -96 -95 -104 -80 -121 37 -41 50 -35 147 69 l93 98 42 -29 c40
-28 42 -28 61 -11 11 10 20 22 20 26 0 9 -158 164 -189 185 -11 8 -22 9 -34 3z"/>
<path d="M3927 1950 c-59 -44 -107 -83 -107 -86 0 -11 204 -273 216 -278 12
-5 205 132 219 154 7 11 -24 50 -40 50 -8 0 -44 -23 -81 -51 -71 -55 -82 -56
-111 -12 -13 19 -9 24 51 69 65 49 77 69 54 92 -20 20 -41 14 -93 -28 -27 -22
-57 -40 -65 -40 -17 0 -40 19 -40 32 0 4 32 32 70 63 39 31 70 60 70 64 0 5
-8 19 -18 31 l-17 21 -108 -81z"/>
<path d="M2237 1932 c-8 -9 -49 -77 -91 -151 -71 -126 -75 -136 -59 -153 31
-34 58 -23 92 37 17 30 35 55 41 55 19 0 40 -46 40 -90 0 -54 16 -114 33 -128
6 -5 23 -13 36 -17 l24 -7 -5 91 c-5 82 -4 91 12 91 37 0 81 23 95 51 39 74 2
132 -124 198 -73 38 -79 40 -94 23z m105 -113 c40 -26 47 -35 42 -53 -3 -11
-10 -25 -14 -30 -10 -10 -68 10 -100 34 -23 17 -23 17 -4 49 10 17 20 31 23
31 2 0 26 -14 53 -31z"/>
<path d="M3723 1823 c-37 -19 -38 -26 -22 -119 6 -34 9 -72 7 -85 -3 -21 -10
-15 -63 49 -60 73 -60 73 -104 69 -80 -8 -80 -14 -4 -191 37 -87 73 -160 80
-163 7 -3 24 2 38 11 25 16 25 17 9 54 -34 81 -53 132 -49 132 2 0 29 -31 60
-70 40 -51 62 -70 79 -70 41 0 48 21 42 117 l-7 88 37 -77 c38 -81 52 -91 89
-64 17 13 16 20 -40 157 -32 79 -65 152 -73 162 -18 21 -37 21 -79 0z"/>
<path d="M2558 1730 c-43 -23 -71 -66 -88 -136 -23 -93 11 -167 95 -205 94
-43 188 -12 230 75 35 74 41 119 20 171 -37 98 -163 144 -257 95z m160 -86
c40 -45 24 -141 -30 -178 -36 -26 -93 -21 -117 10 -32 40 -29 113 6 154 47 56
98 61 141 14z"/>
<path d="M3266 1677 c-12 -9 -31 -68 -60 -190 -46 -189 -46 -183 8 -178 24 2
45 29 46 58 0 24 10 28 87 38 l52 7 18 -36 c14 -31 22 -36 50 -36 21 0 36 6
39 15 6 15 -132 280 -164 318 -18 20 -51 22 -76 4z m71 -151 c19 -38 20 -45 7
-50 -31 -12 -54 -6 -54 13 0 30 12 81 19 81 4 0 17 -20 28 -44z"/>
<path d="M2920 985 c-12 -15 -9 -93 6 -116 8 -14 24 0 24 21 0 12 8 20 23 22
19 3 22 9 22 43 0 37 -2 40 -31 43 -19 2 -36 -3 -44 -13z"/>
<path d="M3025 971 c-7 -32 3 -98 15 -106 5 -3 27 -1 50 4 27 6 50 5 69 -2 21
-8 36 -7 60 2 29 12 31 17 31 62 0 54 -15 69 -68 69 -33 0 -42 -14 -42 -66 0
-30 -3 -34 -27 -34 -16 0 -35 5 -43 10 -12 8 -9 10 11 10 28 0 39 16 39 56 0
22 -4 24 -44 24 -41 0 -45 -2 -51 -29z"/>
<path d="M3275 977 c-16 -64 12 -153 30 -96 l8 23 17 -22 c32 -40 46 -28 45
38 0 68 -9 80 -62 80 -26 0 -34 -5 -38 -23z"/>
<path d="M2745 971 c-10 -34 5 -110 24 -116 25 -7 76 10 76 26 0 7 -13 17 -30
20 -20 5 -23 7 -9 8 11 0 23 4 27 7 11 12 -5 34 -27 35 -20 1 -20 1 2 7 38 11
30 27 -15 30 -34 3 -42 0 -48 -17z"/>
<path d="M3417 975 c-14 -14 -35 -101 -26 -110 2 -2 24 -5 48 -7 49 -3 69 17
27 28 -29 7 -36 26 -8 23 49 -5 58 13 15 29 l-28 10 28 1 c22 1 28 5 25 19 -4
23 -60 28 -81 7z"/>
<path d="M2627 973 c-3 -5 -6 -33 -8 -63 l-4 -55 33 -3 c48 -5 82 21 82 62 0
19 -8 40 -18 49 -19 17 -77 23 -85 10z m63 -64 c0 -23 -25 -25 -34 -4 -3 8 -3
22 0 30 8 21 34 0 34 -26z"/>
<path d="M3527 973 c-3 -5 -8 -34 -12 -65 -6 -49 -5 -58 8 -58 9 0 20 7 25 16
8 15 11 15 31 -5 11 -11 27 -21 34 -21 17 0 16 102 -2 124 -14 16 -76 23 -84
9z"/>
<path d="M2476 948 c-22 -31 -20 -74 4 -98 52 -52 89 5 56 85 -17 40 -38 45
-60 13z"/>
<path d="M3673 950 c-47 -19 -40 -107 10 -124 22 -8 32 -6 55 11 39 29 42 74
6 102 -29 23 -38 24 -71 11z m45 -57 c-3 -30 -25 -42 -34 -19 -9 22 2 46 21
46 12 0 15 -8 13 -27z"/>
<path d="M2388 939 c-19 -11 -25 -49 -8 -49 5 0 13 -15 18 -32 5 -20 16 -34
26 -36 17 -4 18 1 11 55 -10 78 -13 82 -47 62z"/>
<path d="M2832 790 c-21 -9 -23 -15 -20 -67 l3 -58 48 -3 c37 -2 47 0 47 12 0
10 -9 16 -24 16 -14 0 -28 5 -31 10 -4 6 5 10 19 10 32 0 35 25 4 35 -22 7
-22 8 5 12 20 3 27 9 25 21 -4 20 -42 26 -76 12z"/>
<path d="M3000 775 c-21 -23 -22 -26 -7 -38 8 -6 17 -25 19 -42 2 -19 9 -30
18 -30 12 0 15 14 15 64 0 36 -5 66 -11 68 -5 2 -21 -8 -34 -22z"/>
<path d="M3100 780 c-11 -11 -20 -29 -20 -39 0 -11 -2 -25 -5 -33 -3 -7 1 -22
8 -32 13 -17 18 -18 65 -6 41 11 54 11 66 1 31 -26 46 -6 46 59 0 73 -11 76
-62 18 l-37 -43 -1 37 c0 49 -30 68 -60 38z"/>
<path d="M2692 768 c-7 -7 -12 -36 -12 -65 0 -56 3 -58 55 -54 47 5 73 82 39
115 -18 19 -65 21 -82 4z m65 -62 c-6 -19 -25 -17 -32 3 -10 31 5 48 22 25 7
-10 12 -23 10 -28z"/>
<path d="M3302 764 c-20 -14 -21 -17 -7 -37 8 -12 15 -31 15 -44 0 -12 5 -25
10 -28 14 -8 30 38 30 86 0 43 -12 49 -48 23z"/>
<path d="M350 645 c0 -62 3 -78 21 -96 24 -24 43 -21 47 10 3 15 8 21 19 17 8
-3 18 -6 23 -6 18 0 40 -33 40 -60 0 -28 22 -50 49 -50 12 0 16 136 5 164 -9
24 -51 20 -57 -5 -5 -19 -7 -20 -36 -5 -33 18 -51 44 -51 74 0 20 -18 32 -46
32 -11 0 -14 -17 -14 -75z"/>
<path d="M641 551 c-20 -22 -44 -52 -51 -67 -13 -23 -13 -27 3 -39 13 -10 26
-10 51 -3 42 13 76 5 115 -28 17 -14 40 -24 51 -22 18 3 16 11 -32 98 -64 115
-80 122 -137 61z"/>
<path d="M884 546 c-18 -8 -36 -27 -44 -46 -39 -95 120 -183 198 -109 40 37
-1 53 -59 24 -28 -15 -30 -14 -54 9 -32 33 -32 63 1 78 20 10 30 9 54 -5 30
-18 80 -23 80 -8 0 15 -52 48 -95 60 -48 13 -43 13 -81 -3z"/>
<path d="M1256 527 c-14 -14 -41 -57 -60 -96 l-36 -71 28 0 c16 0 37 9 47 20
22 24 87 27 105 5 7 -8 28 -15 47 -15 l34 0 -27 48 c-78 136 -97 150 -138 109z"/>
<path d="M1090 450 l0 -90 30 0 30 0 0 90 0 90 -30 0 -30 0 0 -90z"/>
<path d="M320 415 l0 -84 85 -46 c78 -43 105 -49 105 -24 0 5 -20 18 -43 28
-63 27 -87 62 -87 126 0 52 -7 66 -42 78 -16 6 -18 -2 -18 -78z"/>
<path d="M1863 392 c-83 -27 -93 -40 -93 -122 0 -53 4 -72 15 -76 27 -11 119
28 158 66 31 31 37 45 37 78 0 43 -20 72 -48 71 -9 0 -41 -8 -69 -17z m56 -48
c2 -2 0 -15 -3 -29 -8 -33 -41 -65 -66 -65 -28 0 -28 62 1 91 18 18 50 19 68
3z"/>
<path d="M520 305 c0 -83 1 -86 26 -95 14 -6 30 -10 35 -10 5 0 9 38 9 85 0
83 -1 86 -26 95 -14 6 -30 10 -35 10 -5 0 -9 -38 -9 -85z"/>
<path d="M627 343 c-4 -3 -7 -40 -7 -80 l0 -74 44 -20 c58 -25 127 -34 155
-20 22 12 29 45 11 56 -6 4 -9 22 -8 42 3 43 -13 56 -100 83 -69 22 -85 24
-95 13z m107 -59 c9 -3 16 -10 16 -15 0 -14 -24 -11 -46 6 -16 12 -17 14 -2
15 9 0 23 -3 32 -6z m10 -70 c9 -3 16 -10 16 -15 0 -14 -34 -11 -56 6 -19 14
-19 14 3 15 12 0 28 -3 37 -6z"/>
<path d="M1604 322 c-12 -8 -104 -179 -104 -193 0 -20 42 -7 72 21 33 32 74
39 107 19 20 -13 71 -5 71 12 0 17 -79 128 -100 139 -22 12 -31 12 -46 2z"/>
<path d="M1410 293 c-73 -5 -90 -12 -90 -33 0 -15 8 -19 38 -22 l37 -3 3 -60
c4 -69 11 -81 41 -66 18 10 21 21 21 76 0 64 0 64 32 73 18 4 34 16 36 25 4
18 -5 19 -118 10z"/>
<path d="M869 269 c-13 -26 -8 -134 8 -150 15 -15 165 -31 177 -19 18 18 -3
40 -38 40 -44 0 -89 17 -81 30 4 6 28 7 61 4 45 -6 54 -4 54 9 0 22 -31 37
-74 37 -20 0 -36 5 -36 10 0 6 27 10 61 10 52 0 60 2 57 17 -4 21 -40 30 -120
32 -49 1 -59 -2 -69 -20z"/>
<path d="M1106 265 c-13 -14 -16 -32 -14 -94 l3 -76 30 0 c27 0 30 4 33 33 4
40 20 41 57 2 31 -32 81 -48 98 -31 8 8 3 19 -18 41 l-29 30 22 20 c27 26 28
42 1 66 -30 27 -158 33 -183 9z m114 -35 c13 -9 13 -11 0 -20 -8 -5 -21 -8
-28 -5 -8 3 -18 5 -23 5 -5 0 -9 4 -9 9 0 8 13 14 40 20 3 0 12 -4 20 -9z"/>
<path d="M4400 546 c0 -53 3 -96 8 -96 4 0 16 -3 28 -6 17 -5 22 0 27 24 6 29
7 30 47 21 53 -12 80 2 80 41 0 48 -29 66 -172 106 -16 5 -18 -4 -18 -90z
m104 18 c14 -5 24 -34 12 -34 -19 0 -56 22 -51 30 7 12 17 12 39 4z"/>
<path d="M5504 585 c-12 -8 -36 -48 -55 -90 l-33 -75 -63 0 c-59 0 -63 2 -69
25 -3 14 -4 37 -1 52 7 38 -1 53 -29 53 -29 0 -36 -23 -32 -110 l3 -65 45 -3
c78 -6 170 16 207 49 37 32 59 35 110 17 28 -10 36 -10 50 4 15 16 12 22 -32
87 -50 73 -65 82 -101 56z"/>
<path d="M4641 544 c-75 -63 1 -174 119 -174 33 0 48 6 71 29 34 34 37 64 10
107 -39 65 -145 85 -200 38z m139 -56 c19 -36 5 -62 -38 -66 -32 -3 -62 25
-62 58 0 48 74 53 100 8z"/>
<path d="M4242 390 c-25 -24 -28 -50 -8 -88 32 -62 96 -102 162 -102 39 0 54
21 33 46 -9 11 -22 13 -50 9 -33 -6 -42 -3 -64 19 -18 18 -25 35 -23 54 4 36
31 40 68 8 63 -52 115 -42 59 12 -63 62 -137 79 -177 42z"/>
<path d="M5245 268 c-2 -7 -6 -40 -7 -73 -3 -60 -3 -60 -35 -63 l-32 -3 -3 68
c-3 61 -5 68 -25 71 -32 5 -47 -30 -40 -96 8 -72 30 -95 92 -95 38 0 52 5 77
31 29 28 31 37 32 99 1 67 1 68 -27 71 -16 2 -29 -2 -32 -10z"/>
<path d="M375 3220 c-11 -17 -96 -56 -174 -79 -212 -64 -168 -208 119 -390
121 -76 125 -67 116 222 -3 121 -11 228 -17 238 -11 21 -34 25 -44 9z m-5
-260 c0 -111 -3 -160 -11 -160 -22 0 -149 92 -184 133 -55 63 -59 108 -13 126
34 14 181 59 196 60 9 1 12 -37 12 -159z"/>
<path d="M5796 3213 c-10 -38 -17 -478 -7 -493 8 -12 15 -13 42 -3 90 34 253
163 298 237 40 64 18 139 -46 164 -15 6 -59 20 -98 31 -38 12 -90 34 -115 51
-52 34 -67 37 -74 13z m84 -98 c15 -8 63 -24 107 -36 43 -11 84 -28 91 -37 26
-34 14 -65 -51 -127 -60 -57 -162 -123 -174 -112 -8 8 -17 327 -9 327 4 0 20
-7 36 -15z"/>
<path d="M27 2943 c-4 -3 -5 -29 -2 -57 3 -28 10 -100 15 -161 15 -154 47
-331 71 -384 44 -100 123 -166 327 -272 115 -59 157 -98 174 -165 7 -24 17
-44 22 -44 27 0 99 46 141 91 148 158 146 398 -4 531 -29 25 -134 83 -287 158
l-242 119 -100 95 c-103 99 -104 100 -115 89z m254 -266 c41 -24 143 -79 226
-121 168 -85 225 -129 268 -207 26 -47 30 -64 30 -129 0 -62 -5 -84 -29 -130
-15 -30 -44 -71 -63 -91 l-34 -36 -58 56 c-36 36 -91 74 -151 105 -178 92
-262 164 -307 262 -23 50 -63 293 -63 380 l0 35 53 -40 c28 -22 86 -59 128
-84z"/>
<path d="M6105 2879 c-98 -99 -155 -135 -401 -255 -241 -117 -293 -157 -342
-262 -23 -49 -27 -70 -27 -152 0 -80 4 -102 24 -140 34 -64 77 -116 134 -161
68 -54 91 -52 117 10 29 66 69 102 170 152 114 56 210 119 260 171 70 72 90
124 116 303 27 182 42 405 28 405 -5 0 -41 -32 -79 -71z m3 -226 c-28 -233
-43 -282 -109 -358 -38 -42 -163 -127 -277 -185 -56 -29 -97 -59 -131 -96
l-49 -53 -39 42 c-56 61 -85 127 -91 208 -4 60 -1 75 22 123 42 86 106 134
326 246 107 55 231 126 275 159 44 33 83 60 86 60 3 1 -3 -65 -13 -146z"/>
<path d="M925 2179 c-21 -124 -135 -265 -286 -353 -204 -120 -238 -144 -320
-225 -67 -67 -95 -104 -125 -165 -38 -78 -39 -82 -39 -190 0 -106 1 -114 33
-176 46 -88 92 -149 124 -166 15 -8 29 -14 31 -14 2 0 9 18 16 40 18 60 53 95
195 188 152 100 290 229 329 308 36 71 45 117 57 289 26 358 29 444 19 475
-15 41 -26 38 -34 -11z m-41 -376 c-3 -65 -9 -157 -14 -206 -16 -158 -73 -229
-315 -394 -83 -56 -170 -120 -194 -142 -25 -23 -48 -41 -52 -41 -5 0 -19 19
-32 43 -90 156 -72 306 54 457 58 70 130 122 298 216 74 41 148 92 185 126 33
31 64 57 69 58 4 0 5 -53 1 -117z"/>
</g>
</svg>
