<?xml version="1.0" encoding="UTF-8"?>
<svg version="1.1" xmlns="http://www.w3.org/2000/svg" width="820" height="360">
<path d="M0 0 C270.6 0 541.2 0 820 0 C820 118.8 820 237.6 820 360 C549.4 360 278.8 360 0 360 C0 241.2 0 122.4 0 0 Z " fill="#105B3B" transform="translate(0,0)"/>
<path d="M0 0 C1.00023193 0.00523682 2.00046387 0.01047363 3.03100586 0.01586914 C4.1105957 0.0190918 5.19018555 0.02231445 6.30249023 0.02563477 C8.00695312 0.03820312 8.00695312 0.03820312 9.74584961 0.05102539 C11.45611328 0.05779297 11.45611328 0.05779297 13.20092773 0.06469727 C16.02845312 0.07652792 18.85587601 0.09301129 21.68334961 0.11352539 C24.16205068 6.35073165 25.97138392 12.61191793 27.62084961 19.11352539 C27.97953125 20.5037793 27.97953125 20.5037793 28.34545898 21.92211914 C30.50171309 30.30818394 32.58892826 38.71185042 34.68334961 47.11352539 C35.00086182 45.90293457 35.31837402 44.69234375 35.64550781 43.44506836 C36.82976411 38.9369471 38.02271925 34.43116548 39.21826172 29.92602539 C39.73364494 27.97905806 40.24669428 26.03147132 40.75732422 24.08325195 C41.49339988 21.27656033 42.23795103 18.47223283 42.98413086 15.66821289 C43.20925858 14.80235565 43.43438629 13.93649841 43.66633606 13.04440308 C43.88633774 12.22400543 44.10633942 11.40360779 44.33300781 10.55834961 C44.5217598 9.84331268 44.71051178 9.12827576 44.90498352 8.39157104 C45.88570034 5.52130507 47.32686649 2.82649163 48.68334961 0.11352539 C56.60334961 0.11352539 64.52334961 0.11352539 72.68334961 0.11352539 C72.70590187 9.61427175 72.72426541 19.11500046 72.73516178 28.61576748 C72.7403903 33.02689543 72.74748738 37.43800419 72.75878906 41.84912109 C72.76961905 46.10253654 72.77562668 50.35593348 72.77822685 54.60936165 C72.7800809 56.23574172 72.78370113 57.86212073 72.78907967 59.48849297 C72.79629159 61.75862732 72.79734049 64.02868424 72.796875 66.29882812 C72.79909561 67.59344467 72.80131622 68.88806122 72.80360413 70.22190857 C72.68334961 73.11352539 72.68334961 73.11352539 71.68334961 74.11352539 C69.35174906 74.21261841 67.01705019 74.24323043 64.68334961 74.23852539 C63.40459961 74.24110352 62.12584961 74.24368164 60.80834961 74.24633789 C57.68334961 74.11352539 57.68334961 74.11352539 56.68334961 73.11352539 C56.56113436 71.67168246 56.50562203 70.22409395 56.47802734 68.77734375 C56.45808212 67.85646469 56.4381369 66.93558563 56.41758728 65.98680115 C56.40087479 64.98576859 56.38416229 63.98473602 56.36694336 62.95336914 C56.34616226 61.93376602 56.32538116 60.9141629 56.30397034 59.86366272 C56.23836109 56.59285491 56.17953727 53.32196402 56.12084961 50.05102539 C56.07767519 47.83942811 56.03406127 45.62783936 55.98999023 43.41625977 C55.88266821 37.98210388 55.78092338 32.54786457 55.68334961 27.11352539 C55.41677803 28.20444237 55.41677803 28.20444237 55.14482117 29.31739807 C49.32623216 53.1035634 49.32623216 53.1035634 45.68334961 64.11352539 C45.39459961 65.0171582 45.10584961 65.92079102 44.80834961 66.85180664 C42.83033237 72.96654263 42.83033237 72.96654263 41.68334961 74.11352539 C39.33021406 74.18624281 36.97501292 74.19723407 34.62084961 74.17602539 C32.68532227 74.16249023 32.68532227 74.16249023 30.71069336 74.14868164 C29.71166992 74.13708008 28.71264648 74.12547852 27.68334961 74.11352539 C24.29171943 66.38211499 22.08397808 58.54670589 20.05834961 50.36352539 C19.46386259 47.99326464 18.86756984 45.6234559 18.26928711 43.25415039 C18.01195801 42.21806641 17.75462891 41.18198242 17.48950195 40.11450195 C16.67087748 37.06709674 15.71050079 34.09643922 14.68334961 31.11352539 C14.65829346 32.38059326 14.6332373 33.64766113 14.60742188 34.953125 C14.51352965 39.63650318 14.41326526 44.31972669 14.31103516 49.00292969 C14.2676172 51.03316643 14.22594735 53.06344131 14.18603516 55.09375 C14.12849815 58.0054069 14.06475683 60.91687053 13.99975586 63.82836914 C13.97468712 65.19867531 13.97468712 65.19867531 13.94911194 66.59666443 C13.79722132 72.99965368 13.79722132 72.99965368 12.68334961 74.11352539 C10.17198856 74.21327571 7.69431546 74.25234722 5.18334961 74.23852539 C4.48081055 74.24239258 3.77827148 74.24625977 3.05444336 74.25024414 C-2.19003661 74.24013917 -2.19003661 74.24013917 -3.31665039 73.11352539 C-3.41628959 70.87965333 -3.44464834 68.6425868 -3.44604492 66.40649414 C-3.44779724 65.70569733 -3.44954956 65.00490051 -3.45135498 64.28286743 C-3.45577305 61.9555619 -3.45283568 59.62833175 -3.44946289 57.30102539 C-3.45013594 55.6905923 -3.45110598 54.08015931 -3.45236206 52.46972656 C-3.45383897 49.09024084 -3.4516847 45.71078149 -3.44702148 42.33129883 C-3.44132419 37.98976034 -3.44460324 33.64828366 -3.45059395 29.30674744 C-3.45419975 25.98001638 -3.45306089 22.65330009 -3.45046616 19.3265686 C-3.44979694 17.72531121 -3.45062513 16.12405249 -3.45294571 14.52279663 C-3.45547255 12.28868028 -3.45163124 10.05466539 -3.44604492 7.82055664 C-3.44524933 6.54672119 -3.44445374 5.27288574 -3.44363403 3.96044922 C-3.27413943 0.16044629 -3.27413943 0.16044629 0 0 Z " fill="#EA463D" transform="translate(341.316650390625,95.886474609375)"/>
<path d="M0 0 C0.66 0.66 1.32 1.32 2 2 C2.33 1.01 2.66 0.02 3 -1 C8.28 -1 13.56 -1 19 -1 C19.09925653 6.24076387 19.17165324 13.48112717 19.21972656 20.72241211 C19.23977812 23.18309432 19.26702647 25.64372925 19.30175781 28.10424805 C19.3505588 31.65164898 19.37303428 35.19841707 19.390625 38.74609375 C19.41127014 39.8370787 19.43191528 40.92806366 19.45318604 42.05210876 C19.45559019 50.33108219 18.04879495 56.66084362 12.375 62.875 C3.36694312 68.54673952 -7.03674057 69.4399748 -17.375 67.25 C-23.34259415 65.19220891 -27.51149822 62.29735455 -31 57 C-31.8125 54.25 -31.8125 54.25 -32 52 C-31 51 -31 51 -27.62109375 50.90234375 C-26.22652923 50.90901631 -24.83198257 50.92097468 -23.4375 50.9375 C-22.72658203 50.94201172 -22.01566406 50.94652344 -21.28320312 50.95117188 C-19.52209987 50.96299136 -17.76103964 50.98092737 -16 51 C-15.67 51.99 -15.34 52.98 -15 54 C-12.09458095 54.96847302 -10.03362546 55.19582812 -7 55.25 C-6.13375 55.27578125 -5.2675 55.3015625 -4.375 55.328125 C-1.98167946 55.17784061 -1.98167946 55.17784061 -0.26171875 53.80859375 C1.34473851 51.50583923 1.72152501 49.57250569 2.1875 46.8125 C2.34605469 45.91144531 2.50460938 45.01039063 2.66796875 44.08203125 C2.77753906 43.39496094 2.88710937 42.70789063 3 42 C2.236875 42.639375 1.47375 43.27875 0.6875 43.9375 C-4.82629259 48.16901524 -11.32482743 47.6951659 -18 47 C-24.30918936 44.67292221 -29.08377522 39.77150955 -32.10546875 33.82421875 C-34.53977556 26.13861252 -34.34126912 15.69254224 -31 8.3125 C-28.00745654 3.3164018 -23.66768025 -0.79711895 -18.05859375 -2.63671875 C-11.52108117 -3.79039744 -5.68933469 -3.69806755 0 0 Z " fill="#479D57" transform="translate(223,118)"/>
<path d="M0 0 C5.44889563 3.85228567 10.13810338 9.27621239 12.29296875 15.62109375 C12.86915963 19.94776342 13.26798081 24.25445055 13.29296875 28.62109375 C12.29296875 29.62109375 12.29296875 29.62109375 8.78295898 29.73461914 C7.22248453 29.73446001 5.66200482 29.72876517 4.1015625 29.71875 C3.28172379 29.71733505 2.46188507 29.7159201 1.61720276 29.71446228 C-1.01174507 29.70884664 -3.64060898 29.69629154 -6.26953125 29.68359375 C-8.04752482 29.67858076 -9.82551971 29.67401751 -11.60351562 29.66992188 C-15.9713867 29.65887214 -20.33919473 29.64159706 -24.70703125 29.62109375 C-24.11309743 30.91749753 -23.50645136 32.20808214 -22.89453125 33.49609375 C-22.55808594 34.21539062 -22.22164063 34.9346875 -21.875 35.67578125 C-20.71236028 37.92652181 -20.71236028 37.92652181 -17.70703125 39.62109375 C-15.56243949 40.01139732 -15.56243949 40.01139732 -13.26953125 39.99609375 C-12.12677734 40.03863281 -12.12677734 40.03863281 -10.9609375 40.08203125 C-8.52264361 39.81647 -8.52264361 39.81647 -6.90625 37.61328125 C-3.79910231 34.79863592 -0.92191275 35.17622245 3.04296875 35.37109375 C3.74035156 35.38914063 4.43773437 35.4071875 5.15625 35.42578125 C6.86908414 35.47270821 8.58120699 35.5444477 10.29296875 35.62109375 C11.62012628 40.00681546 11.62012628 40.00681546 10.17578125 42.71875 C4.48549229 49.07922855 -0.35324369 52.35842712 -8.96875 53.03125 C-17.42695467 53.42578381 -25.03750776 53.48849192 -31.70703125 47.62109375 C-37.38026819 42.43670716 -41.14528707 36.18956428 -42.08984375 28.5078125 C-42.38644954 20.09409497 -41.22500164 13.00732917 -35.87109375 6.33203125 C-26.24279567 -3.81272726 -12.53787171 -7.03635726 0 0 Z " fill="#E8463D" transform="translate(531.70703125,118.37890625)"/>
<path d="M0 0 C5.35867505 2.9006741 8.0340642 7.29355661 9.796875 12.97265625 C10.22580547 15.97420534 10.28424937 18.93966883 10.30859375 21.96875 C10.32654495 22.80229507 10.34449615 23.63584015 10.36299133 24.49464417 C10.41677795 27.13309813 10.45088731 29.77137453 10.484375 32.41015625 C10.51757612 34.20900892 10.55206834 36.00783825 10.58789062 37.80664062 C10.67248575 42.1951837 10.73944673 46.58367702 10.796875 50.97265625 C8.54793546 51.08089398 6.29749925 51.1583527 4.046875 51.22265625 C2.79390625 51.2690625 1.5409375 51.31546875 0.25 51.36328125 C-3.203125 50.97265625 -3.203125 50.97265625 -5.65625 48.95703125 C-6.16671875 48.3021875 -6.6771875 47.64734375 -7.203125 46.97265625 C-7.96625 47.61203125 -8.729375 48.25140625 -9.515625 48.91015625 C-15.43091491 53.44979734 -23.08998457 52.63574561 -30.203125 51.97265625 C-34.38374508 50.41832314 -36.57829549 47.85951104 -39.140625 44.22265625 C-40.98087401 38.59365927 -41.21408422 34.03345774 -38.578125 28.66015625 C-33.11570283 22.47899432 -27.84948017 21.13345321 -19.953125 19.78515625 C-18.15584347 19.46057637 -16.35894637 19.13385831 -14.5625 18.8046875 C-13.77327148 18.66780518 -12.98404297 18.53092285 -12.17089844 18.38989258 C-10.13841218 18.04528412 -10.13841218 18.04528412 -8.203125 16.97265625 C-7.95281523 14.55645802 -7.95281523 14.55645802 -8.203125 11.97265625 C-11.72137011 9.62715951 -13.06088194 9.39274222 -17.203125 9.97265625 C-20.03723655 12.30614825 -20.03723655 12.30614825 -22.203125 14.97265625 C-24.01058634 16.78011759 -26.70758281 16.14569108 -29.140625 16.16015625 C-30.22214844 16.17433594 -31.30367187 16.18851563 -32.41796875 16.203125 C-35.203125 15.97265625 -35.203125 15.97265625 -37.203125 13.97265625 C-36.98538979 9.07361414 -35.74162048 6.33854219 -32.203125 2.97265625 C-22.95855271 -3.73057943 -10.50777312 -4.24656245 0 0 Z " fill="#469C57" transform="translate(178.203125,117.02734375)"/>
<path d="M0 0 C3.84013678 3.17228691 7.53073681 6.8743437 8.29867554 11.9894104 C8.44244941 14.40908428 8.49347876 16.81440386 8.51171875 19.23828125 C8.52966995 20.11904831 8.54762115 20.99981537 8.56611633 21.90727234 C8.6201191 24.7089668 8.65408266 27.51049187 8.6875 30.3125 C8.72068195 32.21682039 8.75517243 34.12111846 8.79101562 36.02539062 C8.87583978 40.68347134 8.94269874 45.3415027 9 50 C6.75106046 50.10823773 4.50062425 50.18569645 2.25 50.25 C0.99703125 50.29640625 -0.2559375 50.3428125 -1.546875 50.390625 C-5 50 -5 50 -7.453125 47.984375 C-7.96359375 47.32953125 -8.4740625 46.6746875 -9 46 C-9.804375 46.928125 -9.804375 46.928125 -10.625 47.875 C-15.27548047 52.03595621 -20.43815246 52.46299158 -26.46875 52.30859375 C-32.2642193 51.60204734 -35.83519191 49.4268899 -39.5 44.9375 C-41.78290959 40.15572991 -41.97782776 35.15444092 -41 30 C-38.84950461 25.52047753 -35.67933127 22.96382373 -31.0625 21.25 C-26.10506606 19.87246261 -21.0241687 18.930852 -15.96508789 18.00097656 C-12.70185013 17.61640317 -12.70185013 17.61640317 -10 16 C-9.83333333 13.5 -9.83333333 13.5 -10 11 C-11.00057979 9.77988609 -11.00057979 9.77988609 -12.99609375 9.8671875 C-14.20458984 9.87105469 -14.20458984 9.87105469 -15.4375 9.875 C-16.24058594 9.87242188 -17.04367187 9.86984375 -17.87109375 9.8671875 C-20.05397931 9.86421674 -20.05397931 9.86421674 -22 11 C-23.13350534 13.01669827 -23.13350534 13.01669827 -24 15 C-26.14576637 15.02685938 -28.29162645 15.04633088 -30.4375 15.0625 C-31.63246094 15.07410156 -32.82742188 15.08570313 -34.05859375 15.09765625 C-37 15 -37 15 -38 14 C-38.51044415 10.93733511 -38.5167863 8.84581287 -36.87109375 6.15234375 C-28.19853885 -4.51286084 -12.03795889 -6.20436896 0 0 Z " fill="#E9463D" transform="translate(672,117)"/>
<path d="M0 0 C5.24365276 2.96149619 7.83267443 7.93552329 9.6875 13.5 C9.78485215 16.43783059 9.827439 19.35127725 9.8203125 22.2890625 C9.82126923 23.14809174 9.82222595 24.00712097 9.82321167 24.8921814 C9.8238918 26.70611647 9.82204918 28.52005399 9.81787109 30.33398438 C9.81250741 33.12114879 9.81782844 35.90815301 9.82421875 38.6953125 C9.8235582 40.45572952 9.8222775 42.21614645 9.8203125 43.9765625 C9.82233673 44.81506744 9.82436096 45.65357239 9.82644653 46.51748657 C9.80245917 52.38504083 9.80245917 52.38504083 8.6875 53.5 C6.17613896 53.59975032 3.69846585 53.63882183 1.1875 53.625 C0.48496094 53.62886719 -0.21757812 53.63273437 -0.94140625 53.63671875 C-6.18588622 53.62661378 -6.18588622 53.62661378 -7.3125 52.5 C-7.44775908 50.10053054 -7.52299229 47.72572857 -7.55859375 45.32421875 C-7.59154256 43.8417912 -7.62475403 42.35936947 -7.65820312 40.87695312 C-7.7055615 38.5333268 -7.74996269 36.18972232 -7.78930664 33.84594727 C-7.82910423 31.58844669 -7.88064187 29.33144375 -7.93359375 27.07421875 C-7.9420079 26.37616623 -7.95042206 25.67811371 -7.95909119 24.95890808 C-8.05049562 21.34955304 -8.22253918 18.51564065 -10.3125 15.5 C-13.40423752 13.95413124 -15.90679552 14.20640479 -19.3125 14.5 C-21.67747439 16.36708505 -22.97280715 17.82061431 -24.3125 20.5 C-24.45654736 22.89404487 -24.54636465 25.26390911 -24.59375 27.66015625 C-24.61215942 28.36522812 -24.63056885 29.07029999 -24.64953613 29.79673767 C-24.72832102 32.81851853 -24.79610015 35.8405233 -24.86474609 38.86254883 C-24.91635884 41.06603408 -24.97364275 43.26932092 -25.03125 45.47265625 C-25.04482544 46.16118179 -25.05840088 46.84970734 -25.0723877 47.55909729 C-25.19966922 52.38716922 -25.19966922 52.38716922 -26.3125 53.5 C-28.82386104 53.59975032 -31.30153415 53.63882183 -33.8125 53.625 C-34.51503906 53.62886719 -35.21757812 53.63273437 -35.94140625 53.63671875 C-41.18588622 53.62661378 -41.18588622 53.62661378 -42.3125 52.5 C-42.41104422 50.9093669 -42.44048694 49.31438523 -42.44189453 47.72070312 C-42.44504669 46.702948 -42.44819885 45.68519287 -42.45144653 44.63659668 C-42.4494223 43.52933228 -42.44739807 42.42206787 -42.4453125 41.28125 C-42.44626923 40.15303833 -42.44722595 39.02482666 -42.44821167 37.86242676 C-42.44889368 35.47159774 -42.44703797 33.08076689 -42.44287109 30.68994141 C-42.43752316 27.01590849 -42.44281543 23.34199783 -42.44921875 19.66796875 C-42.44855797 17.35156223 -42.44727682 15.03515578 -42.4453125 12.71875 C-42.44834885 11.05785339 -42.44834885 11.05785339 -42.45144653 9.36340332 C-42.44829437 8.34564819 -42.44514221 7.32789307 -42.44189453 6.27929688 C-42.44109894 5.37852417 -42.44030334 4.47775146 -42.43948364 3.54968262 C-42.3125 1.5 -42.3125 1.5 -41.3125 0.5 C-38.78200598 0.42686433 -36.27945163 0.40752473 -33.75 0.4375 C-33.03908203 0.44201172 -32.32816406 0.44652344 -31.59570312 0.45117188 C-29.83459987 0.46299136 -28.07353964 0.48092737 -26.3125 0.5 C-25.6525 2.15 -24.9925 3.8 -24.3125 5.5 C-23.84199219 5.07847656 -23.37148438 4.65695313 -22.88671875 4.22265625 C-22.26410156 3.67480469 -21.64148438 3.12695312 -21 2.5625 C-20.38511719 2.01722656 -19.77023437 1.47195312 -19.13671875 0.91015625 C-13.92202927 -3.12089922 -5.8026157 -2.50417065 0 0 Z " fill="#E9463D" transform="translate(479.3125,116.5)"/>
<path d="M0 0 C1.26714844 -0.01417969 2.53429687 -0.02835937 3.83984375 -0.04296875 C7.0625 0.1875 7.0625 0.1875 9.0625 2.1875 C10.45917248 5.65501801 11.50638343 9.24676554 12.625 12.8125 C12.94146484 13.78574219 13.25792969 14.75898438 13.58398438 15.76171875 C15.32811577 21.26443478 16.56370169 26.4342373 17.0625 32.1875 C17.7225 32.1875 18.3825 32.1875 19.0625 32.1875 C19.20365234 30.82044922 19.20365234 30.82044922 19.34765625 29.42578125 C20.13623775 23.92234161 21.87008015 18.676389 23.5 13.375 C23.81259766 12.32634766 24.12519531 11.27769531 24.44726562 10.19726562 C24.75212891 9.19759766 25.05699219 8.19792969 25.37109375 7.16796875 C25.64751709 6.25942139 25.92394043 5.35087402 26.20874023 4.41479492 C27.0625 2.1875 27.0625 2.1875 29.0625 0.1875 C32.03125 -0.04296875 32.03125 -0.04296875 35.5625 0 C37.31046875 0.00966797 37.31046875 0.00966797 39.09375 0.01953125 C42.0625 0.1875 42.0625 0.1875 44.0625 1.1875 C43.49550491 5.94867961 42.5384973 10.20100053 40.953125 14.72265625 C40.52773438 15.94533203 40.10234375 17.16800781 39.6640625 18.42773438 C39.21366009 19.70186478 38.76313897 20.97595324 38.3125 22.25 C37.88195312 23.48427734 37.45140625 24.71855469 37.0078125 25.99023438 C35.70196224 29.72598264 34.38310222 33.45694418 33.0625 37.1875 C32.59288136 38.52710473 32.12348156 39.86678619 31.65429688 41.20654297 C31.20198298 42.49061629 30.74951455 43.77463519 30.296875 45.05859375 C29.89178711 46.21157959 29.48669922 47.36456543 29.06933594 48.55249023 C28.0625 51.1875 28.0625 51.1875 27.0625 52.1875 C25.71982587 52.27381874 24.37275678 52.29456473 23.02734375 52.28515625 C22.21845703 52.28193359 21.40957031 52.27871094 20.57617188 52.27539062 C19.72603516 52.26701172 18.87589844 52.25863281 18 52.25 C17.14599609 52.24548828 16.29199219 52.24097656 15.41210938 52.23632812 C13.29554337 52.22450373 11.17901315 52.20656769 9.0625 52.1875 C5.65791431 45.83328438 3.32546561 39.41733946 1.125 32.5625 C0.42977514 30.42793228 -0.26683417 28.29381498 -0.96484375 26.16015625 C-1.29983887 25.1355127 -1.63483398 24.11086914 -1.97998047 23.05517578 C-3.57159354 18.2884529 -5.33012348 13.58836953 -7.125 8.89453125 C-7.94800488 6.15250058 -8.17998548 4.03165264 -7.9375 1.1875 C-6.00408053 -0.74591947 -2.56270879 0.01300867 0 0 Z " fill="#EA463D" transform="translate(590.9375,114.8125)"/>
<path d="M0 0 C5.19856337 8.00718317 5.19856337 8.00718317 4.4375 11.8125 C3.963125 12.534375 3.48875 13.25625 3 14 C-0.00379927 18.96613529 0.48121572 24.37607767 1 30 C2.32985569 33.5047765 2.32985569 33.5047765 4 36 C4 36.66 4 37.32 4 38 C7.35828153 38.65861444 10.57278105 39.14149069 14 39 C17.10861514 36.81145577 17.10861514 36.81145577 19 34 C19.33 33.67 19.66 33.34 20 33 C20.94337693 27.02527946 21.11177091 21.03562907 21 15 C22.91595482 14.66259915 24.83279722 14.33023588 26.75 14 C27.81734375 13.814375 28.8846875 13.62875 29.984375 13.4375 C33 13 33 13 37 13 C39.26775113 20.24217298 39.43854283 31.25559649 36.15625 38.23046875 C31.14362195 45.90182181 24.92926475 50.06353295 16 52 C6.80982605 53.3876554 -0.39261963 51.30826097 -8 46 C-10.50630425 43.55301656 -12.29320052 41.04828399 -14 38 C-14.61875 36.9275 -15.2375 35.855 -15.875 34.75 C-18.30428032 26.65239893 -17.75722213 18.95212614 -14.27734375 11.26171875 C-10.99034865 5.4416265 -7.07509294 0 0 0 Z " fill="#469C57" transform="translate(293,118)"/>
<path d="M0 0 C3.95478251 2.91900614 7.41112181 6.50974362 9.625 10.9375 C10.15236173 17.14414192 10.38747482 22.71858332 6.625 27.9375 C2.88168646 31.68966298 -0.29151578 34.79473189 -5.8269043 35.05102539 C-6.77476807 35.04578857 -7.72263184 35.04055176 -8.69921875 35.03515625 C-10.24125977 35.03032227 -10.24125977 35.03032227 -11.81445312 35.02539062 C-12.88630859 35.01701172 -13.95816406 35.00863281 -15.0625 35 C-16.14595703 34.99548828 -17.22941406 34.99097656 -18.34570312 34.98632812 C-21.02219085 34.97453743 -23.69856777 34.95808063 -26.375 34.9375 C-26.29193604 34.3175415 -26.20887207 33.69758301 -26.12329102 33.05883789 C-26.02201904 32.24664795 -25.92074707 31.43445801 -25.81640625 30.59765625 C-25.71271729 29.79207275 -25.60902832 28.98648926 -25.50219727 28.15649414 C-25.33959897 25.3199185 -26.24928016 23.52003374 -27.375 20.9375 C-27.99678563 14.61601277 -27.13836808 10.13351388 -23.375 4.9375 C-16.96584504 -2.30361258 -8.94478608 -2.81595117 0 0 Z " fill="#175F40" transform="translate(417.375,217.0625)"/>
<path d="M0 0 C1.76150391 -0.02126953 1.76150391 -0.02126953 3.55859375 -0.04296875 C6.5625 0.1875 6.5625 0.1875 8.5625 2.1875 C9.1875 4.3125 9.1875 4.3125 9.5625 6.1875 C10.34625 5.383125 11.13 4.57875 11.9375 3.75 C15.53960487 0.23365953 15.53960487 0.23365953 18.7265625 0.08984375 C21.00520833 0.12239583 23.28385417 0.15494792 25.5625 0.1875 C25.5625 4.4775 25.5625 8.7675 25.5625 13.1875 C24.16 13.6 22.7575 14.0125 21.3125 14.4375 C16.05108945 16.2187926 13.7064511 18.1088921 11.00390625 23.01953125 C8.72206085 28.46619701 8.99075118 34.30767625 8.875 40.125 C8.84083984 41.28580078 8.80667969 42.44660156 8.77148438 43.64257812 C8.68944387 46.49055574 8.62428473 49.33901096 8.5625 52.1875 C3.2825 52.1875 -1.9975 52.1875 -7.4375 52.1875 C-7.46214113 44.94262951 -7.4803318 37.69778318 -7.49243164 30.45288086 C-7.49747356 27.98607967 -7.50430691 25.51928148 -7.51293945 23.05249023 C-7.52501125 19.51545471 -7.53072956 15.97845855 -7.53515625 12.44140625 C-7.54031754 11.33100479 -7.54547882 10.22060333 -7.55079651 9.07655334 C-7.55087204 8.05557053 -7.55094757 7.03458771 -7.55102539 5.98266602 C-7.553246 5.07887711 -7.55546661 4.1750882 -7.55775452 3.24391174 C-7.29662701 -1.22149788 -3.70013502 0.02026361 0 0 Z " fill="#479D57" transform="translate(252.4375,115.8125)"/>
<path d="M0 0 C0 4.62 0 9.24 0 14 C-1.381875 14.20625 -2.76375 14.4125 -4.1875 14.625 C-9.41194477 15.78324955 -11.11890271 17.54739509 -14 22 C-15.77536477 25.74524161 -16.28696584 28.82638965 -16.4140625 32.95703125 C-16.45273437 34.06884766 -16.49140625 35.18066406 -16.53125 36.32617188 C-16.57765625 38.0519043 -16.57765625 38.0519043 -16.625 39.8125 C-16.66367187 40.98232422 -16.70234375 42.15214844 -16.7421875 43.35742188 C-16.83624809 46.23802747 -16.9192042 49.11899184 -17 52 C-22.28 52 -27.56 52 -33 52 C-33 35.17 -33 18.34 -33 1 C-28.05 1 -23.1 1 -18 1 C-17.34 2.65 -16.68 4.3 -16 6 C-15.59910156 5.566875 -15.19820312 5.13375 -14.78515625 4.6875 C-9.84531702 -0.15152618 -6.83680608 -0.63108979 0 0 Z " fill="#EC463D" transform="translate(581,115)"/>
<path d="M0 0 C9.09941592 0.60662773 17.19302889 4.63348599 23.375 11.3125 C29.36015097 18.95925095 31.51549579 27.41177826 31 37 C30.7542692 38.54235291 30.50423476 40.08402602 30.25 41.625 C29.6457137 46.23665862 31.19205868 48.31457702 34 52 C33.67 52.99 33.34 53.98 33 55 C30.35247996 52.42215154 28.05567935 50.08351902 26 47 C23.43149567 45.82828199 23.43149567 45.82828199 20.4375 44.8125 C12.05654949 41.42595285 6.12848589 36.95289015 2.0625 28.75 C-1.51787592 19.79286578 -2.97636153 10.52246918 -1 1 C-0.67 0.67 -0.34 0.34 0 0 Z " fill="#1F6F4A" transform="translate(784,188)"/>
<path d="M0 0 C1 1 1 1 1.375 3.8125 C1.24667123 11.59243144 -2.97872047 19.95238503 -8.265625 25.5390625 C-16.55152552 32.51862735 -25.39308939 34.60248521 -36 34 C-37.093125 33.773125 -38.18625 33.54625 -39.3125 33.3125 C-42.94881831 32.88967229 -44.83873061 34.28191881 -48 36 C-49.32 36 -50.64 36 -52 36 C-51 33 -51 33 -48.0625 31.3125 C-45 30 -45 30 -43 30 C-42.938125 29.195625 -42.87625 28.39125 -42.8125 27.5625 C-40.66237654 18.13503559 -34.57305984 11.09661488 -26.90625 5.4609375 C-18.84733685 0.46791522 -9.32604558 -0.52788937 0 0 Z " fill="#1F6F4A" transform="translate(130,300)"/>
<path d="M0 0 C10.23647079 -0.89793603 20.89229306 2.24231919 29.125 8.4375 C30.44730371 9.59078744 31.74303611 10.77582648 33 12 C33.51046875 12.495 34.0209375 12.99 34.546875 13.5 C39.68039017 19.05627525 41.03210183 24.83323666 41.375 32.1875 C41.64041607 37.2324285 41.64041607 37.2324285 44.5625 41.125 C45.366875 41.74375 46.17125 42.3625 47 43 C47 43.66 47 44.32 47 45 C44.24194495 44.60599214 43.22259131 44.27601322 41.4375 42.0625 C38.66310375 39.71493394 37.46099869 39.61048206 33.9375 39.125 C23.74489732 37.57365593 14.34326343 31.72767865 8.125 23.52734375 C3.1751699 16.19540792 -0.26946139 8.97147916 0 0 Z " fill="#1F6F4A" transform="translate(729,241)"/>
<path d="M0 0 C1.16595703 -0.02416992 1.16595703 -0.02416992 2.35546875 -0.04882812 C7.68865128 -0.05330979 11.36261894 0.9059101 16.125 3.3125 C15.97530653 10.34809327 12.74999851 14.2119472 8.125 19.3125 C7.609375 19.88355469 7.09375 20.45460938 6.5625 21.04296875 C0.40993577 27.02633747 -7.95194971 30.4347714 -16.5078125 30.4453125 C-18.8860383 30.40726089 -21.2356786 30.31866402 -23.60668945 30.12841797 C-27.7806591 29.88498654 -30.04074301 30.02287433 -33.28515625 32.8125 C-34.13980469 33.6375 -34.99445312 34.4625 -35.875 35.3125 C-36.535 35.3125 -37.195 35.3125 -37.875 35.3125 C-37.6875 33.5625 -37.6875 33.5625 -36.875 31.3125 C-36.08222656 30.735 -35.28945313 30.1575 -34.47265625 29.5625 C-31.37449533 26.87898016 -30.72103154 24.93675045 -29.5 21.0625 C-26.10711407 11.58581861 -20.743352 5.80980424 -11.75 1.23046875 C-7.79672282 -0.03178687 -4.12472662 -0.01693238 0 0 Z " fill="#1F704A" transform="translate(77.875,261.6875)"/>
<path d="M0 0 C0.65727973 11.48413746 -0.82455352 21.08400649 -8.23046875 30.21484375 C-15.83618348 37.88771711 -23.8833725 40.11353887 -34.390625 40.75390625 C-36.9803228 40.83963812 -36.9803228 40.83963812 -39 42 C-37.91824507 28.58623883 -33.92929238 18.08505342 -24.0625 8.63671875 C-16.55042707 2.6754336 -9.49773305 -0.18264871 0 0 Z " fill="#1F704A" transform="translate(39,6)"/>
<path d="M0 0 C6.80904175 5.59854544 11.61621323 11.64715037 13.8125 20.3125 C14.09201771 23.40552387 14.01340183 26.19852171 13.8125 29.3125 C0.53266313 29.11045546 -11.32596174 27.23732095 -21.24609375 17.5546875 C-26.24618643 11.77993257 -29.85132364 6.04455627 -30.1875 -1.6875 C-21.14923914 -7.71300724 -8.97126964 -4.74949569 0 0 Z " fill="#1F704A" transform="translate(806.1875,6.6875)"/>
<path d="M0 0 C5.08002185 9.92913361 6.81749227 23.06433755 3.74609375 33.8671875 C1.48283907 40.33701503 -1.11966289 45.43784128 -6.25 50.0625 C-9.38583492 52.94487457 -10.54782126 54.73755039 -11 59 C-11 60.32 -11 61.64 -11 63 C-11.99 63 -12.98 63 -14 63 C-13.9175 61.700625 -13.835 60.40125 -13.75 59.0625 C-13.72799779 54.41270058 -14.93980961 51.15069722 -17.02734375 47.04296875 C-20.57300739 39.59565115 -20.0935602 28.89290078 -18.31640625 20.94140625 C-15.74021124 14.08936891 -8.09731228 0 0 0 Z " fill="#1F704A" transform="translate(811,264)"/>
<path d="M0 0 C0.17534031 4.49950218 0.28121079 8.99811773 0.375 13.5 C0.45041016 15.40265625 0.45041016 15.40265625 0.52734375 17.34375 C0.6378189 24.41415933 0.44061838 29.13127366 -4.42724609 34.48779297 C-4.94625488 34.98682129 -5.46526367 35.48584961 -6 36 C-6.70125 36.72832031 -7.4025 37.45664063 -8.125 38.20703125 C-13.46228289 42.77707972 -17.71641614 46.2081024 -25 46 C-28.11127804 37.4625049 -29.94315946 29.00149081 -26.375 20.3125 C-21.59430608 11.01670627 -15.81246112 4.9331984 -5.8359375 1.1875 C-1.828125 0 -1.828125 0 0 0 Z " fill="#1F6F4A" transform="translate(820,129)"/>
<path d="M0 0 C5.28 0 10.56 0 16 0 C16 17.49 16 34.98 16 53 C11.05 53 6.1 53 1 53 C0 52 0 52 -0.12025452 49.90562439 C-0.1169236 48.52329369 -0.1169236 48.52329369 -0.11352539 47.11303711 C-0.11344986 46.07203354 -0.11337433 45.03102997 -0.11329651 43.95848083 C-0.10813522 42.8262056 -0.10297394 41.69393036 -0.09765625 40.52734375 C-0.0962413 39.37456436 -0.09482635 38.22178497 -0.09336853 37.03407288 C-0.08775005 33.33518936 -0.07519442 29.63636536 -0.0625 25.9375 C-0.05748738 23.43684983 -0.05292406 20.93619871 -0.04882812 18.43554688 C-0.03777462 12.29034149 -0.0204976 6.14518085 0 0 Z " fill="#ED463D" transform="translate(418,117)"/>
<path d="M0 0 C3.13871412 0.07473129 5.29269762 0.38212666 7.69921875 2.484375 C10.41691304 5.56398984 12.23069686 7.9000668 13 12 C13.7425 11.67 14.485 11.34 15.25 11 C22.15164282 9.15956191 29.24044342 8.73363887 35.75 12 C36.8225 12.66 37.895 13.32 39 14 C38.37059787 19.37768581 36.09256922 21.18735515 32.04296875 24.484375 C27.01473253 28.21469173 22.13334326 28.75262637 16 28 C13.375 26.625 13.375 26.625 11 25 C9.824375 24.71125 8.64875 24.4225 7.4375 24.125 C3.44590619 22.81866021 2.25362343 21.46711297 0 18 C-1.48619895 15.02760209 -1.13177009 12.30380422 -1.125 9 C-1.12757813 7.741875 -1.13015625 6.48375 -1.1328125 5.1875 C-1 2 -1 2 0 0 Z " fill="#ADCD80" transform="translate(296,103)"/>
<path d="M0 0 C0.67804687 0.28875 1.35609375 0.5775 2.0546875 0.875 C0.33586054 10.46076572 -4.51910465 16.65998586 -11.9453125 22.875 C-16.67261416 25.99793613 -20.24332381 26.92466855 -25.9453125 27.875 C-25.9453125 18.635 -25.9453125 9.395 -25.9453125 -0.125 C-15.9162415 -4.42317329 -10.02496829 -3.99887932 0 0 Z " fill="#105B3B" transform="translate(25.9453125,129.125)"/>
<path d="M0 0 C8.45797943 0.14925846 15.99011414 4.81371981 22.125 10.3125 C26.125 14.7125 26.125 14.7125 26.125 17.3125 C21.25056571 17.5109891 16.37850395 17.65574943 11.50097656 17.75195312 C9.84398411 17.79206774 8.18727282 17.84657796 6.53125 17.91601562 C-7.20656261 18.47741662 -7.20656261 18.47741662 -11.30029297 15.61914062 C-14.2179094 11.84268512 -15.63408134 8.13087316 -15.875 3.3125 C-11.08188467 0.31680292 -5.47345866 0.44140796 0 0 Z " fill="#105C3B" transform="translate(43.875,342.6875)"/>
<path d="M0 0 C17.14285714 -0.42857143 17.14285714 -0.42857143 24 3 C23.6153394 9.15456953 21.60212449 13.04829248 18 18 C17.39929688 18.82628906 16.79859375 19.65257813 16.1796875 20.50390625 C13.81048922 23.21702041 11.4865782 24.90838178 8.4375 26.8125 C7.48746094 27.41707031 6.53742187 28.02164063 5.55859375 28.64453125 C3 30 3 30 0 30 C0 20.1 0 10.2 0 0 Z " fill="#105B3B" transform="translate(0,73)"/>
<path d="M0 0 C1.6484375 1.09375 1.6484375 1.09375 3.8359375 2.84375 C2.9609375 6.71875 2.9609375 6.71875 1.8359375 7.84375 C0.3011078 7.93694449 -1.23798332 7.961208 -2.77563477 7.95727539 C-3.75657608 7.95719986 -4.7375174 7.95712433 -5.7481842 7.95704651 C-6.8148381 7.95188522 -7.881492 7.94672394 -8.98046875 7.94140625 C-10.60975563 7.93928383 -10.60975563 7.93928383 -12.2719574 7.93711853 C-15.75685325 7.93150048 -19.24168592 7.91894492 -22.7265625 7.90625 C-25.08268137 7.90123733 -27.43880124 7.89667402 -29.79492188 7.89257812 C-35.58465714 7.88152519 -41.37435531 7.86476951 -47.1640625 7.84375 C-35.71491938 -6.86209129 -15.87383731 -8.48132824 0 0 Z " fill="#1E6E49" transform="translate(807.1640625,352.15625)"/>
<path d="M0 0 C1.92578125 1.2890625 1.92578125 1.2890625 3.92578125 3.2890625 C6.59527534 3.53221906 6.59527534 3.53221906 9.55078125 3.4140625 C10.55367187 3.39601563 11.5565625 3.37796875 12.58984375 3.359375 C13.74613281 3.32457031 13.74613281 3.32457031 14.92578125 3.2890625 C14.59578125 4.2790625 14.26578125 5.2690625 13.92578125 6.2890625 C12.17578125 6.66796875 12.17578125 6.66796875 9.92578125 6.8515625 C4.12146556 7.91859993 1.74939522 11.43726648 -1.89453125 15.8125 C-7.74665886 22.46169158 -15.8878656 25.58562982 -24.58203125 26.57421875 C-32.41123072 26.85646262 -39.92537358 25.30079247 -46.07421875 20.2890625 C-45.24706856 12.69555256 -38.49948913 7.33501197 -33.07421875 2.4140625 C-22.56742537 -5.02824947 -11.49785291 -6.43578673 0 0 Z M-40.07421875 13.2890625 C-41.32592272 15.27830249 -42.19804198 17.09862057 -43.07421875 19.2890625 C-32.54065472 23.77483882 -24.55248704 24.93146447 -13.7578125 20.62890625 C-7.8075282 17.65809473 -2.89667233 13.73605885 0.92578125 8.2890625 C-5.57587065 8.89883056 -11.51593835 10.41753537 -17.76171875 12.2890625 C-19.59843116 12.83251404 -21.43565555 13.37423886 -23.2734375 13.9140625 C-24.07612061 14.15382813 -24.87880371 14.39359375 -25.70581055 14.640625 C-28.14652076 15.30885779 -30.58803073 15.8211261 -33.07421875 16.2890625 C-30.70088033 13.91572408 -29.11848229 13.55057226 -25.91015625 12.6328125 C-24.86988281 12.33246094 -23.82960938 12.03210937 -22.7578125 11.72265625 C-21.12005859 11.26052734 -21.12005859 11.26052734 -19.44921875 10.7890625 C-18.38058594 10.48097656 -17.31195312 10.17289063 -16.2109375 9.85546875 C-10.52241674 8.22517928 -4.82551045 6.68162708 0.92578125 5.2890625 C-2.75557338 1.19866846 -5.79729442 -0.42180425 -11.2734375 -1.1171875 C-24.08872037 -1.4616072 -31.9952598 3.52456535 -40.07421875 13.2890625 Z " fill="#1F6F4A" transform="translate(739.07421875,8.7109375)"/>
<path d="M0 0 C1.32451172 0.01353516 1.32451172 0.01353516 2.67578125 0.02734375 C3.67158203 0.04474609 3.67158203 0.04474609 4.6875 0.0625 C5.26574431 10.47089762 2.31864711 18.99435487 -4.3125 27.0625 C-10.83907839 34.0214811 -16.76921991 36.96661203 -26.28710938 37.37158203 C-27.6914957 37.41463202 -29.09694992 37.43235292 -30.50195312 37.42138672 C-36.17840763 37.53331292 -38.42391169 39.24659558 -42.3125 43.0625 C-42.9725 42.7325 -43.6325 42.4025 -44.3125 42.0625 C-44.3125 41.4025 -44.3125 40.7425 -44.3125 40.0625 C-43.21783322 39.16979046 -42.08580908 38.32256426 -40.9375 37.5 C-37.181273 34.40619379 -36.50867227 32.03259889 -35.7421875 27.34765625 C-34.195532 19.12226108 -28.4178036 12.47237701 -22.3125 7.0625 C-15.11310144 2.54003517 -8.52860777 -0.11371477 0 0 Z M-26.0625 14.8125 C-29.33074473 18.76287838 -31.97487427 23.07590996 -33.3125 28.0625 C-32.9825 29.0525 -32.6525 30.0425 -32.3125 31.0625 C-31.57386719 30.37285156 -30.83523438 29.68320313 -30.07421875 28.97265625 C-10.78758937 11.0625 -10.78758937 11.0625 -6.3125 11.0625 C-12.69993919 16.98045624 -19.15531954 22.6625119 -26 28.0546875 C-28.14610513 29.91802878 -29.71771239 31.7227787 -31.3125 34.0625 C-22.01446045 34.57694071 -15.92243199 33.46077365 -8.625 27.5 C-1.82215846 21.07313588 1.11625247 14.17901073 1.64453125 4.8984375 C1.65871094 4.29257812 1.67289063 3.68671875 1.6875 3.0625 C-9.1420627 2.37125132 -18.71666321 6.95089169 -26.0625 14.8125 Z " fill="#1F6F4A" transform="translate(766.3125,46.9375)"/>
<path d="M0 0 C6.7180012 4.55149133 12.14556173 10.32387547 15 18 C15.32836953 19.74348585 15.62009383 21.49426873 15.875 23.25 C16.32836282 26.16965656 16.56519493 27.56519493 18.671875 29.671875 C20.40349876 30.84937916 22.19850826 31.93244934 24 33 C24 33.66 24 34.32 24 35 C21.47861201 34.5330763 19.9396848 33.9583589 17.8046875 32.484375 C14.30727857 30.63337863 11.75340932 30.63192535 7.8125 30.5625 C-3.94886195 30.06207735 -12.70397013 25.7447447 -20.75390625 17.12109375 C-25.05768488 11.78181951 -29 4.9941459 -29 -2 C-18.50415403 -4.99881313 -10.0913695 -4.5011864 0 0 Z M-26 0 C-23.35249842 10.66564923 -17.56240425 17.65508514 -8.4140625 23.625 C-2.62758008 26.92086054 2.52942699 27.22703765 9 27 C4.6732646 22.23613051 -0.33606318 18.90767419 -5.6875 15.375 C-7.40322411 14.2422394 -9.1156284 13.10442988 -10.82421875 11.9609375 C-11.57791748 11.46384277 -12.33161621 10.96674805 -13.1081543 10.45458984 C-15 9 -15 9 -17 6 C-10.83253795 9.16748668 -5.29148138 12.86259071 0.26953125 16.99609375 C4.09084554 19.80057763 8.02997411 22.41213127 12 25 C13.36486845 20.90539464 12.15523653 19.18782582 10.35546875 15.41015625 C6.23377405 8.08137923 0.73109453 3.26866129 -7 0 C-13.134673 -1.62756631 -19.84768403 -1.53807899 -26 0 Z " fill="#1F6F4A" transform="translate(737,297)"/>
<path d="M0 0 C2.9375 2.4375 2.9375 2.4375 5 5 C5.33 5.33 5.66 5.66 6 6 C6.55173228 12.2282086 6.67414601 17.69290021 3 23 C-0.7373856 25.4915904 -2.57331583 25.45793285 -7 25 C-10.22618733 22.9209015 -11.8669302 21.19960471 -14 18 C-14.68080368 12.95730299 -14.98798471 7.76562207 -12.125 3.375 C-8.66990518 -0.48657657 -5.01545142 -0.89355744 0 0 Z " fill="#115C3B" transform="translate(220,128)"/>
<path d="M0 0 C4.16460129 0.57161194 5.52169096 2.30125407 8.1875 5.4375 C8.991875 4.2 8.991875 4.2 9.8125 2.9375 C12.1875 0.4375 12.1875 0.4375 15.25 -0.0625 C18.1875 0.4375 18.1875 0.4375 20.125 1.5625 C21.7027372 4.34674212 20.847188 6.40293521 20.1875 9.4375 C20.5175 9.7675 20.8475 10.0975 21.1875 10.4375 C20.875 13.9375 20.875 13.9375 20.1875 17.4375 C17.1042365 18.97913175 14.57871901 18.73497535 11.1875 18.4375 C9.25 16.4375 9.25 16.4375 8.1875 14.4375 C7.48625 15.0975 6.785 15.7575 6.0625 16.4375 C2.68922663 18.78412495 1.21000703 19.03659679 -2.8125 18.4375 C-5.1875 16.9375 -5.1875 16.9375 -6.8125 15.4375 C-6.26526317 12.06287285 -5.7576 10.35515 -3.8125 7.4375 C-4.4725 7.4375 -5.1325 7.4375 -5.8125 7.4375 C-4.75494604 0.73965827 -4.75494604 0.73965827 0 0 Z " fill="#1D6446" transform="translate(414.8125,268.5625)"/>
<path d="M0 0 C3.95478251 2.91900614 7.41112181 6.50974362 9.625 10.9375 C10.15236173 17.14414192 10.38747482 22.71858332 6.625 27.9375 C2.88168646 31.68966298 -0.29151578 34.79473189 -5.8269043 35.05102539 C-6.77476807 35.04578857 -7.72263184 35.04055176 -8.69921875 35.03515625 C-10.24125977 35.03032227 -10.24125977 35.03032227 -11.81445312 35.02539062 C-12.88630859 35.01701172 -13.95816406 35.00863281 -15.0625 35 C-16.14595703 34.99548828 -17.22941406 34.99097656 -18.34570312 34.98632812 C-21.02219085 34.97453743 -23.69856777 34.95808063 -26.375 34.9375 C-26.29193604 34.3175415 -26.20887207 33.69758301 -26.12329102 33.05883789 C-26.02201904 32.24664795 -25.92074707 31.43445801 -25.81640625 30.59765625 C-25.71271729 29.79207275 -25.60902832 28.98648926 -25.50219727 28.15649414 C-25.33959897 25.3199185 -26.24928016 23.52003374 -27.375 20.9375 C-27.99678563 14.61601277 -27.13836808 10.13351388 -23.375 4.9375 C-16.96584504 -2.30361258 -8.94478608 -2.81595117 0 0 Z M-22.375 8.9375 C-23.71913413 11.62576826 -23.50739863 13.74985402 -23.5 16.75 C-23.50257813 17.78769531 -23.50515625 18.82539063 -23.5078125 19.89453125 C-23.38549678 22.69700029 -22.96000467 25.20283533 -22.375 27.9375 C-22.375 28.9275 -22.375 29.9175 -22.375 30.9375 C-21.42625 30.916875 -20.4775 30.89625 -19.5 30.875 C-16.375 30.9375 -16.375 30.9375 -14.375 31.9375 C-9.14659666 32.45863171 -4.73463246 32.58023534 0.0625 30.3125 C4.50676997 26.19342051 6.84884379 23.06816792 7.125 16.9375 C6.92776179 12.25309239 5.76963293 9.51888751 2.625 5.9375 C-1.75563402 2.08785192 -6.03702939 1.42862765 -11.7265625 1.4453125 C-16.40345546 2.3144696 -19.33831145 5.43301869 -22.375 8.9375 Z " fill="#EBF1EF" transform="translate(417.375,217.0625)"/>
<path d="M0 0 C8.62736395 0.17254728 17.89594394 4.08114502 24.1640625 10.06640625 C28.31827605 15.45869822 30.32004017 20.1191363 30 27 C18.00832902 22.50312338 8.90948755 13.90948755 0 5 C-0.04063832 3.33382885 -0.042721 1.66611905 0 0 Z " fill="#105B3B" transform="translate(0,226)"/>
<path d="M0 0 C11.44926407 1.46915335 21.17561528 5.72783932 28.5078125 14.83984375 C32.17314395 20.14593876 32.21453807 24.7783961 32 31 C27.45062448 28.58544128 24.18447303 25.46047586 20.60546875 21.8359375 C20.01325027 21.2432608 19.4210318 20.65058411 18.81086731 20.03994751 C17.56725188 18.79332339 16.32605522 17.54428215 15.0871582 16.29296875 C13.18171639 14.36916065 11.26828294 12.45358474 9.35351562 10.5390625 C8.14535834 9.32599372 6.93765948 8.11246816 5.73046875 6.8984375 C5.15556198 6.32241791 4.58065521 5.74639832 3.98832703 5.15292358 C0 1.11607658 0 1.11607658 0 0 Z " fill="#105B3B" transform="translate(735,244)"/>
<path d="M0 0 C8.31037681 2.1930161 14.98136603 5.59178453 19.875 12.875 C23.53210911 19.36421381 24.99633089 26.5714741 24 34 C23.34 34.99 22.68 35.98 22 37 C21.61779297 36.37134033 21.23558594 35.74268066 20.84179688 35.0949707 C19.06155398 32.16726379 17.28079765 29.23986952 15.5 26.3125 C14.86304199 25.26497559 14.22608398 24.21745117 13.56982422 23.13818359 C10.82194441 18.62216359 8.07367117 14.1067739 5.2890625 9.61328125 C4.72735352 8.70678833 4.72735352 8.70678833 4.15429688 7.78198242 C3.19084036 6.23099111 2.22443388 4.68183336 1.2578125 3.1328125 C0 1 0 1 0 0 Z " fill="#105B3B" transform="translate(788,192)"/>
<path d="M0 0 C0 0.99 0 1.98 0 3 C-0.67675781 2.84273438 -1.35351562 2.68546875 -2.05078125 2.5234375 C-10.87725754 0.95688409 -19.96095819 0.73740299 -27.84765625 5.3828125 C-33.8044068 9.85848351 -37.52731664 15.0183058 -40 22 C-31.5815798 24.80614007 -20.57211608 23.80402127 -12.484375 20.421875 C-8.09743774 17.91111216 -4.52857996 14.58956776 -1 11 C-0.505 12.98 -0.505 12.98 0 15 C-9.65184757 24.36255514 -18.43351851 27.24363058 -31.75 27.16796875 C-35.76968609 26.96022055 -39.16982525 26.20162345 -43 25 C-43.92790397 22.47726107 -44.08450301 21.26275156 -43.25 18.66796875 C-38.51575283 9.27344702 -32.99584631 3.63430626 -23.40234375 -0.90234375 C-15.89711072 -3.32366462 -7.20171083 -3.38904039 0 0 Z " fill="#1F704A" transform="translate(820,76)"/>
<path d="M0 0 C0.495 0.99 0.495 0.99 1 2 C-4.96836638 10.90733467 -12.35676449 17.4243074 -23 20 C-27.35848254 20.29925351 -31.64029093 20.24600239 -36 20 C-36 19.34 -36 18.68 -36 18 C-33.90376678 16.5097575 -31.83440521 15.18010592 -29.625 13.875 C-28.96467773 13.48119141 -28.30435547 13.08738281 -27.62402344 12.68164062 C-18.92039138 7.62374194 -9.56048501 3.18682834 0 0 Z " fill="#105B3B" transform="translate(89,269)"/>
<path d="M0 0 C-2.40337595 5.31914677 -6.3040009 9.53652567 -10 14 C-10.59425781 14.72058594 -11.18851563 15.44117188 -11.80078125 16.18359375 C-17.0429323 22.36571672 -22.7807747 28.16478656 -30 32 C-28.28629402 21.37502291 -23.72350314 13.67891873 -15.4453125 6.76171875 C-10.85674291 3.45589625 -5.77607985 0 0 0 Z " fill="#105B3B" transform="translate(34,9)"/>
<path d="M0 0 C1.8871875 0.0309375 1.8871875 0.0309375 3.8125 0.0625 C-3.76072446 7.88134255 -12.64087161 13.85256699 -21.8125 19.625 C-22.51157471 20.06674561 -23.21064941 20.50849121 -23.9309082 20.96362305 C-28.93631236 24.0625 -28.93631236 24.0625 -31.1875 24.0625 C-30.76945234 17.37373749 -25.61679446 12.19240832 -20.9375 7.8125 C-15.37854361 3.25862277 -7.20899321 -0.11818022 0 0 Z " fill="#105B3B" transform="translate(122.1875,302.9375)"/>
<path d="M0 0 C11.34890269 3.37079348 27.34249489 13.0807642 34 23 C23.89781016 23.55102854 15.78550027 20.51230755 8 14 C4.06741381 9.79011606 1.41209089 5.64836355 0 0 Z " fill="#105B3B" transform="translate(780,9)"/>
<path d="M0 0 C1 2 1 2 0.3984375 3.91796875 C-4.17867394 14.06797541 -8.73664169 20.12206557 -19.3125 24.3125 C-24.23746452 25.23071372 -29.00637483 25.16254114 -34 25 C-34 24.34 -34 23.68 -34 23 C-32.7625 22.34257812 -32.7625 22.34257812 -31.5 21.671875 C-22.25065466 16.59299341 -13.93270976 10.71082837 -5.60449219 4.24365234 C-3.75204916 2.80781169 -1.88069703 1.39858941 0 0 Z " fill="#105B3B" transform="translate(127,306)"/>
<path d="M0 0 C-3.30444113 2.20296075 -6.73564028 3.6521718 -10.375 5.1875 C-22.83913637 10.4935332 -22.83913637 10.4935332 -34.234375 17.703125 C-36 19 -36 19 -38 19 C-36.02359369 11.09437477 -31.74439131 5.78747961 -24.875 1.5625 C-17.05880312 -2.90563747 -8.39697229 -3.53556728 0 0 Z " fill="#105C3B" transform="translate(89,266)"/>
<path d="M0 0 C0.41757568 0.36714111 0.83515137 0.73428223 1.26538086 1.11254883 C5.55810526 4.84496474 9.9730016 8.32875757 14.5625 11.6875 C15.51286133 12.39616211 15.51286133 12.39616211 16.48242188 13.11914062 C20.17449228 15.83020777 23.81982812 18.0741581 28 20 C28 20.66 28 21.32 28 22 C21.6145994 24.12846687 15.75550849 23.71024657 9.6875 20.8125 C2.21190658 16.53905054 2.21190658 16.53905054 0 13 C-0.3988213 8.63423615 -0.28792589 4.37007519 0 0 Z " fill="#105B3B" transform="translate(0,235)"/>
<path d="M0 0 C0.33 0 0.66 0 1 0 C1.94263385 10.82283308 0.00818599 18.56253718 -6.7109375 27.19921875 C-10.37198521 31.15016842 -13.9324776 33.24187998 -19 35 C-18.07196427 29.30552223 -15.5427956 24.80887836 -12.875 19.75 C-12.18277344 18.39455078 -12.18277344 18.39455078 -11.4765625 17.01171875 C-8.25409935 10.85893884 -4.64275559 5.19261851 0 0 Z " fill="#105B3B" transform="translate(819,136)"/>
<path d="M0 0 C-1.2938797 3.58015255 -2.83747852 6.34270408 -5.125 9.375 C-11.0718358 17.66075866 -15.47172078 26.88753687 -20 36 C-22.81242676 31.10093404 -22.77632891 26.51123588 -22 21 C-19.20985923 12.47044418 -14.77466191 6.51606448 -7 2 C-2.50331126 0 -2.50331126 0 0 0 Z " fill="#105B3B" transform="translate(817,133)"/>
<path d="M0 0 C8.52854056 0.1892757 14.91679413 3.49201822 21.13671875 9.23828125 C24.37479141 13.08041952 26.53435687 17.55984216 27.9375 22.375 C27.4425 23.86 27.4425 23.86 26.9375 25.375 C26.22400391 24.68277344 26.22400391 24.68277344 25.49609375 23.9765625 C15.93723849 15.06904729 4.87172297 7.71029968 -7.0625 2.375 C-4.52839057 -0.15910943 -3.5174012 0.04947118 0 0 Z " fill="#105B3B" transform="translate(789.0625,4.625)"/>
<path d="M0 0 C6.61924839 0.63040461 10.751455 3.45249948 15.1875 8.25 C19.88350394 14.0183198 21.45933679 19.65061129 21 27 C16.61152247 23.25150877 12.23491703 19.49308366 7.93359375 15.64453125 C6.06941171 13.99674839 6.06941171 13.99674839 4.16015625 12.76171875 C2.5 11.625 2.5 11.625 0 9 C-0.48759764 5.9343595 -0.36169278 3.07438867 0 0 Z " fill="#105B3B" transform="translate(0,294)"/>
<path d="M0 0 C2 1 2 1 3.125 3.75 C5.91787306 14.63103344 4.21599626 25.84051561 -1.4375 35.4375 C-3.25163757 38.30539405 -5.21389309 40.06569648 -8 42 C-6.8536122 27.63062184 -3.5731824 13.94146192 0 0 Z " fill="#105C3B" transform="translate(809,271)"/>
<path d="M0 0 C0.33 0 0.66 0 1 0 C1.66402424 9.13033332 -1.59221155 16.0948756 -7.2421875 23.20703125 C-12.88873748 28.96651223 -19.15228844 30.62629945 -27 31 C-24.2046217 27.56029691 -21.48401416 24.40162877 -18.0625 21.5625 C-11.43776938 16.01935805 -6.54989857 9.15584043 -1.6015625 2.125 C-1.07304688 1.42375 -0.54453125 0.7225 0 0 Z " fill="#105B3B" transform="translate(35,12)"/>
<path d="M0 0 C2.96606254 2.77126438 5.06610647 5.48184603 7.09375 8.9921875 C7.64933594 9.94480469 8.20492187 10.89742187 8.77734375 11.87890625 C9.34582031 12.86761719 9.91429687 13.85632813 10.5 14.875 C11.63386717 16.83162792 12.76924423 18.78738176 13.90625 20.7421875 C14.43734375 21.65709961 14.9684375 22.57201172 15.515625 23.51464844 C16.75303711 25.58649964 18.03683201 27.58489751 19.40625 29.5703125 C21 32 21 32 21 34 C13.80838086 32.20209521 8.15716144 28.20881495 4.125 22 C-0.0094376 14.59420606 -0.24389713 8.3738016 0 0 Z " fill="#105B3B" transform="translate(786,196)"/>
<path d="M0 0 C5.28 0 10.56 0 16 0 C16.09765625 10.05859375 16.09765625 10.05859375 16 13 C15 14 15 14 11.875 14.1328125 C10.59625 14.13023438 9.3175 14.12765625 8 14.125 C6.72125 14.12757812 5.4425 14.13015625 4.125 14.1328125 C1 14 1 14 0 13 C-0.14393457 8.66469082 -0.04212061 4.33842269 0 0 Z " fill="#E9463D" transform="translate(418,96)"/>
<path d="M0 0 C0.66 0.66 1.32 1.32 2 2 C-2.22534491 2.85351332 -6.45573834 3.67894504 -10.6875 4.5 C-12.45577148 4.85771484 -12.45577148 4.85771484 -14.25976562 5.22265625 C-22.26914264 6.75870116 -29.85071203 7.30601269 -38 7 C-28.37412341 -4.17843733 -13.10560574 -5.40079783 0 0 Z " fill="#105B3B" transform="translate(802,353)"/>
<path d="M0 0 C3.4375 1.0625 3.4375 1.0625 5.375 3.25 C7.01133565 7.58147673 7.01133565 10.54352327 5.375 14.875 C3.4375 17.0625 3.4375 17.0625 0 18.125 C-3.5625 18.0625 -3.5625 18.0625 -6 16.75 C-8.40114715 12.62002691 -8.31167311 8.71973078 -7.5625 4.0625 C-5.37058868 0.29241253 -4.35625467 0.07642552 0 0 Z " fill="#E2EBE7" transform="translate(355.5625,268.9375)"/>
<path d="M0 0 C6.74080425 5.52650334 12.8071129 11.69449559 18.9375 17.875 C20.01343727 18.95596274 21.08960731 20.03669383 22.16601562 21.1171875 C24.78003292 23.74212641 27.39088596 26.37018628 30 29 C28 30 28 30 25.93359375 29.46875 C14.01305284 24.84231159 6.42945512 17.76533206 1.125 6.125 C0 3 0 3 0 0 Z " fill="#105B3B" transform="translate(733,247)"/>
<path d="M0 0 C1.12727872 3.38183617 0.8449004 4.60335282 0.07421875 8.015625 C-0.14468018 9.01335937 -0.3635791 10.01109375 -0.58911133 11.0390625 C-0.82782959 12.09867187 -1.06654785 13.15828125 -1.3125 14.25 C-3.32320429 23.47973446 -4.99144139 32.60685712 -6 42 C-8 41 -8 41 -8.921875 38.296875 C-11.67534934 26.50369245 -11.19108521 16.77026678 -5.30859375 6.03515625 C-3.79728214 3.68472834 -2.16959231 1.76781595 0 0 Z " fill="#105C3B" transform="translate(805,271)"/>
<path d="M0 0 C1.9375 1.125 1.9375 1.125 3 3 C2.625 6.125 2.625 6.125 2 9 C2.33 9.33 2.66 9.66 3 10 C3.25 12.9375 3.25 12.9375 3 16 C-0.69486103 18.46324069 -2.63293092 18.38991688 -7 18 C-8.9375 16.8125 -8.9375 16.8125 -10 15 C-10.3125 12.4375 -10.3125 12.4375 -10 10 C-9.34 9.34 -8.68 8.68 -8 8 C-8.33 7.67 -8.66 7.34 -9 7 C-9.25 4.5625 -9.25 4.5625 -9 2 C-5.53076119 -0.31282587 -4.07794425 -0.42478586 0 0 Z " fill="#E2EBE7" transform="translate(483,269)"/>
<path d="M0 0 C-1.71882696 9.58576572 -6.57379215 15.78498586 -14 22 C-18.44634357 24.93733041 -22.66150228 26.46615023 -28 27 C-28 26.01 -28 25.02 -28 24 C-27.39414062 23.81566406 -26.78828125 23.63132813 -26.1640625 23.44140625 C-18.0127321 20.61979188 -10.92991935 15.9989861 -6.484375 8.4140625 C-5.53551453 6.29583172 -4.70053369 4.21138619 -4 2 C-11.76543213 -1.35802471 -20.16756183 -0.7848669 -28 2 C-27.875 0.125 -27.875 0.125 -27 -2 C-18.00554345 -6.61254182 -8.71012935 -3.70925661 0 0 Z " fill="#1F6F4A" transform="translate(28,130)"/>
<path d="M0 0 C0.78734859 8.03095559 0.78734859 8.03095559 -2.4375 12 C-3.283125 12.66 -4.12875 13.32 -5 14 C-5.33 14.33 -5.66 14.66 -6 15 C-13.17684887 15.46302251 -13.17684887 15.46302251 -16 13.875 C-17.42098605 11.21065116 -17.19767261 8.96508915 -17 6 C-5.8 0 -5.8 0 0 0 Z " fill="#185A3B" transform="translate(664,143)"/>
<path d="M0 0 C0.89542658 8.5397165 0.89542658 8.5397165 -1.08984375 11.77734375 C-3.84334018 14.29712165 -6.01940207 15.00230194 -9.6875 15.4375 C-13 15 -13 15 -16 13 C-16.4375 9.5625 -16.4375 9.5625 -16 6 C-13.10764195 3.20225179 -10.16329546 2.28419605 -6.3125 1.3125 C-5.33925781 1.06113281 -4.36601562 0.80976563 -3.36328125 0.55078125 C-1 0 -1 0 0 0 Z " fill="#125D3C" transform="translate(171,144)"/>
<path d="M0 0 C8.45797943 0.14925846 15.99011414 4.81371981 22.125 10.3125 C26.125 14.7125 26.125 14.7125 26.125 17.3125 C24.375 17.125 24.375 17.125 22.125 16.3125 C21.58875 15.590625 21.0525 14.86875 20.5 14.125 C16.10596201 8.92153396 9.91155552 5.23891869 3.125 4.3125 C-1.97447471 4.01096584 -6.86089478 4.2839656 -11.875 5.3125 C-10.31798069 9.98355792 -7.79052627 13.39955685 -4.875 17.3125 C-8.01520792 16.99687433 -9.48317956 16.73151839 -11.67578125 14.38671875 C-12.17464844 13.59910156 -12.67351563 12.81148438 -13.1875 12 C-13.69925781 11.22011719 -14.21101563 10.44023437 -14.73828125 9.63671875 C-15.875 7.3125 -15.875 7.3125 -15.875 3.3125 C-11.08188467 0.31680292 -5.47345866 0.44140796 0 0 Z " fill="#1F6F4A" transform="translate(43.875,342.6875)"/>
<path d="M0 0 C2 2 2 2 2 5 C-0.31 4.67 -2.62 4.34 -5 4 C-5.33 4.66 -5.66 5.32 -6 6 C-5.071875 5.938125 -4.14375 5.87625 -3.1875 5.8125 C0 6 0 6 1.875 7.125 C3.52854531 9.88090884 3.39365568 11.85075452 3 15 C1.875 16.875 1.875 16.875 0 18 C-2.9375 18.5 -2.9375 18.5 -6 18 C-8.64736319 15.84030898 -9.79186119 14.19361235 -10.3828125 10.8046875 C-10.57133224 6.9965887 -10.44333696 4.69910828 -8.375 1.4375 C-5.34778115 -0.39476404 -3.48142404 -0.45409879 0 0 Z " fill="#F0F5F3" transform="translate(498,269)"/>
<path d="M0 0 C16.8929385 -0.55353075 16.8929385 -0.55353075 24 3 C23.6153394 9.15456953 21.60212449 13.04829248 18 18 C17.39929688 18.82628906 16.79859375 19.65257813 16.1796875 20.50390625 C13.81048922 23.21702041 11.4865782 24.90838178 8.4375 26.8125 C7.48746094 27.41707031 6.53742187 28.02164063 5.55859375 28.64453125 C3 30 3 30 0 30 C0 29.01 0 28.02 0 27 C0.59167969 26.69707031 1.18335937 26.39414063 1.79296875 26.08203125 C10.60259225 21.41134995 17.76641867 14.700744 21 5 C14.07 4.34 7.14 3.68 0 3 C0 2.01 0 1.02 0 0 Z " fill="#1F6F4A" transform="translate(0,73)"/>
<path d="M0 0 C3.57941731 0.74518118 5.14189033 2.54249656 7.1953125 5.45703125 C7.1953125 6.77703125 7.1953125 8.09703125 7.1953125 9.45703125 C0.9253125 9.45703125 -5.3446875 9.45703125 -11.8046875 9.45703125 C-10.27534937 1.8103406 -7.62088885 -0.33954455 0 0 Z " fill="#145A3B" transform="translate(519.8046875,127.54296875)"/>
<path d="M0 0 C0 3.63 0 7.26 0 11 C0.66 11 1.32 11 2 11 C2 11.99 2 12.98 2 14 C1.34 14 0.68 14 0 14 C0 15.32 0 16.64 0 18 C-1.32 18 -2.64 18 -4 18 C-4 16.68 -4 15.36 -4 14 C-6.64 14 -9.28 14 -12 14 C-11.45312177 9.89476744 -10.21476417 7.45075545 -7.6875 4.1875 C-6.79611328 3.00220703 -6.79611328 3.00220703 -5.88671875 1.79296875 C-4 0 -4 0 0 0 Z " fill="#D1DFD9" transform="translate(405,269)"/>
<path d="M0 0 C3.20823081 1.60411541 4.94209863 2.66063933 7.453125 5.00390625 C8.071875 5.57947266 8.690625 6.15503906 9.328125 6.74804688 C10.27945312 7.64620117 10.27945312 7.64620117 11.25 8.5625 C11.8996875 9.16513672 12.549375 9.76777344 13.21875 10.38867188 C16.73480202 13.67943065 16.73480202 13.67943065 18 15 C18 15.33 18 15.66 18 16 C10.73877794 16.46102997 6.4875486 15.29526278 0 12 C0 8.04 0 4.08 0 0 Z " fill="#105B3B" transform="translate(0,307)"/>
<path d="M0 0 C3.3 0 6.6 0 10 0 C10 0.99 10 1.98 10 3 C7.36 3 4.72 3 2 3 C2.33 3.66 2.66 4.32 3 5 C4.99883869 5.34022786 6.99890722 5.67329097 9 6 C9.66 6.66 10.32 7.32 11 8 C10.8125 11.5 10.8125 11.5 10 15 C6.53076119 17.31282587 5.07794425 17.42478586 1 17 C-0.875 15.625 -0.875 15.625 -2 14 C-2 13.34 -2 12.68 -2 12 C0.64 12.33 3.28 12.66 6 13 C6.33 11.35 6.66 9.7 7 8 C2.545 8.495 2.545 8.495 -2 9 C-1.34 6.03 -0.68 3.06 0 0 Z " fill="#E6EDEA" transform="translate(335,270)"/>
<path d="M0 0 C3.0625 0.3125 3.0625 0.3125 5 1.4375 C6.5777372 4.22174212 5.722188 6.27793521 5.0625 9.3125 C5.3925 9.6425 5.7225 9.9725 6.0625 10.3125 C5.75 13.8125 5.75 13.8125 5.0625 17.3125 C1.9792365 18.85413175 -0.54628099 18.60997535 -3.9375 18.3125 C-5.875 16.4375 -5.875 16.4375 -6.9375 14.3125 C-6.9375 13.6525 -6.9375 12.9925 -6.9375 12.3125 C-5.6175 12.6425 -4.2975 12.9725 -2.9375 13.3125 C-2.9375 13.9725 -2.9375 14.6325 -2.9375 15.3125 C-1.2875 14.9825 0.3625 14.6525 2.0625 14.3125 C2.0625 13.3225 2.0625 12.3325 2.0625 11.3125 C0.7425 10.9825 -0.5775 10.6525 -1.9375 10.3125 C-1.6075 9.3225 -1.2775 8.3325 -0.9375 7.3125 C0.0525 7.3125 1.0425 7.3125 2.0625 7.3125 C2.0625 5.9925 2.0625 4.6725 2.0625 3.3125 C0.08713255 3.66036708 0.08713255 3.66036708 -1.9375 4.3125 C-2.2675 4.9725 -2.5975 5.6325 -2.9375 6.3125 C-3.9275 6.3125 -4.9175 6.3125 -5.9375 6.3125 C-5.12541707 2.25208537 -4.43312263 0.47160879 0 0 Z " fill="#E3ECE8" transform="translate(429.9375,268.6875)"/>
<path d="M0 0 C1 1 1 1 1.0625 3.375 C1.041875 4.24125 1.02125 5.1075 1 6 C1 8.83967231 1.40267181 11.23735711 2 14 C-0.41669703 16.23079726 -1.75015327 16.96940652 -5.0625 17.375 C-8 17 -8 17 -9.875 15.6875 C-11 14 -11 14 -11 11 C-10.01 11 -9.02 11 -8 11 C-7.67 11.66 -7.34 12.32 -7 13 C-5.68 13 -4.36 13 -3 13 C-3 12.01 -3 11.02 -3 10 C-3.99 9.67 -4.98 9.34 -6 9 C-6 8.01 -6 7.02 -6 6 C-5.01 5.67 -4.02 5.34 -3 5 C-3 4.34 -3 3.68 -3 3 C-4.32 3 -5.64 3 -7 3 C-7.33 3.66 -7.66 4.32 -8 5 C-8.99 5 -9.98 5 -11 5 C-8.62803293 -1.60762255 -6.74241005 -1.22589274 0 0 Z " fill="#E2EBE8" transform="translate(457,270)"/>
<path d="M0 0 C1 1 1 1 1.0625 3.4375 C1.041875 4.283125 1.02125 5.12875 1 6 C0.92403851 8.17825054 0.92403851 8.17825054 1.6875 10.9375 C2 14 2 14 1 15.875 C-2.12108727 17.63061159 -4.49953714 17.43755786 -8 17 C-9.9375 15.125 -9.9375 15.125 -11 13 C-11 12.34 -11 11.68 -11 11 C-10.01 11 -9.02 11 -8 11 C-7.67 11.66 -7.34 12.32 -7 13 C-4.47266765 13.65555119 -4.47266765 13.65555119 -2 14 C-2.26676204 12.01508358 -2.26676204 12.01508358 -3 10 C-3.99 9.67 -4.98 9.34 -6 9 C-6 8.01 -6 7.02 -6 6 C-4.68 6 -3.36 6 -2 6 C-2.33 5.01 -2.66 4.02 -3 3 C-5.01508358 2.26676204 -5.01508358 2.26676204 -7 2 C-7 2.99 -7 3.98 -7 5 C-8.32 4.67 -9.64 4.34 -11 4 C-8.37880967 -1.8040643 -6.03014099 -1.09638927 0 0 Z " fill="#E6EDEA" transform="translate(374,270)"/>
<path d="M0 0 C1.4540625 0.0309375 1.4540625 0.0309375 2.9375 0.0625 C1.9475 0.7225 0.9575 1.3825 -0.0625 2.0625 C-0.0625 3.3825 -0.0625 4.7025 -0.0625 6.0625 C0.5975 6.7225 1.2575 7.3825 1.9375 8.0625 C0.9475 8.7225 -0.0425 9.3825 -1.0625 10.0625 C-1.0625 11.0525 -1.0625 12.0425 -1.0625 13.0625 C0.5875 13.3925 2.2375 13.7225 3.9375 14.0625 C3.6075 11.7525 3.2775 9.4425 2.9375 7.0625 C3.5975 6.7325 4.2575 6.4025 4.9375 6.0625 C4.9375 6.7225 4.9375 7.3825 4.9375 8.0625 C5.9275 8.3925 6.9175 8.7225 7.9375 9.0625 C8.1875 11.375 8.1875 11.375 7.9375 14.0625 C5.68798621 16.57157308 4.28499528 17.01906309 0.9375 17.4375 C-2.33093543 17.02894557 -3.67473142 16.26659407 -6.0625 14.0625 C-5.51526317 10.68787285 -5.0076 8.98015 -3.0625 6.0625 C-3.7225 6.0625 -4.3825 6.0625 -5.0625 6.0625 C-3.98897059 0.08140756 -3.98897059 0.08140756 0 0 Z " fill="#EAF0EE" transform="translate(414.0625,269.9375)"/>
<path d="M0 0 C2.0625 0.4375 2.0625 0.4375 4 1 C4.82638376 3.89234315 5 5.88742431 5 9 C5.66 9.66 6.32 10.32 7 11 C8.134375 10.835 9.26875 10.67 10.4375 10.5 C14 10 14 10 17 12 C16.125 15.875 16.125 15.875 15 17 C8.92057693 17 6.0984529 14.8512237 1.69921875 10.7890625 C0 9 0 9 -2 6 C-1.45945946 1.45945946 -1.45945946 1.45945946 0 0 Z " fill="#ECF2F0" transform="translate(401,226)"/>
<path d="M0 0 C0 0.99 0 1.98 0 3 C-3.16607532 4.27230998 -6.33296797 5.54257353 -9.5 6.8125 C-10.386875 7.16892578 -11.27375 7.52535156 -12.1875 7.89257812 C-14.78905283 8.93511216 -17.39360158 9.96964552 -20 11 C-20.77085937 11.30728027 -21.54171875 11.61456055 -22.3359375 11.93115234 C-25.36496073 13.11072389 -27.7193578 14 -31 14 C-31 13.01 -31 12.02 -31 11 C-27.66680199 9.72881155 -24.33341673 8.45811479 -21 7.1875 C-20.06542969 6.83107422 -19.13085938 6.47464844 -18.16796875 6.10742188 C-16.31947098 5.40292447 -14.47051861 4.69961863 -12.62109375 3.99755859 C-10.9447405 3.35955753 -9.27007918 2.7170815 -7.59765625 2.06884766 C-2.21694959 0 -2.21694959 0 0 0 Z " fill="#1F6F4A" transform="translate(820,81)"/>
<path d="M0 0 C1.32 0.33 2.64 0.66 4 1 C4.82638376 3.89234315 5 5.88742431 5 9 C5.061875 10.03125 5.12375 11.0625 5.1875 12.125 C5.125625 13.07375 5.06375 14.0225 5 15 C1.30513897 17.46324069 -0.63293092 17.38991688 -5 17 C-7 15.75 -7 15.75 -8 14 C-7.8125 11.875 -7.8125 11.875 -7 10 C-6.34 9.67 -5.68 9.34 -5 9 C-4.67 10.32 -4.34 11.64 -4 13 C-2.35 13 -0.7 13 1 13 C0.42655063 10.13275314 0.1385485 9.1385485 -2 7 C-1.34 6.67 -0.68 6.34 0 6 C0 4.02 0 2.04 0 0 Z " fill="#F1F5F3" transform="translate(481,270)"/>
<path d="M0 0 C3.96 0 7.92 0 12 0 C11 4 11 4 9.5625 5.6875 C7.22396546 9.14853111 6.73829395 12.93504034 6 17 C4.68 17 3.36 17 2 17 C2.44033187 11.80408388 2.88303339 8.33664919 6 4 C3.03 3.505 3.03 3.505 0 3 C0 2.01 0 1.02 0 0 Z " fill="#E6EEEB" transform="translate(460,270)"/>
<path d="M0 0 C3.96 0 7.92 0 12 0 C11 4 11 4 9.5625 5.6875 C7.22396546 9.14853111 6.73829395 12.93504034 6 17 C4.68 17 3.36 17 2 17 C2.44033187 11.80408388 2.88303339 8.33664919 6 4 C3.03 3.505 3.03 3.505 0 3 C0 2.01 0 1.02 0 0 Z " fill="#E6EEEB" transform="translate(382,270)"/>
<path d="M0 0 C5.625 -0.25 5.625 -0.25 9 2 C9.1875 4.625 9.1875 4.625 9 7 C8.01 7.33 7.02 7.66 6 8 C6 10.31 6 12.62 6 15 C4.35 15 2.7 15 1 15 C0.375 13.1875 0.375 13.1875 0 11 C0.66 10.01 1.32 9.02 2 8 C1.72057545 6.32345271 1.39171753 4.65391846 1 3 C1.33 2.67 1.66 2.34 2 2 C1.34 1.34 0.68 0.68 0 0 Z " fill="#DCE7E2" transform="translate(412,269)"/>
<path d="M0 0 C3 0.25 3 0.25 5 2.25 C5 3.24 5 4.23 5 5.25 C2.69 4.92 0.38 4.59 -2 4.25 C-2.33 4.91 -2.66 5.57 -3 6.25 C-1.02 6.25 0.96 6.25 3 6.25 C2.34 6.91 1.68 7.57 1 8.25 C1.66 8.91 2.32 9.57 3 10.25 C2.625 12.875 2.625 12.875 2 15.25 C0.35 14.92 -1.3 14.59 -3 14.25 C-2.125 9.5 -2.125 9.5 -1 7.25 C-1.99 7.58 -2.98 7.91 -4 8.25 C-4.33 7.26 -4.66 6.27 -5 5.25 C-5.99 5.745 -5.99 5.745 -7 6.25 C-4.24855491 0.35404624 -4.24855491 0.35404624 0 0 Z " fill="#D7E3DE" transform="translate(495,268.75)"/>
<path d="M0 0 C3.53571429 0.53571429 3.53571429 0.53571429 5 2 C5.23880597 9.52238806 5.23880597 9.52238806 4 12 C-0.875 11.125 -0.875 11.125 -2 10 C-2.27314815 4.26388889 -2.27314815 4.26388889 -2 2 C-1.34 1.34 -0.68 0.68 0 0 Z " fill="#186041" transform="translate(353,272)"/>
<path d="M0 0 C-1 3 -1 3 -4.45703125 4.97265625 C-5.90392004 5.67946209 -7.35602085 6.37567387 -8.8125 7.0625 C-9.53759766 7.41376953 -10.26269531 7.76503906 -11.00976562 8.12695312 C-12.3686326 8.78462982 -13.72951432 9.43817164 -15.09301758 10.08618164 C-17.07355598 11.03524773 -19.03815512 12.01295105 -21 13 C-20.63576692 10.35931014 -20.26880987 9.24000881 -18.25 7.4375 C-3.70731707 -1.85365854 -3.70731707 -1.85365854 0 0 Z " fill="#1F6F4A" transform="translate(21,133)"/>
<path d="M0 0 C0.66 0 1.32 0 2 0 C2 1.65 2 3.3 2 5 C3.98 5 5.96 5 8 5 C8 5.99 8 6.98 8 8 C6.35 8 4.7 8 3 8 C3 9.65 3 11.3 3 13 C2.01 13 1.02 13 0 13 C0 11.35 0 9.7 0 8 C-1.65 8 -3.3 8 -5 8 C-5 7.01 -5 6.02 -5 5 C-3.35 5 -1.7 5 0 5 C0 3.35 0 1.7 0 0 Z " fill="#D9E5E0" transform="translate(324,272)"/>
<path d="M0 0 C5.88662886 0.46473386 11.06652725 2.84971017 16 6 C17.80078125 8.16796875 17.80078125 8.16796875 19 10 C14.01400883 9.46199791 10.48164295 7.88255471 6.125 5.4375 C4.97257812 4.79683594 3.82015625 4.15617187 2.6328125 3.49609375 C1.76398437 3.00238281 0.89515625 2.50867188 0 2 C0 1.34 0 0.68 0 0 Z " fill="#1F704A" transform="translate(37,350)"/>
<path d="M0 0 C0.66 0.33 1.32 0.66 2 1 C1.67 1.99 1.34 2.98 1 4 C0.37533944 9.28624683 0.37533944 9.28624683 2.5 13.875 C2.995 14.24625 3.49 14.6175 4 15 C4 15.66 4 16.32 4 17 C1.625 16.6875 1.625 16.6875 -1 16 C-3.14553377 12.78169935 -3.29583868 11.73213493 -3.3125 8 C-3.32925781 7.13375 -3.34601563 6.2675 -3.36328125 5.375 C-2.93703947 2.5883871 -2.16168863 1.73391383 0 0 Z " fill="#F2F6F4" transform="translate(351,270)"/>
<path d="M0 0 C-0.16796875 1.8671875 -0.16796875 1.8671875 -1 4 C-3.36328125 5.1953125 -3.36328125 5.1953125 -6.3125 6.125 C-9.69817602 7.21890333 -12.86100364 8.31493307 -16 10 C-15.90234375 7.67578125 -15.90234375 7.67578125 -15 5 C-12.12890625 3.41796875 -12.12890625 3.41796875 -8.5625 2.1875 C-6.80099609 1.55908203 -6.80099609 1.55908203 -5.00390625 0.91796875 C-2 0 -2 0 0 0 Z " fill="#1E6E49" transform="translate(16,80)"/>
<path d="M0 0 C3.96 0 7.92 0 12 0 C11.67 1.32 11.34 2.64 11 4 C8.4375 5.25 8.4375 5.25 6 6 C6 5.34 6 4.68 6 4 C3.03 3.505 3.03 3.505 0 3 C0 2.01 0 1.02 0 0 Z " fill="#DFE9E4" transform="translate(460,270)"/>
<path d="M0 0 C3.96 0 7.92 0 12 0 C11.67 1.32 11.34 2.64 11 4 C8.4375 5.25 8.4375 5.25 6 6 C6 5.34 6 4.68 6 4 C3.03 3.505 3.03 3.505 0 3 C0 2.01 0 1.02 0 0 Z " fill="#DFE9E4" transform="translate(382,270)"/>
<path d="M0 0 C1.65 0.33 3.3 0.66 5 1 C4.67 2.65 4.34 4.3 4 6 C2.35 5.67 0.7 5.34 -1 5 C-0.67 3.35 -0.34 1.7 0 0 Z " fill="#135D3E" transform="translate(493,278)"/>
<path d="M0 0 C1.2065625 0.0309375 1.2065625 0.0309375 2.4375 0.0625 C3 2 3 2 3.4375 4.0625 C2.4375 5.0625 2.4375 5.0625 -0.125 5.125 C-1.3315625 5.0940625 -1.3315625 5.0940625 -2.5625 5.0625 C-3.125 3.125 -3.125 3.125 -3.5625 1.0625 C-2.5625 0.0625 -2.5625 0.0625 0 0 Z " fill="#1F6648" transform="translate(479.5625,278.9375)"/>
<path d="M0 0 C1.2065625 0.0309375 1.2065625 0.0309375 2.4375 0.0625 C2.4375 1.7125 2.4375 3.3625 2.4375 5.0625 C0.7875 5.0625 -0.8625 5.0625 -2.5625 5.0625 C-3.125 3.125 -3.125 3.125 -3.5625 1.0625 C-2.5625 0.0625 -2.5625 0.0625 0 0 Z " fill="#186042" transform="translate(415.5625,278.9375)"/>
<path d="M0 0 C3 0 3 0 5.1875 1.875 C7 4 7 4 7 6 C2.25 5.25 2.25 5.25 0 3 C0 2.01 0 1.02 0 0 Z " fill="#F1F6F4" transform="translate(446,281)"/>
<path d="M0 0 C2.96175123 0.61277612 4.38058783 1.25372522 7 3 C7 3.66 7 4.32 7 5 C4.625 4.75 4.625 4.75 2 4 C0.6875 1.9375 0.6875 1.9375 0 0 Z " fill="#EFF4F2" transform="translate(333,282)"/>
<path d="M0 0 C2.31 0 4.62 0 7 0 C7 0.99 7 1.98 7 3 C4.69 3 2.38 3 0 3 C0 2.01 0 1.02 0 0 Z " fill="#DBE6E1" transform="translate(437,279)"/>
<path d="M0 0 C2.875 -0.125 2.875 -0.125 6 0 C8 2 8 2 8 5 C2.25 3.375 2.25 3.375 0 0 Z " fill="#CFDED7" transform="translate(492,269)"/>
<path d="M0 0 C1.98 0 3.96 0 6 0 C3.6875 2.5 3.6875 2.5 1 5 C0.01 5 -0.98 5 -2 5 C-1.34 3.35 -0.68 1.7 0 0 Z " fill="#EEF3F1" transform="translate(448,270)"/>
<path d="M0 0 C1.32 0 2.64 0 4 0 C4 1.32 4 2.64 4 4 C2.35 3.67 0.7 3.34 -1 3 C-0.67 2.01 -0.34 1.02 0 0 Z " fill="#165F40" transform="translate(478,272)"/>
<path d="M0 0 C2.475 0.495 2.475 0.495 5 1 C4.67 1.99 4.34 2.98 4 4 C2.68 4 1.36 4 0 4 C0 2.68 0 1.36 0 0 Z " fill="#165F40" transform="translate(413,272)"/>
<path d="M0 0 C1.67542976 0.28604898 3.34385343 0.61781233 5 1 C3.1875 3 3.1875 3 1 5 C0.01 5 -0.98 5 -2 5 C-1.125 1.125 -1.125 1.125 0 0 Z " fill="#EBF1EF" transform="translate(426,270)"/>
</svg>
