<?xml version="1.0" standalone="no"?>
<!DOCTYPE svg PUBLIC "-//W3C//DTD SVG 20010904//EN"
 "http://www.w3.org/TR/2001/REC-SVG-20010904/DTD/svg10.dtd">
<svg version="1.0" xmlns="http://www.w3.org/2000/svg"
 width="1352.000000pt" height="738.000000pt" viewBox="0 0 1352.000000 738.000000"
 preserveAspectRatio="xMidYMid meet">

<g transform="translate(0.000000,738.000000) scale(0.100000,-0.100000)"
fill="#000000" stroke="none">
<path d="M8653 7347 c-73 -45 -248 -219 -301 -300 -56 -88 -95 -172 -146 -322
-36 -106 -44 -122 -71 -134 -16 -7 -40 -23 -52 -34 -29 -26 -29 -17 -1 64 17
50 22 88 23 174 0 97 -3 119 -29 189 -42 114 -68 139 -182 176 -75 24 -112 30
-180 30 -94 0 -106 -11 -42 -42 119 -57 178 -236 129 -395 -18 -60 -35 -88
-128 -202 -60 -73 -117 -147 -128 -165 -42 -69 -260 -276 -290 -276 -3 0 -21
33 -41 73 -52 102 -92 163 -155 231 -58 64 -238 212 -274 226 -12 5 -61 27
-110 50 -113 54 -282 110 -330 110 -23 0 -80 -19 -149 -49 -132 -59 -198 -70
-422 -75 -224 -5 -243 -12 -358 -133 -50 -52 -114 -127 -142 -167 -39 -54 -77
-89 -155 -146 -135 -99 -151 -117 -212 -237 l-51 -103 -48 0 c-26 0 -50 4 -53
10 -3 5 10 34 30 64 33 50 53 71 158 164 34 30 37 37 37 86 0 63 -39 168 -78
209 -64 68 -121 74 -210 20 -86 -53 -241 -187 -278 -242 -18 -25 -41 -51 -52
-58 -11 -6 -43 -47 -72 -90 -29 -43 -53 -79 -55 -81 -1 -1 -33 5 -71 14 -85
20 -239 14 -299 -10 -79 -34 -109 -49 -167 -87 -43 -28 -74 -39 -116 -44 -141
-17 -274 -68 -402 -154 -25 -17 -50 -31 -55 -31 -6 0 -37 -27 -70 -61 -59 -59
-60 -60 -105 -54 -62 9 -138 -10 -182 -45 -34 -28 -41 -29 -96 -24 -86 9 -160
-15 -219 -71 -26 -25 -63 -50 -82 -57 -90 -31 -206 -131 -237 -205 -16 -37
-18 -120 -4 -157 7 -19 4 -40 -10 -82 -14 -38 -20 -84 -20 -138 0 -85 12 -119
65 -176 17 -18 25 -43 30 -90 4 -36 16 -85 26 -109 11 -25 16 -48 12 -52 -5
-3 -36 -11 -70 -17 -131 -23 -235 -96 -254 -180 -5 -23 -20 -57 -33 -77 -31
-45 -50 -131 -40 -182 20 -109 84 -169 199 -190 33 -6 67 -22 100 -48 28 -21
75 -49 105 -62 30 -13 69 -31 87 -38 24 -11 34 -23 41 -52 14 -55 132 -666
132 -679 0 -6 -18 -16 -41 -22 -127 -32 -189 -162 -139 -295 12 -31 29 -61 38
-66 9 -5 59 -11 110 -13 67 -3 97 -9 109 -20 15 -15 10 -19 -52 -47 -37 -17
-71 -31 -74 -31 -3 0 -33 -20 -66 -45 -33 -25 -75 -47 -95 -51 -19 -3 -57 -10
-83 -15 -26 -5 -52 -9 -57 -9 -17 0 -40 32 -40 56 0 15 -11 34 -26 47 -15 12
-50 43 -78 69 -94 86 -177 153 -213 172 -30 16 -42 17 -87 8 -28 -6 -70 -11
-94 -11 -28 0 -53 -7 -73 -22 -28 -20 -36 -21 -78 -11 -31 7 -66 7 -106 0 -41
-6 -78 -6 -117 2 -88 17 -159 -6 -231 -74 -20 -20 -46 -36 -56 -36 -10 0 -42
-16 -70 -35 -35 -25 -62 -35 -88 -35 -20 0 -55 -9 -77 -19 -23 -11 -66 -21
-96 -23 -30 -2 -80 -16 -110 -30 -30 -14 -81 -28 -113 -31 -96 -9 -126 -31
-159 -110 -20 -50 -41 -82 -77 -115 -64 -61 -90 -118 -91 -201 0 -53 -4 -68
-25 -93 -14 -16 -25 -38 -25 -48 0 -10 -5 -22 -10 -25 -15 -9 -12 -63 5 -113
11 -30 13 -62 9 -111 -10 -100 0 -136 52 -191 37 -39 46 -58 54 -103 9 -55 35
-117 72 -170 19 -27 20 -31 4 -86 -20 -72 -20 -126 0 -182 8 -24 24 -93 34
-153 17 -100 21 -112 54 -145 20 -20 43 -58 52 -84 11 -32 31 -61 66 -92 52
-46 97 -65 159 -65 22 0 61 -13 94 -30 64 -34 116 -38 180 -15 28 10 61 13
111 8 95 -8 136 7 201 74 42 43 62 56 96 61 40 7 44 11 73 71 24 48 40 69 67
82 46 24 75 62 89 117 6 24 16 46 22 48 6 2 75 -8 153 -24 l141 -28 70 -62
c88 -78 138 -101 220 -102 72 0 102 -13 151 -64 19 -20 40 -36 47 -36 7 0 26
-11 42 -25 17 -14 57 -38 89 -53 52 -24 69 -27 168 -27 89 1 120 5 161 22 l51
22 57 -39 c108 -73 236 -79 362 -15 51 26 79 35 94 30 40 -13 107 5 176 47 90
53 127 88 182 172 l45 69 56 -7 c31 -4 81 -11 111 -16 30 -5 136 -18 235 -30
99 -11 218 -24 265 -30 202 -25 914 -80 1025 -80 42 0 66 -5 74 -14 8 -10 9
-16 1 -21 -15 -9 -12 -61 5 -94 34 -67 140 -85 610 -103 456 -18 470 -18 776
37 67 12 86 11 175 -5 54 -10 127 -25 162 -34 124 -33 352 -56 390 -41 21 9
69 12 287 20 477 17 1016 87 1265 165 69 21 143 42 165 46 22 3 89 32 150 63
87 44 131 76 215 151 58 53 131 111 163 129 32 18 102 68 156 111 97 77 99 80
148 183 50 103 51 104 104 125 106 42 367 82 555 85 l118 2 13 -84 c20 -129
101 -269 148 -257 22 6 105 -44 105 -63 0 -13 95 -51 133 -54 18 -1 56 -15 84
-30 29 -15 90 -36 135 -47 46 -11 88 -26 93 -33 55 -73 94 -110 141 -133 62
-30 79 -27 89 16 5 22 11 30 21 26 8 -3 43 -13 77 -21 34 -9 113 -41 176 -72
112 -55 115 -56 221 -61 109 -5 183 1 210 18 12 7 11 12 -5 29 -10 12 -16 22
-14 24 14 9 141 35 153 31 7 -3 19 -16 26 -30 27 -49 174 -126 213 -111 15 6
37 78 37 125 0 45 17 53 80 36 30 -8 87 -13 125 -12 l70 3 -1 71 c0 78 -22
149 -60 201 -29 39 -30 49 -3 63 16 9 18 14 9 25 -17 21 -5 32 42 38 71 10
148 37 148 51 0 8 -9 33 -20 57 -11 24 -20 51 -20 59 0 8 20 28 45 44 48 30
125 131 125 164 0 10 -8 26 -17 35 -21 18 -158 83 -188 89 -14 2 -20 12 -22
33 0 17 -2 35 -2 42 -2 18 -59 33 -133 33 l-68 0 2 88 3 87 -32 -3 -33 -3 0
100 0 101 -57 0 c-32 0 -64 4 -71 9 -7 4 -19 37 -27 72 -16 79 -50 171 -73
199 -17 22 -18 21 -102 -64 -46 -47 -90 -86 -97 -86 -7 0 -27 9 -45 20 -18 11
-40 20 -48 20 -21 0 -88 -91 -106 -143 -7 -23 -21 -69 -30 -101 l-15 -59 -44
44 c-24 24 -60 58 -81 75 -23 19 -34 35 -30 43 4 6 32 26 62 42 30 17 54 35
54 39 0 4 -27 31 -60 60 -66 58 -155 95 -252 106 -32 4 -58 11 -58 17 0 5 11
41 25 79 14 38 25 74 25 80 0 17 -235 0 -300 -23 -79 -28 -84 -26 -58 20 34
59 23 62 -78 24 -13 -5 -94 76 -94 95 0 6 3 12 6 12 3 0 68 11 143 25 75 13
198 28 273 33 123 7 140 11 162 31 35 33 49 74 42 117 -8 42 -69 113 -118 137
-51 25 -213 66 -307 78 -62 7 -101 19 -155 46 -123 62 -222 48 -291 -42 -26
-36 -45 -38 -45 -7 0 47 26 98 81 160 78 87 120 152 153 234 29 75 33 134 15
281 -10 83 -9 101 10 180 29 122 28 180 -6 248 -49 95 -138 136 -269 124 l-72
-7 -11 53 c-18 81 -47 138 -93 179 l-42 37 28 63 c26 58 28 70 23 146 -5 70
-2 91 18 150 14 38 25 82 25 97 0 18 25 69 66 134 36 57 74 128 84 156 9 29
30 77 46 108 143 281 183 355 230 424 29 44 62 89 71 100 26 29 138 103 189
125 47 21 74 60 74 110 0 69 -97 160 -172 160 -58 0 -144 -34 -203 -81 -119
-94 -99 -86 -151 -61 -25 13 -65 25 -87 28 -44 6 -43 7 -148 -73 -41 -32 -69
-42 -69 -25 0 5 24 33 54 63 59 59 59 60 77 192 10 81 15 92 50 134 80 92 100
173 57 229 -12 16 -27 32 -33 36 -20 15 -95 8 -151 -13 -43 -16 -67 -20 -103
-14 -25 4 -68 10 -96 13 -27 4 -72 20 -99 36 -66 40 -122 43 -226 15 -71 -19
-85 -20 -92 -8 -5 8 -24 41 -44 74 -32 55 -36 67 -38 150 -5 141 -60 239 -160
280 -77 33 -153 -9 -206 -114 -20 -41 -39 -62 -69 -79 -61 -35 -74 -68 -79
-200 -4 -110 -5 -114 -30 -125 -20 -9 -26 -9 -30 2 -2 7 -23 41 -46 75 -64 93
-154 156 -296 206 -87 31 -201 33 -249 5 -57 -34 -71 -61 -81 -165 -8 -70 -17
-105 -35 -137 -25 -41 -61 -71 -72 -59 -3 3 0 38 6 78 33 189 24 411 -21 557
-27 88 -106 216 -123 200 -2 -3 -11 -65 -20 -139 -20 -165 -74 -380 -95 -380
-4 0 -11 33 -15 73 -3 39 -11 99 -17 132 -6 33 -11 112 -11 175 0 104 3 123
31 198 36 96 30 101 -55 49z m-37 -134 c-18 -84 -17 -202 3 -321 12 -68 21
-135 21 -148 0 -27 -25 -43 -41 -27 -6 6 -17 78 -26 162 -9 83 -20 151 -25
151 -10 0 -12 -38 -8 -167 1 -56 0 -106 -4 -111 -13 -22 -45 0 -51 34 -3 19
-7 50 -11 69 -8 58 -24 29 -24 -44 0 -48 -4 -72 -15 -81 -21 -17 -35 -3 -35
36 0 21 -4 33 -10 29 -5 -3 -10 -19 -10 -35 0 -16 -6 -34 -12 -39 -57 -46 -77
-61 -87 -61 -15 0 -16 -4 24 106 60 166 140 305 225 395 41 43 79 78 84 79 4
0 6 -12 2 -27z m-730 -115 c59 -40 109 -104 126 -161 22 -72 16 -231 -11 -312
-38 -113 -71 -188 -99 -224 -15 -19 -36 -53 -47 -75 -15 -30 -28 -42 -54 -49
-48 -12 -80 -35 -106 -77 -16 -26 -35 -40 -63 -48 -41 -12 -82 -60 -82 -95 0
-8 -18 -29 -39 -46 -21 -17 -46 -48 -54 -69 -9 -24 -30 -48 -55 -64 -39 -27
-72 -79 -72 -117 0 -11 -12 -28 -26 -38 -63 -44 -92 -75 -98 -104 -4 -19 -23
-48 -50 -73 -45 -42 -66 -90 -66 -151 0 -19 -7 -35 -20 -43 -28 -17 -27 3 5
84 14 35 37 94 51 131 15 38 32 75 39 83 7 8 30 44 52 80 21 36 95 133 164
215 160 192 250 308 243 315 -3 3 -21 -13 -41 -35 -19 -22 -77 -83 -127 -135
-115 -118 -315 -337 -378 -414 -28 -33 -52 -75 -58 -99 -39 -161 -105 -354
-140 -412 -10 -16 -39 -79 -65 -140 -25 -60 -52 -115 -58 -122 -12 -12 -139
-53 -163 -53 -8 0 -14 7 -14 15 0 25 128 267 159 300 15 16 43 53 62 80 47 70
50 36 5 -64 -41 -90 -68 -162 -63 -168 7 -6 123 209 150 277 41 105 73 207
103 334 l29 118 208 202 c115 110 220 208 234 217 13 9 43 41 66 71 23 31 67
84 98 119 148 170 229 294 253 384 40 156 30 272 -30 351 -19 24 -30 44 -25
44 5 0 30 -15 57 -32z m1030 -169 c39 -205 -28 -653 -120 -804 -54 -88 -66
-117 -75 -177 -12 -87 -72 -215 -106 -228 -36 -14 -35 -14 -35 23 1 39 6 53
109 291 89 206 143 374 172 535 33 184 22 174 -51 -45 -27 -81 -53 -151 -59
-157 -8 -8 -11 21 -11 101 0 102 3 118 26 164 44 87 86 224 99 323 14 105 28
97 51 -26z m1254 -65 c17 -20 36 -47 41 -61 14 -37 11 -152 -6 -213 -8 -30
-18 -66 -21 -80 l-7 -25 30 28 c16 15 34 27 41 27 13 0 58 -74 67 -111 6 -24
-1 -33 -72 -87 -43 -33 -85 -68 -94 -78 -32 -38 -87 -140 -94 -174 -7 -32 -34
-93 -35 -79 0 4 13 58 29 120 l30 112 72 69 c40 37 70 71 67 74 -4 3 -27 -6
-52 -20 -58 -32 -60 -32 -51 2 18 71 43 308 38 358 -9 84 -23 75 -23 -14 0
-80 -23 -220 -43 -257 -10 -19 -10 -19 -18 2 -4 12 -11 49 -15 83 -4 33 -11
63 -17 67 -7 4 -8 -50 -3 -170 l7 -177 -32 -78 c-18 -42 -34 -79 -36 -81 -4
-5 -73 74 -90 103 -12 21 -12 21 -13 -2 0 -12 8 -39 19 -60 42 -84 53 -138 41
-196 -12 -57 -42 -106 -65 -106 -10 0 -10 7 1 38 26 73 18 132 -31 233 -50
103 -58 164 -29 225 18 37 61 77 77 71 6 -2 19 -30 29 -62 11 -32 26 -68 35
-79 14 -20 15 -20 10 9 -2 17 -12 73 -22 125 -10 52 -18 137 -19 188 -1 89 0
95 24 112 14 11 38 29 53 41 15 11 39 44 54 73 49 98 72 107 123 50z m-3675
-204 c55 -15 128 -43 163 -62 95 -52 341 -247 363 -288 11 -19 38 -64 60 -99
45 -72 79 -150 79 -185 0 -22 -78 -106 -98 -106 -5 0 -17 9 -28 21 -17 18 -19
38 -19 166 l0 146 -137 81 c-144 85 -173 107 -223 170 -26 32 -43 41 -114 62
-98 28 -211 32 -288 9 -72 -21 -126 -84 -142 -162 -18 -93 -17 -92 -118 -58
-86 29 -93 30 -288 30 -141 0 -214 -4 -248 -14 -26 -8 -50 -11 -53 -8 -8 8 82
122 124 157 76 63 103 70 268 70 209 0 311 18 479 85 67 26 73 26 220 -15z
m2875 4 c112 -27 135 -38 198 -95 45 -41 116 -183 132 -265 14 -72 27 -112 48
-148 35 -59 55 -135 49 -185 -23 -187 -28 -205 -68 -270 -43 -69 -69 -132 -69
-171 0 -14 -7 -36 -14 -50 -27 -48 -67 -134 -72 -157 -4 -13 -10 -23 -15 -23
-5 0 -9 2 -9 4 0 2 -9 41 -21 86 -31 127 -9 213 78 295 26 26 63 60 81 77 18
17 30 33 28 35 -8 9 -92 -52 -155 -111 l-63 -61 7 105 c4 58 10 150 14 206 6
100 6 101 50 159 24 32 52 80 63 107 19 52 25 138 8 138 -5 0 -10 -10 -10 -22
0 -68 -54 -159 -106 -178 -23 -9 -23 -7 -45 -172 -6 -49 -14 -88 -18 -88 -4 0
-26 26 -49 59 -61 86 -178 181 -271 218 -30 11 -16 -5 80 -99 122 -118 165
-174 203 -261 22 -49 23 -58 14 -157 -5 -57 -11 -106 -13 -108 -2 -3 -31 20
-64 50 -33 30 -89 69 -125 87 -64 32 -174 130 -243 216 -46 57 -41 30 7 -41
71 -105 118 -158 159 -179 57 -29 214 -166 260 -228 43 -57 67 -125 51 -141
-7 -7 -21 -6 -43 3 -17 8 -79 30 -137 51 -135 47 -163 62 -197 105 -40 50 -47
43 -15 -16 30 -56 67 -84 163 -124 79 -33 90 -43 65 -59 -10 -6 -39 -28 -63
-49 -48 -40 -63 -40 -63 -1 0 14 -5 34 -10 45 -12 21 -81 59 -145 79 -57 18
-102 55 -110 89 -5 22 3 51 29 111 50 113 49 118 -30 220 -64 82 -97 155 -90
194 8 43 51 106 126 185 60 63 67 77 72 136 2 24 14 37 53 62 81 53 85 61 85
179 0 117 9 145 53 167 42 21 36 21 157 -9z m-830 -14 c0 -5 -14 -5 -32 1 -18
5 -35 9 -38 10 -3 0 4 4 15 8 21 9 55 -3 55 -19z m-142 -26 c-9 -9 -21 -13
-27 -10 -20 13 -11 26 16 26 25 0 26 -1 11 -16z m220 -11 c-4 -35 -33 -43 -41
-12 -8 29 -1 39 24 39 16 0 20 -6 17 -27z m-106 0 c22 -20 25 -73 4 -73 -22 0
-86 40 -86 54 0 35 51 47 82 19z m-166 -27 c28 -21 7 -40 -29 -27 -27 10 -33
21 -20 34 10 11 28 8 49 -7z m314 -46 c0 -19 -20 -27 -33 -13 -8 7 11 33 24
33 5 0 9 -9 9 -20z m-200 -20 c23 -23 25 -49 6 -75 -13 -18 -15 -17 -54 16
-44 36 -49 48 -30 67 18 18 56 14 78 -8z m-252 -12 c5 -23 -33 -58 -63 -58
-34 0 -33 32 2 60 30 24 56 23 61 -2z m111 13 c32 -21 -24 -63 -64 -47 -19 7
-19 21 1 40 17 18 42 20 63 7z m273 -16 c16 -35 -1 -49 -32 -25 -20 15 -22 20
-11 34 19 22 30 20 43 -9z m-2091 -26 c46 -10 62 -21 118 -78 44 -44 94 -82
149 -111 125 -68 178 -105 173 -121 -13 -45 -11 -154 4 -258 18 -119 18 -120
-3 -173 -12 -29 -38 -102 -57 -163 -31 -98 -42 -120 -105 -199 -38 -49 -84
-112 -102 -140 -18 -28 -43 -64 -56 -80 -13 -16 -37 -56 -54 -90 -17 -34 -33
-55 -35 -49 -6 18 24 116 47 155 29 50 57 170 70 303 6 66 16 138 21 160 6 22
14 55 19 74 5 18 12 86 15 151 8 126 -1 193 -36 262 -23 45 -184 216 -194 206
-5 -4 -2 -14 5 -23 26 -32 69 -135 56 -135 -7 0 -21 9 -30 19 -23 25 -105 58
-213 85 -72 18 -89 26 -91 42 -5 33 37 133 61 146 53 28 152 35 238 17z m2159
-30 c13 -24 8 -34 -15 -26 -16 7 -21 47 -5 47 5 0 14 -9 20 -21z m-256 -32
c19 -26 19 -30 5 -55 -19 -35 -57 -39 -92 -12 -33 26 -35 63 -4 85 31 22 66
15 91 -18z m154 21 c17 -17 15 -67 -3 -74 -8 -3 -28 4 -45 16 -29 21 -30 22
-12 45 19 27 41 32 60 13z m-310 -32 c-2 -11 -16 -27 -32 -34 -24 -12 -30 -12
-44 1 -13 14 -13 18 -1 33 30 37 82 37 77 0z m-140 12 c20 -20 14 -35 -24 -57
-19 -12 -37 -21 -40 -21 -9 0 9 55 24 73 18 20 24 21 40 5z m2577 -34 c36 -39
45 -81 56 -254 5 -85 18 -207 29 -272 11 -64 20 -130 20 -147 0 -17 4 -31 9
-31 11 0 21 36 21 78 0 47 16 39 38 -20 49 -132 43 -153 -84 -278 -53 -53
-104 -113 -114 -135 -29 -64 -43 -77 -83 -78 -26 -1 -44 6 -62 23 -29 27 -25
35 44 83 65 44 32 46 -52 2 -63 -31 -76 -35 -100 -26 -16 6 -55 11 -87 11 -32
0 -61 4 -64 8 -9 15 88 126 132 150 24 13 86 35 139 48 62 15 105 32 121 46
34 32 74 104 70 125 -3 14 -8 11 -21 -14 -22 -42 -60 -67 -131 -88 -62 -17
-181 -73 -229 -107 -16 -11 -31 -18 -33 -15 -3 3 10 56 29 119 19 62 38 128
42 146 15 73 89 115 187 105 59 -5 66 -4 93 21 l30 26 -30 -6 c-17 -3 -55 -1
-84 4 -48 9 -74 6 -138 -13 -22 -7 -22 -5 11 78 18 47 36 97 40 110 9 39 30
54 83 61 84 12 93 20 29 26 -33 3 -61 10 -63 16 -2 6 12 34 31 62 23 34 30 52
21 52 -21 0 -96 -92 -132 -162 -36 -69 -34 -70 -61 47 l-19 80 -8 -39 c-5 -23
-3 -65 4 -101 21 -118 14 -235 -21 -355 -17 -60 -35 -107 -38 -105 -4 2 -10
35 -13 73 -3 44 -19 103 -42 163 -20 52 -40 119 -44 149 l-7 55 -8 -42 c-8
-43 2 -112 30 -208 23 -80 28 -237 11 -341 -16 -100 -48 -184 -69 -184 -29 1
-63 30 -95 81 -65 106 -93 174 -100 243 -8 92 -28 70 -28 -32 0 -70 4 -84 38
-150 20 -40 37 -79 37 -87 0 -8 -15 -17 -37 -21 -21 -4 -55 -15 -76 -24 -33
-15 -45 -16 -80 -5 -26 7 -47 21 -54 36 -18 35 -15 146 5 204 22 63 99 161
197 248 84 77 101 104 139 229 24 79 32 92 81 139 147 139 294 217 413 218 45
1 57 -3 77 -25z m-2057 4 c13 -13 16 -50 5 -61 -11 -12 -43 25 -43 50 0 25 19
30 38 11z m-609 -59 c6 -18 11 -37 11 -44 0 -17 -69 -47 -91 -40 -28 9 -24 57
7 89 36 35 59 33 73 -5z m485 10 c28 -22 34 -60 13 -78 -11 -8 -18 -6 -32 9
-10 11 -24 20 -32 20 -22 0 -27 29 -8 50 23 25 26 25 59 -1z m-346 -11 c19
-19 14 -46 -13 -64 -22 -14 -30 -15 -50 -4 -30 16 -32 33 -5 60 23 23 50 26
68 8z m141 -14 c37 -31 44 -84 12 -84 -10 0 -24 6 -30 14 -6 8 -25 19 -41 26
-35 15 -44 35 -24 55 22 22 48 19 83 -11z m-3529 -17 c0 -13 12 -47 27 -77 15
-31 22 -55 16 -57 -49 -17 -155 -139 -198 -228 -41 -87 -55 -143 -55 -221 0
-76 25 -178 41 -168 5 3 7 14 4 25 -15 46 63 2 90 -51 31 -60 7 -131 -57 -170
-56 -34 -63 -29 -122 88 -55 108 -85 156 -86 136 0 -6 9 -53 20 -105 22 -103
25 -165 10 -174 -5 -3 -30 3 -55 14 l-45 20 0 75 c0 90 -18 185 -31 165 -5 -8
-9 -27 -9 -43 0 -46 -31 -147 -44 -143 -9 3 -25 47 -35 96 -1 2 -21 -15 -46
-38 -63 -58 -80 -54 -104 21 -10 29 -9 43 3 72 18 42 33 46 46 11 12 -30 30
-25 63 18 40 53 65 110 77 178 16 91 39 169 50 169 6 0 10 -26 10 -57 1 -32 7
-71 15 -88 13 -29 13 -28 14 35 2 142 52 317 100 349 l24 16 -7 -53 c-4 -28
-3 -52 2 -52 4 0 18 17 30 38 11 20 54 69 94 108 119 115 158 138 158 91z
m3826 -11 c12 -47 -8 -78 -29 -45 -11 18 -2 69 13 69 5 0 12 -11 16 -24z m69
-25 c-7 -23 -25 -29 -25 -8 0 14 21 39 28 33 2 -3 1 -14 -3 -25z m-3017 -17
c83 -27 67 -43 -73 -69 -106 -19 -157 -42 -217 -95 -25 -21 -71 -50 -104 -65
-44 -19 -78 -45 -131 -101 -58 -61 -75 -75 -92 -69 -12 3 -21 12 -21 20 0 22
144 167 209 210 67 45 77 60 29 43 -57 -20 -141 -79 -220 -156 -43 -42 -78
-71 -78 -65 0 18 97 147 146 195 57 55 217 142 301 163 70 18 177 13 251 -11z
m2815 -2 c21 -19 19 -61 -4 -75 -11 -7 -31 -6 -63 4 -43 12 -46 16 -41 39 15
59 62 73 108 32z m-2403 -22 c110 -7 139 -13 240 -49 144 -51 182 -78 237
-166 56 -90 73 -149 73 -249 -1 -99 -55 -374 -80 -399 -4 -5 -21 -2 -37 6 -45
23 -174 47 -255 47 -40 0 -116 -10 -168 -21 -52 -11 -118 -25 -146 -31 -44 -9
-60 -8 -114 11 -35 11 -78 21 -96 21 -25 0 -49 14 -108 64 -41 36 -89 73 -106
83 -20 11 -34 30 -40 53 -5 19 -20 80 -34 135 -14 55 -28 109 -31 121 -14 47
222 259 335 301 25 9 59 28 75 43 45 41 67 51 100 44 17 -3 86 -9 155 -14z
m2013 9 c67 -36 34 -85 -47 -72 -29 5 -36 10 -36 29 0 12 10 30 22 38 27 19
33 19 61 5z m181 -10 c29 -23 34 -60 11 -79 -12 -10 -24 -8 -61 6 -55 23 -69
43 -48 72 19 28 63 29 98 1z m-307 -39 c4 -35 -68 -86 -97 -70 -27 15 -25 32
8 62 48 45 86 48 89 8z m619 1 c11 -22 8 -61 -5 -61 -3 1 -17 10 -30 21 -21
17 -23 23 -12 45 13 29 31 27 47 -5z m-758 -21 c-17 -34 -23 -38 -39 -29 -10
5 -19 13 -19 16 0 14 44 53 60 53 16 0 16 -3 -2 -40z m827 20 c7 -12 -12 -50
-25 -50 -11 0 -14 43 -3 53 9 10 21 9 28 -3z m-233 -42 c20 -16 24 -35 15 -69
-9 -37 -31 -42 -75 -19 -20 11 -44 20 -53 20 -30 0 -29 14 3 47 34 35 80 44
110 21z m-214 -18 c12 -11 25 -32 28 -46 7 -28 -9 -74 -27 -74 -21 0 -129 71
-129 86 0 48 88 71 128 34z m-148 -35 c0 -39 -3 -45 -25 -51 -32 -8 -90 3
-103 19 -21 26 41 76 96 77 31 0 32 -1 32 -45z m474 23 c21 -30 20 -61 -3 -89
-19 -24 -19 -24 -40 -5 -20 19 -22 51 -6 104 7 19 32 14 49 -10z m-781 -4 c3
-4 -5 -21 -18 -39 -14 -17 -25 -39 -25 -47 0 -27 -23 -38 -50 -25 -33 17 -35
37 -9 71 29 37 84 58 102 40z m867 -59 c0 -11 -5 -27 -10 -35 -23 -34 -34 35
-12 74 6 12 22 -15 22 -39z m-755 21 c18 -13 17 -16 -28 -60 -26 -25 -51 -46
-56 -46 -4 0 -15 8 -25 19 -23 26 -6 68 36 86 42 18 50 18 73 1z m493 -59 c17
-16 22 -30 20 -56 -4 -47 -28 -60 -62 -33 -15 11 -40 24 -56 27 -17 4 -30 9
-30 11 0 7 44 68 55 76 14 11 46 -1 73 -25z m-257 -7 c30 -16 52 -66 39 -90
-25 -47 -71 -46 -104 2 -21 30 -20 54 4 78 23 23 33 24 61 10z m-113 -37 c3
-29 -1 -33 -48 -57 -59 -29 -92 -33 -110 -11 -10 12 -10 21 0 45 17 41 55 60
110 57 43 -2 45 -4 48 -34z m487 12 c29 -28 32 -61 9 -94 l-16 -22 -24 22
c-18 17 -24 33 -24 64 0 62 15 71 55 30z m109 -33 c14 -51 -29 -126 -47 -79
-6 16 0 93 8 107 11 18 29 5 39 -28z m-954 20 c0 -4 -9 -25 -20 -47 -11 -22
-20 -45 -20 -52 0 -16 -22 -17 -38 -1 -17 17 -15 38 8 76 14 22 27 32 45 32
14 0 25 -4 25 -8z m119 -27 c46 -23 45 -41 -5 -75 -48 -32 -65 -36 -95 -20
-39 21 -9 90 46 103 11 3 21 5 23 6 2 0 16 -6 31 -14z m-2438 -41 c-29 -53
-27 -71 8 -79 42 -9 68 -43 86 -110 8 -32 15 -63 15 -67 0 -18 -24 -5 -95 51
-41 33 -88 68 -105 77 -16 10 -30 25 -30 33 0 16 129 146 137 138 2 -3 -5 -22
-16 -43z m6391 -5 c23 -27 18 -34 -47 -64 -65 -31 -204 -164 -265 -254 -53
-78 -180 -326 -180 -351 0 -30 -171 -340 -188 -340 -3 0 -11 8 -18 18 -16 21
-18 56 -3 83 6 11 19 66 30 122 18 94 31 152 46 202 5 17 4 18 -10 7 -27 -23
-78 -160 -93 -254 -8 -50 -17 -95 -20 -100 -10 -15 -25 6 -44 61 -10 27 -32
70 -49 95 -17 24 -31 47 -31 50 0 3 15 6 34 6 41 0 46 6 80 96 30 79 62 116
119 134 48 15 103 62 111 94 3 14 -1 54 -9 90 -17 72 -12 97 31 153 l24 32 88
-6 88 -6 59 53 c74 64 95 79 143 96 45 16 81 10 104 -17z m-3414 4 c32 -27 37
-64 12 -96 -26 -33 -40 -34 -90 -2 -34 21 -40 30 -40 60 0 22 6 38 18 44 27
16 78 13 100 -6z m-4095 -27 c21 -9 41 -24 44 -32 7 -20 -33 -107 -63 -135
l-23 -21 -88 40 c-48 22 -106 45 -128 52 -100 29 -112 56 -37 88 26 11 56 22
67 25 38 11 190 -1 228 -17z m3822 0 c57 -24 75 -96 33 -136 -29 -27 -36 -25
-81 13 -47 41 -58 86 -28 116 25 25 31 25 76 7z m403 -8 c17 -17 15 -79 -4
-106 -19 -27 -45 -28 -68 -3 -14 15 -15 24 -7 40 6 11 11 28 11 38 0 23 19 43
40 43 9 0 21 -5 28 -12z m-544 -24 c28 -27 19 -51 -28 -74 -39 -18 -50 -20
-85 -10 -49 13 -55 20 -34 49 31 45 117 65 147 35z m-334 -9 c0 -2 -11 -20
-24 -40 -14 -20 -27 -49 -31 -64 -8 -36 -35 -49 -52 -25 -36 49 11 134 73 134
19 0 34 -2 34 -5z m986 -21 c8 -30 -5 -75 -22 -81 -12 -4 -34 38 -34 65 0 43
46 56 56 16z m-872 -4 c37 -14 32 -30 -18 -72 -41 -35 -46 -36 -75 -25 -38 14
-41 44 -8 74 36 33 61 39 101 23z m-2753 -34 c108 -23 270 -93 222 -96 -174
-12 -204 -18 -278 -54 l-76 -38 -49 44 c-43 39 -48 47 -49 89 -1 25 4 50 11
57 16 16 137 15 219 -2z m3299 -12 c23 -20 30 -34 28 -53 -4 -34 -38 -39 -82
-12 -44 27 -50 47 -26 71 26 26 42 25 80 -6z m587 10 c8 -21 -13 -42 -28 -27
-13 13 -5 43 11 43 6 0 13 -7 17 -16z m-4975 -35 c29 -6 102 -27 161 -46 120
-40 117 -35 82 -119 l-13 -32 -79 25 c-178 58 -458 20 -577 -79 -142 -118
-248 -244 -312 -370 -70 -139 -134 -480 -134 -717 0 -78 4 -120 26 -303 6 -54
5 -58 -14 -58 -36 0 -61 32 -71 90 -5 30 -19 102 -32 160 -29 136 -32 389 -6
520 9 47 25 133 36 192 38 209 184 457 349 592 143 116 405 182 584 145z
m4152 -33 c43 -40 44 -49 11 -81 -30 -31 -36 -31 -72 -1 -15 12 -38 28 -50 35
-13 6 -23 19 -23 27 0 64 76 75 134 20z m359 16 c20 -22 13 -32 -19 -32 -26 0
-38 14 -30 35 7 20 30 19 49 -3z m-545 -8 c26 -18 27 -27 5 -49 -13 -14 -28
-16 -71 -11 -81 10 -91 18 -59 50 31 30 89 35 125 10z m687 -9 c0 -22 -31 -33
-48 -16 -7 7 -6 15 3 26 17 21 45 15 45 -10z m-318 -54 c11 -14 19 -29 17 -33
-13 -21 -154 -49 -154 -30 1 26 31 87 46 93 30 11 67 -1 91 -30z m-567 21 c0
-4 -17 -24 -37 -43 -30 -29 -43 -35 -63 -30 -34 9 -38 44 -8 65 23 16 108 23
108 8z m-166 -11 c18 -28 -40 -100 -80 -101 -36 0 -47 59 -17 92 17 19 87 26
97 9z m1046 -31 c22 -11 43 -26 44 -33 2 -7 11 -41 19 -77 8 -36 19 -74 23
-84 14 -36 -23 -3 -90 81 -36 44 -81 91 -101 103 -19 12 -35 26 -35 32 0 17
93 2 140 -22z m420 20 c17 -11 18 -9 -67 -73 -80 -61 -87 -60 -79 3 11 79 11
80 75 80 31 0 63 -5 71 -10z m-1196 -30 c22 -8 26 -16 26 -47 0 -35 -3 -40
-43 -58 -35 -16 -53 -19 -85 -12 -36 7 -42 12 -42 33 0 30 24 80 42 87 22 9
76 7 102 -3z m193 -23 c34 -33 40 -80 14 -106 -29 -29 -56 -26 -102 11 -31 25
-39 38 -39 64 0 64 76 82 127 31z m777 27 c12 -5 16 -21 16 -71 0 -110 49
-172 125 -160 29 5 34 2 49 -29 17 -36 16 -38 -29 -47 l-20 -4 20 -8 c130 -51
169 -65 185 -65 36 0 90 -30 90 -49 0 -20 -27 -54 -39 -49 -3 2 -67 34 -143
72 -77 39 -143 66 -151 63 -9 -3 -27 -42 -41 -87 -32 -101 -48 -131 -93 -181
-34 -37 -110 -86 -119 -76 -2 2 11 33 30 69 20 39 39 94 46 137 10 63 10 75
-4 96 -13 20 -25 25 -60 25 -24 0 -88 9 -142 21 -109 23 -224 27 -268 10 -34
-14 -41 -9 -28 16 15 27 102 72 154 79 59 8 253 -14 298 -34 l35 -15 -55 -11
-55 -12 34 -12 c19 -7 48 -12 65 -12 53 0 60 -11 63 -96 1 -42 4 -78 6 -80 7
-7 54 91 61 126 3 19 20 48 36 65 l30 31 -43 31 c-48 33 -87 100 -87 149 0 20
-9 38 -27 54 l-27 23 23 18 c24 20 39 23 65 13z m-3403 -65 c121 -34 198 -80
292 -178 211 -219 296 -425 329 -799 19 -211 -16 -453 -91 -628 l-29 -69 -49
-7 c-80 -11 -210 -9 -238 4 -24 11 -26 16 -21 47 13 82 18 480 7 591 -17 173
-70 371 -132 499 -46 94 -62 116 -144 197 -99 98 -207 170 -295 199 -70 22
-82 32 -78 64 4 30 43 55 137 88 56 19 80 22 152 18 47 -3 119 -15 160 -26z
m2249 -29 c0 -22 -10 -41 -35 -66 -33 -33 -38 -35 -78 -27 -57 11 -62 40 -14
88 30 30 42 35 81 35 45 0 46 -1 46 -30z m480 6 c0 -3 -4 -8 -10 -11 -5 -3
-10 -1 -10 4 0 6 5 11 10 11 6 0 10 -2 10 -4z m-677 -51 c-2 -28 -12 -48 -35
-72 -37 -38 -65 -42 -77 -10 -15 39 12 95 54 113 47 21 60 14 58 -31z m1093 0
c20 -25 35 -47 33 -49 -2 -2 -42 1 -89 7 -77 9 -92 8 -155 -11 -39 -12 -77
-28 -85 -35 -42 -34 -102 -137 -115 -195 -7 -32 -6 -34 16 -27 13 4 44 19 69
33 64 37 173 42 301 13 52 -11 108 -22 124 -23 29 -3 30 -4 27 -53 -5 -99 -72
-197 -178 -261 -32 -19 -6 -29 74 -29 104 1 151 17 220 75 70 58 107 116 129
205 9 36 21 65 28 65 42 0 185 -74 185 -95 0 -5 -12 -36 -27 -67 -24 -49 -36
-62 -84 -88 -60 -32 -133 -103 -151 -148 -6 -15 -14 -46 -19 -69 -6 -29 -19
-52 -44 -75 -50 -47 -88 -151 -87 -243 1 -56 -4 -77 -22 -105 -47 -74 -58
-119 -52 -210 6 -74 4 -89 -14 -117 -15 -26 -27 -33 -51 -33 -61 0 -69 12 -69
103 0 147 -42 332 -102 452 -52 103 -96 160 -214 280 -41 41 -172 109 -248
129 -33 8 -62 20 -66 26 -8 14 4 85 26 155 20 62 132 232 180 275 118 103 244
158 366 159 55 1 58 0 94 -44z m-4544 14 c57 -12 211 -80 222 -97 3 -6 -29
-30 -74 -56 -44 -26 -80 -50 -80 -55 0 -5 -37 -40 -81 -78 -127 -106 -206
-232 -275 -438 -62 -186 -78 -407 -50 -665 8 -69 11 -128 7 -132 -4 -4 -22 -3
-41 2 -19 6 -66 10 -105 11 -38 0 -90 4 -115 9 -25 4 -63 11 -85 15 -100 16
-95 10 -126 151 -19 87 -20 121 -16 289 5 207 15 272 72 440 39 117 110 270
133 288 10 6 36 37 59 67 77 102 145 164 216 198 119 57 230 74 339 51z m4978
-18 c0 -25 -26 -51 -50 -51 -32 0 -34 21 -4 46 35 29 54 30 54 5z m-1072 -5
c32 -17 62 -65 53 -86 -12 -30 -36 -60 -48 -60 -17 0 -85 40 -100 59 -18 21
-16 61 4 83 19 22 54 23 91 4z m-162 -14 c6 -4 14 -26 18 -49 5 -37 3 -44 -16
-54 -13 -7 -28 -19 -34 -27 -16 -21 -94 29 -94 61 1 53 83 98 126 69z m-4676
-44 c0 -23 -17 -40 -35 -36 -27 5 -29 23 -3 36 31 14 38 14 38 0z m4494 -24
c24 -9 19 -33 -9 -40 -14 -3 -35 -19 -46 -36 -18 -25 -25 -28 -53 -22 -37 8
-48 22 -40 49 12 40 35 55 85 55 26 0 54 -3 63 -6z m2266 -13 c0 -22 -15 -35
-29 -27 -13 9 -1 46 15 46 8 0 14 -9 14 -19z m-6955 -32 c22 -5 64 -19 93 -31
55 -21 64 -38 38 -73 -12 -17 -19 -16 -142 26 -71 25 -131 49 -133 54 -5 14
39 35 74 35 17 0 48 -5 70 -11z m3737 -27 c53 -24 63 -38 73 -103 l7 -47 -129
5 c-103 5 -140 10 -187 29 -86 35 -115 32 -181 -17 -30 -23 -55 -45 -55 -49 0
-11 -57 -30 -86 -30 -17 0 -30 11 -44 38 -12 20 -32 55 -45 77 -37 60 -35 63
49 57 59 -4 86 0 137 18 115 40 178 50 299 46 91 -2 125 -7 162 -24z m1246 -8
c26 -17 28 -41 5 -89 -21 -43 -47 -46 -103 -10 -44 28 -51 55 -25 92 24 34 74
37 123 7z m-207 -7 c46 -31 48 -56 4 -90 l-35 -28 -45 37 c-50 41 -54 55 -25
84 26 26 59 25 101 -3z m-3161 -17 c71 -37 111 -98 131 -200 12 -65 16 -510 5
-650 -3 -36 -8 -164 -12 -285 -4 -132 -11 -225 -17 -233 -8 -10 -25 -12 -56
-8 -25 3 -154 10 -286 16 -132 6 -276 17 -320 25 -44 8 -92 15 -108 15 -45 0
-50 29 -51 285 -1 262 8 327 73 499 106 281 238 455 401 529 89 40 171 43 240
7z m586 -15 c44 -18 147 -87 187 -124 35 -32 90 -123 123 -204 38 -94 92 -285
111 -394 22 -124 23 -513 2 -608 l-14 -60 -155 3 c-371 8 -596 19 -618 31
l-23 12 7 207 c9 300 10 831 1 948 -8 101 -7 102 19 133 34 41 69 59 147 74
69 14 153 7 213 -18z m2284 29 c0 -3 -13 -19 -30 -34 -21 -19 -30 -37 -30 -59
0 -26 -4 -31 -24 -31 -24 0 -36 16 -36 52 0 31 53 78 89 78 17 0 31 -3 31 -6z
m113 -50 c3 -3 -11 -22 -32 -43 -21 -20 -40 -42 -43 -50 -3 -12 -8 -12 -28 0
-14 8 -28 19 -32 24 -10 14 1 47 20 63 16 12 104 17 115 6z m-4713 -35 c30
-11 84 -29 119 -40 69 -20 81 -30 74 -59 -8 -30 -27 -30 -114 1 -131 47 -140
49 -204 49 -70 0 -127 -23 -169 -69 -33 -35 -46 -39 -46 -15 0 49 82 132 145
147 50 12 143 5 195 -14z m7534 -4 c20 -14 51 -32 69 -41 50 -26 119 -88 175
-158 56 -68 97 -151 81 -162 -5 -3 -44 28 -87 68 -181 173 -257 236 -324 266
-38 17 -68 36 -68 41 0 7 24 11 59 11 46 0 66 -5 95 -25z m-319 -1 c22 -8 60
-22 85 -31 60 -21 204 -130 268 -203 29 -32 52 -62 52 -66 0 -21 -75 17 -211
108 -185 124 -218 142 -292 158 -56 13 -75 34 -39 43 36 10 99 6 137 -9z m614
-23 c97 -49 176 -160 202 -283 13 -57 -1 -126 -31 -153 -16 -15 -18 -11 -29
62 -16 106 -63 202 -137 279 -32 34 -78 71 -101 83 -24 12 -43 26 -43 31 0 21
82 10 139 -19z m-3031 3 c12 -8 22 -21 22 -29 0 -36 -99 -62 -128 -33 -20 20
-13 47 16 62 35 20 62 20 90 0z m192 -10 c45 -18 60 -50 42 -89 -18 -38 -59
-43 -88 -11 -14 14 -29 26 -34 26 -15 0 -31 37 -24 55 6 15 35 33 56 34 4 1
26 -6 48 -15z m2059 -55 c124 -60 301 -177 301 -200 0 -32 -143 20 -287 104
-70 41 -199 87 -245 87 -9 0 -29 5 -43 10 -22 8 -25 13 -15 25 16 19 52 24
135 19 56 -4 87 -13 154 -45z m-2609 14 c-1 -34 -29 -108 -41 -108 -23 0 -22
44 3 81 22 32 38 44 38 27z m165 -24 c19 -20 20 -21 1 -32 -10 -7 -32 -23 -48
-36 -23 -19 -35 -22 -64 -17 -42 8 -53 30 -33 65 30 53 102 63 144 20z m3480
-4 c106 -81 141 -243 81 -371 -23 -47 -146 -184 -166 -184 -24 0 -2 56 42 106
33 38 71 164 65 219 -6 63 -45 195 -63 216 -17 19 -18 39 -3 39 6 0 25 -11 44
-25z m-4303 -35 c20 -6 46 -18 57 -28 18 -15 19 -22 11 -57 -5 -22 -13 -91
-16 -153 -7 -107 -9 -114 -33 -130 -60 -40 -149 -142 -188 -218 -59 -115 -84
-201 -91 -329 l-7 -109 -45 -8 c-25 -5 -65 -7 -90 -6 -53 3 -53 6 -26 133 44
202 29 491 -41 802 -4 18 3 26 43 46 135 67 305 90 426 57z m-3794 -20 c64
-29 50 -45 -39 -46 -80 -1 -136 -22 -175 -66 -23 -26 -79 -163 -89 -220 -16
-84 -62 -14 -51 75 14 103 90 225 161 258 53 25 138 24 193 -1z m4939 -4 c18
-16 24 -28 18 -33 -8 -8 -83 -25 -150 -36 -5 -1 -11 9 -13 23 -7 65 88 95 145
46z m1841 -11 c88 -21 211 -70 266 -106 94 -63 44 -63 -174 -2 -125 35 -145
37 -268 38 -72 0 -132 3 -132 6 0 13 60 61 86 69 46 13 153 11 222 -5z m-2061
-21 c35 -36 20 -47 -54 -38 -82 9 -95 18 -63 44 36 28 85 26 117 -6z m-337
-43 c0 -10 -30 -24 -37 -17 -3 3 -2 9 2 15 8 13 35 15 35 2z m550 -27 c0 -4
-17 -23 -38 -44 -20 -21 -54 -69 -75 -106 -21 -38 -47 -80 -58 -94 l-19 -25 6
95 c6 90 7 96 37 122 41 37 147 74 147 52z m-4980 -24 c0 -5 -13 -32 -30 -58
-70 -115 -119 -272 -120 -387 0 -73 -13 -99 -35 -71 -22 28 -29 121 -17 218 9
71 19 103 53 168 24 47 57 93 78 110 35 30 71 40 71 20z m185 -77 c-4 -32 -10
-61 -14 -65 -3 -4 -17 13 -31 39 l-24 45 23 19 c43 35 53 26 46 -38z m4369
-10 c17 -48 21 -83 10 -83 -11 0 -165 93 -161 97 8 7 92 31 114 32 17 1 24 -9
37 -46z m2256 21 c142 -37 115 -57 -75 -56 -176 2 -271 -14 -374 -63 -41 -20
-77 -33 -80 -30 -3 4 3 23 14 43 25 46 106 96 189 116 76 19 233 14 326 -10z
m-2086 3 c17 -13 18 -15 2 -28 -9 -8 -23 -20 -31 -27 -9 -8 -15 -32 -15 -60 0
-50 -12 -75 -63 -129 -25 -27 -28 -35 -18 -47 7 -8 21 -18 31 -21 10 -3 24
-23 30 -43 16 -50 71 -142 86 -142 8 0 7 14 -2 52 -17 65 -18 123 -1 135 6 6
26 13 44 16 18 4 49 14 70 24 l38 17 -47 4 c-84 6 -51 32 74 59 138 30 332 17
345 -24 3 -8 -13 -10 -55 -6 -69 6 -140 -8 -226 -47 -34 -16 -81 -33 -106 -39
-89 -23 -100 -31 -100 -66 0 -47 34 -138 75 -200 21 -30 41 -58 46 -61 22 -13
7 -25 -23 -19 -105 23 -184 98 -237 225 -19 45 -41 85 -49 88 -8 3 -29 -3 -47
-13 -39 -20 -217 -196 -246 -242 -12 -18 -25 -33 -30 -33 -5 0 -9 24 -9 53 0
95 57 186 164 262 30 22 56 45 56 51 0 15 -90 88 -192 156 -27 17 -48 35 -48
39 0 15 98 10 142 -8 59 -23 180 -106 167 -114 -17 -10 -56 2 -75 22 -33 36
-35 19 -3 -21 41 -50 83 -54 129 -12 34 30 39 60 26 149 -7 45 -6 52 10 56 37
9 70 7 88 -6z m421 -37 c103 -17 165 -42 262 -105 86 -57 97 -69 145 -146 98
-160 158 -361 158 -527 0 -99 -8 -139 -29 -147 -15 -6 -111 -10 -481 -20 -91
-3 -241 -7 -335 -10 -93 -2 -385 -6 -647 -7 -436 -3 -479 -2 -494 14 -40 40
-56 250 -29 386 36 181 173 363 340 451 44 23 90 43 102 43 13 0 55 -19 95
-42 40 -24 88 -52 106 -63 17 -10 32 -25 32 -33 0 -8 -25 -39 -55 -69 -36 -34
-67 -77 -86 -120 -28 -58 -31 -74 -28 -138 3 -59 10 -81 34 -120 29 -46 65
-63 65 -31 0 36 164 242 230 286 30 21 39 22 45 6 34 -98 53 -134 91 -177 39
-43 57 -54 117 -73 94 -29 237 -32 264 -5 16 16 16 17 -3 17 -27 0 -140 103
-163 149 -24 47 -41 109 -35 126 3 7 37 23 76 35 39 12 80 28 92 35 12 8 53
21 91 30 78 19 146 11 232 -26 25 -11 49 -17 52 -13 3 3 -10 35 -29 71 -33 61
-40 68 -110 105 -100 52 -169 59 -270 29 -40 -12 -74 -20 -77 -17 -11 11 54
101 78 107 36 10 97 10 164 -1z m3220 -30 c35 -67 7 -167 -71 -259 -84 -98
-344 -259 -344 -213 0 13 47 59 118 115 138 110 240 234 256 310 3 15 8 38 11
52 7 32 11 31 30 -5z m-775 0 c43 -22 108 -29 158 -16 28 7 36 4 61 -23 16
-17 39 -31 51 -31 29 0 60 -18 60 -34 0 -7 -18 -27 -39 -44 -28 -23 -46 -48
-60 -89 -65 -177 -88 -195 -276 -209 -115 -8 -184 -30 -265 -83 l-65 -43 -120
8 c-66 5 -171 9 -232 8 -62 -1 -113 1 -113 3 0 2 35 20 77 41 71 33 82 36 152
32 151 -7 178 -4 227 21 71 37 70 52 -5 43 -69 -8 -81 5 -29 32 20 10 75 20
148 26 180 14 248 26 295 54 50 29 115 97 115 120 0 13 -5 13 -32 -4 -131 -80
-203 -96 -391 -88 -71 3 -132 8 -135 10 -7 7 72 100 156 184 60 59 78 72 105
72 18 0 43 7 57 14 35 20 55 19 100 -4z m-370 -41 c0 -11 -5 -30 -11 -42 -13
-25 -80 -97 -90 -97 -14 0 -20 59 -10 98 10 35 15 40 54 49 23 6 45 11 50 12
4 0 7 -8 7 -20z m-141 -21 c0 -13 -6 -41 -14 -63 l-13 -40 -2 35 c-4 59 3 90
20 90 5 0 10 -10 9 -22z m-7039 -46 c0 -53 -38 -316 -51 -349 -6 -16 -14 -20
-31 -16 -40 10 -45 26 -36 105 17 144 82 329 109 312 5 -3 9 -26 9 -52z m6640
8 c0 -5 -12 -12 -27 -15 -16 -3 -50 -14 -78 -25 -27 -10 -68 -24 -90 -30 -75
-23 -211 -100 -281 -159 -38 -33 -71 -55 -73 -50 -9 28 14 82 55 128 67 74
153 119 272 141 109 20 222 25 222 10z m266 -75 c28 -133 28 -134 4 -160 -13
-14 -29 -25 -36 -25 -16 0 -126 115 -136 141 -5 13 1 31 18 56 33 49 41 54 93
51 l45 -3 12 -60z m-6797 -118 c10 -24 16 -133 13 -214 -2 -44 -5 -53 -20 -53
-10 0 -28 9 -40 20 -24 23 -23 65 5 198 16 74 27 88 42 49z m6384 7 c-5 -15
-49 -49 -219 -171 -32 -24 -101 -83 -153 -133 -51 -49 -95 -90 -97 -90 -2 0
-4 16 -4 36 0 87 158 243 340 334 82 42 144 53 133 24z m169 -106 c-10 -24
-44 -79 -74 -123 -30 -44 -67 -107 -82 -140 -21 -46 -29 -56 -36 -45 -16 25
-11 54 15 84 14 16 29 44 34 62 5 17 33 61 63 96 29 34 62 75 73 90 28 36 30
28 7 -24z m1638 2 c-25 -88 -130 -180 -256 -224 -38 -13 -100 -35 -139 -49
-38 -14 -85 -28 -102 -32 -84 -17 5 72 93 94 25 7 74 26 108 43 66 33 226 149
265 192 30 32 44 22 31 -24z m-530 -119 c0 -12 -24 -37 -64 -66 -49 -36 -66
-56 -77 -87 -10 -31 -21 -44 -46 -54 -38 -16 -63 -18 -63 -4 0 31 126 168 195
211 38 24 55 24 55 0z m-1370 4 c0 -22 -46 -86 -84 -118 -25 -20 -89 -87 -142
-147 -80 -90 -103 -110 -125 -110 -15 0 -31 4 -34 10 -22 35 143 216 284 313
79 53 101 65 101 52z m1150 -58 c0 -8 -11 -24 -25 -37 -14 -13 -43 -51 -66
-86 -40 -62 -91 -96 -111 -76 -11 11 97 149 122 157 9 3 27 17 40 30 26 28 40
32 40 12z m-150 -16 c0 -6 -5 -13 -11 -17 -7 -4 -29 -45 -51 -91 -29 -61 -46
-87 -64 -94 -31 -11 -131 -12 -138 -1 -6 11 52 98 88 132 25 23 135 76 164 79
6 1 12 -3 12 -8z m-7388 -31 c30 -9 39 -18 54 -55 9 -25 14 -48 11 -52 -4 -3
-37 8 -75 25 -37 18 -92 36 -121 42 -76 14 -196 12 -266 -5 -75 -18 -75 -18
-75 0 0 22 39 43 100 54 67 12 321 6 372 -9z m8345 -22 c11 -13 24 -33 28 -46
12 -40 -5 -120 -32 -152 -23 -28 -29 -30 -96 -30 -40 0 -91 -7 -115 -15 -34
-12 -56 -13 -102 -6 -102 17 -106 30 -9 31 86 0 173 19 215 46 17 12 23 27 26
73 3 38 11 68 27 89 27 38 31 39 58 10z m-1477 -17 c0 -16 -69 -158 -82 -168
-7 -6 -34 -14 -60 -18 -48 -7 -48 -7 -48 21 0 32 42 128 67 156 12 13 31 18
70 18 29 0 53 -4 53 -9z m1290 -1 c0 -13 -60 -50 -80 -50 -9 1 -1 12 20 30 35
30 60 38 60 20z m-1063 -14 c2 -2 -10 -28 -28 -57 -17 -30 -35 -61 -39 -69 -4
-8 -18 -18 -31 -21 -36 -10 -107 -10 -113 0 -6 9 47 115 73 145 14 15 25 17
75 12 33 -3 61 -8 63 -10z m-422 -33 c-5 -16 -13 -55 -20 -88 l-11 -60 -55 4
c-30 1 -56 5 -58 7 -9 9 27 62 76 112 59 59 79 67 68 25z m-6785 -30 c48 -12
75 -26 107 -56 24 -22 65 -50 91 -62 58 -28 161 -116 201 -172 17 -23 57 -59
89 -81 101 -67 151 -107 152 -119 0 -22 -63 -14 -120 14 -57 28 -259 216 -333
308 -24 30 -50 52 -66 55 -18 4 -26 12 -26 25 0 34 -89 57 -225 59 -102 1
-120 -2 -157 -22 -50 -26 -68 -57 -78 -129 -8 -58 -20 -66 -51 -32 -27 30 -26
108 2 146 60 83 234 110 414 66z m6436 -65 c-9 -47 -36 -70 -77 -66 l-34 3 50
47 c28 26 54 48 59 48 5 0 6 -15 2 -32z m-6402 -14 c53 -8 62 -24 13 -24 -47
0 -121 -27 -151 -55 -62 -58 -9 -163 109 -216 44 -20 47 -23 26 -27 -37 -6
-141 17 -183 41 -49 27 -86 82 -94 138 -6 41 -3 50 22 78 50 55 147 80 258 65z
m57 -63 c-9 -16 -8 -29 3 -56 18 -43 119 -151 161 -173 16 -8 45 -27 62 -41
84 -67 -13 -68 -109 -2 -33 23 -63 41 -68 41 -13 0 -127 126 -132 147 -9 34
18 82 54 97 39 17 43 15 29 -13z m7924 -11 c28 -15 67 -33 88 -39 20 -7 37
-16 37 -19 -1 -17 -29 -42 -46 -42 -21 0 -167 71 -203 99 -60 46 40 48 124 1z
m-7497 -37 c34 -21 94 -67 133 -103 40 -36 84 -72 100 -80 51 -28 180 -141
173 -152 -12 -19 -84 -1 -138 35 -28 19 -73 52 -98 73 -26 22 -68 55 -93 74
-51 38 -175 167 -175 181 0 19 39 7 98 -28z m3140 15 c19 -16 -5 -38 -41 -38
-29 0 -77 33 -77 53 0 11 100 -2 118 -15z m4075 -17 c40 -16 101 -44 137 -63
36 -18 89 -44 118 -56 57 -23 63 -39 21 -59 -35 -17 -78 -4 -214 64 -96 48
-183 109 -193 135 -8 18 64 6 131 -21z m-6921 -33 c32 -17 74 -51 97 -78 22
-26 56 -55 76 -64 20 -10 50 -30 68 -45 18 -15 61 -49 97 -76 69 -50 79 -68
41 -73 -67 -10 -186 72 -403 277 -112 106 -104 126 24 59z m8009 25 c35 -21
59 -69 59 -118 0 -21 -7 -81 -16 -134 -15 -83 -15 -110 -4 -207 7 -61 11 -129
8 -151 -10 -75 -81 -199 -185 -325 -23 -28 -50 -74 -59 -102 -19 -58 -27 -66
-68 -66 -31 0 -85 -49 -121 -110 -11 -19 -34 -42 -51 -52 -40 -23 -166 -40
-162 -22 2 7 56 71 121 143 89 99 139 145 206 190 94 64 161 121 161 140 0 6
-21 -5 -46 -24 -51 -39 -160 -105 -174 -105 -5 0 8 33 30 73 48 90 113 243
135 322 9 33 30 79 46 102 33 46 37 62 12 42 -15 -13 -16 -9 -9 44 4 39 3 56
-4 52 -5 -3 -10 -13 -10 -20 0 -21 -100 -318 -111 -329 -5 -6 -9 -1 -9 14 0
31 -50 183 -57 176 -3 -3 0 -27 8 -53 8 -26 14 -84 14 -128 0 -71 -4 -88 -37
-158 -51 -106 -180 -300 -238 -356 -26 -25 -59 -65 -73 -88 -41 -65 -47 -63
-47 18 0 40 -2 70 -5 67 -3 -2 -10 -31 -16 -63 -17 -95 -50 -156 -110 -206
-75 -64 -170 -132 -175 -126 -3 2 0 16 6 31 5 15 10 44 10 64 -1 37 -1 37 -30
-26 -60 -129 -99 -165 -210 -193 -69 -17 -175 -69 -280 -138 -52 -34 -113 -66
-135 -72 -22 -6 -48 -13 -59 -16 -37 -10 -4 18 102 89 59 39 132 90 162 113
30 23 69 48 86 57 34 16 164 118 164 128 0 3 31 38 69 78 48 50 84 102 121
172 58 111 60 113 228 194 122 59 193 120 233 201 27 55 31 73 30 144 0 45 -3
87 -7 92 -11 18 -5 117 9 151 8 18 33 55 55 81 58 67 62 77 77 188 17 136 48
176 166 219 68 24 151 26 190 3z m-1420 -9 c53 -15 229 -104 260 -130 8 -8 33
-20 54 -27 l39 -14 -60 -6 c-71 -7 -116 7 -234 73 -106 61 -161 100 -155 111
9 13 34 11 96 -7z m-6320 -39 c25 -13 68 -41 95 -63 27 -21 70 -52 94 -67 51
-32 141 -104 153 -122 4 -6 23 -21 42 -33 45 -28 46 -50 2 -50 -41 0 -123 48
-226 133 -42 35 -88 70 -101 77 -37 20 -160 141 -154 152 7 11 34 3 95 -27z
m6113 -27 c45 -22 97 -51 116 -63 19 -12 46 -25 60 -30 48 -14 140 -58 140
-66 0 -5 -14 -16 -31 -24 -39 -21 -69 -14 -152 35 -36 21 -82 43 -101 50 -19
6 -50 23 -69 38 -18 15 -57 43 -85 62 -29 19 -52 39 -52 44 0 19 98 -6 174
-46z m1202 29 c26 -23 27 -26 16 -68 -6 -24 -14 -73 -17 -109 -7 -68 -34 -128
-75 -165 -12 -11 -34 -42 -47 -70 -24 -46 -25 -55 -17 -130 15 -146 11 -205
-15 -255 -49 -95 -73 -114 -203 -171 -143 -63 -198 -110 -253 -218 -18 -37
-51 -89 -73 -117 -21 -27 -44 -59 -50 -70 -8 -15 -28 -24 -64 -32 -29 -5 -55
-9 -57 -7 -2 2 22 34 54 71 31 37 62 79 68 93 7 14 37 61 67 103 30 42 67 96
81 120 24 41 34 47 145 92 123 51 194 91 202 115 3 10 -5 8 -29 -6 -38 -23
-247 -98 -255 -91 -6 6 78 197 122 278 20 35 45 87 56 114 28 72 52 101 121
148 34 23 56 43 49 46 -7 2 -24 -4 -38 -13 -32 -21 -41 -13 -25 22 29 70 -52
-50 -120 -174 -39 -73 -78 -133 -85 -133 -10 0 -14 16 -15 63 -1 53 -2 57 -9
29 -4 -19 -11 -68 -15 -110 -4 -45 -17 -99 -31 -131 -36 -81 -153 -289 -183
-325 -14 -17 -35 -48 -45 -68 -50 -99 -336 -388 -432 -436 -22 -11 -47 -28
-55 -38 -7 -9 -64 -59 -126 -111 -62 -52 -123 -107 -135 -123 -23 -28 -136
-95 -145 -86 -9 9 100 126 182 195 44 38 121 99 170 136 166 126 228 178 320
269 86 86 225 258 225 281 0 5 -65 -55 -146 -134 -80 -78 -147 -141 -150 -138
-8 7 35 207 51 237 16 30 70 80 137 126 77 53 97 89 108 190 19 171 17 168
140 249 89 58 114 88 144 173 33 94 48 115 105 151 42 28 76 65 138 157 56 82
157 116 209 71z m-7037 -17 c24 -11 61 -36 82 -55 21 -18 52 -41 68 -50 17 -8
73 -48 124 -88 51 -40 110 -83 130 -96 20 -12 37 -29 37 -37 0 -32 -111 -5
-185 46 -82 57 -335 276 -335 291 0 15 32 10 79 -11z m5635 -81 c218 -110 306
-159 306 -169 0 -15 -65 -22 -104 -12 -20 6 -92 42 -159 80 -67 38 -137 75
-156 82 -52 21 -156 101 -142 110 24 14 107 -15 255 -91z m-5307 33 c36 -20
83 -48 107 -62 52 -31 166 -120 166 -130 0 -4 29 -27 65 -50 35 -24 62 -47 59
-52 -3 -4 -25 -8 -48 -8 -50 0 -94 26 -246 150 -52 42 -106 83 -120 90 -30 15
-110 90 -110 103 0 17 63 -3 127 -41z m4885 19 c15 -5 46 -24 68 -40 23 -16
58 -35 78 -42 20 -6 48 -20 62 -29 14 -10 66 -38 115 -63 103 -52 133 -72 122
-83 -15 -15 -103 -9 -147 11 -59 26 -208 112 -242 141 -16 12 -38 26 -50 29
-32 10 -130 84 -123 94 5 9 74 -1 117 -18z m-4612 -27 c30 -19 72 -44 92 -55
20 -10 79 -51 130 -90 51 -39 117 -87 146 -105 56 -36 63 -49 32 -59 -27 -8
-86 9 -145 44 -84 49 -355 272 -355 292 0 20 49 7 100 -27z m4280 20 c47 -14
154 -62 215 -97 69 -39 133 -78 155 -95 14 -11 44 -29 68 -41 45 -23 52 -35
26 -45 -50 -19 -132 14 -308 128 -66 42 -125 76 -131 76 -16 0 -105 68 -105
80 0 14 18 12 80 -6z m-3951 -52 c57 -29 117 -68 155 -103 33 -31 97 -80 141
-108 44 -29 80 -58 80 -64 0 -20 -88 -11 -136 13 -24 12 -60 37 -79 54 -52 48
-211 171 -240 186 -36 18 -80 62 -74 72 9 15 51 1 153 -50z m3646 47 c52 -14
159 -65 210 -100 55 -37 190 -116 248 -146 40 -20 46 -27 37 -39 -36 -42 -206
28 -355 147 -27 21 -72 50 -100 64 -56 28 -95 58 -95 74 0 14 5 14 55 0z
m-3377 -51 c37 -17 123 -73 192 -123 69 -51 147 -105 174 -120 45 -27 47 -29
30 -42 -36 -27 -117 2 -229 82 -164 117 -299 231 -289 246 6 10 30 1 122 -43z
m288 -3 c49 -21 101 -53 136 -85 55 -49 231 -173 258 -182 27 -9 -2 -28 -41
-28 -51 0 -147 48 -208 104 -25 24 -86 73 -136 109 -137 101 -145 108 -145
119 0 14 46 2 136 -37z m2613 -6 c52 -21 108 -52 125 -68 31 -30 241 -161 257
-161 5 0 9 -6 9 -14 0 -52 -179 -1 -268 78 -44 39 -180 133 -239 166 -52 29
-58 52 -10 43 17 -3 74 -23 126 -44z m251 21 c38 -16 73 -30 78 -30 5 0 43
-22 85 -49 41 -27 111 -70 155 -95 43 -25 87 -55 97 -66 16 -18 16 -20 1 -26
-53 -20 -134 15 -331 143 -74 49 -149 97 -166 108 -81 50 -24 61 81 15z
m-2607 -12 c52 -20 115 -55 172 -98 50 -36 122 -87 161 -113 85 -56 102 -73
86 -89 -16 -16 -89 5 -159 46 -32 19 -113 76 -180 128 -67 51 -135 101 -152
110 -29 16 -43 48 -20 48 5 0 47 -14 92 -32z m2024 -1 c57 -21 135 -64 218
-119 72 -47 151 -96 178 -109 48 -24 59 -42 31 -53 -49 -19 -138 17 -278 112
-147 99 -256 182 -256 193 0 14 14 11 107 -24z m-1725 -4 c40 -14 89 -40 108
-57 53 -47 198 -149 263 -186 32 -18 56 -37 54 -44 -2 -6 -25 -10 -56 -10 -40
1 -67 11 -127 45 -41 24 -94 61 -117 83 -48 45 -181 147 -214 165 -13 6 -23
16 -23 21 0 17 36 11 112 -17z m269 2 c77 -26 116 -50 259 -154 47 -34 106
-77 132 -94 53 -36 56 -51 11 -55 -47 -5 -138 46 -313 174 -214 156 -210 153
-184 154 11 0 54 -11 95 -25z m304 -5 c28 -9 110 -59 185 -112 74 -52 161
-110 193 -128 32 -18 56 -37 54 -44 -2 -6 -22 -12 -44 -14 -65 -5 -223 86
-342 197 -18 17 -62 50 -97 73 -92 60 -75 70 51 28z m273 5 c79 -25 209 -105
295 -182 21 -18 62 -46 92 -60 59 -29 69 -49 31 -59 -55 -13 -129 27 -353 192
-61 45 -125 90 -142 99 -18 9 -29 20 -26 25 9 14 14 13 103 -15z m312 -7 c30
-12 116 -63 190 -114 74 -50 159 -104 187 -120 29 -16 52 -33 50 -39 -2 -5
-22 -11 -45 -13 -31 -2 -59 5 -111 31 -76 38 -224 140 -286 197 -22 21 -55 45
-72 54 -18 9 -33 21 -33 28 0 14 49 4 120 -24z m280 6 c70 -23 222 -112 238
-139 8 -14 101 -74 162 -105 45 -23 45 -35 1 -45 -49 -10 -134 33 -296 149
-82 60 -164 116 -182 124 -40 19 -51 42 -20 42 12 0 56 -12 97 -26z m2968
-152 c16 -12 40 -42 52 -66 19 -41 20 -47 7 -73 -20 -38 -53 -66 -112 -96 -27
-14 -58 -33 -67 -44 -24 -27 -58 -104 -58 -134 0 -15 -7 -59 -16 -99 -19 -84
-47 -120 -147 -194 -89 -65 -122 -124 -147 -259 -29 -159 -38 -184 -84 -223
-37 -31 -63 -44 -54 -26 42 83 74 164 94 237 75 272 107 359 140 383 81 57 93
72 39 52 -26 -10 -27 -9 -20 17 10 41 64 132 105 178 20 22 51 60 70 84 50 65
6 36 -50 -33 -56 -68 -76 -71 -86 -13 -5 34 -8 38 -15 22 -4 -11 -8 -46 -8
-78 -1 -50 -9 -74 -65 -185 -35 -70 -69 -144 -75 -164 -7 -21 -16 -38 -19 -38
-4 0 -23 32 -42 71 -19 39 -36 66 -38 61 -2 -6 8 -44 22 -86 33 -96 33 -137 0
-245 -45 -146 -84 -212 -84 -142 0 32 -37 127 -46 118 -3 -3 1 -30 10 -60 40
-137 7 -238 -104 -320 -36 -26 -97 -77 -137 -112 -39 -36 -74 -65 -78 -65 -18
0 38 74 115 152 116 117 129 150 110 288 -8 52 -13 108 -12 123 4 47 40 105
81 131 61 39 75 80 67 205 -3 58 -9 120 -12 138 -7 36 18 68 63 79 52 12 112
65 123 109 35 129 41 144 81 185 28 28 73 57 138 87 53 24 103 48 111 54 26
16 114 5 148 -19z m-7690 -42 c73 -37 134 -46 199 -31 45 11 53 10 84 -8 57
-33 125 -44 196 -30 57 11 65 11 114 -10 70 -31 156 -38 195 -18 27 14 33 13
87 -9 64 -27 173 -34 217 -14 21 9 34 7 74 -9 53 -23 165 -29 212 -11 22 9 37
7 78 -12 60 -26 182 -32 209 -9 19 15 50 11 112 -13 48 -18 127 -19 175 -2 30
11 43 10 92 -6 57 -20 154 -21 234 -3 21 5 42 2 62 -9 39 -20 150 -21 197 -2
30 13 39 13 85 -5 58 -22 156 -24 210 -5 29 11 41 10 68 -1 58 -24 144 -27
205 -8 52 16 59 16 103 1 62 -21 156 -21 196 0 30 15 35 15 82 -2 66 -23 170
-24 214 -1 31 17 35 17 103 -4 76 -23 127 -21 181 7 28 14 35 14 82 0 92 -28
126 -29 194 -7 59 20 66 21 114 6 66 -19 137 -19 187 1 37 15 46 15 108 -1 77
-20 153 -16 203 10 29 15 35 15 71 1 53 -21 138 -20 199 3 44 17 54 17 87 5
53 -19 164 -17 214 2 33 14 47 15 78 5 56 -16 159 -13 210 8 38 16 49 16 94 4
75 -19 136 -16 182 8 37 20 44 21 90 9 77 -21 163 -17 214 10 39 19 49 21 81
11 63 -19 154 -14 205 11 39 19 49 20 78 10 57 -21 165 -15 220 11 45 22 51
23 100 10 33 -8 72 -11 106 -7 49 6 53 5 48 -12 -43 -149 -62 -175 -144 -195
-27 -7 -50 -21 -60 -35 -13 -21 -23 -24 -72 -23 -89 0 -326 46 -394 76 -46 20
-61 11 -17 -12 41 -21 30 -34 -52 -63 -177 -61 -366 -57 -611 14 -48 14 -93
24 -99 22 -14 -5 84 -74 159 -111 203 -103 463 -115 698 -32 l97 34 73 -28
c40 -16 97 -34 127 -41 29 -6 61 -14 70 -16 18 -5 41 -61 41 -100 -1 -15 -30
-55 -84 -114 l-84 -92 -50 5 c-169 17 -237 29 -294 52 -36 14 -68 25 -73 25
-15 0 4 -29 23 -35 86 -28 -142 -95 -321 -95 -108 0 -231 18 -334 50 -37 12
-75 20 -84 18 -25 -6 110 -91 199 -126 128 -50 166 -57 309 -57 148 0 249 18
346 61 30 13 62 24 72 24 9 0 57 -15 107 -33 l90 -32 14 -73 c12 -66 12 -77
-4 -118 -10 -26 -37 -67 -61 -92 l-43 -45 -86 7 c-53 4 -126 20 -193 41 -59
19 -109 35 -111 35 -3 0 10 -16 29 -35 24 -25 29 -36 19 -39 -212 -72 -346
-79 -574 -31 -193 41 -190 41 -115 -7 228 -147 503 -177 760 -83 95 35 130 40
154 22 18 -13 17 -16 -17 -78 -19 -35 -42 -90 -50 -122 -12 -46 -24 -66 -59
-97 -23 -22 -52 -42 -64 -46 -11 -3 -48 4 -82 15 -80 27 -82 27 -42 -14 l33
-34 -24 -10 c-82 -34 -360 -56 -419 -33 -14 5 -70 13 -125 16 -55 4 -115 12
-134 18 -28 9 -35 8 -43 -6 -5 -9 -21 -16 -36 -16 -43 0 -157 -48 -235 -99
-64 -43 -191 -143 -315 -248 -23 -20 -54 -45 -70 -55 -39 -27 -159 -88 -173
-88 -16 0 -263 -156 -280 -177 -8 -9 -73 -56 -145 -103 -153 -100 -283 -159
-454 -206 -53 -15 -326 -151 -427 -213 -27 -17 -98 -54 -157 -82 l-108 -51
-106 6 c-59 3 -188 11 -287 16 -159 10 -660 49 -880 70 -296 28 -662 76 -684
89 -9 6 -7 19 10 53 l22 46 111 5 c79 3 129 11 174 27 l63 22 72 -25 c98 -35
145 -47 232 -56 84 -10 221 2 299 24 69 20 219 96 224 114 5 16 2 15 -93 -20
-54 -20 -79 -23 -250 -23 -180 -1 -193 0 -247 23 -61 26 -71 43 -38 61 37 20
20 29 -27 14 -82 -25 -224 -44 -318 -43 -103 1 -141 9 -138 30 6 49 45 241 56
279 12 43 15 45 82 69 l69 24 75 -26 c208 -73 404 -83 562 -28 68 23 207 90
215 103 11 17 -3 18 -47 3 -70 -25 -321 -40 -445 -27 -106 12 -174 32 -174 53
0 6 11 20 26 31 34 27 25 32 -27 14 -73 -24 -160 -44 -228 -51 l-64 -7 7 88
c3 49 9 140 13 202 3 61 10 112 15 112 6 0 56 -16 112 -35 192 -65 388 -69
555 -11 63 22 252 116 233 116 -5 0 -70 -9 -143 -21 -180 -28 -345 -29 -467
-2 -118 26 -127 34 -82 74 39 34 41 34 -87 -5 -45 -13 -97 -26 -115 -28 -32
-3 -33 -2 -59 72 -38 112 -85 203 -120 235 -36 31 -36 31 49 61 l53 18 107
-37 c273 -95 513 -72 752 71 41 25 77 46 79 48 7 6 -77 -9 -151 -27 -121 -30
-273 -42 -365 -30 -80 11 -221 48 -237 62 -5 4 4 20 20 34 l29 26 -25 -4 c-14
-2 -65 -17 -115 -33 -86 -26 -99 -28 -300 -28 -226 -1 -213 -4 -285 58 l-34
28 23 19 23 19 -37 0 c-21 0 -76 9 -124 20 -47 11 -126 24 -175 28 l-89 7 -17
50 c-23 68 -64 146 -96 184 -14 18 -24 34 -21 37 3 3 30 8 60 11 50 5 59 3
123 -35 100 -59 265 -112 373 -119 111 -7 231 10 337 48 l83 30 88 -30 c272
-93 508 -79 744 45 71 38 125 84 97 84 -9 0 -33 -6 -55 -14 -137 -48 -381 -70
-505 -45 -72 14 -176 48 -183 60 -4 5 6 21 22 35 32 30 24 29 -69 -5 -84 -31
-213 -45 -403 -46 -170 0 -368 21 -362 38 1 5 25 19 52 31 62 26 75 34 75 48
0 6 -10 8 -25 4 -36 -9 -317 11 -405 28 -117 24 -246 62 -298 88 l-47 23 -16
95 c-9 52 -13 99 -9 103 4 4 27 3 51 -2 24 -6 99 -11 167 -11 l122 0 78 -45
c137 -79 352 -124 499 -106 107 13 166 28 241 58 80 32 94 32 174 -1 167 -66
413 -74 588 -17 97 31 229 101 264 140 23 25 13 26 -45 5 -24 -8 -96 -26 -159
-40 -186 -39 -365 -29 -517 27 -59 23 -65 34 -28 51 14 6 25 15 25 20 0 11 -3
10 -47 -6 -100 -39 -374 -86 -498 -86 -64 0 -231 23 -296 40 -38 11 -54 30
-24 30 16 0 145 56 145 63 0 2 -54 4 -120 4 -172 1 -278 11 -415 39 -145 30
-224 53 -247 72 -17 14 -38 91 -38 137 0 33 16 32 88 -5z m8917 -805 c55 -14
113 -25 128 -25 88 0 325 -90 351 -133 20 -32 -17 -47 -113 -47 -47 0 -146 -9
-220 -20 -74 -11 -136 -18 -138 -16 -3 2 3 16 12 30 19 28 6 36 -15 10 -26
-31 -101 -66 -202 -94 -57 -16 -147 -45 -200 -64 -99 -35 -116 -35 -77 0 26
23 63 94 54 102 -4 4 -11 -2 -17 -12 -40 -71 -149 -156 -245 -191 -63 -23 -70
-24 -100 -10 -18 9 -36 21 -40 28 -5 7 -28 12 -53 12 -55 0 -55 3 0 120 45 95
52 100 182 114 108 11 131 25 153 93 28 86 39 98 88 98 39 0 49 -5 98 -55 54
-55 86 -67 133 -49 24 9 19 24 -8 24 -14 0 -28 5 -31 11 -16 25 85 98 135 99
14 0 70 -11 125 -25z m-8789 -39 c104 -52 132 -89 194 -246 66 -171 69 -175
135 -254 30 -35 55 -68 55 -73 0 -5 -16 -24 -35 -43 -31 -30 -37 -32 -59 -22
-27 12 -32 26 -40 113 -6 79 -46 139 -46 69 0 -16 -5 -52 -11 -80 -8 -37 -15
-50 -29 -50 -16 0 -17 11 -16 133 0 72 -2 148 -7 168 -7 34 -84 136 -94 125
-2 -2 7 -27 22 -56 24 -48 46 -150 32 -150 -4 0 -20 26 -36 58 -48 96 -104
139 -210 164 -51 11 -51 12 -51 50 0 44 -16 82 -31 73 -5 -4 -9 -17 -9 -29 0
-28 -36 -76 -56 -76 -21 0 -33 39 -23 75 5 16 22 42 39 58 28 25 36 27 119 27
81 0 94 -3 157 -34z m7864 -233 c0 -5 -17 -42 -38 -83 -30 -61 -45 -79 -77
-96 -41 -22 -135 -40 -135 -26 0 4 40 40 89 80 48 40 101 86 116 103 28 28 45
37 45 22z m-8776 -26 c13 -13 27 -43 31 -65 8 -47 8 -47 35 -30 43 27 89 -67
56 -117 -15 -24 -22 -55 -11 -55 3 0 23 9 44 20 42 21 51 18 51 -16 0 -29 -73
-115 -111 -132 -23 -9 -29 -19 -29 -42 0 -16 -9 -45 -20 -65 -11 -20 -20 -47
-20 -60 0 -31 -13 -31 -53 -1 -34 26 -117 50 -129 38 -5 -5 1 -26 12 -47 26
-51 25 -66 -5 -123 -14 -26 -25 -62 -25 -81 0 -42 -35 -101 -61 -101 -10 0
-19 5 -19 10 0 13 -37 50 -50 50 -5 0 -10 -22 -10 -50 0 -27 -5 -60 -11 -73
-15 -34 -64 -59 -127 -66 l-55 -6 2 -77 2 -78 -32 -19 c-18 -11 -46 -23 -61
-26 -60 -14 -13 -44 82 -54 47 -5 55 -9 58 -28 4 -25 -33 -102 -53 -109 -7 -3
-41 12 -74 34 -58 38 -64 39 -102 29 -81 -20 -176 29 -219 113 -19 37 -26 42
-80 54 -49 10 -86 108 -59 157 9 17 4 26 -30 60 -34 32 -41 45 -41 78 0 36 35
122 66 161 6 8 14 49 17 89 5 54 12 83 28 104 16 22 18 32 10 40 -16 16 -92
12 -129 -7 -30 -16 -82 -70 -82 -87 0 -5 -12 -12 -27 -15 -52 -13 -98 -42
-146 -93 -26 -27 -47 -53 -47 -56 0 -4 18 -4 40 0 22 4 40 5 40 3 0 -1 -14
-30 -30 -62 -37 -72 -39 -132 -8 -187 32 -58 15 -68 -57 -35 -32 14 -59 26
-61 26 -11 0 -2 -46 16 -82 24 -51 25 -58 3 -95 -15 -27 -15 -33 -1 -74 17
-48 12 -119 -8 -126 -7 -2 -25 7 -40 21 -27 22 -29 29 -29 96 0 63 -3 74 -20
80 -11 5 -35 24 -54 43 -41 43 -51 103 -27 161 15 35 14 40 -4 76 -32 62 -27
113 15 159 32 35 34 42 29 84 -11 75 2 111 60 174 29 32 56 72 60 88 21 86 85
132 167 119 32 -5 43 -2 77 25 40 33 91 42 140 27 14 -5 31 0 50 14 40 30 64
23 75 -20 9 -38 45 -83 58 -74 5 3 9 22 9 43 0 25 9 52 26 77 32 47 38 51 92
66 30 7 58 26 91 59 44 45 52 49 95 49 26 0 61 -6 79 -13 26 -11 37 -11 62 -1
47 20 108 17 139 -7 23 -18 32 -20 67 -11 55 14 94 1 146 -50 36 -35 43 -39
49 -24 6 17 1 71 -12 114 -6 20 -3 22 30 22 25 0 44 -7 60 -23z m9548 -130
c29 -19 62 -44 73 -56 l20 -23 -22 -16 c-12 -10 -47 -33 -78 -52 -31 -19 -77
-54 -102 -78 -51 -49 -68 -44 -59 16 4 24 0 37 -15 51 -19 18 -19 20 -4 29 14
7 10 11 -22 19 -21 5 -48 6 -58 2 -42 -16 -121 -10 -150 12 l-27 22 139 47
c76 26 149 53 163 59 38 16 83 6 142 -32z m-8657 -27 c4 -13 -6 -38 -32 -77
-35 -52 -45 -60 -98 -78 -83 -28 -147 -90 -171 -167 -10 -32 -15 -60 -12 -64
4 -3 24 12 46 34 49 49 130 89 210 103 83 15 161 0 309 -57 129 -51 213 -65
263 -44 37 15 34 31 -7 42 -36 9 -57 32 -50 52 9 23 120 75 206 97 66 17 85
18 141 9 203 -35 358 -191 390 -391 12 -77 6 -322 -10 -412 -35 -192 -122
-479 -201 -655 -71 -161 -94 -202 -147 -266 -68 -83 -182 -155 -182 -116 0 15
29 71 48 93 8 9 12 20 9 23 -15 15 -58 -10 -128 -74 -63 -57 -87 -72 -147 -91
-63 -21 -79 -22 -125 -13 -54 11 -122 39 -211 89 -33 18 -69 28 -107 31 -61 5
-129 -4 -129 -16 0 -4 23 -15 50 -25 88 -31 49 -54 -72 -42 -101 9 -154 39
-228 127 -72 86 -116 158 -198 328 -69 144 -106 250 -155 440 -49 190 -59 273
-55 451 4 172 19 229 82 325 104 156 270 245 433 230 69 -6 84 3 53 34 -11 11
-20 22 -20 25 0 3 17 12 38 21 133 58 196 68 207 34z m618 -15 c37 -15 67 -32
67 -39 0 -7 -34 -17 -85 -25 l-85 -13 -50 42 c-27 23 -50 49 -50 57 0 25 120
11 203 -22z m7177 -54 c0 -55 -15 -67 -142 -116 -68 -26 -154 -60 -193 -75
-80 -31 -343 -115 -395 -125 -50 -11 -324 -90 -395 -115 -33 -12 -89 -28 -125
-36 -58 -13 -182 -70 -432 -195 -43 -22 -84 -39 -91 -39 -11 0 -57 51 -57 63
0 3 17 8 38 12 58 11 156 48 289 109 67 31 126 56 131 56 5 0 57 20 116 45
144 60 385 134 521 160 97 19 237 60 287 86 20 10 59 41 86 68 68 68 119 92
232 106 134 17 130 18 130 -4z m205 -53 c24 -25 50 -64 60 -93 43 -120 61
-159 73 -163 11 -3 13 16 7 106 -9 127 -1 142 47 95 40 -41 46 -90 19 -177
-33 -108 -24 -164 26 -154 13 2 20 16 24 53 4 28 14 68 23 89 20 49 83 126
101 126 21 0 29 -42 21 -108 -12 -106 -32 -146 -104 -213 -81 -74 -117 -92
-162 -79 -29 8 -120 81 -129 104 -4 9 70 3 102 -10 27 -10 20 15 -11 44 -16
15 -50 33 -77 40 -59 16 -100 44 -120 82 -21 41 -19 50 14 50 26 0 55 -16 142
-79 17 -12 19 -11 19 8 0 12 -25 48 -58 84 -103 111 -131 163 -113 210 15 39
46 34 96 -15z m1140 -40 c-4 -13 -19 -43 -33 -68 -39 -66 -93 -90 -198 -90
-61 0 -85 -4 -94 -16 -11 -12 -10 -18 4 -32 28 -28 127 -22 211 13 63 26 81
29 185 30 101 0 120 -3 158 -23 23 -12 42 -26 42 -30 0 -5 -23 -18 -52 -31
-59 -26 -124 -30 -275 -17 -110 9 -122 5 -84 -33 29 -29 114 -51 200 -52 164
-1 289 -47 327 -121 22 -43 8 -52 -89 -56 -87 -4 -108 3 -257 91 -58 34 -149
57 -222 57 -52 0 -58 2 -58 21 0 26 -45 45 -130 53 -126 13 -223 -16 -364
-109 -86 -56 -114 -59 -53 -5 27 24 68 78 98 131 34 59 73 109 116 149 65 61
163 133 171 125 8 -8 -80 -139 -116 -172 -58 -55 -29 -49 65 13 123 81 369
192 431 193 20 1 22 -3 17 -21z m-1415 -108 c0 -34 0 -34 -35 -18 -31 14 -32
26 -2 38 34 14 37 12 37 -20z m-20 -54 c23 -12 45 -34 63 -67 15 -27 27 -51
27 -53 0 -3 -17 -10 -37 -17 -63 -20 -93 -41 -93 -66 0 -21 -5 -23 -49 -23
-71 0 -147 17 -205 45 -63 30 -174 48 -241 40 -45 -6 -237 -51 -389 -91 -77
-21 -334 -128 -400 -167 -75 -45 -143 -92 -214 -147 -35 -28 -68 -50 -73 -50
-6 0 -17 16 -25 36 -19 46 -16 49 91 102 321 160 550 252 625 252 8 0 71 17
140 39 69 21 195 55 280 76 85 20 184 50 220 65 36 15 79 33 95 39 40 14 142
7 185 -13z m2369 -155 c26 -81 26 -94 -3 -157 -26 -57 -44 -154 -28 -154 6 0
29 38 52 85 29 62 50 91 73 105 46 29 57 26 57 -16 0 -55 -54 -148 -114 -195
-28 -23 -56 -50 -63 -62 -14 -24 -17 -61 -5 -55 4 2 41 20 82 41 72 36 135 55
146 44 15 -15 -88 -137 -138 -163 -16 -8 -68 -18 -117 -23 -90 -8 -192 -44
-174 -62 19 -19 132 -22 230 -5 76 14 120 29 199 68 110 55 181 70 202 45 25
-30 -51 -76 -159 -97 -65 -13 -96 -31 -84 -50 13 -21 130 -5 214 30 104 43
138 46 195 22 65 -29 59 -55 -23 -97 -30 -15 -49 -16 -130 -10 -111 9 -162 8
-175 -5 -14 -14 36 -38 96 -45 61 -7 108 -33 142 -78 18 -24 19 -29 6 -37 -26
-17 -94 -10 -145 14 -28 13 -89 50 -135 83 -111 79 -142 94 -193 95 -37 0
-107 -24 -107 -37 0 -2 14 -12 31 -20 17 -9 60 -47 97 -85 61 -63 73 -71 122
-80 41 -8 64 -19 89 -44 43 -44 34 -60 -30 -54 -35 4 -64 15 -101 42 -63 44
-84 35 -53 -22 17 -30 38 -45 121 -87 105 -51 133 -71 164 -115 48 -69 26
-100 -55 -76 -71 22 -120 61 -170 137 -36 55 -51 69 -70 69 -29 0 -31 -15 -10
-67 9 -20 12 -40 8 -43 -16 -15 -71 -19 -82 -7 -18 22 -24 93 -11 131 9 27 9
44 0 71 -16 47 -36 45 -43 -6 -6 -45 -75 -154 -97 -154 -20 0 -42 82 -34 128
4 24 21 55 45 83 43 50 49 85 24 135 -32 60 -148 120 -234 119 l-36 -1 48 -25
c44 -23 87 -73 87 -101 0 -9 -16 -13 -46 -13 -41 0 -51 5 -97 49 -54 51 -99
72 -112 51 -12 -20 16 -68 56 -94 38 -25 79 -89 79 -121 0 -21 -1 -21 -86 43
-51 38 -79 67 -99 105 -16 28 -53 78 -83 110 l-55 57 41 0 c50 0 56 20 15 47
-51 32 -113 87 -113 100 0 20 106 100 178 134 79 38 152 50 152 25 0 -19 -68
-88 -122 -124 -21 -13 -38 -29 -38 -33 0 -13 58 -11 66 2 21 35 164 66 164 37
0 -29 -67 -89 -122 -112 -57 -22 -57 -23 -32 -34 31 -15 93 -14 159 1 76 18
93 73 58 183 -14 46 -15 61 -4 108 7 31 17 58 22 62 29 18 80 -77 87 -163 5
-70 14 -79 31 -32 21 61 13 102 -40 207 -56 110 -59 145 -19 194 l19 23 36
-36 c40 -40 54 -83 55 -169 0 -32 7 -69 18 -89 42 -83 59 -25 31 103 -24 109
-14 169 39 229 20 22 25 16 51 -62z m-1301 -73 c5 -27 -45 -51 -120 -60 -72
-7 -122 -30 -115 -51 7 -23 55 -18 168 19 76 25 139 39 189 41 71 4 78 3 130
-29 30 -18 55 -40 55 -48 0 -28 -67 -35 -150 -17 -86 19 -181 22 -190 6 -4 -6
-5 -13 -2 -15 3 -3 63 -12 133 -19 152 -17 233 -37 292 -71 58 -34 57 -61 -3
-70 -87 -13 -144 0 -274 60 -91 43 -140 60 -183 64 -47 4 -58 2 -58 -10 0 -35
112 -86 235 -108 139 -24 310 -102 310 -140 0 -22 -86 -25 -143 -6 -25 9 -48
14 -50 11 -7 -7 18 -35 31 -35 6 0 31 -10 56 -21 167 -78 193 -94 241 -146 28
-30 50 -59 50 -64 0 -5 -17 -9 -37 -9 l-36 0 21 -23 c12 -12 59 -45 104 -72
46 -27 110 -70 143 -95 33 -25 72 -53 88 -63 15 -10 27 -24 27 -31 0 -15 -40
-29 -62 -22 -7 2 -32 7 -55 10 -33 5 -43 3 -43 -7 0 -24 34 -46 85 -56 28 -6
86 -18 130 -27 85 -17 235 -71 235 -85 0 -16 -88 -60 -141 -71 -30 -6 -71 -8
-91 -4 -44 8 -138 79 -188 143 -34 42 -65 61 -78 48 -12 -12 70 -150 121 -202
42 -44 48 -53 31 -53 -56 0 -197 83 -221 130 -7 14 -35 71 -63 128 l-50 103
76 -7 77 -7 -19 33 c-33 57 -150 174 -210 210 -61 37 -174 79 -211 80 -13 0
-23 -6 -23 -14 0 -23 46 -53 118 -76 37 -12 84 -32 104 -45 43 -28 88 -84 88
-110 0 -15 -7 -17 -50 -13 -38 4 -62 14 -104 46 -66 50 -103 62 -113 36 -8
-20 14 -40 132 -118 87 -58 126 -111 141 -190 l7 -39 -38 6 c-56 9 -110 50
-160 120 -100 140 -115 156 -115 121 0 -9 15 -35 34 -58 40 -48 56 -85 56
-126 0 -40 -12 -43 -48 -12 -31 27 -62 96 -62 140 0 12 -8 46 -19 76 -16 45
-16 55 -5 71 8 10 14 28 14 39 0 31 -44 98 -100 149 -49 45 -50 48 -36 69 50
71 -28 126 -233 167 -72 15 -98 25 -142 58 -56 42 -119 78 -119 68 0 -15 138
-169 162 -181 21 -11 48 -13 108 -8 75 6 82 5 120 -20 22 -14 40 -31 40 -36 0
-31 -108 -40 -178 -16 -34 12 -42 13 -52 1 -16 -19 13 -36 121 -73 47 -16 100
-37 118 -46 39 -21 111 -93 111 -112 0 -39 -139 4 -230 71 -28 20 -53 35 -56
32 -12 -12 10 -70 38 -103 17 -19 63 -53 102 -76 90 -52 166 -127 166 -162 0
-14 -1 -26 -3 -26 -2 0 -28 7 -58 16 -84 25 -164 70 -198 111 -29 35 -91 185
-91 220 0 18 -38 63 -53 63 -19 0 -1 -98 25 -132 34 -46 50 -90 46 -129 -4
-41 -18 -46 -50 -16 -32 30 -55 110 -63 218 -7 97 -25 181 -40 186 -7 2 -16
-34 -22 -88 -13 -103 -25 -126 -44 -86 -9 21 -10 48 -1 121 19 152 19 154 -38
207 -97 91 -263 153 -405 151 -150 -2 -368 -82 -471 -174 -28 -24 -68 -57 -90
-73 -21 -16 -58 -47 -82 -69 -35 -34 -44 -38 -52 -26 -5 8 -10 20 -10 25 0 6
-20 37 -44 70 -25 33 -43 61 -42 63 2 2 32 5 67 6 65 4 144 27 209 62 139 74
296 145 355 160 97 25 337 24 455 0 175 -37 248 -71 479 -218 62 -40 130 -80
150 -89 20 -9 79 -44 130 -77 84 -55 153 -84 167 -69 3 2 -19 18 -48 35 -29
16 -69 46 -87 66 -19 20 -40 36 -47 36 -7 0 -43 25 -81 56 -124 103 -341 231
-448 264 -22 7 -44 16 -48 20 -4 4 17 19 48 34 31 16 63 39 72 52 32 49 107
73 218 70 47 -1 60 -4 63 -18z m-1384 -37 c35 -16 66 -34 70 -40 20 -31 -145
-114 -313 -157 -112 -29 -169 -30 -219 -5 -39 19 -177 58 -226 63 -55 6 -37
25 51 56 48 16 120 41 158 55 107 39 200 55 313 56 92 1 109 -2 166 -28z
m-1733 -57 c118 -35 211 -99 254 -174 53 -92 75 -137 75 -153 0 -12 -15 -25
-47 -38 -27 -11 -68 -29 -93 -39 -25 -11 -103 -44 -175 -74 -71 -29 -232 -105
-357 -169 -234 -118 -316 -152 -428 -173 -264 -49 -456 -104 -595 -168 -58
-27 -264 -95 -380 -125 -223 -59 -292 -112 -266 -207 9 -36 44 -56 167 -98 78
-27 94 -35 76 -41 -28 -8 -218 -8 -233 0 -5 4 -121 8 -257 10 -222 3 -445 22
-496 41 -29 11 -12 28 40 41 82 21 247 97 431 201 225 126 455 234 576 269 67
20 142 47 167 61 68 39 194 123 205 137 26 32 368 246 500 313 31 16 182 128
335 247 81 64 164 113 240 141 50 18 195 17 261 -2z m-6529 -336 c12 -114 25
-184 52 -272 20 -65 35 -121 32 -123 -7 -8 -60 24 -95 58 -19 18 -36 28 -38
22 -5 -13 58 -98 92 -125 13 -10 34 -35 47 -56 12 -20 34 -47 49 -59 14 -12
34 -41 44 -64 19 -41 19 -42 0 -56 -37 -26 -68 -27 -130 -4 -151 56 -312 84
-464 79 -74 -2 -115 1 -118 8 -2 5 12 28 30 50 18 21 39 55 47 74 7 19 16 38
20 43 3 4 55 -2 114 -13 64 -13 135 -20 179 -18 69 3 72 4 75 29 3 22 -13 41
-94 116 l-97 90 76 52 c107 72 136 117 141 218 2 43 5 84 5 91 1 6 5 12 9 12
5 0 15 -69 24 -152z m8943 132 l30 -13 -35 -9 c-19 -5 -71 -18 -115 -30 -183
-48 -515 -194 -515 -226 0 -11 -140 -125 -146 -120 -10 11 171 215 199 224 10
3 51 25 90 48 157 92 319 148 407 142 30 -2 69 -10 85 -16z m-1317 -4 c75 -20
141 -61 222 -140 100 -95 140 -191 140 -334 0 -137 -34 -210 -165 -356 -77
-86 -192 -158 -360 -228 -166 -69 -263 -94 -435 -113 -85 -10 -184 -21 -220
-26 -282 -40 -842 -79 -1124 -79 -104 0 -153 5 -241 26 -169 38 -380 73 -555
89 -79 8 -172 31 -224 58 -38 18 -39 20 -20 34 10 7 48 22 84 32 36 10 108 31
160 46 52 15 149 47 215 71 392 146 481 175 622 204 81 17 180 39 218 49 72
19 249 98 297 132 22 16 115 60 323 154 17 7 53 23 82 34 58 23 428 210 572
290 51 29 110 56 130 60 58 14 221 12 279 -3z m-8808 -118 c0 -35 6 -47 39
-78 24 -23 56 -41 85 -49 38 -9 49 -18 66 -50 26 -51 94 -106 149 -121 34 -9
59 -9 108 0 57 11 66 11 83 -5 31 -28 25 -50 -17 -66 l-37 -14 -1 -68 c0 -67
-1 -69 -39 -101 -29 -24 -38 -37 -32 -51 5 -15 15 -17 61 -12 37 4 55 2 58 -6
7 -20 -11 -66 -37 -98 -16 -18 -26 -43 -26 -61 0 -23 -12 -42 -50 -79 -27 -27
-50 -53 -50 -60 0 -6 -9 -22 -20 -36 -27 -35 -25 -43 10 -43 18 0 42 11 63 30
19 17 37 30 41 30 3 0 6 -18 6 -40 0 -31 -5 -43 -24 -55 -46 -30 -87 -36 -142
-20 -50 15 -53 14 -110 -12 l-58 -26 -48 26 c-40 22 -60 27 -121 27 -70 0 -74
1 -106 34 -25 25 -37 50 -45 93 -10 47 -17 60 -38 71 -15 7 -36 24 -47 38 -22
28 -43 110 -35 140 3 11 -6 43 -20 71 -28 56 -32 87 -15 130 l11 28 19 -52
c12 -31 28 -54 39 -58 27 -9 60 -53 60 -81 0 -12 12 -36 26 -53 19 -24 34 -31
60 -31 39 0 42 8 14 33 -16 13 -20 29 -20 72 0 30 -4 55 -10 55 -5 0 -25 14
-44 30 -41 37 -62 90 -47 119 10 17 15 18 41 8 44 -17 58 8 26 43 -49 53 -60
111 -30 172 23 48 58 72 83 56 28 -17 32 -9 20 39 -14 52 8 98 54 118 41 17
47 12 47 -37z m10338 -50 c-3 -22 -8 -23 -148 -30 -136 -7 -427 -40 -477 -54
-37 -10 -27 13 17 42 32 21 59 28 132 36 51 5 120 13 153 17 33 5 120 9 193
10 133 1 133 1 130 -21z m1889 -729 c14 -55 16 -109 3 -129 -8 -12 -16 -8 -50
25 -56 54 -58 68 -18 114 18 22 38 38 43 37 6 -1 15 -22 22 -47z m-10787 -1
c11 -18 20 -36 20 -40 0 -16 -59 -7 -81 12 l-24 20 25 20 c33 26 37 25 60 -12z"/>
<path d="M9350 6587 c0 -4 12 -31 26 -59 14 -28 42 -95 60 -147 19 -53 37
-103 40 -111 5 -13 6 -13 14 1 14 25 -8 147 -36 199 -24 44 -104 134 -104 117z"/>
<path d="M9240 6437 c0 -36 133 -262 174 -296 58 -49 -1 80 -90 196 -81 105
-84 109 -84 100z"/>
<path d="M11258 5675 c-46 -31 -56 -62 -68 -209 -6 -67 -17 -138 -26 -160 -8
-21 -13 -41 -10 -43 14 -14 70 148 86 252 15 94 27 129 50 150 20 18 26 35 12
35 -4 0 -24 -11 -44 -25z"/>
<path d="M6986 4525 c-42 -33 -58 -55 -39 -55 13 0 113 72 113 81 0 18 -29 8
-74 -26z"/>
<path d="M1170 2203 c-39 -7 -84 -47 -105 -92 -10 -23 -15 -44 -12 -47 4 -4
22 7 42 25 59 52 107 53 164 5 29 -24 32 -24 53 -10 13 9 43 16 69 16 39 0 56
-6 93 -35 26 -19 49 -35 52 -35 13 0 -8 76 -29 107 -35 52 -66 64 -154 61 -43
-2 -94 0 -113 3 -19 3 -46 4 -60 2z"/>
</g>
</svg>
