<?xml version="1.0" encoding="UTF-8"?>
<svg version="1.1" xmlns="http://www.w3.org/2000/svg" width="1080" height="1080">
<path d="M0 0 C0.81094116 -0.00630432 1.62188232 -0.01260864 2.45739746 -0.019104 C3.76529236 -0.01303131 3.76529236 -0.01303131 5.09960938 -0.00683594 C6.44762634 -0.00970612 6.44762634 -0.00970612 7.82287598 -0.01263428 C9.72257772 -0.01399504 11.62228879 -0.01030621 13.52197266 -0.00195312 C16.43217833 0.00874795 19.34176669 -0.00185208 22.25195312 -0.01464844 C24.09700657 -0.01332682 25.94205964 -0.01076439 27.78710938 -0.00683594 C28.65903931 -0.0108844 29.53096924 -0.01493286 30.42932129 -0.019104 C31.24026245 -0.01279968 32.05120361 -0.00649536 32.88671875 0 C33.95569397 0.00238678 33.95569397 0.00238678 35.04626465 0.00482178 C36.94335938 0.25878906 36.94335938 0.25878906 39.94335938 2.25878906 C41.02734375 5.0480957 41.02734375 5.0480957 42.03710938 8.66894531 C42.31911194 9.66367355 42.31911194 9.66367355 42.60681152 10.67849731 C43.23023856 12.88978069 43.83695352 15.10528268 44.44335938 17.32128906 C44.87621124 18.87203344 45.30981914 20.42256697 45.74414062 21.97290039 C47.16401227 27.06274153 48.5565975 32.15984017 49.94335938 37.25878906 C50.19053711 38.16713501 50.43771484 39.07548096 50.69238281 40.01135254 C53.38424199 49.91398185 56.05225849 59.8229688 58.69335938 69.73925781 C58.89191528 70.48378204 59.09047119 71.22830627 59.29504395 71.99539185 C60.5549806 76.73944043 61.76257931 81.49440857 62.94335938 86.25878906 C64.50679222 83.37429683 65.43640205 80.69265276 66.17773438 77.50097656 C66.53387817 76.00920898 66.53387817 76.00920898 66.8972168 74.48730469 C67.29130737 72.82731445 67.29130737 72.82731445 67.69335938 71.13378906 C70.96683097 57.75645336 74.52613184 44.45889797 78.18884277 31.1831665 C78.81635253 28.90207054 79.43900312 26.61963223 80.0567627 24.33587646 C80.93675742 21.08763118 81.83424537 17.84470962 82.73632812 14.60253906 C82.99973495 13.61822906 83.26314178 12.63391907 83.53453064 11.61978149 C86.11953005 2.47595429 86.11953005 2.47595429 89.94335938 0.25878906 C93.10904085 -0.29928063 96.2079147 -0.30169176 99.41601562 -0.27246094 C100.3354747 -0.27628784 101.25493378 -0.28011475 102.20225525 -0.28405762 C104.14306739 -0.28677617 106.08391621 -0.27941892 108.0246582 -0.26269531 C110.99903737 -0.2412601 113.97100782 -0.2625111 116.9453125 -0.28808594 C118.83138555 -0.28544313 120.7174571 -0.28031913 122.60351562 -0.27246094 C123.93951561 -0.28460632 123.93951561 -0.28460632 125.30250549 -0.29699707 C126.13023972 -0.28438843 126.95797394 -0.27177979 127.81079102 -0.25878906 C128.53818985 -0.25560669 129.26558868 -0.25242432 130.01502991 -0.24914551 C132.80950917 0.48693857 133.46106615 1.82097124 134.94335938 4.25878906 C135.3208828 6.78847599 135.3208828 6.78847599 135.3243103 9.69288635 C135.33276978 10.79630371 135.34122925 11.89972107 135.34994507 13.03657532 C135.34083603 14.84535408 135.34083603 14.84535408 135.33154297 16.69067383 C135.33942841 18.60089828 135.33942841 18.60089828 135.34747314 20.54971313 C135.36114423 24.03932303 135.35584948 27.5286667 135.34633589 31.01828122 C135.33873979 34.66974177 135.34578461 38.32117955 135.35049438 41.97264099 C135.3559514 48.10346571 135.34876107 54.23418198 135.33447266 60.36499023 C135.31813889 67.45534305 135.32344 74.54543716 135.33995187 81.63578373 C135.35355965 87.72250763 135.35549012 93.8091536 135.34763587 99.89588779 C135.34295635 103.5316997 135.34234219 107.16738993 135.35224533 110.80319405 C135.36250935 114.85438526 135.3482893 118.90512932 135.33154297 122.95629883 C135.33761566 124.16417557 135.34368835 125.37205231 135.34994507 126.61653137 C135.33725586 128.26742767 135.33725586 128.26742767 135.3243103 129.95167542 C135.32317923 130.90975381 135.32204815 131.8678322 135.3208828 132.85494328 C134.94335938 135.25878906 134.94335938 135.25878906 133.59375954 137.06721401 C131.06234925 138.89487097 128.89856419 138.63040757 125.81445312 138.62207031 C124.61498047 138.62142578 123.41550781 138.62078125 122.1796875 138.62011719 C120.92607422 138.60400391 119.67246094 138.58789062 118.38085938 138.57128906 C116.49463867 138.57612305 116.49463867 138.57612305 114.5703125 138.58105469 C105.21023996 138.52566964 105.21023996 138.52566964 102.94335938 136.25878906 C102.72586458 133.58027814 102.63195382 131.00203971 102.62451172 128.32080078 C102.61446609 127.5012088 102.60442047 126.68161682 102.59407043 125.83718872 C102.56311403 123.12095865 102.5461689 120.40482768 102.52929688 117.68847656 C102.51059523 115.80802551 102.49102258 113.92758293 102.47061157 112.04714966 C102.4191783 107.09223417 102.37961264 102.13729144 102.34246826 97.18225098 C102.30249862 92.12826741 102.25137426 87.07439826 102.20117188 82.02050781 C102.10428011 72.10001514 102.0199179 62.17945802 101.94335938 52.25878906 C101.6770874 53.24805389 101.41081543 54.23731873 101.13647461 55.25656128 C90.94533375 93.10492938 90.94533375 93.10492938 85.74462891 111.53857422 C84.90847421 114.50766221 84.08035353 117.47893552 83.25195312 120.45019531 C82.71206755 122.36829895 82.17172387 124.28627373 81.63085938 126.20410156 C81.38819336 127.07874054 81.14552734 127.95337952 80.89550781 128.85452271 C80.66766602 129.65582611 80.43982422 130.45712952 80.20507812 131.28271484 C80.00873779 131.98163849 79.81239746 132.68056213 79.61010742 133.40066528 C78.94335938 135.25878906 78.94335938 135.25878906 76.94335938 138.25878906 C72.50341979 138.96023998 67.99466469 138.76799215 63.50585938 138.75878906 C62.25224609 138.78714844 60.99863281 138.81550781 59.70703125 138.84472656 C58.50755859 138.84730469 57.30808594 138.84988281 56.07226562 138.85253906 C54.41819702 138.86317383 54.41819702 138.86317383 52.73071289 138.87402344 C49.94335938 138.25878906 49.94335938 138.25878906 48.40319824 136.16096497 C46.75630363 132.88692016 45.77212281 129.74322172 44.79858398 126.20874023 C44.60628708 125.51860336 44.41399017 124.82846649 44.21586609 124.11741638 C43.58530811 121.8474455 42.96542804 119.57470781 42.34570312 117.30175781 C41.90700304 115.71363821 41.46766699 114.12569417 41.02772522 112.53791809 C39.872686 108.36220498 38.72681925 104.18402696 37.58270264 100.00531006 C36.65119591 96.60890319 35.71340082 93.21424886 34.7752142 89.81968212 C32.82981638 82.78060756 30.88868012 75.7403509 28.95874023 68.69702148 C28.61693222 67.45079514 28.27512421 66.20456879 27.92295837 64.920578 C26.88562084 61.04295959 25.90676585 57.15535377 24.94335938 53.25878906 C24.93527252 54.29417816 24.92718567 55.32956726 24.91885376 56.39633179 C24.84148201 66.13790747 24.75376576 75.87934194 24.65583229 85.62073326 C24.60581451 90.62928861 24.55948513 95.63782229 24.52148438 100.64648438 C24.48470061 105.47707599 24.43835986 110.30748875 24.38529587 115.13792801 C24.36671506 116.98394265 24.35162084 118.82999568 24.34001541 120.67606735 C24.32321574 123.25509847 24.29419671 125.83371663 24.26220703 128.41259766 C24.26004684 129.1815184 24.25788666 129.95043915 24.25566101 130.74266052 C24.1714637 136.03068474 24.1714637 136.03068474 21.94335938 138.25878906 C19.26953125 138.51757812 19.26953125 138.51757812 15.91210938 138.52441406 C14.70941406 138.52699219 13.50671875 138.52957031 12.26757812 138.53222656 C10.37458984 138.520625 10.37458984 138.520625 8.44335938 138.50878906 C7.18136719 138.51652344 5.919375 138.52425781 4.61914062 138.53222656 C3.41644531 138.52964844 2.21375 138.52707031 0.97460938 138.52441406 C-0.13333984 138.5221582 -1.24128906 138.51990234 -2.3828125 138.51757812 C-5.05664062 138.25878906 -5.05664062 138.25878906 -7.05664062 136.25878906 C-7.31111622 133.92555237 -7.31111622 133.92555237 -7.31733704 130.94458008 C-7.32796425 129.2535466 -7.32796425 129.2535466 -7.33880615 127.52835083 C-7.33632874 126.28568451 -7.33385132 125.04301819 -7.33129883 123.76269531 C-7.33640976 122.45863739 -7.34152069 121.15457947 -7.3467865 119.81100464 C-7.36020471 116.22843005 -7.36075213 112.64596077 -7.3582232 109.06336594 C-7.35715554 106.07608085 -7.36203152 103.08881725 -7.36682862 100.10153675 C-7.37793326 93.0566072 -7.37835565 86.01173095 -7.37231445 78.96679688 C-7.36627071 71.69016262 -7.37859354 64.41372154 -7.39988452 57.13712025 C-7.41747461 50.89674804 -7.42350606 44.65643747 -7.42024678 38.41604137 C-7.41842984 34.68576496 -7.42111078 30.95562637 -7.43496132 27.22537231 C-7.4498181 23.06841395 -7.44059237 18.91185135 -7.42895508 14.75488281 C-7.43659882 13.51221649 -7.44424255 12.26955017 -7.45211792 10.98922729 C-7.44510361 9.86187164 -7.43808929 8.73451599 -7.43086243 7.57299805 C-7.43103017 6.58927719 -7.43119791 5.60555634 -7.43137074 4.59202576 C-7.3077098 3.82205765 -7.18404886 3.05208954 -7.05664062 2.25878906 C-4.01258095 0.22941594 -3.41786972 0.00763133 0 0 Z " fill="#EE463E" transform="translate(414.056640625,455.7412109375)"/>
<path d="M0 0 C3.12310532 2.23562853 6.0363825 4.62243991 8.80078125 7.2890625 C9.08953125 6.1546875 9.37828125 5.0203125 9.67578125 3.8515625 C10.23265625 2.088125 10.23265625 2.088125 10.80078125 0.2890625 C14.91263038 -1.76686206 20.21912413 -0.94002758 24.73828125 -0.9609375 C26.40407227 -0.991875 26.40407227 -0.991875 28.10351562 -1.0234375 C29.16763672 -1.02859375 30.23175781 -1.03375 31.328125 -1.0390625 C32.30515381 -1.0484082 33.28218262 -1.05775391 34.28881836 -1.06738281 C37.2794505 -0.64301476 37.94920449 -0.030899 39.80078125 2.2890625 C40.10239501 5.21896704 40.22075173 7.93711692 40.20483398 10.86865234 C40.21169724 11.74553711 40.21856049 12.62242187 40.22563171 13.52587891 C40.2439756 16.43408282 40.24004752 19.34175043 40.234375 22.25 C40.23893697 24.27723363 40.24424259 26.30446572 40.2502594 28.33169556 C40.25920822 32.59049741 40.2567517 36.849112 40.24682617 41.10791016 C40.23540264 46.53580774 40.25543683 51.96304834 40.28474331 57.3908596 C40.30320761 61.58452397 40.30279141 65.77803441 40.29710579 69.97172928 C40.29695345 71.97057636 40.30292441 73.96943447 40.31539726 75.96824265 C40.40062514 91.88280256 39.35678177 105.55391539 28.28125 117.99609375 C18.00161788 127.87554554 2.87765986 129.66331062 -10.71826172 129.58959961 C-23.87218125 129.26403645 -37.37928033 126.12942364 -47.19921875 116.8515625 C-51.15646863 112.44924295 -53.97844966 108.53354821 -54.57421875 102.4765625 C-54.19921875 99.2890625 -54.19921875 99.2890625 -52.19921875 97.2890625 C-48.01402417 96.71999766 -43.79350636 96.77924633 -39.57421875 96.7265625 C-38.41019531 96.67693359 -37.24617188 96.62730469 -36.046875 96.57617188 C-30.02600183 96.50457599 -26.1533898 96.64254208 -21.55078125 100.76171875 C-20.96377441 101.394729 -20.37676758 102.02773926 -19.77197266 102.67993164 C-16.72367795 105.79873177 -13.07733418 105.51035995 -8.94921875 105.6015625 C-3.03291723 105.53567941 0.26377022 105.1356588 4.80078125 101.2890625 C8.65953634 95.31421591 8.1081847 89.22271819 7.80078125 82.2890625 C7.20910156 82.69898438 6.61742187 83.10890625 6.0078125 83.53125 C5.21761719 84.07007813 4.42742187 84.60890625 3.61328125 85.1640625 C2.83597656 85.69773437 2.05867188 86.23140625 1.2578125 86.78125 C-6.358515 91.45518071 -15.52362131 92.12635481 -24.26171875 90.7265625 C-35.40471522 87.99063979 -44.65361413 82.23937314 -50.94921875 72.61328125 C-53.98001491 67.3458158 -56.3526847 62.32195705 -57.19921875 56.2890625 C-57.33199219 55.34675781 -57.46476563 54.40445313 -57.6015625 53.43359375 C-59.19781018 38.70865728 -56.99978692 24.18512015 -48.32421875 11.9140625 C-37.37566361 -1.54819152 -16.27439364 -9.06669626 0 0 Z M-19.9921875 24.73828125 C-25.21662532 30.27231539 -27.2945762 36.77366896 -27.57421875 44.2890625 C-27.28809745 52.30045883 -24.94791822 58.67405372 -19.19921875 64.2890625 C-14.36356355 67.58610013 -9.88282807 68.12715404 -4.19921875 67.2890625 C1.7670731 65.58899009 4.83409037 62.59396328 7.890625 57.2890625 C11.11802004 50.19710429 11.12382987 40.59857771 8.859375 33.22265625 C6.2753378 27.78726766 3.58020806 23.7580194 -2.19921875 21.51171875 C-8.79158395 19.57750049 -14.56818319 20.35417319 -19.9921875 24.73828125 Z " fill="#489E58" transform="translate(189.19921875,494.7109375)"/>
<path d="M0 0 C13.46506944 10.73646506 18.93838827 25.83706993 20.875 42.5 C21.20142793 45.61362028 21.33978032 47.34079497 19.90019226 50.13372803 C17.14889532 52.83591163 15.22596194 52.4822622 11.41723633 52.45410156 C10.42171501 52.45497772 10.42171501 52.45497772 9.40608215 52.45587158 C7.21419819 52.45308663 5.02367734 52.42197875 2.83203125 52.390625 C1.31174971 52.38316399 -0.20854146 52.37747039 -1.72883606 52.37347412 C-5.72889796 52.35820654 -9.72837824 52.31891582 -13.72821045 52.2746582 C-17.81026338 52.23372927 -21.89241037 52.21546824 -25.97460938 52.1953125 C-33.98333973 52.15242197 -41.9915975 52.08415786 -50 52 C-49.24709093 53.92845762 -48.48162546 55.85201591 -47.7109375 57.7734375 C-47.28603027 58.84513184 -46.86112305 59.91682617 -46.42333984 61.02099609 C-43.78316977 66.54678602 -40.14470813 69.0865132 -34.625 71.4375 C-29.1476423 72.28743481 -24.33267214 72.06030552 -19.25 69.75 C-16.85881503 68.06515523 -16.85881503 68.06515523 -15.1796875 65.421875 C-10.14621273 61.58802444 -5.01861681 62.35292756 1.125 62.5 C2.31738281 62.49742187 3.50976562 62.49484375 4.73828125 62.4921875 C13.43043355 62.59040391 13.43043355 62.59040391 15.85498047 64.33398438 C17 66 17 66 17.125 69.125 C15.61897848 76.867915 8.26131061 83.65257178 2 88 C-12.5346745 96.88792814 -29.56561281 98.30540003 -45.9375 94.4375 C-57.45437255 90.93075996 -67.82038472 84.13673438 -73.9765625 73.625 C-81.59866699 59.1518465 -84.43082489 43.00387496 -80 27 C-75.68979499 13.75073168 -67.67112515 2.96925251 -55.3125 -3.75 C-37.55737335 -11.97599905 -16.22806853 -11.35723667 0 0 Z M-44.375 20.125 C-47.64009944 24.56901638 -47.64009944 24.56901638 -50 33 C-37.46 33 -24.92 33 -12 33 C-13.21076759 25.73539448 -15.24725454 21.38571273 -20.8125 16.5625 C-29.0228467 12.53782024 -37.93675499 13.27241249 -44.375 20.125 Z " fill="#EE463E" transform="translate(770,501)"/>
<path d="M0 0 C7.05850075 5.87728226 11.81881089 13.12180964 13.625 22.1875 C13.7228472 24.52987008 13.76319463 26.87483608 13.77026367 29.21923828 C13.77362228 29.91886688 13.7769809 30.61849548 13.78044128 31.33932495 C13.78991952 33.64550564 13.79189242 35.95161356 13.79296875 38.2578125 C13.79618208 39.8615624 13.79954622 41.465312 13.80305481 43.06906128 C13.80903722 46.42641887 13.81089548 49.78375074 13.81030273 53.14111328 C13.81020084 57.4500041 13.82388546 61.75873117 13.84107494 66.06758308 C13.85217039 69.37719486 13.85422275 72.68676663 13.85369301 75.99639511 C13.85487559 77.58566734 13.85931287 79.17494053 13.86702538 80.76419449 C13.87678153 82.98109855 13.87396548 85.19764138 13.86791992 87.41455078 C13.86934494 88.677117 13.87076996 89.93968323 13.87223816 91.24050903 C13.625 94.1875 13.625 94.1875 11.625 96.1875 C7.16345192 96.64853073 2.67009362 96.51148794 -1.8125 96.5 C-3.06611328 96.51611328 -4.31972656 96.53222656 -5.61132812 96.54882812 C-6.81080078 96.54947266 -8.01027344 96.55011719 -9.24609375 96.55078125 C-10.34880615 96.55376221 -11.45151855 96.55674316 -12.58764648 96.55981445 C-15.375 96.1875 -15.375 96.1875 -17.02615356 95.02182007 C-18.91689474 92.45056778 -18.74684584 90.64032614 -18.74389648 87.46606445 C-18.75077988 86.29086746 -18.75766327 85.11567047 -18.76475525 83.90486145 C-18.75859695 82.63301498 -18.75243866 81.36116852 -18.74609375 80.05078125 C-18.75902873 78.05113779 -18.77198653 76.05149418 -18.78626347 74.05185986 C-18.81625416 69.12162368 -18.81278323 64.19129408 -18.81079102 59.26098633 C-18.81074964 56.4965218 -18.82139366 53.73244597 -18.84254456 50.96806335 C-18.86120296 48.36706593 -18.86316625 45.76588087 -18.84629822 43.16487122 C-18.90620428 36.05558714 -19.40358784 31.17167877 -23.375 25.1875 C-28.00429905 22.1920712 -31.90732274 21.70742081 -37.23046875 22.55078125 C-41.97561287 23.95963096 -44.56452053 26.90191187 -47.1875 31.0625 C-49.91687688 38.24507074 -49.55021295 45.81028595 -49.62109375 53.39453125 C-49.65399731 55.77799895 -49.68720947 58.1614624 -49.72070312 60.54492188 C-49.76832081 64.28895472 -49.81284307 68.03296623 -49.85180664 71.77709961 C-49.89133503 75.39974594 -49.94288361 79.02206377 -49.99609375 82.64453125 C-50.0045079 83.7715596 -50.01292206 84.89858795 -50.02159119 86.05976868 C-50.03823318 87.09812363 -50.05487518 88.13647858 -50.07202148 89.20629883 C-50.08232895 90.12228348 -50.09263641 91.03826813 -50.10325623 91.98200989 C-50.375 94.1875 -50.375 94.1875 -52.375 96.1875 C-56.83654808 96.64853073 -61.32990638 96.51148794 -65.8125 96.5 C-67.06611328 96.51611328 -68.31972656 96.53222656 -69.61132812 96.54882812 C-70.81080078 96.54947266 -72.01027344 96.55011719 -73.24609375 96.55078125 C-74.34880615 96.55376221 -75.45151855 96.55674316 -76.58764648 96.55981445 C-79.78242095 96.13307967 -80.43194188 95.66193549 -82.375 93.1875 C-82.67139226 90.17556773 -82.78460588 87.37045113 -82.76318359 84.35742188 C-82.76844055 83.45472061 -82.77369751 82.55201935 -82.77911377 81.6219635 C-82.79233515 78.63321716 -82.78356807 75.64500191 -82.7734375 72.65625 C-82.77545762 70.58264056 -82.77836854 68.50903181 -82.78213501 66.4354248 C-82.78656126 62.08757774 -82.78011754 57.73991545 -82.76611328 53.39208984 C-82.74902132 47.81309044 -82.75886088 42.23452398 -82.77683067 36.65554047 C-82.78766032 32.3730746 -82.78422592 28.09071173 -82.7764473 23.8082428 C-82.77444302 21.75089975 -82.77691249 19.69354741 -82.78388596 17.63621521 C-82.79148689 14.76308343 -82.77991522 11.89065722 -82.76318359 9.01757812 C-82.76925629 8.1634584 -82.77532898 7.30933868 -82.78158569 6.42933655 C-82.71878022 0.62128848 -82.71878022 0.62128848 -81.01293373 -1.53118134 C-78.60963813 -3.41122535 -76.73671095 -3.18466608 -73.71875 -3.17578125 C-72.06166016 -3.17481445 -72.06166016 -3.17481445 -70.37109375 -3.17382812 C-68.64052734 -3.1496582 -68.64052734 -3.1496582 -66.875 -3.125 C-65.72128906 -3.12822266 -64.56757812 -3.13144531 -63.37890625 -3.13476562 C-54.7755776 -3.07955173 -54.7755776 -3.07955173 -51.375 -0.8125 C-50.86328125 1.3515625 -50.86328125 1.3515625 -50.6875 3.8125 C-50.58888672 5.03839844 -50.58888672 5.03839844 -50.48828125 6.2890625 C-50.45089844 6.91554688 -50.41351562 7.54203125 -50.375 8.1875 C-49.8903125 7.65640625 -49.405625 7.1253125 -48.90625 6.578125 C-36.40932558 -6.59171074 -15.70410997 -11.22563958 0 0 Z " fill="#EE463E" transform="translate(672.375,497.8125)"/>
<path d="M0 0 C1.60016968 0.00845947 1.60016968 0.00845947 3.23266602 0.01708984 C15.90571018 0.21282002 25.38728509 2.29410347 34.99609375 10.87109375 C43.36009851 19.56882438 43.83360066 30.7677194 43.7890625 42.2109375 C43.79899394 43.61814892 43.81094437 45.02534737 43.82479858 46.43252563 C43.85688384 50.10318628 43.86752918 53.7735489 43.87164307 57.44433594 C43.88046399 63.33863419 43.91601847 69.23269158 43.9638176 75.12678909 C43.97634114 77.17473842 43.97565154 79.22237563 43.97354126 81.27035522 C43.98050018 82.51580109 43.98745911 83.76124695 43.99462891 85.04443359 C43.99588776 86.13710541 43.99714661 87.22977722 43.9984436 88.3555603 C44.25695166 91.39421388 45.05744548 93.53029193 46.25 96.3125 C46.25 97.3025 46.25 98.2925 46.25 99.3125 C42.20857785 99.42912261 38.16759135 99.4998935 34.125 99.5625 C32.98289062 99.59601563 31.84078125 99.62953125 30.6640625 99.6640625 C24.21814029 99.73901508 20.09499614 99.76465861 15.25 95.3125 C13.375 93.0625 13.375 93.0625 12.25 91.3125 C10.8578125 92.67375 10.8578125 92.67375 9.4375 94.0625 C0.2437422 101.760448 -10.24205746 102.19523135 -21.72216797 101.49267578 C-29.66177649 100.78723019 -36.05932774 97.91445354 -41.75 92.3125 C-47.44665978 85.4417195 -49.52544445 77.15256677 -48.75 68.3125 C-47.38390395 61.33278234 -45.06687858 55.19856431 -39.75 50.3125 C-30.68003829 44.30671454 -20.74669348 42.26015445 -10.171875 40.57421875 C-9.37797363 40.44684326 -8.58407227 40.31946777 -7.76611328 40.18823242 C-6.21408656 39.94435156 -4.66038519 39.71081841 -3.10498047 39.48950195 C4.68048681 38.3193582 4.68048681 38.3193582 11.25 34.3125 C11.38568319 30.64905389 11.41461426 27.80634279 10.25 24.3125 C4.15341569 21.99579796 -1.03315723 21.54987747 -7.3125 23.3125 C-11.20806705 25.57901174 -12.96623237 27.85200245 -15.390625 31.5703125 C-16.75 33.3125 -16.75 33.3125 -19.75 34.3125 C-22.70401536 34.56124332 -25.66156767 34.54365464 -28.625 34.5625 C-29.42808594 34.583125 -30.23117188 34.60375 -31.05859375 34.625 C-35.71686906 34.65569704 -39.07332111 34.52137084 -42.75 31.3125 C-43.7092691 25.02395809 -42.3192228 20.51972306 -38.75 15.3125 C-29.02190154 2.97498219 -14.99849801 -0.08211927 0 0 Z M-0.0625 57.5625 C-1.10857422 57.86285156 -2.15464844 58.16320312 -3.23242188 58.47265625 C-10.65382745 60.66350885 -10.65382745 60.66350885 -16.75 65.3125 C-18.36082802 68.53415604 -18.3506214 71.82889589 -17.75 75.3125 C-15.65642825 78.04577423 -14.0443996 79.75159351 -10.875 81.125 C-4.58101784 81.68035137 0.70975567 81.53122495 6.25 78.3125 C9.51099491 75.32678388 11.84633884 72.52348349 13.25 68.3125 C13.31970052 65.91759014 13.33448003 63.52082309 13.3125 61.125 C13.30347656 59.85269531 13.29445313 58.58039062 13.28515625 57.26953125 C13.27355469 56.29371094 13.26195313 55.31789063 13.25 54.3125 C8.74950582 54.3125 4.21831583 56.28425518 -0.0625 57.5625 Z " fill="#489E58" transform="translate(84.75,491.6875)"/>
<path d="M0 0 C6.35421132 5.51158764 9.46137413 13.06022015 10.36550903 21.35211182 C10.50568879 25.08622223 10.52755218 28.80242342 10.50390625 32.5390625 C10.51129497 33.91426886 10.52085469 35.28946506 10.53245544 36.66464233 C10.55892817 40.25488323 10.56475975 43.84479171 10.56335449 47.43511963 C10.56111053 53.18592328 10.5755817 58.93631717 10.61894035 64.68696213 C10.62866407 66.67699811 10.61969301 68.6670977 10.61024475 70.65713501 C10.65022691 77.77325695 11.29729804 83.39716819 14 90 C9.62535204 90.14564235 5.2513304 90.23419143 0.875 90.3125 C-0.3625 90.35439453 -1.6 90.39628906 -2.875 90.43945312 C-13.15288267 90.57759671 -13.15288267 90.57759671 -16.7421875 87.66796875 C-19 85 -19 85 -21 82 C-21.928125 83.0828125 -21.928125 83.0828125 -22.875 84.1875 C-29.74212757 91.05462757 -38.66034795 93.08665817 -48.0625 93.3125 C-58.52694051 93.18124704 -67.68070884 90.73386316 -75.1875 83.171875 C-81.68286232 75.38863912 -82.07400894 66.7770242 -81.27490234 56.97509766 C-80.44821708 51.03559165 -77.57325207 46.13826354 -73.1875 42.125 C-62.32733115 34.88488743 -50.61209748 32.89264735 -37.8503418 31.17749023 C-29.2836618 30.08532794 -29.2836618 30.08532794 -22 26 C-21.62633111 21.11263629 -21.62633111 21.11263629 -23.3125 16.625 C-26.90803397 13.16263396 -31.5745409 13.6668646 -36.2734375 13.72265625 C-40.14953489 14.11692977 -42.16140409 15.36910623 -45 18 C-47.29582863 21.06717124 -47.29582863 21.06717124 -49 24 C-51.47969505 26.47969505 -58.04387197 25.23402337 -61.375 25.25 C-62.97601562 25.2809375 -62.97601562 25.2809375 -64.609375 25.3125 C-66.14464844 25.32023438 -66.14464844 25.32023438 -67.7109375 25.328125 C-68.65243652 25.3374707 -69.59393555 25.34681641 -70.56396484 25.35644531 C-73 25 -73 25 -74.80322266 23.67871094 C-76.86741945 20.783277 -76.39616894 18.45232937 -76 15 C-72.48798699 5.21923259 -66.15854296 -0.50059953 -57 -5 C-39.81108686 -11.59931487 -14.98338995 -12.09537013 0 0 Z M-32.8125 48.75 C-33.70259766 49.00265625 -34.59269531 49.2553125 -35.50976562 49.515625 C-41.95488188 51.42670469 -47.13597154 53.20395731 -51 59 C-51.46362482 63.17262337 -51.4494094 65.28714371 -49.1875 68.875 C-45.12851219 72.81801673 -40.46732356 72.39065247 -35.0859375 72.3515625 C-29.46800359 71.71154471 -25.7949724 68.96867941 -22.0625 64.875 C-19.76916398 60.82793643 -19.89564136 57.37509143 -19.9375 52.8125 C-19.94652344 51.54019531 -19.95554687 50.26789062 -19.96484375 48.95703125 C-19.97644531 47.98121094 -19.98804688 47.00539063 -20 46 C-24.50497919 46 -28.51650636 47.47256372 -32.8125 48.75 Z " fill="#EE463E" transform="translate(1030,499)"/>
<path d="M0 0 C1.14533203 -0.01998047 2.29066406 -0.03996094 3.47070312 -0.06054688 C4.57220703 -0.05990234 5.67371094 -0.05925781 6.80859375 -0.05859375 C8.31957642 -0.06137329 8.31957642 -0.06137329 9.86108398 -0.06420898 C13.3277428 0.57962146 14.29267113 1.78394019 16.5625 4.4375 C17.59951782 6.7383728 17.59951782 6.7383728 18.36181641 9.29443359 C18.65537018 10.25578217 18.94892395 11.21713074 19.25137329 12.20761108 C19.55256073 13.2399588 19.85374817 14.27230652 20.1640625 15.3359375 C20.48660004 16.40365387 20.80913757 17.47137024 21.14144897 18.57144165 C22.16880196 21.98166074 23.17847437 25.39681839 24.1875 28.8125 C24.8738119 31.10452276 25.56129889 33.39619401 26.25 35.6875 C27.22136594 38.92028348 28.19095638 42.15348522 29.15151978 45.38949585 C30.54956474 50.09906885 31.9649117 54.79059759 33.5625 59.4375 C33.79324219 58.66486816 34.02398438 57.89223633 34.26171875 57.09619141 C35.76693825 52.05920936 37.27217778 47.02227486 38.78979492 41.98901367 C39.20752561 40.6033547 39.62525016 39.21769387 40.04296875 37.83203125 C40.25350388 37.13387802 40.464039 36.43572479 40.68095398 35.71641541 C42.07878918 31.07175541 43.44593976 26.41910004 44.80078125 21.76171875 C45.49195031 19.42440901 46.18334543 17.08716611 46.875 14.75 C47.18759766 13.65316895 47.50019531 12.55633789 47.82226562 11.42626953 C48.12455078 10.4154834 48.42683594 9.40469727 48.73828125 8.36328125 C48.99520752 7.48067627 49.25213379 6.59807129 49.5168457 5.6887207 C50.80446743 2.91656101 51.88360553 1.8982623 54.5625 0.4375 C57.17211914 0.04931641 57.17211914 0.04931641 60.09765625 0.0390625 C61.68223633 0.03326172 61.68223633 0.03326172 63.29882812 0.02734375 C64.39646484 0.03894531 65.49410156 0.05054688 66.625 0.0625 C67.72650391 0.05089844 68.82800781 0.03929687 69.96289062 0.02734375 C71.01798828 0.03121094 72.07308594 0.03507812 73.16015625 0.0390625 C74.12445557 0.04244629 75.08875488 0.04583008 76.08227539 0.04931641 C78.5625 0.4375 78.5625 0.4375 80.40014648 1.52490234 C82.28256896 4.62233937 81.91828092 6.85017181 81.5625 10.4375 C80.67606663 13.8910273 79.50426191 17.21979592 78.30078125 20.57421875 C77.9583136 21.55561829 77.61584595 22.53701782 77.26300049 23.54815674 C76.14442876 26.74433616 75.01019362 29.93469034 73.875 33.125 C73.10010409 35.32534668 72.3259392 37.52595093 71.55249023 39.72680664 C69.60648187 45.2536589 67.64614426 50.7752993 65.68041992 56.29516602 C64.62146146 59.27176667 63.56666029 62.24979857 62.51367188 65.22851562 C61.0027115 69.50137334 59.48503641 73.77176072 57.95956421 78.03945923 C57.4049655 79.59151223 56.85175376 81.14406156 56.29995728 82.69711304 C55.54051137 84.8302017 54.77352775 86.96040894 54.00390625 89.08984375 C53.57795166 90.27570068 53.15199707 91.46155762 52.71313477 92.68334961 C51.5625 95.4375 51.5625 95.4375 49.5625 97.4375 C47.08885949 97.66146958 44.73015793 97.76558783 42.25390625 97.7734375 C41.53138168 97.7800943 40.80885712 97.7867511 40.06443787 97.79360962 C38.53541614 97.80373962 37.00635017 97.80842653 35.47729492 97.80810547 C33.13711728 97.81247736 30.79882789 97.84878466 28.45898438 97.88671875 C26.97396479 97.89258717 25.48893624 97.89655639 24.00390625 97.8984375 C23.3038295 97.91280853 22.60375275 97.92717957 21.88246155 97.94198608 C19.90063477 97.92333984 19.90063477 97.92333984 16.5625 97.4375 C13.88635846 94.58006568 12.70395381 91.53810479 11.43701172 87.87231445 C11.04585175 86.75206375 10.65469177 85.63181305 10.25167847 84.47761536 C9.83604645 83.2642601 9.42041443 82.05090485 8.9921875 80.80078125 C8.54787569 79.52094306 8.10288539 78.24134023 7.65725708 76.96195984 C6.48070641 73.57888539 5.3125032 70.19298905 4.14630127 66.80633545 C2.53679401 62.13692109 0.91615004 57.4713596 -0.70330811 52.8053894 C-1.61360254 50.18250309 -2.52052296 47.55848411 -3.42510986 44.93362427 C-5.6041894 38.62303631 -7.82806758 32.33620378 -10.15917969 26.07958984 C-10.58439911 24.93177536 -11.00961853 23.78396088 -11.44772339 22.60136414 C-12.24719933 20.4544002 -13.05693613 18.31121877 -13.87869263 16.17268372 C-14.23180511 15.22261948 -14.5849176 14.27255524 -14.94873047 13.29370117 C-15.41833694 12.06087654 -15.41833694 12.06087654 -15.89743042 10.80314636 C-16.53754994 7.99925503 -16.23287289 6.18260448 -15.4375 3.4375 C-12.04143782 -1.56862835 -5.3950557 -0.03328413 0 0 Z " fill="#EE463E" transform="translate(875.4375,491.5625)"/>
<path d="M0 0 C1.28372798 2.28153472 2.41540612 4.50215488 3.5 6.875 C5.28304823 10.72918722 6.85461765 14.06558841 10 17 C10 21.25815389 7.84813831 23.81688312 5.25390625 26.9609375 C-0.03347245 35.55910473 0.74852497 48.92527255 2.72265625 58.5078125 C4.80406545 64.69305279 7.49502039 68.95542856 13.25 72.3125 C18.50543687 73.62635922 23.19795105 73.64601755 28.3125 71.8125 C34.09165058 67.91493333 36.87858195 62.42464263 38.57421875 55.734375 C39.93610299 46.98832944 39.22559491 37.7323637 38 29 C39.03898437 28.90203125 40.07796875 28.8040625 41.1484375 28.703125 C48.60149114 27.92758521 55.17504435 27.0759833 61.984375 23.70703125 C64.48181255 22.83099211 65.61032224 22.86350782 68 24 C69.01171875 25.85546875 69.01171875 25.85546875 69.6875 28.1875 C70.03361328 29.32251953 70.03361328 29.32251953 70.38671875 30.48046875 C74.04831728 45.52334171 72.60482302 61.10718689 64.65234375 74.50390625 C56.54171513 86.75613246 44.88565636 93.58096525 30.625 96.75 C13.1292291 97.95660489 -1.90202819 95.70847006 -15.75 84.3125 C-26.15975792 74.4614053 -30.93749243 62.09322231 -31.47045898 47.90209961 C-31.6548828 32.51566606 -27.37507202 19.48951432 -16.6875 8.1875 C-5.99506579 -1.99835526 -5.99506579 -1.99835526 0 0 Z " fill="#489E58" transform="translate(323,497)"/>
<path d="M0 0 C2.56988681 2.56988681 2.25706775 3.58910053 2.265625 7.15625 C2.26949219 8.68958984 2.26949219 8.68958984 2.2734375 10.25390625 C2.26570313 11.32511719 2.25796875 12.39632813 2.25 13.5 C2.26160156 15.10681641 2.26160156 15.10681641 2.2734375 16.74609375 C2.27085937 17.76832031 2.26828125 18.79054688 2.265625 19.84375 C2.26336914 20.78412109 2.26111328 21.72449219 2.25878906 22.69335938 C2 25 2 25 0 27 C-1.88401027 27.36022048 -3.78370017 27.64090667 -5.6875 27.875 C-13.6569254 29.10620464 -18.10867887 31.41617813 -23 38 C-29.80713282 48.71754084 -28.68277425 60.85191258 -28.625 73.0625 C-28.62115056 76.16105694 -28.62454379 79.25903726 -28.64559937 82.35752869 C-28.65768542 84.2739667 -28.65502449 86.19056821 -28.63589478 88.10694885 C-28.64137833 89.39991127 -28.64137833 89.39991127 -28.64697266 90.71899414 C-28.64299469 91.47555801 -28.63901672 92.23212189 -28.63491821 93.01161194 C-29.10314913 95.56179329 -29.96038865 96.44223203 -32 98 C-34.6796875 98.38818359 -34.6796875 98.38818359 -37.875 98.3984375 C-39.02484375 98.40230469 -40.1746875 98.40617188 -41.359375 98.41015625 C-42.56078125 98.39855469 -43.7621875 98.38695312 -45 98.375 C-46.20140625 98.38660156 -47.4028125 98.39820313 -48.640625 98.41015625 C-50.36539063 98.40435547 -50.36539063 98.40435547 -52.125 98.3984375 C-53.17945313 98.39505371 -54.23390625 98.39166992 -55.3203125 98.38818359 C-58.42504204 97.93842777 -59.09346 97.40782022 -61 95 C-61.2963207 92.0478549 -61.40965034 89.30668807 -61.38818359 86.35351562 C-61.39344055 85.4703215 -61.39869751 84.58712738 -61.40411377 83.6771698 C-61.41733389 80.75335077 -61.40856856 77.83007472 -61.3984375 74.90625 C-61.40045766 72.87748103 -61.4033686 70.84871277 -61.40713501 68.81994629 C-61.41156109 64.5662546 -61.40511811 60.31275179 -61.39111328 56.05908203 C-61.37402131 50.60114763 -61.38386096 45.14365577 -61.40183067 39.68573761 C-61.41266079 35.49591729 -61.4092257 31.30620224 -61.4014473 27.11637878 C-61.39944316 25.10369311 -61.40191204 23.09099795 -61.40888596 21.07832336 C-61.41648769 18.26745209 -61.40491417 15.45730182 -61.38818359 12.64648438 C-61.39425629 11.81106613 -61.40032898 10.97564789 -61.40658569 10.11491394 C-61.34376871 4.43076179 -61.34376871 4.43076179 -59.63219643 2.28606415 C-57.28137516 0.43377058 -55.5254158 0.62761949 -52.5625 0.63671875 C-50.97308594 0.63768555 -50.97308594 0.63768555 -49.3515625 0.63867188 C-47.69253906 0.6628418 -47.69253906 0.6628418 -46 0.6875 C-44.34097656 0.68266602 -44.34097656 0.68266602 -42.6484375 0.67773438 C-34.40061924 0.73292051 -34.40061924 0.73292051 -31 3 C-30.48828125 5.6015625 -30.48828125 5.6015625 -30.3125 8.625 C-30.21388672 10.12933594 -30.21388672 10.12933594 -30.11328125 11.6640625 C-30.07589844 12.43492187 -30.03851563 13.20578125 -30 14 C-29.32904297 13.20335937 -29.32904297 13.20335937 -28.64453125 12.390625 C-20.17906354 2.49920431 -13.3328791 -1.35723919 0 0 Z " fill="#489E58" transform="translate(294,493)"/>
<path d="M0 0 C2.8557658 4.01855652 2.31757628 7.86810471 2.1640625 12.66796875 C2.14956055 14.03405273 2.14956055 14.03405273 2.13476562 15.42773438 C2.02176339 22.09486607 2.02176339 22.09486607 0.8515625 25.60546875 C-1.85183747 26.95716874 -4.39923349 27.05162762 -7.3984375 27.41796875 C-13.67415445 28.38452582 -17.56947626 29.48390428 -21.7265625 34.515625 C-27.82126885 42.90324272 -29.58733888 51.69839681 -29.625 61.91796875 C-29.64057953 62.85350586 -29.65615906 63.78904297 -29.67221069 64.75292969 C-29.71925851 67.70376903 -29.7473601 70.65437629 -29.7734375 73.60546875 C-29.80996625 76.58496468 -29.85051499 79.56432989 -29.89608765 82.54370117 C-29.92326323 84.38883744 -29.94463662 86.23407019 -29.95962524 88.0793457 C-29.97501846 89.32204224 -29.97501846 89.32204224 -29.99072266 90.58984375 C-29.99721832 91.31913086 -30.00371399 92.04841797 -30.01040649 92.79980469 C-30.1484375 94.60546875 -30.1484375 94.60546875 -31.1484375 96.60546875 C-35.2601631 96.63012621 -39.37186028 96.64830834 -43.48364258 96.66040039 C-44.88338978 96.66543955 -46.2831317 96.67227091 -47.68286133 96.6809082 C-49.69089527 96.69299195 -51.69896707 96.69816682 -53.70703125 96.703125 C-54.91673584 96.70836182 -56.12644043 96.71359863 -57.37280273 96.71899414 C-60.1484375 96.60546875 -60.1484375 96.60546875 -61.1484375 95.60546875 C-61.2543321 92.7247804 -61.29521447 89.86793847 -61.29370117 86.98657227 C-61.29705978 86.08255676 -61.3004184 85.17854126 -61.30387878 84.24713135 C-61.31341922 81.24286546 -61.31533343 78.23865512 -61.31640625 75.234375 C-61.31961664 73.15551225 -61.32298055 71.07664974 -61.32649231 68.99778748 C-61.3324913 64.63385494 -61.33433142 60.26994223 -61.33374023 55.90600586 C-61.33363856 50.30228577 -61.34729289 44.69869224 -61.36451244 39.09500217 C-61.37560743 34.79973258 -61.37766022 30.50449382 -61.37713051 26.20921135 C-61.37831433 24.1426646 -61.38275844 22.07611715 -61.39046288 20.00958443 C-61.4002126 17.12421826 -61.3974047 14.23912999 -61.39135742 11.35375977 C-61.39697693 10.49290268 -61.40259644 9.63204559 -61.40838623 8.74510193 C-61.37675277 2.83378402 -61.37675277 2.83378402 -59.1484375 0.60546875 C-56.56640625 0.34667969 -56.56640625 0.34667969 -53.3359375 0.33984375 C-52.17835938 0.33726562 -51.02078125 0.3346875 -49.828125 0.33203125 C-48.61382813 0.33976562 -47.39953125 0.3475 -46.1484375 0.35546875 C-44.93414063 0.34773438 -43.71984375 0.34 -42.46875 0.33203125 C-40.73238281 0.33589844 -40.73238281 0.33589844 -38.9609375 0.33984375 C-37.89488281 0.34209961 -36.82882812 0.34435547 -35.73046875 0.34667969 C-33.1484375 0.60546875 -33.1484375 0.60546875 -31.1484375 2.60546875 C-30.734375 4.98828125 -30.734375 4.98828125 -30.5234375 7.73046875 C-30.44867187 8.64054687 -30.37390625 9.550625 -30.296875 10.48828125 C-30.24789062 11.18695313 -30.19890625 11.885625 -30.1484375 12.60546875 C-29.71273437 12.074375 -29.27703125 11.54328125 -28.828125 10.99609375 C-22.68708558 3.71191712 -10.11576337 -6.56605004 0 0 Z " fill="#EE463E" transform="translate(856.1484375,492.39453125)"/>
<path d="M0 0 C1.20140625 -0.01611328 2.4028125 -0.03222656 3.640625 -0.04882812 C4.79046875 -0.04947266 5.9403125 -0.05011719 7.125 -0.05078125 C8.17945313 -0.05376221 9.23390625 -0.05674316 10.3203125 -0.05981445 C13.43349286 0.37272928 14.09361779 0.89681501 16 3.3125 C16.29639226 6.32443227 16.40960588 9.12954887 16.38818359 12.14257812 C16.39344055 13.04527939 16.39869751 13.94798065 16.40411377 14.8780365 C16.41733515 17.86678284 16.40856807 20.85499809 16.3984375 23.84375 C16.40045762 25.91735944 16.40336854 27.99096819 16.40713501 30.0645752 C16.41156126 34.41242226 16.40511754 38.76008455 16.39111328 43.10791016 C16.37402132 48.68690956 16.38386088 54.26547602 16.40183067 59.84445953 C16.41266032 64.1269254 16.40922592 68.40928827 16.4014473 72.6917572 C16.39944302 74.74910025 16.40191249 76.80645259 16.40888596 78.86378479 C16.41648689 81.73691657 16.40491522 84.60934278 16.38818359 87.48242188 C16.39729263 88.76360146 16.39729263 88.76360146 16.40658569 90.07066345 C16.34382416 95.87464861 16.34382416 95.87464861 14.65040016 98.03118134 C12.13663797 99.98278707 10.01065385 99.68426841 6.87109375 99.67578125 C5.67162109 99.67513672 4.47214844 99.67449219 3.23632812 99.67382812 C1.98271484 99.65771484 0.72910156 99.64160156 -0.5625 99.625 C-2.4487207 99.62983398 -2.4487207 99.62983398 -4.37304688 99.63476562 C-13.73311942 99.57938058 -13.73311942 99.57938058 -16 97.3125 C-16.204152 94.31038424 -16.28313361 91.40013923 -16.2746582 88.39648438 C-16.27976913 87.4728157 -16.28488007 86.54914703 -16.29014587 85.5974884 C-16.30408578 82.533677 -16.30308196 79.47008941 -16.30078125 76.40625 C-16.30466546 74.28397538 -16.30899955 72.16170153 -16.31376648 70.03942871 C-16.32123794 65.58729535 -16.32093049 61.13524127 -16.31567383 56.68310547 C-16.30987474 50.96611934 -16.32681645 45.24945671 -16.3500185 39.53252411 C-16.36471954 35.148886 -16.36563256 30.76532648 -16.36250877 26.38166809 C-16.36302371 24.27325296 -16.36829351 22.16483361 -16.37832069 20.05644226 C-16.39059904 17.11358341 -16.38394563 14.17136355 -16.37231445 11.22851562 C-16.37995819 10.35052811 -16.38760193 9.47254059 -16.39547729 8.56794739 C-16.3742218 6.14611816 -16.3742218 6.14611816 -16 2.3125 C-11.12873683 -0.93500878 -5.72409973 -0.01535434 0 0 Z " fill="#EE463E" transform="translate(570,494.6875)"/>
<path d="M0 0 C5.86950246 0 9.29952294 2.05885283 13.78125 5.7578125 C18.29251222 10.3167289 21.96792229 15.90376688 24 22 C24.66386719 21.79503906 25.32773437 21.59007812 26.01171875 21.37890625 C26.89472656 21.10949219 27.77773438 20.84007812 28.6875 20.5625 C29.55761719 20.29566406 30.42773438 20.02882813 31.32421875 19.75390625 C42.7052911 16.54726835 54.33923734 16.85876241 64.83984375 22.53515625 C67.26398254 23.97331993 69.64502936 25.45173207 72 27 C72.14408908 33.62809767 69.08067874 36.95112511 64.609375 41.62890625 C56.02267846 49.43148829 46.40366528 52.86244365 34.875 53.1875 C29.93363582 52.94840173 27.32075169 52.03083058 23.4375 49 C19.91791996 46.95224434 18.02319864 46.63690596 14.0625 46.1875 C8.68421216 45.42107732 5.92551277 44.12456247 2.3984375 40.00390625 C-4.14679546 30.62484338 -4.89142043 21.17246936 -4 10 C-2.39408867 2.39408867 -2.39408867 2.39408867 0 0 Z " fill="#B1D082" transform="translate(330,469)"/>
<path d="M0 0 C1.20140625 -0.01611328 2.4028125 -0.03222656 3.640625 -0.04882812 C4.79046875 -0.04947266 5.9403125 -0.05011719 7.125 -0.05078125 C8.17945313 -0.05376221 9.23390625 -0.05674316 10.3203125 -0.05981445 C13 0.3125 13 0.3125 14.84448242 1.55004883 C16.31908636 3.79918592 16.37322805 5.19527906 16.36328125 7.875 C16.36263672 8.75414062 16.36199219 9.63328125 16.36132812 10.5390625 C16.34521484 11.45429688 16.32910156 12.36953125 16.3125 13.3125 C16.31572266 14.22773438 16.31894531 15.14296875 16.32226562 16.0859375 C16.26721939 22.91167092 16.26721939 22.91167092 14 26.3125 C11.234375 26.68481445 11.234375 26.68481445 7.75 26.67578125 C6.5021875 26.67513672 5.254375 26.67449219 3.96875 26.67382812 C2.00421875 26.6496582 2.00421875 26.6496582 0 26.625 C-1.3096875 26.62822266 -2.619375 26.63144531 -3.96875 26.63476562 C-13.73321429 26.57928571 -13.73321429 26.57928571 -16 24.3125 C-16.4523235 20.66496333 -16.32406287 16.98486739 -16.3125 13.3125 C-16.32861328 12.28898437 -16.34472656 11.26546875 -16.36132812 10.2109375 C-16.36197266 9.23382813 -16.36261719 8.25671875 -16.36328125 7.25 C-16.36626221 6.35152344 -16.36924316 5.45304687 -16.37231445 4.52734375 C-16.24945068 3.79644531 -16.12658691 3.06554687 -16 2.3125 C-11.12873683 -0.93500878 -5.72409973 -0.01535434 0 0 Z " fill="#EE463E" transform="translate(570,455.6875)"/>
</svg>
