<?xml version="1.0" encoding="UTF-8"?>
<svg version="1.1" xmlns="http://www.w3.org/2000/svg" width="1081" height="1081">
<path d="M0 0 C356.73 0 713.46 0 1081 0 C1081 356.73 1081 713.46 1081 1081 C724.27 1081 367.54 1081 0 1081 C0 724.27 0 367.54 0 0 Z " fill="#105B3B" transform="translate(0,0)"/>
<path d="M0 0 C0.99120346 -0.00953201 1.98240692 -0.01906403 3.00364685 -0.02888489 C4.07760208 -0.02797348 5.15155731 -0.02706207 6.25805664 -0.02612305 C7.35791397 -0.03040817 8.4577713 -0.0346933 9.59095764 -0.03910828 C11.92033194 -0.04485926 14.24972419 -0.04534622 16.57910156 -0.04101562 C20.15013174 -0.03785779 23.72033225 -0.06129877 27.29125977 -0.08666992 C29.55102434 -0.08894297 31.81079115 -0.08964638 34.07055664 -0.08862305 C35.14248764 -0.09783279 36.21441864 -0.10704254 37.3188324 -0.11653137 C38.31318802 -0.11030258 39.30754364 -0.10407379 40.33203125 -0.09765625 C41.20758163 -0.09828568 42.08313202 -0.0989151 42.98521423 -0.0995636 C45.7038137 0.35350244 46.55831669 1.12875842 48.23071289 3.2746582 C49.02685547 5.17797852 49.02685547 5.17797852 49.62524414 7.3527832 C49.85550293 8.17262695 50.08576172 8.9924707 50.32299805 9.8371582 C50.56066895 10.7240332 50.79833984 11.6109082 51.04321289 12.5246582 C51.29893066 13.44762695 51.55464844 14.3705957 51.81811523 15.3215332 C53.98391224 23.19619648 56.04563647 31.10066219 58.05029297 39.01782227 C59.27331175 43.80577378 60.60278841 48.53313787 62.08618164 53.24731445 C64.55152734 61.15443128 66.65347838 69.15011567 68.75 77.16113281 C69.42374237 79.73326801 70.10334012 82.30380885 70.78344727 84.87426758 C71.21803976 86.52717099 71.65229681 88.18016264 72.08618164 89.83325195 C72.38772408 90.97243324 72.38772408 90.97243324 72.69535828 92.1346283 C73.7454634 96.1639241 74.62009025 100.14939103 75.23071289 104.2746582 C76.67651372 100.87033946 77.70787037 97.58992003 78.49243164 93.9777832 C78.72051514 92.94967529 78.94859863 91.92156738 79.18359375 90.86230469 C79.42601807 89.76088135 79.66844238 88.65945801 79.91821289 87.5246582 C82.66102251 75.36019121 85.88584094 63.38593205 89.33520508 51.40551758 C90.55020085 47.15766977 91.7294268 42.90018885 92.90966797 38.64257812 C94.3340355 33.51540604 95.78089143 28.3946805 97.23071289 23.2746582 C97.50834473 22.28836426 97.78597656 21.30207031 98.07202148 20.28588867 C98.86396474 17.4871902 99.66987751 14.69293363 100.48071289 11.8996582 C100.7147583 11.06716553 100.94880371 10.23467285 101.18994141 9.37695312 C101.41480225 8.61358643 101.63966309 7.85021973 101.87133789 7.0637207 C102.15799316 6.06912842 102.15799316 6.06912842 102.45043945 5.05444336 C103.4150093 2.85428249 104.3532088 1.78319189 106.23071289 0.2746582 C108.47621155 -0.0995636 108.47621155 -0.0995636 111.12939453 -0.09765625 C112.12375015 -0.10388504 113.11810577 -0.11011383 114.14259338 -0.11653137 C115.21452438 -0.10732162 116.28645538 -0.09811188 117.39086914 -0.08862305 C118.4916832 -0.08912155 119.59249725 -0.08962006 120.72666931 -0.09013367 C123.05428879 -0.08779236 125.38191075 -0.07806057 127.70947266 -0.06152344 C131.28253681 -0.03791235 134.8548561 -0.04096456 138.42797852 -0.04760742 C140.68644653 -0.0420315 142.94491139 -0.03492217 145.20336914 -0.02612305 C146.81430199 -0.02749016 146.81430199 -0.02749016 148.45777893 -0.02888489 C149.94458412 -0.01458687 149.94458412 -0.01458687 151.46142578 0 C152.33618057 0.00460739 153.21093536 0.00921478 154.11219788 0.01396179 C156.23071289 0.2746582 156.23071289 0.2746582 158.23071289 2.2746582 C158.48239517 4.95147705 158.48239517 4.95147705 158.48468018 8.42407227 C158.49313965 10.39277283 158.49313965 10.39277283 158.50177002 12.40124512 C158.49788104 13.86425836 158.49378468 15.32727106 158.48950195 16.7902832 C158.49221069 18.32426113 158.49577095 19.85823776 158.50012207 21.39221191 C158.50926237 25.56568065 158.5056951 29.73905083 158.4993639 33.91252136 C158.49431237 38.27314527 158.49899298 42.63376054 158.50213623 46.99438477 C158.50577836 54.31829346 158.50097033 61.64216187 158.49145508 68.96606445 C158.48057005 77.44235081 158.48409545 85.91854096 158.49510789 94.39482498 C158.50417376 101.66278534 158.50546948 108.93071669 158.50023055 116.19868088 C158.49710699 120.54372485 158.49671206 124.88872356 158.50330353 129.23376465 C158.50906622 133.31802388 158.50509997 137.40215868 158.49351501 141.48640442 C158.49086264 142.98846734 158.49164332 144.49054066 158.49604034 145.99259949 C158.50147427 148.03681066 158.49346407 150.08104462 158.48468018 152.12524414 C158.4835491 153.84417877 158.4835491 153.84417877 158.48239517 155.59783936 C158.23071289 158.2746582 158.23071289 158.2746582 156.23071289 160.2746582 C153.09790039 160.53344727 153.09790039 160.53344727 149.10571289 160.5402832 C148.4030127 160.54219666 147.7003125 160.54411011 146.97631836 160.54608154 C145.49014935 160.54744296 144.00396844 160.54374953 142.51782227 160.53540039 C140.23955643 160.52469974 137.96207912 160.5352966 135.68383789 160.5480957 C134.24112781 160.5467741 132.79841823 160.54421169 131.35571289 160.5402832 C130.03829102 160.53802734 128.72086914 160.53577148 127.36352539 160.53344727 C124.23071289 160.2746582 124.23071289 160.2746582 122.23071289 158.2746582 C121.96899986 156.404356 121.96899986 156.404356 121.95223999 154.08590698 C121.94107651 153.20808563 121.92991302 152.33026428 121.91841125 151.42584229 C121.91625107 150.46055603 121.91409088 149.49526978 121.91186523 148.50073242 C121.8967968 146.97873734 121.8967968 146.97873734 121.88142395 145.42599487 C121.85044675 142.0604511 121.83351647 138.69498739 121.81665039 135.3293457 C121.79795044 133.00049137 121.77837792 130.6716439 121.75796509 128.34280396 C121.70651402 122.20420362 121.66695784 116.06558129 121.62982178 109.92687988 C121.5898633 103.66644796 121.53873386 97.40610858 121.48852539 91.14575195 C121.39161254 78.85545225 121.30725708 66.56510045 121.23071289 54.2746582 C121.0946312 54.88906265 120.9585495 55.5034671 120.81834412 56.13648987 C120.1872247 58.97631902 119.55079292 61.81493356 118.91430664 64.65356445 C118.70044312 65.61959595 118.48657959 66.58562744 118.26623535 67.58093262 C116.84999434 73.87548379 115.20521695 80.05062907 113.29321289 86.2121582 C113.0276207 87.07066376 112.7620285 87.92916931 112.48838806 88.81369019 C112.24866776 89.58842682 112.00894745 90.36316345 111.76196289 91.16137695 C110.10940832 96.5751709 108.69272185 102.04088695 107.29321289 107.5246582 C104.44883041 118.6404409 101.25887235 129.63910444 98.00170898 140.63989258 C97.30561426 143.01869379 96.63006444 145.40155087 95.96899414 147.7902832 C95.62223633 149.04325195 95.27547852 150.2962207 94.91821289 151.5871582 C94.63333008 152.63516602 94.34844727 153.68317383 94.05493164 154.76293945 C93.23071289 157.2746582 93.23071289 157.2746582 91.23071289 160.2746582 C88.20556641 160.67871094 88.20556641 160.67871094 84.35961914 160.70825195 C83.68148666 160.7134938 83.00335419 160.71873566 82.30467224 160.72413635 C80.86979543 160.73056199 79.43486597 160.72921246 78 160.72070312 C75.80446409 160.71220177 73.61153771 160.74092516 71.41625977 160.77270508 C70.02238034 160.77431743 68.6284963 160.77373891 67.23461914 160.77075195 C65.96432861 160.77260498 64.69403809 160.77445801 63.38525391 160.77636719 C60.23071289 160.2746582 60.23071289 160.2746582 58.36425781 158.46142578 C56.71839616 155.28632719 55.85713236 151.97041645 54.98071289 148.5246582 C54.5515577 146.90698294 54.12046255 145.28982147 53.68774414 143.6730957 C53.45651855 142.80523438 53.22529297 141.93737305 52.98706055 141.04321289 C51.62467251 136.05629217 50.13591546 131.10637986 48.66821289 126.1496582 C46.32196671 118.17592118 44.1483724 110.19452801 42.18774414 102.1184082 C41.12681258 97.85736064 39.97519183 93.62839529 38.79321289 89.3996582 C38.58510986 88.65401611 38.37700684 87.90837402 38.16259766 87.14013672 C37.07714361 83.26363437 35.97872183 79.39104297 34.87133789 75.52075195 C34.64889404 74.73619629 34.4264502 73.95164062 34.19726562 73.14331055 C33.77933612 71.66971513 33.35736998 70.19725467 32.93017578 68.72631836 C31.78549245 64.67868759 30.89862696 60.64359979 30.16113281 56.50097656 C29.98555344 55.51955185 29.80997406 54.53812714 29.6290741 53.52696228 C29.4976149 52.78370193 29.3661557 52.04044159 29.23071289 51.2746582 C29.23737473 52.58122375 29.24403656 53.88778931 29.25090027 55.23394775 C29.31166391 67.53537315 29.35666275 79.83676817 29.38614941 92.13830948 C29.40181829 98.4629567 29.42307912 104.78748295 29.45703125 111.11206055 C29.48958071 117.21339866 29.50755669 123.31462029 29.51534462 129.41603851 C29.52089604 131.7460997 29.53173632 134.07615437 29.54790306 136.40616608 C29.56961831 139.66488014 29.57268224 142.92311022 29.57128906 146.18188477 C29.58207489 147.14933121 29.59286072 148.11677765 29.60397339 149.11354065 C29.5977874 150.4470179 29.5977874 150.4470179 29.59147644 151.80743408 C29.59424182 152.57805302 29.5970072 153.34867195 29.59985638 154.14264297 C29.12361056 156.89323556 28.14836847 158.26820404 26.23071289 160.2746582 C23.07617188 160.77636719 23.07617188 160.77636719 19.22680664 160.77075195 C18.54771744 160.77220718 17.86862823 160.77366241 17.16896057 160.77516174 C15.73580629 160.77350397 14.302634 160.76195582 12.86962891 160.74121094 C10.67216753 160.71221039 8.47711206 160.7206101 6.27954102 160.73364258 C4.88695114 160.72740631 3.49436888 160.71901623 2.10180664 160.70825195 C0.83264404 160.69850342 -0.43651855 160.68875488 -1.74414062 160.67871094 C-3.24158813 160.47870483 -3.24158813 160.47870483 -4.76928711 160.2746582 C-7.13361899 156.72816038 -7.02046773 155.24728499 -7.02325439 151.04295349 C-7.03171387 149.08481216 -7.03171387 149.08481216 -7.04034424 147.08711243 C-7.03645551 145.63717596 -7.03235916 144.18724004 -7.02807617 142.73730469 C-7.03078568 141.21303134 -7.03434639 139.6887593 -7.03869629 138.16448975 C-7.0478266 134.02207068 -7.04427361 129.87975104 -7.03793812 125.7373302 C-7.03288236 121.40740865 -7.0375683 117.07749573 -7.04071045 112.74757385 C-7.04435094 105.47671984 -7.0395484 98.20590644 -7.0300293 90.93505859 C-7.01914049 82.5206672 -7.02267307 74.10637269 -7.03368211 65.69198364 C-7.04274774 58.47495805 -7.04404394 51.25796168 -7.03880477 44.04093224 C-7.0356816 39.72720218 -7.0352853 35.41351772 -7.04187775 31.09979057 C-7.04764022 27.04588645 -7.04367461 22.9921077 -7.03208923 18.93821716 C-7.02943691 17.44744132 -7.03021744 15.95665498 -7.03461456 14.46588326 C-7.0400486 12.43705234 -7.03203818 10.40819845 -7.02325439 8.37937927 C-7.02250034 7.24209601 -7.02174629 6.10481276 -7.02096939 4.93306637 C-6.56610043 0.12848759 -4.24519077 0.0223597 0 0 Z " fill="#F2EEE8" transform="translate(153.769287109375,491.725341796875)"/>
<path d="M0 0 C5.42117433 2.85843737 9.88455756 6.48628894 14 11 C14.185625 9.081875 14.185625 9.081875 14.375 7.125 C14.75 3.25 14.75 3.25 17 1 C19.94921875 0.74121094 19.94921875 0.74121094 23.6875 0.734375 C24.34580811 0.73246155 25.00411621 0.7305481 25.68237305 0.72857666 C27.0743854 0.7272155 28.46641047 0.73090717 29.85839844 0.73925781 C31.99182589 0.749959 34.12441131 0.73936094 36.2578125 0.7265625 C37.60937686 0.72788411 38.9609407 0.73044653 40.3125 0.734375 C42.16294922 0.73775879 42.16294922 0.73775879 44.05078125 0.74121094 C47 1 47 1 49 3 C49.25168228 4.8920145 49.25168228 4.8920145 49.25396729 7.24208069 C49.25960693 8.13213806 49.26524658 9.02219543 49.27105713 9.93922424 C49.26700867 10.91842331 49.26296021 11.89762238 49.25878906 12.90649414 C49.2622937 13.93596161 49.26579834 14.96542908 49.26940918 16.02609253 C49.27824514 19.44584812 49.27236771 22.86539837 49.265625 26.28515625 C49.26697184 28.65970398 49.26891252 31.03425144 49.27142334 33.40879822 C49.27437772 38.39650079 49.27006953 43.38413189 49.26074219 48.37182617 C49.24939084 54.75168893 49.25587772 61.13138261 49.26788712 67.51123905 C49.27513428 72.42100789 49.27280392 77.33073706 49.26763153 82.24050713 C49.26630068 84.59153704 49.26792292 86.94257061 49.27259064 89.29359627 C49.27769788 92.59174156 49.26988474 95.88961869 49.25878906 99.18774414 C49.26283752 100.15277359 49.26688599 101.11780304 49.27105713 102.11207581 C49.22303707 109.85874056 48.04572147 116.98224911 45.125 124.1875 C44.66480469 125.35345703 44.66480469 125.35345703 44.1953125 126.54296875 C42.72727059 129.56061045 40.90692695 132.24333363 39 135 C37.9378125 134.45730469 36.875625 133.91460938 35.78125 133.35546875 C34.35427716 132.63259435 32.92718754 131.90995043 31.5 131.1875 C30.80390625 130.83107422 30.1078125 130.47464844 29.390625 130.10742188 C22.44725394 126.60359111 15.79127502 123.81159115 8 123 C9.09702506 120.21524407 10.23307525 117.529188 11.5625 114.84375 C13.33629402 110.71502602 13.34573816 106.99722597 13.1875 102.5625 C13.17396484 101.83095703 13.16042969 101.09941406 13.14648438 100.34570312 C13.11153874 98.56347578 13.05774805 96.78163427 13 95 C12.05125 95.886875 11.1025 96.77375 10.125 97.6875 C-0.08073921 106.44120314 -10.96697423 107.9216582 -24 107 C-35.69571873 104.57493984 -46.56844768 98.42049474 -54 89 C-64.15061772 73.44794915 -66.37457844 56.0551452 -63.67480469 37.80126953 C-62.87050781 34.01168094 -61.56756642 30.53218091 -60 27 C-59.649375 26.12730469 -59.29875 25.25460937 -58.9375 24.35546875 C-53.8949684 12.95724628 -45.04237049 4.54986415 -33.47265625 0.0078125 C-31.32707794 -0.72244916 -29.17957291 -1.3804486 -27 -2 C-18.40718119 -4.86427294 -8.31927226 -3.07950962 0 0 Z " fill="#F2EDE7" transform="translate(538,406)"/>
<path d="M0 0 C11.36898309 9.61461656 17.3279544 20.7177724 21 35 C21.22558594 35.79148437 21.45117188 36.58296875 21.68359375 37.3984375 C23.27334423 43.4723807 23.63778137 49.75349423 23 56 C22.34 56.99 21.68 57.98 21 59 C18.39712638 59.2864952 16.03294626 59.37848245 13.42919922 59.34057617 C12.64862152 59.34101425 11.86804382 59.34145233 11.06381226 59.34190369 C8.47718511 59.33980941 5.89120176 59.31644883 3.3046875 59.29296875 C1.51392979 59.28737506 -0.2768325 59.28310389 -2.06759644 59.28010559 C-6.78595608 59.26863895 -11.50403964 59.23915625 -16.22229004 59.20599365 C-21.03487411 59.17533187 -25.8475027 59.1616086 -30.66015625 59.14648438 C-40.10689228 59.11428819 -49.5534232 59.06306998 -59 59 C-58.6913501 60.26996826 -58.3827002 61.53993652 -58.06469727 62.84838867 C-57.8910817 63.56274582 -57.71746613 64.27710297 -57.53858948 65.0131073 C-56.92294787 67.28425048 -56.06184067 69.24764622 -54.9375 71.3125 C-53.7176991 73.58178998 -52.82298923 75.5310323 -52 78 C-50.35369807 79.11935073 -50.35369807 79.11935073 -48 80 C-46.88625 80.53625 -45.7725 81.0725 -44.625 81.625 C-38.18678168 83.98044573 -30.29054485 84.30038774 -23.71875 82.30859375 C-20.5296948 80.63713719 -19.00461654 79.0080942 -17.2265625 75.890625 C-15.21424809 73.43401384 -14.12689774 73.02285477 -10.94458008 72.44970703 C-7.77050577 72.2958306 -4.62912344 72.2475478 -1.45239258 72.32763672 C0.56135412 72.37497306 2.56982002 72.36873761 4.58398438 72.35546875 C14.3016012 72.46371562 14.3016012 72.46371562 17.41381836 74.85351562 C19 77 19 77 18.9375 79.9453125 C15.62805001 90.7286037 6.08342772 98.82876769 -3.375 104.3125 C-19.44214954 112.59360788 -39.17133372 113.34456889 -56.34375 108.25390625 C-71.05420151 103.20897576 -82.2180735 92.9982174 -89.625 79.4375 C-97.2938407 63.15672493 -98.55421406 45.15329714 -93 28 C-86.45812635 12.14398583 -77.08662952 0.69676776 -61.4375 -6.9375 C-41.9534158 -14.95222967 -16.91017195 -13.06303606 0 0 Z " fill="#F2EDE7" transform="translate(573,545)"/>
<path d="M0 0 C1.6696582 -0.00833862 1.6696582 -0.00833862 3.37304688 -0.0168457 C17.57018224 0.10726255 30.16696551 3.42103014 40.75 13.3125 C45.4262728 18.25698795 47.13623879 23.80293622 48.75 30.3125 C48.92367096 30.87531174 49.09734192 31.43812347 49.27627563 32.01799011 C49.92364289 35.15354884 49.89129831 38.15499356 49.90771484 41.35668945 C49.91279556 42.05804016 49.91787628 42.75939087 49.92311096 43.48199463 C49.93379036 45.00157242 49.94242002 46.5211657 49.94923019 48.04076576 C49.9610566 50.45004504 49.98051935 52.85914807 50.00234985 55.26835632 C50.06383711 62.11723934 50.11795939 68.96610335 50.15136719 75.81518555 C50.17236903 80.00856899 50.20771529 84.20162891 50.25212479 88.39482689 C50.26624024 89.98829517 50.27499712 91.58182066 50.27817917 93.17534828 C50.28311493 95.41061645 50.30633947 97.64503327 50.33349609 99.88012695 C50.34158295 101.14935501 50.3496698 102.41858307 50.35800171 103.72627258 C50.80993974 107.86086351 51.9441376 110.5935242 53.75 114.3125 C51.14600193 116.91649807 44.14373716 115.58689047 40.61401367 115.60766602 C38.58767593 115.62478728 36.5630097 115.66863972 34.53710938 115.71289062 C32.6102832 115.72545898 32.6102832 115.72545898 30.64453125 115.73828125 C29.46737549 115.75286377 28.29021973 115.76744629 27.07739258 115.7824707 C23.05946338 115.21496658 20.90742527 113.80995611 17.75 111.3125 C16.26451773 109.01420668 15.65626939 106.93061157 14.75 104.3125 C14.13125 105.01375 13.5125 105.715 12.875 106.4375 C4.11124668 115.22629261 -6.89884403 118.51329654 -19 118.5625 C-30.33504937 118.54438876 -40.75245057 115.67061704 -49.0703125 107.53125 C-55.56764401 99.56467267 -57.93913182 90.5464965 -57.56640625 80.38671875 C-56.65393929 71.52114471 -53.06577403 64.59318802 -46.38671875 58.65625 C-34.82914417 50.12410454 -20.63371237 48.48928744 -6.79345703 46.74365234 C3.83517264 45.62627581 3.83517264 45.62627581 12.75 40.3125 C13.32048096 37.25592305 13.27863352 34.37328806 12.75 31.3125 C10.22031526 28.03074682 8.67268669 26.62006223 4.75 25.3125 C2.6283532 25.16695167 0.50143294 25.09169588 -1.625 25.0625 C-2.74648438 25.03671875 -3.86796875 25.0109375 -5.0234375 24.984375 C-8.56200927 25.34422976 -10.33549348 26.35576418 -13.25 28.3125 C-13.91 28.3125 -14.57 28.3125 -15.25 28.3125 C-15.4975 29.034375 -15.745 29.75625 -16 30.5 C-17.41479452 33.68328766 -18.82118295 35.80661869 -21.25 38.3125 C-24.02734375 38.95947266 -24.02734375 38.95947266 -27.1875 38.9765625 C-28.32960938 38.98300781 -29.47171875 38.98945313 -30.6484375 38.99609375 C-31.83695312 38.97675781 -33.02546875 38.95742188 -34.25 38.9375 C-35.43851562 38.95683594 -36.62703125 38.97617187 -37.8515625 38.99609375 C-39.56472656 38.98642578 -39.56472656 38.98642578 -41.3125 38.9765625 C-42.35535156 38.97092285 -43.39820313 38.9652832 -44.47265625 38.95947266 C-47.25 38.3125 -47.25 38.3125 -49.6171875 35.97412109 C-51.25 33.3125 -51.25 33.3125 -51.3125 30.0625 C-48.51731452 20.19713948 -42.43050513 12.44654835 -33.90234375 6.7421875 C-23.00243606 0.82256284 -12.15807967 0.05176179 0 0 Z " fill="#F1EDE7" transform="translate(419.25,403.6875)"/>
<path d="M0 0 C1.1859375 -0.01224609 2.371875 -0.02449219 3.59375 -0.03710938 C17.23843994 -0.05969992 29.70610593 2.26663141 40.40625 11.33203125 C47.83356038 19.24433392 51.01645389 27.80768816 51.03271484 38.52294922 C51.03779556 39.25516693 51.04287628 39.98738464 51.04811096 40.74179077 C51.05879233 42.32848805 51.06742123 43.91520018 51.07423019 45.50191879 C51.08604915 48.01593565 51.10550929 50.52978304 51.12734985 53.04373169 C51.18886764 60.19039249 51.2429978 67.33703457 51.27636719 74.48388672 C51.29734191 78.85880722 51.33266519 83.23341602 51.37712479 87.60815811 C51.3912601 89.27223156 51.40000164 90.93636012 51.40317917 92.60049057 C51.40810214 94.93174498 51.43129397 97.26217549 51.45849609 99.59326172 C51.45548996 100.27606201 51.45248383 100.9588623 51.4493866 101.66235352 C51.52825897 106.22663994 52.67421932 109.23025037 54.875 113.1875 C54.875 113.8475 54.875 114.5075 54.875 115.1875 C50.31255363 115.24563173 45.75020276 115.28114122 41.1875 115.3125 C39.89392578 115.32925781 38.60035156 115.34601563 37.26757812 115.36328125 C36.02041016 115.36972656 34.77324219 115.37617187 33.48828125 115.3828125 C31.76798706 115.39852295 31.76798706 115.39852295 30.01293945 115.41455078 C26.18047629 115.13724659 23.22677861 114.35570374 20.29296875 111.8203125 C17.64223012 108.57210579 16.875 107.51482989 16.875 103.1875 C16.215 103.1875 15.555 103.1875 14.875 103.1875 C14.60558594 103.785625 14.33617187 104.38375 14.05859375 105 C10.05746098 112.39483284 2.47059916 114.82899389 -5.125 117.1875 C-6.115 117.5175 -7.105 117.8475 -8.125 118.1875 C-22.25386172 119.07145955 -34.61726966 118.20505627 -45.89453125 108.6953125 C-51.93539382 103.17587175 -54.9584339 97.9682449 -55.50390625 89.73828125 C-55.92217412 78.5648708 -55.32134 69.45630826 -47.5 60.875 C-38.09145455 52.2808222 -26.65499994 50.28912596 -14.49609375 48.22265625 C-13.48957764 48.0512915 -12.48306152 47.87992676 -11.44604492 47.70336914 C-9.44374448 47.36702596 -7.4400269 47.03898189 -5.43481445 46.72045898 C4.95186337 45.25279821 4.95186337 45.25279821 13.9375 40.375 C15.2235034 37.37432539 15.33753806 35.42526639 14.875 32.1875 C12.41016667 28.17073457 10.29379534 26.62028012 5.875 25.1875 C0.5349506 24.56182664 -5.14084128 24.24289589 -10.0625 26.6875 C-13.335003 29.35893102 -15.0863756 31.8092797 -17.08203125 35.48046875 C-18.125 37.1875 -18.125 37.1875 -20.125 38.1875 C-24.43215501 38.45795213 -28.74781565 38.4191103 -33.0625 38.4375 C-34.26841797 38.458125 -35.47433594 38.47875 -36.71679688 38.5 C-37.87115234 38.50515625 -39.02550781 38.5103125 -40.21484375 38.515625 C-41.27566162 38.5249707 -42.33647949 38.53431641 -43.42944336 38.54394531 C-46.125 38.1875 -46.125 38.1875 -47.97094727 36.86621094 C-49.94453257 33.99538958 -49.45843195 31.57739153 -49.125 28.1875 C-46.81765773 18.80430809 -40.24329999 11.87064258 -32.1875 6.75 C-27.37477973 4.09211704 -22.44906923 2.48582565 -17.125 1.1875 C-16.54169922 1.01476562 -15.95839844 0.84203125 -15.35742188 0.6640625 C-10.35791959 -0.40319783 -5.09019625 0.00271332 0 0 Z " fill="#F2EDE7" transform="translate(838.125,531.8125)"/>
<path d="M0 0 C0.70833984 -0.00563965 1.41667969 -0.0112793 2.14648438 -0.01708984 C13.1888845 0.13386048 22.49819743 3.8657443 30.6171875 11.33203125 C35.83910302 17.01338569 38.27438412 24.03390737 40.4375 31.3125 C40.9325 32.7975 40.9325 32.7975 41.4375 34.3125 C41.54378334 36.89738849 41.59473747 39.45571594 41.59863281 42.04101562 C41.60608017 43.21950325 41.60608017 43.21950325 41.61367798 44.42179871 C41.62828396 47.02079136 41.6350978 49.61972305 41.640625 52.21875 C41.64637626 54.02331545 41.652134 55.82788088 41.65789795 57.63244629 C41.66840246 61.4152861 41.67424921 65.19810469 41.67773438 68.98095703 C41.68322819 73.83351928 41.70727733 78.68580221 41.73570633 83.53827667 C41.75430445 87.26483997 41.75953672 90.99133548 41.76107025 94.71794128 C41.76410202 96.50735507 41.77214813 98.29676752 41.78525543 100.08613586 C41.80226257 102.58563721 41.80044939 105.08444906 41.79394531 107.58398438 C41.8031601 108.32589523 41.81237488 109.06780609 41.8218689 109.8321991 C41.79798523 112.7541478 41.77793454 114.80708658 40.11811829 117.27127075 C37.28230513 119.02820248 34.49875142 118.70246914 31.21484375 118.7109375 C30.16291588 118.71524277 30.16291588 118.71524277 29.08973694 118.71963501 C27.6095397 118.721674 26.12931542 118.71615552 24.64916992 118.70361328 C22.37943597 118.68753143 20.11147605 118.70347794 17.84179688 118.72265625 C16.40364189 118.72067426 14.96548802 118.71683149 13.52734375 118.7109375 C11.56075806 118.70586182 11.56075806 118.70586182 9.55444336 118.70068359 C8.0115564 118.50853271 8.0115564 118.50853271 6.4375 118.3125 C4.01740263 114.68235395 4.18145916 112.97972586 4.16625977 108.65722656 C4.16103302 107.98528259 4.15580627 107.31333862 4.15042114 106.62103271 C4.14018492 105.16256291 4.13440139 103.7040566 4.13253975 102.24555206 C4.12887416 99.93287667 4.11214078 97.62062941 4.09178162 95.30804443 C4.03640099 88.73311347 4.00575204 82.15811842 3.98120117 75.58300781 C3.96527239 71.5593744 3.93499332 67.53604236 3.89643669 63.51256561 C3.88482828 61.98328618 3.87885671 60.4539527 3.87875557 58.92462921 C3.8785622 56.77788618 3.86020015 54.63196593 3.83813477 52.48535156 C3.83306412 51.26640198 3.82799347 50.04745239 3.82276917 48.79156494 C3.27214176 43.81927886 1.75291013 39.93483916 -1.4375 36 C-6.23084833 32.1935175 -10.97064937 31.89667317 -16.8984375 31.9765625 C-20.7490415 32.46212253 -22.59746598 33.87965157 -25.5625 36.3125 C-26.2225 36.3125 -26.8825 36.3125 -27.5625 36.3125 C-28.272501 37.62327107 -28.92289986 38.9659734 -29.5625 40.3125 C-30.07288818 41.36783936 -30.58327637 42.42317871 -31.10913086 43.51049805 C-33.49007237 49.96067513 -33.00343546 56.86533006 -33.00390625 63.64453125 C-33.01569363 65.12808018 -33.02906116 66.61161731 -33.04393005 68.09513855 C-33.0799349 71.97861856 -33.10026907 75.86199386 -33.11547852 79.74560547 C-33.14041945 85.97827999 -33.17993547 92.21072357 -33.23737907 98.44318199 C-33.25369487 100.61637691 -33.25748307 102.78935213 -33.26039124 104.96260071 C-33.27057785 106.27794296 -33.28076447 107.59328522 -33.29125977 108.94848633 C-33.29553482 110.10794266 -33.29980988 111.26739899 -33.30421448 112.46199036 C-33.5625 115.3125 -33.5625 115.3125 -35.5625 118.3125 C-38.67944336 118.70068359 -38.67944336 118.70068359 -42.65234375 118.7109375 C-43.70283653 118.71524277 -43.70283653 118.71524277 -44.77455139 118.71963501 C-46.2565288 118.72167739 -47.73853307 118.71613524 -49.22045898 118.70361328 C-51.48808242 118.68758424 -53.75391714 118.70344167 -56.02148438 118.72265625 C-57.46094143 118.72067338 -58.90039738 118.71682878 -60.33984375 118.7109375 C-61.65202881 118.70755371 -62.96421387 118.70416992 -64.31616211 118.70068359 C-67.5625 118.3125 -67.5625 118.3125 -69.24116611 117.06536007 C-70.91125648 114.84984531 -70.94168115 113.63633619 -70.95018005 110.8785553 C-70.96008469 109.97148331 -70.96998932 109.06441132 -70.98019409 108.12985229 C-70.97569244 107.13704254 -70.9711908 106.14423279 -70.96655273 105.12133789 C-70.97341599 104.07393936 -70.98027924 103.02654083 -70.98735046 101.94740295 C-71.00568909 98.47651712 -71.00177076 95.00608025 -70.99609375 91.53515625 C-71.0006522 89.12763826 -71.00595676 86.72012158 -71.01197815 84.31260681 C-71.0209232 79.26279418 -71.01847026 74.21313958 -71.00854492 69.16333008 C-70.9970546 62.68532893 -71.01726125 56.2078728 -71.04646206 49.72994328 C-71.06479003 44.75687686 -71.06453834 39.78394185 -71.05882454 34.81085014 C-71.0586709 32.42218702 -71.06474998 30.03351523 -71.07711601 27.64488411 C-71.09195918 24.30725846 -71.08139714 20.97065001 -71.06420898 17.63305664 C-71.07387695 16.64227112 -71.08354492 15.6514856 -71.09350586 14.63067627 C-71.02142985 7.96192903 -71.02142985 7.96192903 -68.71620178 4.69981384 C-65.77551537 2.80556135 -63.67223304 2.79520488 -60.1875 2.78125 C-58.95515625 2.77609375 -57.7228125 2.7709375 -56.453125 2.765625 C-54.52726562 2.78882813 -54.52726562 2.78882813 -52.5625 2.8125 C-51.27859375 2.79703125 -49.9946875 2.7815625 -48.671875 2.765625 C-47.43953125 2.77078125 -46.2071875 2.7759375 -44.9375 2.78125 C-43.24753906 2.78801758 -43.24753906 2.78801758 -41.5234375 2.79492188 C-37.93525986 3.4221429 -36.75990673 4.46071366 -34.5625 7.3125 C-33.953125 9.890625 -33.953125 9.890625 -33.8125 12.5625 C-33.75578125 13.45453125 -33.6990625 14.3465625 -33.640625 15.265625 C-33.61484375 15.94109375 -33.5890625 16.6165625 -33.5625 17.3125 C-33.16160156 16.80460938 -32.76070313 16.29671875 -32.34765625 15.7734375 C-23.47837843 5.03376776 -13.82263724 0.10453593 0 0 Z " fill="#F2EEE8" transform="translate(432.5625,533.6875)"/>
<path d="M0 0 C2.03072002 -0.00437289 4.05926415 -0.0406999 6.08959961 -0.07861328 C7.37157227 -0.08248047 8.65354492 -0.08634766 9.97436523 -0.09033203 C11.14926514 -0.0985498 12.32416504 -0.10676758 13.53466797 -0.11523438 C17.26447063 0.47529051 18.35715849 1.38453544 20.60327148 4.37060547 C21.60473633 6.51098633 21.60473633 6.51098633 22.31420898 8.83544922 C22.58644287 9.70766113 22.85867676 10.57987305 23.13916016 11.47851562 C23.41606689 12.41228027 23.69297363 13.34604492 23.97827148 14.30810547 C24.27644775 15.27796387 24.57462402 16.24782227 24.88183594 17.24707031 C27.20190411 24.85266106 29.38636453 32.49823062 31.53759766 40.15307617 C33.10964034 45.73045181 34.83720482 51.22667131 36.72436523 56.70654297 C38.20933822 61.20766109 39.4116019 65.78448314 40.60327148 70.37060547 C40.93327148 70.37060547 41.26327148 70.37060547 41.60327148 70.37060547 C41.74837158 69.8141333 41.89347168 69.25766113 42.04296875 68.68432617 C45.04826834 57.23328009 48.30709144 45.9383433 52.12792969 34.73193359 C54.8583356 26.70626435 57.25130277 18.61293315 59.36889648 10.40185547 C59.73241211 9.05607422 59.73241211 9.05607422 60.10327148 7.68310547 C60.29920898 6.91611328 60.49514648 6.14912109 60.69702148 5.35888672 C61.90394337 2.71094173 63.10543468 1.8669118 65.60327148 0.37060547 C70.24651221 -0.26301618 74.92150762 -0.09274764 79.60327148 -0.06689453 C80.88717773 -0.086875 82.17108398 -0.10685547 83.49389648 -0.12744141 C84.72624023 -0.12679687 85.95858398 -0.12615234 87.22827148 -0.12548828 C88.35491211 -0.12734131 89.48155273 -0.12919434 90.64233398 -0.13110352 C94.24903361 0.48002509 95.45410084 1.45034836 97.60327148 4.37060547 C97.72393621 11.36111506 94.86214571 17.68252279 92.3991394 24.13531494 C91.12788918 27.4683594 89.88660954 30.81257419 88.64233398 34.15576172 C88.38655075 34.84107971 88.13076752 35.52639771 87.86723328 36.23248291 C85.30757109 43.11385209 82.91168758 50.04689177 80.54077148 56.99560547 C76.04430486 70.14568325 71.42939978 83.24940794 66.69799805 96.31689453 C65.95994788 98.37566605 65.23825529 100.44036578 64.53198242 102.51025391 C64.19199219 103.4928418 63.85200195 104.47542969 63.50170898 105.48779297 C63.05964111 106.79272705 63.05964111 106.79272705 62.60864258 108.12402344 C61.47850754 110.64940048 60.93484335 111.85763812 58.60327148 113.37060547 C55.85099551 113.68108306 53.32940639 113.8148431 50.57592773 113.80419922 C49.79060165 113.80944107 49.00527557 113.81468292 48.19615173 113.82008362 C46.53605328 113.82650369 44.87590933 113.82516696 43.21582031 113.81665039 C40.67812873 113.80814688 38.14269334 113.83688782 35.60522461 113.86865234 C33.99129299 113.87026466 32.37735739 113.86968624 30.76342773 113.86669922 C30.00602798 113.8779332 29.24862823 113.88916718 28.46827698 113.90074158 C25.07693072 113.85598108 23.00407038 113.65875912 20.21704102 111.6550293 C18.49817549 109.22183342 17.54594829 107.15399158 16.62280273 104.32373047 C16.2720166 103.27523926 15.92123047 102.22674805 15.55981445 101.14648438 C15.18228027 99.98294434 14.80474609 98.8194043 14.41577148 97.62060547 C13.54208402 95.00771155 12.6658462 92.39577645 11.78686523 89.78466797 C11.54635437 89.06665009 11.30584351 88.3486322 11.05804443 87.6088562 C7.50022771 77.0240757 3.72112522 66.51598165 -0.02172852 55.99560547 C-0.73306625 53.99468439 -1.44425055 51.99370876 -2.15527344 49.99267578 C-2.67582558 48.52797852 -2.67582558 48.52797852 -3.20689392 47.03369141 C-3.89790645 45.08517965 -4.58694177 43.13596551 -5.27394104 41.18603516 C-7.05975825 36.11785899 -8.8740927 31.06289272 -10.7355957 26.02197266 C-11.48470961 23.95852894 -12.23373592 21.89505341 -12.98266602 19.83154297 C-13.34027008 18.88445465 -13.69787415 17.93736633 -14.0663147 16.96157837 C-15.9762431 11.64581975 -17.06276941 7.8653799 -15.39672852 2.37060547 C-10.65936145 -0.78763924 -5.5749431 -0.00134774 0 0 Z " fill="#F2EEE7" transform="translate(694.396728515625,533.62939453125)"/>
<path d="M0 0 C0.21914063 0.6290625 0.43828125 1.258125 0.6640625 1.90625 C3.28603275 8.98343799 6.65167654 14.65167654 12 20 C12.4375 22.3125 12.4375 22.3125 12 25 C11.2575 25.721875 10.515 26.44375 9.75 27.1875 C2.7267518 34.37036748 1.79658481 44.21438314 1.81713867 53.78491211 C1.9210189 62.20302301 3.41528979 69.3824908 7 77 C7.309375 77.928125 7.61875 78.85625 7.9375 79.8125 C9.27087861 82.55769126 10.19117786 82.90768028 13 84 C13.86625 84.53625 14.7325 85.0725 15.625 85.625 C21.11369851 87.86113643 25.96764357 87.88295084 31.65625 86.2265625 C38.61996733 83.26908014 42.05154427 78.87308937 45 72 C47.20676787 65.95210035 47.26893637 60.41025076 47.1875 54.0625 C47.18685547 53.11181641 47.18621094 52.16113281 47.18554688 51.18164062 C47.15155914 45.70206232 46.800017 40.42091517 46 35 C47.14662109 34.97873047 47.14662109 34.97873047 48.31640625 34.95703125 C56.41777876 34.59632032 63.05717726 32.92762676 70.58984375 30.15625 C73.74877268 29.08518131 76.70136213 28.44317577 80 28 C80.64964023 29.89453221 81.29455115 31.79068649 81.9375 33.6875 C82.47697266 35.27111328 82.47697266 35.27111328 83.02734375 36.88671875 C86.70248032 48.65010769 86.34184138 62.49150477 82 74 C81.64808594 74.99515625 81.29617188 75.9903125 80.93359375 77.015625 C78.2846773 83.97449463 74.9535312 89.45803637 70 95 C69.45472656 95.62648438 68.90945313 96.25296875 68.34765625 96.8984375 C59.56109449 106.36724994 46.50266311 112.29390265 33.60327148 113.16113281 C13.9321863 113.49391797 -4.20108156 111.4985835 -19.04296875 97.15234375 C-32.76152593 82.06466909 -35.83132935 65.21798806 -35.14355469 45.54150391 C-34.35663143 31.60975024 -27.21734125 18.37655825 -17 9 C-5.54702495 0 -5.54702495 0 0 0 Z " fill="#F1EDE7" transform="translate(697,409)"/>
<path d="M0 0 C1.65795898 1.15551758 1.65795898 1.15551758 3 3 C3.37231445 5.69555664 3.37231445 5.69555664 3.36328125 8.91015625 C3.36231445 10.64168945 3.36231445 10.64168945 3.36132812 12.40820312 C3.34521484 13.61412109 3.32910156 14.82003906 3.3125 16.0625 C3.31572266 17.27228516 3.31894531 18.48207031 3.32226562 19.72851562 C3.26689925 28.73310075 3.26689925 28.73310075 1 31 C-0.82779617 31.17641704 -2.66425994 31.26755276 -4.5 31.3125 C-12.44666169 31.87467391 -18.92243565 34.35557345 -24.375 40.3125 C-31.66802996 49.80992038 -33.28564342 59.24337908 -33.30859375 70.953125 C-33.33373149 73.28646107 -33.3591298 75.61979435 -33.38476562 77.953125 C-33.41361203 81.61587936 -33.43764557 85.27858557 -33.45629883 88.94140625 C-33.47786761 92.48721855 -33.51727355 96.03249611 -33.55859375 99.578125 C-33.55870956 100.67811829 -33.55882538 101.77811157 -33.5589447 102.91143799 C-33.57228348 103.92969666 -33.58562225 104.94795532 -33.59936523 105.99707031 C-33.60697121 107.34106903 -33.60697121 107.34106903 -33.61473083 108.71221924 C-34.07955619 111.47241549 -34.75511582 112.36683714 -37 114 C-40.046875 114.38818359 -40.046875 114.38818359 -43.75 114.3984375 C-44.40452148 114.40130768 -45.05904297 114.40417786 -45.73339844 114.40713501 C-47.11524319 114.40917368 -48.49711693 114.40365746 -49.87890625 114.39111328 C-51.9928445 114.37505436 -54.10487113 114.39096601 -56.21875 114.41015625 C-57.56250422 114.40817378 -58.90625724 114.40433002 -60.25 114.3984375 C-61.47203125 114.39505371 -62.6940625 114.39166992 -63.953125 114.38818359 C-67 114 -67 114 -68.66704082 112.75132847 C-70.34973976 110.54048915 -70.37481262 109.3508943 -70.3742218 106.59056091 C-70.38123611 105.68901276 -70.38825043 104.7874646 -70.39547729 103.8585968 C-70.38783356 102.8719957 -70.38018982 101.88539459 -70.37231445 100.86889648 C-70.37596512 99.82803894 -70.37961578 98.7871814 -70.38337708 97.71478271 C-70.39149774 94.26672157 -70.37786045 90.81912809 -70.36328125 87.37109375 C-70.36276287 84.98120626 -70.36327972 82.59131834 -70.36479187 80.20143127 C-70.36470208 75.19029382 -70.3542581 70.17931703 -70.33618164 65.16821289 C-70.31348213 58.73274975 -70.31295191 52.29752124 -70.31969929 45.86202908 C-70.32303443 40.92680258 -70.31641796 35.99162995 -70.30657005 31.05641365 C-70.30271083 28.68285466 -70.30157281 26.30928968 -70.3031559 23.93572807 C-70.30352516 20.62427136 -70.29094567 17.31312 -70.2746582 14.00170898 C-70.27713562 13.01308365 -70.27961304 12.02445831 -70.28216553 11.00587463 C-70.27508072 10.1071463 -70.26799591 9.20841797 -70.26069641 8.28245544 C-70.25864354 7.49914069 -70.25659067 6.71582594 -70.25447559 5.90877438 C-70 4 -70 4 -68 2 C-65.05078125 1.74121094 -65.05078125 1.74121094 -61.3125 1.734375 C-60.65419189 1.73246155 -59.99588379 1.7305481 -59.31762695 1.72857666 C-57.9256146 1.7272155 -56.53358953 1.73090717 -55.14160156 1.73925781 C-53.00817411 1.749959 -50.87558869 1.73936094 -48.7421875 1.7265625 C-47.39062314 1.72788411 -46.0390593 1.73044653 -44.6875 1.734375 C-42.83705078 1.73775879 -42.83705078 1.73775879 -40.94921875 1.74121094 C-38 2 -38 2 -36 4 C-35.69940057 6.36509361 -35.50484988 8.74441881 -35.375 11.125 C-35.30023437 12.40632812 -35.22546875 13.68765625 -35.1484375 15.0078125 C-35.09945312 15.99523437 -35.05046875 16.98265625 -35 18 C-34.38125 17.12988281 -34.38125 17.12988281 -33.75 16.2421875 C-25.12110649 4.57006815 -15.04909746 -2.07433506 0 0 Z " fill="#F3EEE8" transform="translate(672,533)"/>
<path d="M0 0 C1.11761719 -0.01675781 2.23523438 -0.03351563 3.38671875 -0.05078125 C6.3125 0.3125 6.3125 0.3125 7.97265625 1.46582031 C9.87320801 4.08531257 9.68481194 6.00895056 9.67578125 9.22265625 C9.67481445 10.95418945 9.67481445 10.95418945 9.67382812 12.72070312 C9.65771484 13.92662109 9.64160156 15.13253906 9.625 16.375 C9.62822266 17.58478516 9.63144531 18.79457031 9.63476562 20.04101562 C9.57939925 29.04560075 9.57939925 29.04560075 7.3125 31.3125 C5.48470383 31.48891704 3.64824006 31.58005276 1.8125 31.625 C-6.13416169 32.18717391 -12.60993565 34.66807345 -18.0625 40.625 C-25.35552996 50.12242038 -26.97314342 59.55587908 -26.99609375 71.265625 C-27.02123149 73.59896107 -27.0466298 75.93229435 -27.07226562 78.265625 C-27.10111203 81.92837936 -27.12514557 85.59108557 -27.14379883 89.25390625 C-27.16536761 92.79971855 -27.20477355 96.34499611 -27.24609375 99.890625 C-27.24620956 100.99061829 -27.24632538 102.09061157 -27.2464447 103.22393799 C-27.25978348 104.24219666 -27.27312225 105.26045532 -27.28686523 106.30957031 C-27.29447121 107.65356903 -27.29447121 107.65356903 -27.30223083 109.02471924 C-27.76705619 111.78491549 -28.44261582 112.67933714 -30.6875 114.3125 C-33.734375 114.70068359 -33.734375 114.70068359 -37.4375 114.7109375 C-38.09202148 114.71380768 -38.74654297 114.71667786 -39.42089844 114.71963501 C-40.80274319 114.72167368 -42.18461693 114.71615746 -43.56640625 114.70361328 C-45.6803445 114.68755436 -47.79237113 114.70346601 -49.90625 114.72265625 C-51.25000422 114.72067378 -52.59375724 114.71683002 -53.9375 114.7109375 C-55.15953125 114.70755371 -56.3815625 114.70416992 -57.640625 114.70068359 C-60.6875 114.3125 -60.6875 114.3125 -62.35454082 113.06382847 C-64.03723976 110.85298915 -64.06231262 109.6633943 -64.0617218 106.90306091 C-64.06873611 106.00151276 -64.07575043 105.0999646 -64.08297729 104.1710968 C-64.07533356 103.1844957 -64.06768982 102.19789459 -64.05981445 101.18139648 C-64.06346512 100.14053894 -64.06711578 99.0996814 -64.07087708 98.02728271 C-64.07899774 94.57922157 -64.06536045 91.13162809 -64.05078125 87.68359375 C-64.05026287 85.29370626 -64.05077972 82.90381834 -64.05229187 80.51393127 C-64.05220208 75.50279382 -64.0417581 70.49181703 -64.02368164 65.48071289 C-64.00098213 59.04524975 -64.00045191 52.61002124 -64.00719929 46.17452908 C-64.01053443 41.23930258 -64.00391796 36.30412995 -63.99407005 31.36891365 C-63.99021083 28.99535466 -63.98907281 26.62178968 -63.9906559 24.24822807 C-63.99102516 20.93677136 -63.97844567 17.62562 -63.9621582 14.31420898 C-63.96463562 13.32558365 -63.96711304 12.33695831 -63.96966553 11.31837463 C-63.96258072 10.4196463 -63.95549591 9.52091797 -63.94819641 8.59495544 C-63.94614354 7.81164069 -63.94409067 7.02832594 -63.94197559 6.22127438 C-63.6875 4.3125 -63.6875 4.3125 -61.6875 2.3125 C-58.73828125 2.05371094 -58.73828125 2.05371094 -55 2.046875 C-54.34169189 2.04496155 -53.68338379 2.0430481 -53.00512695 2.04107666 C-51.6131146 2.0397155 -50.22108953 2.04340717 -48.82910156 2.05175781 C-46.69567411 2.062459 -44.56308869 2.05186094 -42.4296875 2.0390625 C-41.07812314 2.04038411 -39.7265593 2.04294653 -38.375 2.046875 C-36.52455078 2.05025879 -36.52455078 2.05025879 -34.63671875 2.05371094 C-31.6875 2.3125 -31.6875 2.3125 -29.6875 4.3125 C-29.38690057 6.67759361 -29.19234988 9.05691881 -29.0625 11.4375 C-28.98773437 12.71882813 -28.91296875 14.00015625 -28.8359375 15.3203125 C-28.78695312 16.30773437 -28.73796875 17.29515625 -28.6875 18.3125 C-28.28660156 17.74402344 -27.88570312 17.17554688 -27.47265625 16.58984375 C-20.24010819 6.76604264 -12.68447448 0.04419678 0 0 Z " fill="#F3EEE8" transform="translate(656.6875,404.6875)"/>
<path d="M0 0 C1.27746094 -0.00064453 2.55492187 -0.00128906 3.87109375 -0.00195312 C4.86471924 0.01363647 4.86471924 0.01363647 5.87841797 0.02954102 C7.90024898 0.05850777 9.91945672 0.0501431 11.94140625 0.03710938 C22.85388317 0.10868465 22.85388317 0.10868465 26.40625 3.49609375 C26.90402794 5.5591507 26.90402794 5.5591507 26.90072632 7.97473145 C26.9091153 8.89166275 26.91750427 9.80859406 26.92614746 10.75331116 C26.90928894 12.25890846 26.90928894 12.25890846 26.89208984 13.79492188 C26.89588654 14.85368027 26.89968323 15.91243866 26.90359497 17.00328064 C26.91101921 20.51160066 26.88959093 24.01909702 26.8671875 27.52734375 C26.86480411 29.95967512 26.86389753 32.39200834 26.8644104 34.82434082 C26.86127916 39.92549133 26.84468854 45.02636143 26.81787109 50.12744141 C26.78389101 56.67491461 26.77624233 63.22207939 26.77776146 69.76963043 C26.77721828 74.79326333 26.76625937 79.81682845 26.75175858 84.84043884 C26.74538228 87.25503526 26.74144974 89.66963939 26.73997116 92.08424377 C26.73564706 95.45538485 26.71816488 98.82619529 26.69677734 102.19726562 C26.6981369 103.70286293 26.6981369 103.70286293 26.69952393 105.23887634 C26.68672897 106.6142733 26.68672897 106.6142733 26.67367554 108.01745605 C26.67032385 108.8145977 26.66697216 109.61173935 26.66351891 110.4330368 C26.40625 112.49609375 26.40625 112.49609375 24.40625 115.49609375 C21.28930664 115.88427734 21.28930664 115.88427734 17.31640625 115.89453125 C16.26591347 115.89883652 16.26591347 115.89883652 15.19419861 115.90322876 C13.7122212 115.90527114 12.23021693 115.89972899 10.74829102 115.88720703 C8.48066758 115.87117799 6.21483286 115.88703542 3.94726562 115.90625 C2.50780857 115.90426713 1.06835262 115.90042253 -0.37109375 115.89453125 C-1.68327881 115.89114746 -2.99546387 115.88776367 -4.34741211 115.88427734 C-7.59375 115.49609375 -7.59375 115.49609375 -9.27241611 114.24895382 C-10.94250648 112.03343906 -10.97293115 110.81992994 -10.98143005 108.06214905 C-10.99133469 107.15507706 -11.00123932 106.24800507 -11.01144409 105.31344604 C-11.00694244 104.32063629 -11.0024408 103.32782654 -10.99780273 102.30493164 C-11.00466599 101.25753311 -11.01152924 100.21013458 -11.01860046 99.1309967 C-11.03693909 95.66011087 -11.03302076 92.189674 -11.02734375 88.71875 C-11.0319022 86.31123201 -11.03720676 83.90371533 -11.04322815 81.49620056 C-11.0521732 76.44638793 -11.04972026 71.39673333 -11.03979492 66.34692383 C-11.0283046 59.86892268 -11.04851125 53.39146655 -11.07771206 46.91353703 C-11.09604003 41.94047061 -11.09578834 36.9675356 -11.09007454 31.99444389 C-11.0899209 29.60578077 -11.09599998 27.21710898 -11.10836601 24.82847786 C-11.12320918 21.49085221 -11.11264714 18.15424376 -11.09545898 14.81665039 C-11.10512695 13.82586487 -11.11479492 12.83507935 -11.12475586 11.81427002 C-11.05270478 5.14782986 -11.05270478 5.14782986 -8.75318909 1.88241577 C-5.74952469 -0.0458841 -3.55355775 -0.00563512 0 0 Z " fill="#F1EDE7" transform="translate(329.59375,536.50390625)"/>
<path d="M0 0 C3.15830062 1.50737075 5.89447031 3.28983313 8.75 5.3125 C9.554375 5.84875 10.35875 6.385 11.1875 6.9375 C16.94604564 12.27468864 21.04066482 18.98135776 23.75 26.3125 C25.45892588 25.85638099 27.16711229 25.39749109 28.875 24.9375 C30.30199219 24.55464844 30.30199219 24.55464844 31.7578125 24.1640625 C34.76331508 23.34952772 34.76331508 23.34952772 37.67578125 22.234375 C49.02298197 18.83165662 61.47360002 21.50828045 71.74609375 26.87890625 C77.99461207 30.55711207 77.99461207 30.55711207 79.75 32.3125 C79.51549378 38.10409309 77.76142546 41.32686869 73.8125 45.375 C73.31596924 45.89449219 72.81943848 46.41398437 72.30786133 46.94921875 C62.54891047 56.83704677 50.32000069 61.23389127 36.5 62 C30.16215321 61.83785264 27.10015304 59.93280778 22.31640625 55.9765625 C19.18126083 53.94372849 16.82342019 53.67767122 13.125 53.3125 C7.63533642 52.66817329 4.39810501 51.67169458 0.5390625 47.6484375 C-8.43724919 35.92827508 -10.09875468 24.83183789 -8.25 10.3125 C-7.37416439 6.66385766 -6.39621518 3.41432924 -4.25 0.3125 C-2.25 -0.6875 -2.25 -0.6875 0 0 Z " fill="#AFCE81" transform="translate(710.25,376.6875)"/>
<path d="M0 0 C6.51345273 3.52655148 10.24403931 10.37274293 12.52734375 17.22265625 C13.22350208 28.55520087 13.66338272 38.8373105 6.21484375 48.09765625 C-1.134386 53.90867513 -6.05735055 55.26149584 -15.47265625 54.22265625 C-21.92680076 52.27423526 -26.28500848 47.02022791 -29.58203125 41.296875 C-32.84840207 33.36205909 -32.85970906 22.54324858 -30.7109375 14.30078125 C-29.78413056 12.11747321 -28.77100928 10.20388008 -27.47265625 8.22265625 C-26.87453125 7.29453125 -26.27640625 6.36640625 -25.66015625 5.41015625 C-18.56816745 -1.68183255 -9.63373581 -3.02861521 0 0 Z " fill="#115C3C" transform="translate(540.47265625,431.77734375)"/>
<path d="M0 0 C0.67671753 -0.00287018 1.35343506 -0.00574036 2.05065918 -0.00869751 C3.47958209 -0.01073647 4.90853302 -0.00521819 6.33740234 0.00732422 C8.52374725 0.02338239 10.70824379 0.00747216 12.89453125 -0.01171875 C14.28385824 -0.00973629 15.67318409 -0.00589254 17.0625 0 C18.32642578 0.00338379 19.59035156 0.00676758 20.89257812 0.01025391 C24.03125 0.3984375 24.03125 0.3984375 25.9440918 1.59716797 C27.41665608 4.03700163 27.40365486 5.77456498 27.39453125 8.6171875 C27.39388672 9.63167969 27.39324219 10.64617187 27.39257812 11.69140625 C27.37646484 12.74972656 27.36035156 13.80804688 27.34375 14.8984375 C27.34697266 15.95675781 27.35019531 17.01507813 27.35351562 18.10546875 C27.29835975 25.99777287 27.29835975 25.99777287 25.03125 29.3984375 C21.91430664 29.80249023 21.91430664 29.80249023 17.94140625 29.83203125 C16.89091347 29.83989403 16.89091347 29.83989403 15.81919861 29.84791565 C14.3372429 29.85434185 12.85523623 29.85299104 11.37329102 29.84448242 C9.10535732 29.83598101 6.8399496 29.86470477 4.57226562 29.89648438 C3.13281326 29.89809671 1.69335642 29.89751824 0.25390625 29.89453125 C-1.71437134 29.89731079 -1.71437134 29.89731079 -3.72241211 29.90014648 C-6.96875 29.3984375 -6.96875 29.3984375 -8.89526367 27.68603516 C-10.13758346 25.03865366 -10.35598251 23.22021573 -10.3671875 20.30078125 C-10.37105469 19.33462891 -10.37492187 18.36847656 -10.37890625 17.37304688 C-10.36730469 16.37080078 -10.35570312 15.36855469 -10.34375 14.3359375 C-10.35535156 13.32982422 -10.36695313 12.32371094 -10.37890625 11.28710938 C-10.37503906 10.32224609 -10.37117188 9.35738281 -10.3671875 8.36328125 C-10.36380371 7.482771 -10.36041992 6.60226074 -10.35693359 5.69506836 C-9.96875 3.3984375 -9.96875 3.3984375 -8.87939453 1.61303711 C-5.95683248 -0.24483999 -3.43385114 0.00919313 0 0 Z " fill="#F2EDE7" transform="translate(328.96875,491.6015625)"/>
<path d="M0 0 C0.78850683 19.2746114 0.78850683 19.2746114 -4 25 C-9.51147833 30.6367392 -15.32235922 33.10553943 -23.125 33.375 C-28.72537548 33.17744074 -32.18710249 31.62206619 -36.375 27.875 C-38.65704222 23.83754069 -38.88872262 20.53168473 -38 16 C-33.86245083 8.6903298 -26.95429233 7.11342393 -19.2265625 4.9375 C-16.66142144 4.24352144 -14.09211956 3.58189637 -11.515625 2.9296875 C-9.21365716 2.32094489 -6.92918738 1.64054881 -4.671875 0.8828125 C-2 0 -2 0 0 0 Z " fill="#155E3F" transform="translate(855,594)"/>
<path d="M0 0 C0.10901505 2.83439137 0.18777904 5.66450203 0.25 8.5 C0.30027344 9.68722656 0.30027344 9.68722656 0.3515625 10.8984375 C0.46076156 17.55958036 -1.02649157 22.9267094 -5.74609375 27.8046875 C-6.30425781 28.15789062 -6.86242187 28.51109375 -7.4375 28.875 C-7.99308594 29.24367188 -8.54867188 29.61234375 -9.12109375 29.9921875 C-15.35999048 33.33862275 -20.99754838 33.7875386 -28 33 C-31.5625 31.1875 -31.5625 31.1875 -34 29 C-34.53238281 28.56945312 -35.06476563 28.13890625 -35.61328125 27.6953125 C-38.07117049 24.69045636 -37.64659886 21.46608758 -37.54296875 17.73046875 C-36.78978034 13.9428522 -35.24298732 12.4709747 -32.21484375 10.21875 C-26.61215126 7.13578693 -21.06666858 5.35959401 -14.875 3.9375 C-10.08893797 2.82373416 -4.79089004 0 0 0 Z " fill="#135D3D" transform="translate(434,466)"/>
<path d="M0 0 C6.4733267 3.7672639 10.35458249 9.43874748 12.6875 16.4375 C12.6875 18.0875 12.6875 19.7375 12.6875 21.4375 C-2.1625 21.4375 -17.0125 21.4375 -32.3125 21.4375 C-31.27238541 13.11658325 -29.70452016 8.3466765 -23.46484375 2.79296875 C-16.57797149 -2.28079913 -7.95943359 -3.59557425 0 0 Z " fill="#1A6143" transform="translate(546.3125,561.5625)"/>
<path d="M0 0 C2.09133135 -0.02684294 4.17753011 -0.10168155 6.26757812 -0.17749023 C16.04913038 -0.36738473 16.04913038 -0.36738473 19.58203125 2.06323242 C21.0816636 3.81933288 22.22193588 5.5340207 23.36132812 7.53540039 C24.02132812 8.19540039 24.68132813 8.85540039 25.36132812 9.53540039 C24.25015625 10.02008789 23.13898437 10.50477539 21.99414062 11.00415039 C13.13529971 14.96309739 5.54613959 18.89783501 -1.63867188 25.53540039 C-8.50749782 22.47107502 -12.23224658 16.40162092 -15.01757812 9.61743164 C-15.82783094 6.90130112 -15.74596779 5.14545505 -14.63867188 2.53540039 C-10.99561922 -1.10765226 -4.9564064 0.04222895 0 0 Z " fill="#EDEAE4" transform="translate(492.638671875,520.464599609375)"/>
<path d="M0 0 C2.29633824 3.44450737 2.54016485 5.93812283 3 10 C2.34 10 1.68 10 1 10 C1 13.96 1 17.92 1 22 C0.67 22 0.34 22 0 22 C0 14.74 0 7.48 0 0 Z " fill="#66927C" transform="translate(182,540)"/>
</svg>
