<?xml version="1.0" encoding="UTF-8"?>
<svg version="1.1" xmlns="http://www.w3.org/2000/svg" width="1080" height="1080">
<path d="M0 0 C1.12812103 -0.00637985 2.25624207 -0.0127597 3.41854858 -0.01933289 C5.25445053 -0.02100212 5.25445053 -0.02100212 7.12744141 -0.02270508 C8.38029938 -0.02603348 9.63315735 -0.02936188 10.92398071 -0.03279114 C13.57875103 -0.03786218 16.23341903 -0.04063103 18.88818359 -0.04003906 C22.28669914 -0.03993753 25.68500533 -0.0535798 29.0834713 -0.07081127 C32.32728685 -0.08461945 35.57110045 -0.08402048 38.81494141 -0.08520508 C40.03482758 -0.09239059 41.25471375 -0.09957611 42.51156616 -0.10697937 C44.21320419 -0.10236443 44.21320419 -0.10236443 45.94921875 -0.09765625 C46.94690277 -0.09908127 47.94458679 -0.10050629 48.97250366 -0.10197449 C51.76260319 0.1601646 53.32636392 0.51874344 55.60400391 2.14526367 C60.5455448 10.99343803 62.36161168 22.65642857 65.03369141 32.40698242 C65.55137714 34.28441255 66.06937864 36.16175563 66.587677 38.03901672 C67.67129857 41.96762376 68.7518587 45.89705542 69.83007812 49.82714844 C71.19220147 54.79154646 72.56077126 59.75413811 73.93137741 64.71619987 C83.45730858 99.21404316 83.45730858 99.21404316 87.36181641 114.60229492 C87.60157196 115.53522873 87.84132751 116.46816254 88.08834839 117.42936707 C89.0762583 121.40890767 89.90854449 125.00849902 89.60400391 129.14526367 C90.26400391 129.14526367 90.92400391 129.14526367 91.60400391 129.14526367 C91.73637451 127.97036377 91.86874512 126.79546387 92.00512695 125.58496094 C92.87962916 118.62794356 94.71528279 111.8741811 96.41650391 105.08276367 C96.61954132 104.26776398 96.82257874 103.45276428 97.0317688 102.61306763 C101.78043773 83.64783647 107.06830851 64.82777155 112.35979843 46.00850296 C113.04060294 43.58596963 113.71983534 41.16299968 114.39883423 38.73995972 C115.48351735 34.87198489 116.57396147 31.00567755 117.66895676 27.14060974 C118.07664473 25.69952715 118.48286197 24.25802755 118.88750076 22.81608582 C119.44911878 20.81696899 120.01683895 18.81968244 120.58618164 16.82275391 C120.90465561 15.69763901 121.22312958 14.57252411 121.55125427 13.41331482 C124.48129443 4.31758988 124.48129443 4.31758988 127.43531799 1.23301697 C130.19870212 -0.15302062 132.21310372 -0.24220069 135.30297852 -0.25878906 C136.44774155 -0.27147324 137.59250458 -0.28415741 138.7719574 -0.29722595 C140.62048058 -0.29282249 140.62048058 -0.29282249 142.50634766 -0.28833008 C143.7762001 -0.29357193 145.04605255 -0.29881378 146.35438538 -0.30421448 C149.04036432 -0.31063925 151.72549411 -0.31073049 154.41137695 -0.30078125 C157.84591024 -0.28929588 161.27941469 -0.30949741 164.71381283 -0.33869839 C167.99882944 -0.3615037 171.28377044 -0.35459189 174.56884766 -0.35083008 C176.41433449 -0.36768105 176.41433449 -0.36768105 178.29710388 -0.38487244 C179.44501907 -0.37549149 180.59293427 -0.36611053 181.77563477 -0.35644531 C182.78283066 -0.35627914 183.79002655 -0.35611298 184.82774353 -0.35594177 C188.51306992 0.3093797 190.00290601 1.45125489 192.60400391 4.14526367 C193.10517521 6.91664121 193.27718532 9.0800371 193.23219299 11.85046387 C193.23928738 12.6310178 193.24638177 13.41157174 193.25369114 14.21577883 C193.27130827 16.83404915 193.25314846 19.4508422 193.23510742 22.0690918 C193.24024484 23.94494809 193.24752478 25.82079957 193.25679016 27.69664001 C193.27533496 32.79379774 193.26234612 37.89043368 193.24269986 42.98756981 C193.22633749 48.31752526 193.23512289 53.64744703 193.24021912 58.97741699 C193.24474277 67.92879592 193.22885334 76.87996606 193.20092773 85.83129883 C193.16887467 96.18560198 193.16889072 106.53952854 193.1861425 116.89385843 C193.20199702 126.84753557 193.19528094 136.80107441 193.17820549 146.75474548 C193.17132638 150.99392876 193.17237627 155.23300147 193.17975044 159.47218323 C193.1874021 164.46273331 193.17532374 169.45285396 193.14790154 174.44333076 C193.14100485 176.27673124 193.14093343 178.11017172 193.14811707 179.94357109 C193.15678268 182.44288387 193.140906 184.94086248 193.1186676 187.44006348 C193.12690837 188.16885476 193.13514914 188.89764604 193.14363962 189.6485219 C193.08827696 193.01019477 192.81712653 194.85562591 190.80180264 197.59449005 C187.54606639 199.89174768 184.35515565 199.71791853 180.51416016 199.67651367 C179.7326207 199.68034058 178.95108124 199.68416748 178.14585876 199.68811035 C176.49590769 199.69082749 174.84591339 199.68348001 173.19604492 199.66674805 C170.67805261 199.64536176 168.16292249 199.66653872 165.64501953 199.69213867 C164.03889347 199.68949479 162.43276919 199.68436857 160.82666016 199.67651367 C160.07755875 199.6846106 159.32845734 199.69270752 158.55665588 199.7010498 C155.31622133 199.64329734 152.83696761 199.25691859 149.90716553 197.85272217 C146.19096912 193.48418482 146.90272969 188.86426351 146.94458008 183.30834961 C146.93409637 182.09832275 146.92361267 180.8882959 146.91281128 179.64160156 C146.88895128 176.32743544 146.88713625 173.01463079 146.89510512 169.70048046 C146.89822973 166.23570898 146.87319732 162.7711438 146.85115051 159.30645752 C146.81369287 152.74751661 146.80156154 146.18878303 146.79852611 139.62974572 C146.79383711 132.16173866 146.76091901 124.69393954 146.72562826 117.22602415 C146.65367365 101.86578567 146.61717383 86.50567183 146.60400391 71.14526367 C146.39651709 71.96406446 146.18903027 72.78286526 145.97525597 73.6264782 C140.27435613 96.10463901 134.15823198 118.45551504 127.91137695 140.78759766 C126.54417947 145.6755845 125.18308035 150.56524715 123.82353497 155.45536709 C122.76141581 159.27285693 121.6959519 163.08940707 120.62949562 166.90568733 C120.12569679 168.71018612 119.62296586 170.51498344 119.12137413 172.32009697 C118.4246004 174.82586338 117.72325841 177.33030832 117.02075195 179.83447266 C116.81968842 180.56117157 116.61862488 181.28787048 116.41146851 182.03659058 C112.83974614 194.70392072 112.83974614 194.70392072 109.91064453 198.12036133 C106.5483436 199.61432188 103.30976129 199.57365058 99.69775391 199.54370117 C98.93603882 199.54657135 98.17432373 199.54944153 97.38952637 199.55239868 C95.78246312 199.55443601 94.17537489 199.54892925 92.56835938 199.53637695 C90.1122275 199.52031744 87.65774101 199.53623563 85.20166016 199.55541992 C83.63785445 199.55343743 82.07404977 199.54959363 80.51025391 199.54370117 C79.41167053 199.55281021 79.41167053 199.55281021 78.29089355 199.56210327 C75.39900757 199.5223265 72.97164338 199.29755207 70.28833008 198.18603516 C67.57822247 194.90240137 66.81800298 191.16405872 65.74853516 187.09448242 C65.35995079 185.68811775 65.35995079 185.68811775 64.96351624 184.25334167 C64.10053835 181.11679094 63.25860883 177.974977 62.41650391 174.83276367 C61.81319027 172.62357532 61.20850646 170.41476075 60.60253906 168.20629883 C59.29436335 163.42971783 57.99491421 158.65087124 56.70117188 153.87036133 C54.69667393 146.47195456 52.66396617 139.08151721 50.62447929 131.6926899 C47.48079725 120.30182699 44.34253132 108.90945724 41.22119141 97.51245117 C40.91439957 96.39742722 40.60760773 95.28240326 40.29151917 94.1335907 C37.93189807 85.50226994 35.74795438 76.83209079 33.60400391 68.14526367 C33.60861287 68.7961005 33.61322184 69.44693733 33.61797047 70.11749649 C33.72836523 85.94969458 33.81111908 101.78175892 33.86306477 117.61424637 C33.88885271 125.27072211 33.92401406 132.92694104 33.98120117 140.58325195 C34.03101863 147.25607782 34.06329064 153.92871772 34.07444638 160.60172439 C34.08096814 164.13553751 34.09630699 167.66881857 34.13265419 171.20246124 C34.17288966 175.14606235 34.17395438 179.08914172 34.17163086 183.03295898 C34.18960724 184.20612167 34.20758362 185.37928436 34.22610474 186.58799744 C34.1756696 194.46951284 34.1756696 194.46951284 31.29985046 197.86894226 C27.73311193 199.55757871 24.50707444 199.73819108 20.63525391 199.71166992 C19.87732544 199.7178685 19.11939697 199.72406708 18.33850098 199.73045349 C16.74163086 199.73753357 15.14468664 199.73440925 13.54785156 199.72167969 C11.11075582 199.70780212 8.67749506 199.74191631 6.24072266 199.7800293 C4.68473214 199.78098051 3.12873684 199.77912153 1.57275391 199.77416992 C0.84866333 199.78742813 0.12457275 199.80068634 -0.62145996 199.81434631 C-4.26922217 199.74752794 -6.1662918 199.32061812 -9.08805752 197.09016514 C-11.92567254 193.46940299 -12.09696097 190.81118477 -12.02418518 186.39573669 C-12.03127957 185.62249544 -12.03837396 184.84925418 -12.04568332 184.05258137 C-12.06326689 181.46504787 -12.04515787 178.87901584 -12.02709961 176.29150391 C-12.03223827 174.43520422 -12.03951915 172.57890942 -12.04878235 170.72262573 C-12.06731004 165.68337427 -12.05434959 160.64465131 -12.03469205 155.60542178 C-12.01831804 150.33419593 -12.02711659 145.06300387 -12.0322113 139.79176331 C-12.03673325 130.94051663 -12.02085509 122.08948122 -11.99291992 113.23828125 C-11.96085773 103.00040356 -11.96088728 92.76290671 -11.97813469 82.52500194 C-11.99398893 72.68077908 -11.98727395 62.83669605 -11.97019768 52.99247932 C-11.96331936 48.8007441 -11.96436761 44.60912069 -11.97174263 40.41738701 C-11.97939424 35.48345528 -11.96731611 30.54995792 -11.93989372 25.61610031 C-11.93299737 23.80366239 -11.93292527 21.99118399 -11.94010925 20.17874718 C-11.94877555 17.70794634 -11.93289725 15.2384948 -11.91065979 12.76780701 C-11.91890056 12.04747974 -11.92714132 11.32715248 -11.93563181 10.58499712 C-11.87884602 7.17589037 -11.63108884 5.44282158 -9.48882961 2.73135471 C-6.11680588 0.17580665 -4.19196572 0.0160416 0 0 Z " fill="#EE463E" transform="translate(92.39599609375,508.854736328125)"/>
<path d="M0 0 C0.6909375 0.25523437 1.381875 0.51046875 2.09375 0.7734375 C8.39359203 3.49836917 13.10162636 8.30237938 18 13 C18.10957031 12.30132812 18.21914063 11.60265625 18.33203125 10.8828125 C18.49058594 9.97273438 18.64914062 9.06265625 18.8125 8.125 C18.96332031 7.22007812 19.11414063 6.31515625 19.26953125 5.3828125 C20 3 20 3 23 1 C25.63835487 0.7803678 28.1687246 0.67202862 30.80859375 0.6640625 C31.57172379 0.6574057 32.33485382 0.6507489 33.12110901 0.64389038 C34.73411653 0.63377193 36.34716585 0.62907311 37.96020508 0.62939453 C40.42534466 0.62502156 42.88869287 0.58869781 45.35351562 0.55078125 C46.92186889 0.54491278 48.49023064 0.54094359 50.05859375 0.5390625 C51.16188271 0.51750595 51.16188271 0.51750595 52.28746033 0.49551392 C55.57547761 0.52480423 57.55737554 0.65706901 60.19488621 2.70052624 C62.37491584 5.47759268 62.50041752 6.7831801 62.50120544 10.27742004 C62.51103958 11.34666718 62.52087372 12.41591431 62.53100586 13.51756287 C62.52133789 14.68586136 62.51166992 15.85415985 62.50170898 17.05786133 C62.50981346 18.9099118 62.50981346 18.9099118 62.51808167 20.79937744 C62.52845287 24.186757 62.52085147 27.57316103 62.50437045 30.96045518 C62.49049092 34.51821148 62.49698461 38.07593914 62.50050354 41.63371277 C62.50320725 47.62006759 62.48972967 53.60622217 62.46655273 59.5925293 C62.44007546 66.47816305 62.43815249 73.3634592 62.4499411 80.24912626 C62.46079797 86.89983288 62.45446177 93.55041937 62.44038582 100.20111656 C62.43468052 103.01611923 62.43466542 105.83103238 62.43945122 108.64603615 C62.48384928 143.78349981 62.48384928 143.78349981 55.4375 156.75 C54.83808594 157.87921875 54.23867188 159.0084375 53.62109375 160.171875 C52.48369583 162.15615474 51.26868073 164.0969789 50 166 C46.18587284 165.43593894 43.69851017 164.37503758 40.5 162.25 C31.08425804 156.42453354 20.7437536 153.3810481 10 151 C10.42152344 150.26394531 10.84304688 149.52789063 11.27734375 148.76953125 C11.82519531 147.79371094 12.37304688 146.81789063 12.9375 145.8125 C13.48277344 144.84957031 14.02804687 143.88664063 14.58984375 142.89453125 C17.27640724 137.3800062 17.12796549 132.19521728 17.0625 126.1875 C17.05798828 125.39923828 17.05347656 124.61097656 17.04882812 123.79882812 C17.03711312 121.86585239 17.01917998 119.93291607 17 118 C16.53851562 118.44730469 16.07703125 118.89460937 15.6015625 119.35546875 C4.30370109 129.82720196 -7.56471715 132.56150205 -22.53125 132.2421875 C-36.65711376 131.64272858 -50.54554062 125.48729111 -60.6875 115.62890625 C-76.1275544 98.07627684 -79.14701765 77.76768359 -78 55 C-76.51586599 39.42821368 -69.74666345 21.80315634 -58 11 C-41.44723431 -2.14352397 -20.370151 -7.80855788 0 0 Z M-28.375 41.69140625 C-35.0697424 51.20244653 -34.88130439 62.81137305 -34 74 C-32.37178059 82.95520674 -28.59994377 90.00669291 -21.12109375 95.33984375 C-14.46039681 99.12096666 -7.26439757 99.82468253 0.125 98 C7.99280807 95.25800096 13.31702427 89.81427518 17.03515625 82.453125 C21.4911956 71.12359986 20.85919606 59.36060526 17 48 C13.71613971 40.81881102 8.42955062 35.24722343 1.125 32.125 C-10.58683912 28.36369782 -20.77271918 32.3571542 -28.375 41.69140625 Z " fill="#489E58" transform="translate(561,404)"/>
<path d="M0 0 C20.8125042 -0.65039076 39.29414162 5.99085594 54.6171875 20.24609375 C70.01170828 36.35942484 76.13675702 59.09279829 76.96875 80.86328125 C76.03157181 84.48868108 74.303423 85.86293811 71.375 88.16015625 C68.24431546 88.87069429 65.19326422 88.79314168 61.99487305 88.7277832 C61.05780014 88.72851334 60.12072723 88.72924347 59.15525818 88.72999573 C56.06515141 88.7265188 52.97656142 88.68765188 49.88671875 88.6484375 C47.74152958 88.63910977 45.59632974 88.63199347 43.4511261 88.6269989 C37.8103586 88.60792612 32.17023683 88.55882214 26.52972412 88.503479 C20.77185806 88.45229302 15.01388747 88.4294862 9.25585938 88.40429688 C-2.03804382 88.35070431 -13.33146817 88.2653875 -24.625 88.16015625 C-24.02689755 90.23559062 -23.41802587 92.3079233 -22.8046875 94.37890625 C-22.46679199 95.53326172 -22.12889648 96.68761719 -21.78076172 97.87695312 C-19.36558393 104.73781305 -14.67159531 110.16712161 -8.625 114.16015625 C1.04835834 117.79499393 9.79344932 118.30394585 19.375 114.16015625 C22.71336529 111.89438361 25.50295574 109.30199679 27.95166016 106.09570312 C31.35991379 103.37349531 34.53675341 103.56702512 38.71875 103.59375 C39.52485718 103.58755142 40.33096436 103.58135284 41.16149902 103.57496643 C42.86269932 103.56787501 44.56396912 103.57103055 46.26513672 103.58374023 C48.86685887 103.59761284 51.46498754 103.56352377 54.06640625 103.52539062 C55.72135505 103.52443944 57.37630834 103.52629824 59.03125 103.53125 C59.80738647 103.51799179 60.58352295 103.50473358 61.38317871 103.49107361 C65.26044477 103.55786473 67.00668584 103.81616945 69.88476562 106.50415039 C71.45134445 109.29622298 71.85732217 110.9319225 71.171875 114.078125 C65.87227984 127.92461628 54.11600837 137.43006729 41.375 144.16015625 C36.78994104 146.19357314 32.19717034 147.78897759 27.375 149.16015625 C26.53324219 149.40507813 25.69148437 149.65 24.82421875 149.90234375 C3.07795878 154.96606617 -20.79532913 150.85563641 -39.625 139.16015625 C-56.53097386 127.8120213 -65.4332104 110.62673935 -69.625 91.16015625 C-70.18675956 88.14364904 -70.50450394 85.2249474 -70.625 82.16015625 C-70.66496094 81.18949219 -70.70492188 80.21882812 -70.74609375 79.21875 C-71.17864557 58.07459907 -65.57650431 37.95793251 -50.8581543 22.36987305 C-36.79164841 7.96276234 -19.94603353 1.2169455 0 0 Z M-16.625 41.16015625 C-21.54990772 47.35838413 -22.85606944 52.19996872 -24.625 60.16015625 C-6.805 60.16015625 11.015 60.16015625 29.375 60.16015625 C28.31549685 51.68413101 26.51031915 45.2954754 20.375 39.16015625 C8.61070727 30.63285577 -5.83384207 31.3223525 -16.625 41.16015625 Z " fill="#EE463E" transform="translate(557.625,560.83984375)"/>
<path d="M0 0 C11.58166875 9.77203301 16.59807223 22.1397504 18.375 37.02734375 C18.52742012 40.17271928 18.55218844 43.31466879 18.56787109 46.46337891 C18.58013733 47.84274879 18.58013733 47.84274879 18.59265137 49.24998474 C18.61732802 52.27211882 18.63396795 55.2942068 18.6484375 58.31640625 C18.65376118 59.35183941 18.65908485 60.38727257 18.66456985 61.45408249 C18.69121323 66.92576098 18.71062352 72.39741726 18.72509766 77.86914062 C18.73847805 82.39506046 18.76641869 86.92053384 18.80712891 91.44628906 C18.85635788 96.92033662 18.88120496 102.39397707 18.88832474 107.86823654 C18.89504465 109.95188222 18.91028582 112.03551853 18.93421555 114.11903763 C18.9657639 117.0298772 18.96592043 119.93913268 18.95849609 122.85009766 C18.97490143 123.70944412 18.99130676 124.56879059 19.00820923 125.45417786 C18.96313422 129.76798199 18.76198778 131.51670242 16.07559204 135.06147766 C12.49640723 137.66690563 9.45512589 137.73209957 5.1875 137.65625 C4.01731323 137.65986794 4.01731323 137.65986794 2.82348633 137.66355896 C1.17947286 137.66258253 -0.46457432 137.64923747 -2.10839844 137.62426758 C-4.61767824 137.5899439 -7.12343578 137.60361912 -9.6328125 137.62304688 C-11.23438991 137.61614801 -12.83595828 137.60647525 -14.4375 137.59375 C-15.18346436 137.59870987 -15.92942871 137.60366974 -16.69799805 137.60877991 C-20.06506827 137.5330632 -22.38053161 137.16620296 -25.32382202 135.49440002 C-28.43403239 132.15999301 -28.31337246 129.35634051 -28.23681641 125.02099609 C-28.24248123 124.21717499 -28.24814606 123.41335388 -28.25398254 122.58517456 C-28.26748671 119.92740259 -28.24652967 117.27099386 -28.2265625 114.61328125 C-28.23206437 112.75964425 -28.2401905 110.90601335 -28.25082397 109.05239868 C-28.27373494 104.1669125 -28.26948564 99.28187313 -28.25701904 94.3963623 C-28.23873851 86.59868236 -28.24883904 78.80126845 -28.28287888 71.00365067 C-28.28894572 68.29050619 -28.2757641 65.57793694 -28.26089478 62.86483765 C-28.12218303 48.50806465 -28.12218303 48.50806465 -33.8125 35.58984375 C-39.13011705 30.74490377 -44.90021686 29.35042901 -52.0390625 29.625 C-57.78544001 30.51907384 -62.59259059 32.78077549 -66.515625 37.1171875 C-71.37086151 44.01115197 -72.93045964 50.78864995 -72.86450195 59.17822266 C-72.86651611 59.96125259 -72.86853027 60.74428253 -72.87060547 61.55104065 C-72.8741319 63.23918938 -72.87340758 64.92735138 -72.86882973 66.61549759 C-72.86320707 69.28917817 -72.87244159 71.96242975 -72.8860321 74.63607788 C-72.92304887 82.23331756 -72.94167403 89.83040688 -72.93041992 97.42773438 C-72.92456836 102.08499576 -72.94282399 106.74164758 -72.97630882 111.39878464 C-72.98425708 113.16976595 -72.98299359 114.94081378 -72.97228432 116.71178055 C-72.95795233 119.18694721 -72.97422802 121.66019328 -72.99731445 124.13525391 C-72.97966286 125.2279081 -72.97966286 125.2279081 -72.96165466 126.34263611 C-73.03208536 130.19621347 -73.5306627 131.90630376 -75.9271698 134.9811554 C-79.49495093 137.68716417 -82.50481442 137.73281156 -86.8125 137.65625 C-87.98268677 137.65986794 -87.98268677 137.65986794 -89.17651367 137.66355896 C-90.82052714 137.66258253 -92.46457432 137.64923747 -94.10839844 137.62426758 C-96.61767824 137.5899439 -99.12343578 137.60361912 -101.6328125 137.62304688 C-103.23438991 137.61614801 -104.83595828 137.60647525 -106.4375 137.59375 C-107.18346436 137.59870987 -107.92942871 137.60366974 -108.69799805 137.60877991 C-111.89876696 137.53680289 -114.40956824 137.12634399 -117.3236084 135.78721619 C-121.14165426 131.20854321 -120.30233325 126.10575725 -120.24023438 120.3359375 C-120.24578339 119.03480011 -120.2513324 117.73366272 -120.25704956 116.39309692 C-120.27129765 112.82678166 -120.25423689 109.26123742 -120.23076439 105.69499588 C-120.21065704 101.96260109 -120.21653488 98.23023837 -120.21887207 94.49780273 C-120.2188185 88.22985111 -120.19906093 81.96220092 -120.16699219 75.69433594 C-120.13009913 68.44834473 -120.12131656 61.2027484 -120.1282897 53.95667553 C-120.13459554 46.98555864 -120.12383897 40.01457712 -120.10432434 33.04348755 C-120.09615074 30.0770576 -120.09344071 27.11069686 -120.09501648 24.14425659 C-120.09605883 20.0022183 -120.07188323 15.86070056 -120.04492188 11.71875 C-120.04785248 10.48641632 -120.05078308 9.25408264 -120.05380249 7.98440552 C-120.0367778 6.29358353 -120.0367778 6.29358353 -120.01940918 4.56860352 C-120.01568047 3.58932388 -120.01195175 2.61004425 -120.00811005 1.60108948 C-119.55725564 -1.42776507 -118.74338218 -2.78634487 -116.625 -4.97265625 C-111.31043029 -6.74417949 -105.56752388 -6.19825914 -100.00146484 -6.21289062 C-97.76492047 -6.22259153 -95.52929739 -6.25362397 -93.29296875 -6.28515625 C-91.86458877 -6.29168741 -90.43620224 -6.29693744 -89.0078125 -6.30078125 C-87.71246582 -6.31012695 -86.41711914 -6.31947266 -85.08251953 -6.32910156 C-81.40952456 -5.95044229 -79.53659993 -5.19610904 -76.625 -2.97265625 C-75.20865167 -0.13995959 -75.2786995 2.50200813 -75.0625 5.65234375 C-74.97871094 6.84085938 -74.89492188 8.029375 -74.80859375 9.25390625 C-74.74800781 10.16914062 -74.68742187 11.084375 -74.625 12.02734375 C-74.00625 11.28291016 -74.00625 11.28291016 -73.375 10.5234375 C-55.04313582 -11.04105452 -23.95535555 -18.00216452 0 0 Z " fill="#EE463E" transform="translate(465.625,570.97265625)"/>
<path d="M0 0 C1.29808594 -0.01160156 2.59617187 -0.02320313 3.93359375 -0.03515625 C20.62031193 0.01485389 37.37145121 3.51413532 49.82421875 15.43359375 C58.73317637 25.75469383 61.64011353 37.68848921 61.65771484 51.00732422 C61.66279556 51.85366425 61.66787628 52.70000427 61.67311096 53.57199097 C61.68377451 55.40201677 61.69241027 57.23205529 61.69923019 59.06209946 C61.71107461 61.9632714 61.73054082 64.86429817 61.75234985 67.76541138 C61.813785 76.01136419 61.86799058 84.2572999 61.90136719 92.50341797 C61.92235949 97.55495192 61.95769497 102.60621681 62.00212479 107.65759659 C62.0162436 109.57680208 62.02499788 111.49605512 62.02817917 113.41530991 C62.03311058 116.10512046 62.05632438 118.79422141 62.08349609 121.48388672 C62.08048996 122.26856323 62.07748383 123.05323975 62.0743866 123.86169434 C62.1442573 128.54014514 62.91973453 132.23716355 64.76073647 136.5469532 C65.53655288 138.46538776 66.03984106 140.35982945 66.5 142.375 C61.48294279 142.44942006 56.46621028 142.50372908 51.44873047 142.53979492 C49.74359537 142.55483738 48.03849868 142.57527653 46.33349609 142.60131836 C43.87587988 142.63790284 41.41877731 142.65477173 38.9609375 142.66796875 C38.20444916 142.68345261 37.44796082 142.69893646 36.66854858 142.71488953 C31.23432786 142.71659905 27.05178608 141.69762083 22.890625 137.91015625 C20.76079716 135.16034428 18.9892765 132.50925008 17.5 129.375 C16.96632813 129.96667969 16.43265625 130.55835938 15.8828125 131.16796875 C5.44050676 142.24259405 -5.57604014 145.53526955 -20.4921875 146.3359375 C-34.62442367 146.65915653 -49.01052742 143.32353566 -59.5 133.375 C-67.9272653 124.30099108 -70.89590776 113.30282138 -70.7109375 101.11328125 C-69.92561454 90.91862581 -66.73378465 81.1938082 -59.0859375 74.15234375 C-43.7124203 62.30100124 -25.04276373 60.09170646 -6.38256836 57.45092773 C1.27344597 56.33609256 8.38730984 54.45716574 15.5 51.375 C16.28855399 46.56767085 16.91047661 42.62923407 15.375 37.9375 C12.81092134 34.43325917 10.37040816 32.9465136 6.25 31.6875 C-2.32528209 30.71303613 -10.24430721 30.98978983 -17.25 36.5625 C-19.58120211 39.47650264 -21.4680062 42.45211174 -23.2890625 45.703125 C-24.5 47.375 -24.5 47.375 -27.5 48.375 C-31.59290092 48.64650825 -35.6856605 48.6881903 -39.78686523 48.72509766 C-41.79513562 48.74978653 -43.80293046 48.80639715 -45.81054688 48.86328125 C-56.68485107 48.96218851 -56.68485107 48.96218851 -60.37890625 46.08203125 C-62.67790262 43.14795301 -63.26967877 41.33129709 -62.94140625 37.6015625 C-60.8954479 27.28124164 -55.07609845 18.70750814 -46.78515625 12.265625 C-44.08091402 10.49061047 -41.3540844 8.8957895 -38.5 7.375 C-37.77167969 6.97667969 -37.04335938 6.57835937 -36.29296875 6.16796875 C-24.97388253 0.56092604 -12.40373963 -0.11085765 0 0 Z M10.5625 79.5625 C5.94698843 81.03471632 1.32955261 82.44376739 -3.35546875 83.6796875 C-4.15154541 83.89085205 -4.94762207 84.1020166 -5.76782227 84.31958008 C-7.30360438 84.72217609 -8.8417993 85.11571148 -10.38256836 85.4987793 C-16.14725168 87.01614471 -20.3440776 89.5027516 -24.875 93.4375 C-27.3908141 97.98531779 -27.23058881 102.29815327 -26.5 107.375 C-24.72623391 111.19541927 -23.27972582 112.8491384 -19.8125 115.1875 C-10.99153595 118.3497324 -2.7934729 117.57229064 5.8125 114 C11.96575334 110.27942821 15.89863628 106.47395982 18.10327148 99.45410156 C18.5476636 97.12521341 18.61285279 94.98003563 18.59765625 92.609375 C18.59443359 91.71992187 18.59121094 90.83046875 18.58789062 89.9140625 C18.57951172 88.99367188 18.57113281 88.07328125 18.5625 87.125 C18.55798828 86.18914062 18.55347656 85.25328125 18.54882812 84.2890625 C18.53706918 81.98430959 18.52063426 79.67968773 18.5 77.375 C15.88690056 77.375 13.05916563 78.76329658 10.5625 79.5625 Z " fill="#EE463E" transform="translate(932.5,558.625)"/>
<path d="M0 0 C7.9943269 7.30329186 13.47316286 17.26846431 14.49607849 28.13947105 C14.57328547 30.2677693 14.59463705 32.38861964 14.59179688 34.51831055 C14.59862991 35.31789688 14.60546295 36.11748322 14.61250305 36.94129944 C14.62600913 38.66431089 14.63511472 40.38736148 14.64021301 42.11041832 C14.6485739 44.84936958 14.66914701 47.5879987 14.69274902 50.32685852 C14.74077915 56.14884673 14.77380007 61.97086769 14.8046875 67.79296875 C14.84054111 74.52884309 14.88278009 81.26455984 14.94062805 88.00028419 C14.96045545 90.67710735 14.96896798 93.35380478 14.97692871 96.03068542 C14.45753246 111.74695289 14.45753246 111.74695289 19.3046875 126.10546875 C19.3046875 127.42546875 19.3046875 128.74546875 19.3046875 130.10546875 C14.59077351 130.18002575 9.87720821 130.23426148 5.1628418 130.27026367 C3.56154394 130.28528341 1.96028675 130.30570538 0.35913086 130.33178711 C-1.95208821 130.36847313 -4.26276006 130.3852631 -6.57421875 130.3984375 C-7.28179825 130.41392136 -7.98937775 130.42940521 -8.71839905 130.44535828 C-14.53331985 130.44729545 -19.18801729 129.22023242 -23.69140625 125.421875 C-24.16707031 124.84308594 -24.64273438 124.26429688 -25.1328125 123.66796875 C-25.62652344 123.09175781 -26.12023437 122.51554688 -26.62890625 121.921875 C-27.6953125 120.10546875 -27.6953125 120.10546875 -27.6953125 116.10546875 C-28.3553125 116.80671875 -29.0153125 117.50796875 -29.6953125 118.23046875 C-39.99739373 128.44573469 -51.88274162 133.27470747 -66.34423828 133.43505859 C-67.22321777 133.42941895 -68.10219727 133.4237793 -69.0078125 133.41796875 C-69.93062012 133.4123291 -70.85342773 133.40668945 -71.80419922 133.40087891 C-84.8590229 133.16910932 -96.72810553 129.86863453 -106.5703125 120.85546875 C-114.09868653 112.6952168 -117.08852371 102.17514573 -117.0078125 91.29296875 C-117.00217285 90.49906738 -116.9965332 89.70516602 -116.99072266 88.88720703 C-116.75908016 77.67433405 -113.6198729 70.34184812 -105.9140625 62.23046875 C-92.83483327 49.79448031 -72.99560935 47.72122364 -55.87036133 45.32373047 C-43.83360651 43.71184527 -43.83360651 43.71184527 -32.6953125 39.10546875 C-30.62207112 35.99560668 -30.42139064 35.21438488 -30.4453125 31.66796875 C-30.44015625 30.90613281 -30.435 30.14429688 -30.4296875 29.359375 C-30.72960148 26.81451668 -31.31593223 25.26075042 -32.6953125 23.10546875 C-39.58256783 18.3373689 -46.48976716 18.11317024 -54.6953125 19.10546875 C-57.70813921 20.1518397 -59.95775536 21.42081821 -62.6953125 23.10546875 C-63.3553125 23.10546875 -64.0153125 23.10546875 -64.6953125 23.10546875 C-64.9428125 23.80671875 -65.1903125 24.50796875 -65.4453125 25.23046875 C-67.1114358 29.06255233 -68.87589788 32.90426983 -72.44775391 35.26245117 C-77.34494263 37.09929591 -82.9067494 36.43152853 -88.0703125 36.41796875 C-89.89949219 36.44213867 -89.89949219 36.44213867 -91.765625 36.46679688 C-93.53679687 36.46776367 -93.53679687 36.46776367 -95.34375 36.46875 C-96.41802246 36.47173096 -97.49229492 36.47471191 -98.59912109 36.4777832 C-102.77112564 35.97610311 -106.35897963 34.67420733 -109.1328125 31.41796875 C-110.84451116 24.38098537 -107.86928195 18.24107285 -104.59765625 12.12890625 C-96.79541883 -0.27136431 -84.14371346 -7.14331171 -70.2578125 -10.83203125 C-68.40988463 -11.21742797 -66.55580794 -11.57527464 -64.6953125 -11.89453125 C-63.98890625 -12.0234375 -63.2825 -12.15234375 -62.5546875 -12.28515625 C-41.84500599 -15.28885052 -16.83796253 -13.31548076 0 0 Z M-37.8203125 67.29296875 C-42.30250412 68.73585189 -46.78303473 70.14916154 -51.3203125 71.41015625 C-52.07296387 71.6213208 -52.82561523 71.83248535 -53.60107422 72.05004883 C-55.04308559 72.45155936 -56.48735102 72.84509067 -57.93408203 73.22924805 C-64.07726621 74.9563222 -69.28858781 77.54712847 -72.6953125 83.10546875 C-74.25842762 87.79481412 -74.21852829 91.623024 -72.5703125 96.29296875 C-69.77504351 100.48587224 -66.43043632 102.52709414 -61.6953125 104.10546875 C-51.80455014 104.95166301 -43.43944728 103.82839832 -35.3203125 97.85546875 C-28.35042725 90.5536842 -27.5186412 82.44381125 -27.6328125 72.73046875 C-27.63732422 71.99441406 -27.64183594 71.25835937 -27.64648438 70.5 C-27.65816108 68.70178717 -27.67609239 66.90361678 -27.6953125 65.10546875 C-31.35153671 65.10546875 -34.38555619 66.17236611 -37.8203125 67.29296875 Z " fill="#489E58" transform="translate(462.6953125,413.89453125)"/>
<path d="M0 0 C0.73997726 -0.00807175 1.47995453 -0.01614349 2.24235535 -0.02445984 C3.8100653 -0.03829758 5.37780534 -0.04902113 6.94555664 -0.05688477 C9.33603507 -0.07407897 11.72512334 -0.11796224 14.11523438 -0.16210938 C15.63931276 -0.17223831 17.16340289 -0.18075378 18.6875 -0.1875 C19.75494194 -0.21376213 19.75494194 -0.21376213 20.84394836 -0.24055481 C24.3440007 -0.22535959 26.39997943 0.15145631 29.41333008 1.98120117 C31.59358535 4.29192684 32.50702309 5.7829671 33.47265625 8.77734375 C33.78581787 9.72649658 34.09897949 10.67564941 34.42163086 11.65356445 C34.75042236 12.712771 35.07921387 13.77197754 35.41796875 14.86328125 C35.96239624 16.55167114 35.96239624 16.55167114 36.51782227 18.27416992 C42.36542933 36.63903405 47.78925581 55.14516453 53.2592926 73.62516785 C54.61442758 78.18995874 55.9974047 82.73324653 57.54296875 87.23828125 C57.69628662 86.67286621 57.84960449 86.10745117 58.00756836 85.52490234 C62.69593821 68.39246386 67.86896069 51.40571865 73.14260864 34.44561768 C73.90955237 31.97394084 74.67214789 29.50091059 75.4303894 27.02655029 C76.51281426 23.49938757 77.6116623 19.97774894 78.71484375 16.45703125 C79.04071976 15.38518585 79.36659576 14.31334045 79.7023468 13.20901489 C80.17404549 11.72206619 80.17404549 11.72206619 80.65527344 10.20507812 C80.92426453 9.33911011 81.19325562 8.47314209 81.47039795 7.58093262 C83.03232044 4.16946565 85.18681902 1.91635612 88.54296875 0.23828125 C93.05590191 0.00258165 97.57270331 0.0098583 102.09106445 -0.00195312 C104.3364802 -0.01163686 106.58097187 -0.04264832 108.82617188 -0.07421875 C110.25910916 -0.08075127 111.69205298 -0.08600077 113.125 -0.08984375 C115.07756714 -0.1038623 115.07756714 -0.1038623 117.06958008 -0.11816406 C120.79872846 0.26452777 122.63333504 0.91004842 125.54296875 3.23828125 C127.00954364 5.50183375 127.57001001 6.7687608 127.41366577 9.48338318 C126.08100695 15.38326579 124.4035594 21.02975666 122.33203125 26.7109375 C122.01166901 27.60788834 121.69130676 28.50483917 121.36123657 29.42897034 C120.66657945 31.37155781 119.96879427 33.31302902 119.26818848 35.253479 C117.75474408 39.4452985 116.25637611 43.64245884 114.75708008 47.83935547 C113.95494281 50.08441877 113.15202992 52.32920509 112.34838867 54.57373047 C107.43209893 68.31425372 102.61504989 82.08950057 97.79296875 95.86328125 C96.93970386 98.29959136 96.08635297 100.73587135 95.23291016 103.17211914 C94.62396408 104.91118279 94.62396408 104.91118279 94.00271606 106.68537903 C93.21920929 108.91917127 92.43369283 111.15225984 91.64596558 113.38456726 C90.06753522 117.85962474 88.49784224 122.3329374 87.03320312 126.84667969 C86.61876953 128.09739258 86.20433594 129.34810547 85.77734375 130.63671875 C85.45475586 131.65169434 85.13216797 132.66666992 84.79980469 133.71240234 C83.13158036 137.06505365 81.82379008 138.38375213 78.54296875 140.23828125 C75.22670168 140.81928212 71.96600818 140.82278593 68.60546875 140.8046875 C67.64777588 140.81088608 66.69008301 140.81708466 65.70336914 140.82347107 C63.68279027 140.83056071 61.66215288 140.8274102 59.64160156 140.81469727 C56.55294222 140.80082604 53.46731012 140.83492147 50.37890625 140.87304688 C48.41275968 140.87399807 46.44660932 140.87213924 44.48046875 140.8671875 C43.09903687 140.88707481 43.09903687 140.88707481 41.68969727 140.90736389 C37.49343084 140.84652116 35.19047944 140.67308522 31.64746094 138.29394531 C28.8925651 134.29391325 27.43561747 130.31428899 25.93359375 125.71875 C25.60945496 124.76837357 25.28531616 123.81799713 24.95135498 122.83882141 C23.88544754 119.70541565 22.83959919 116.56567257 21.79296875 113.42578125 C20.6679997 110.10689945 19.53766014 106.78987445 18.40734863 103.47280884 C17.62786491 101.18366435 16.8501373 98.8939212 16.07409668 96.60360718 C12.35544315 85.63585355 8.51058979 74.71459049 4.63168335 63.80264282 C3.55031345 60.75895409 2.4726231 57.71398414 1.39575195 54.66870117 C-1.52714973 46.41245652 -4.46242925 38.16321153 -7.5234375 29.95703125 C-7.95591797 28.78978516 -8.38839844 27.62253906 -8.83398438 26.41992188 C-9.58524146 24.40378053 -10.34700129 22.39149589 -11.12304688 20.38476562 C-13.09665819 15.08844154 -13.99019742 10.90238777 -13.45703125 5.23828125 C-9.56818072 0.18277556 -6.0248618 0.06201088 0 0 Z " fill="#EE463E" transform="translate(747.45703125,560.76171875)"/>
<path d="M0 0 C1.48501029 2.55964995 2.73543437 5.00010971 3.9375 7.6875 C5.87102716 11.94590952 7.68057844 15.83189587 10.75390625 19.39453125 C13 22 13 22 13 24 C13.66 24 14.32 24 15 24 C15.375 26.0625 15.375 26.0625 15 29 C13.8046875 30.609375 13.8046875 30.609375 12.25 32.3125 C3.67344466 41.7971612 1.29295031 55.52341609 1.7109375 68.08203125 C2.93170614 80.40519577 4.89839559 91.89839559 14 101 C20.98109736 105.36144406 28.12359852 107.26278001 36.30859375 105.50390625 C43.79974293 103.26793086 48.13874221 99.80642511 52.1875 93.1875 C58.95197109 80.0491572 58.95966781 65.30034904 56.4375 51.078125 C56.00102946 48.00724299 55.92581907 45.09705386 56 42 C57.11375 41.91363281 58.2275 41.82726562 59.375 41.73828125 C70.48969785 40.75793304 82.27065397 39.29102484 92.1953125 33.78125 C94 33 94 33 96.1171875 33.0703125 C98 34 98 34 99.1953125 36.1171875 C106.20786005 56.91911425 106.45687213 78.82967988 97.44921875 99.1171875 C88.74005054 116.44162454 76.2529136 128.01764314 58 135 C37.11782094 141.88868779 13.52628016 140.99717099 -6.375 131.4375 C-22.62687291 123.06447769 -34.82515434 108.33943977 -40.64160156 91.09814453 C-46.83821634 71.29549208 -45.8873303 49.29249228 -36.75 30.5625 C-31.44355918 20.71572871 -13.68039447 -5.33211558 0 0 Z " fill="#489E58" transform="translate(758,409)"/>
<path d="M0 0 C2.05719465 1.55703105 2.85148481 2.70296962 4 5 C4.25760157 9.24598449 4.27098554 13.49573302 4.29516602 17.74853516 C4.31238067 19.86036072 4.35626939 21.97062059 4.40039062 24.08203125 C4.41051795 25.42707184 4.41903393 26.77212571 4.42578125 28.1171875 C4.44036377 29.34034668 4.45494629 30.56350586 4.4699707 31.82373047 C3.9125544 35.59099601 3.0227593 36.75546158 0 39 C-2.8828125 39.46875 -2.8828125 39.46875 -6.125 39.5 C-15.18890889 39.94760044 -22.54283545 42.39608172 -29 49 C-36.95761754 58.38957956 -41.10128596 71.83772115 -41.1418457 84.02783203 C-41.14888016 85.21901642 -41.15591461 86.41020081 -41.16316223 87.63748169 C-41.16732651 88.91469086 -41.17149078 90.19190002 -41.17578125 91.5078125 C-41.19303519 93.52060799 -41.21031234 95.53340361 -41.22898388 97.54618645 C-41.2745145 102.50195584 -41.31236986 107.45760656 -41.32592773 112.41357422 C-41.33404695 115.19957306 -41.35256522 117.98511955 -41.38285828 120.77096558 C-41.41109815 123.39399138 -41.42390535 126.01723647 -41.41999817 128.64041138 C-41.43648911 129.82529144 -41.45298004 131.01017151 -41.4699707 132.23095703 C-41.47583694 133.27510773 -41.48170319 134.31925842 -41.48774719 135.39505005 C-42 138 -42 138 -43.8021698 139.83630371 C-47.13186946 141.59929666 -50.4477826 141.42804338 -54.125 141.3984375 C-55.3008667 141.40274277 -55.3008667 141.40274277 -56.50048828 141.40713501 C-58.15462976 141.40917264 -59.8087955 141.40366381 -61.46289062 141.39111328 C-63.99143471 141.3750544 -66.51838049 141.39097117 -69.046875 141.41015625 C-70.65625352 141.40817376 -72.26563105 141.40432997 -73.875 141.3984375 C-74.6292627 141.40451019 -75.38352539 141.41058289 -76.16064453 141.4168396 C-80.45398209 141.3594574 -82.94384266 141.07691947 -86 138 C-86.50057125 135.56212616 -86.50057125 135.56212616 -86.50120544 132.61022949 C-86.51103958 131.49135849 -86.52087372 130.37248749 -86.53100586 129.2197113 C-86.51650391 127.37748741 -86.51650391 127.37748741 -86.50170898 125.49804688 C-86.50981346 123.55878075 -86.50981346 123.55878075 -86.51808167 121.58033752 C-86.53205867 118.03273602 -86.52085128 114.48561829 -86.50437045 110.93804359 C-86.49053357 107.22785677 -86.49697847 103.51769842 -86.50050354 99.80749512 C-86.50320676 93.57649934 -86.48972066 87.34569607 -86.46655273 81.11474609 C-86.43994216 73.90795829 -86.4381954 66.7014924 -86.4499411 59.4946723 C-86.46071544 52.56574727 -86.45453456 45.63693884 -86.44038582 38.70802307 C-86.43462298 35.75750476 -86.434711 32.8070717 -86.43945122 29.85655212 C-86.44510386 25.73817372 -86.42591546 21.62027727 -86.40405273 17.50195312 C-86.40855438 16.27380386 -86.41305603 15.0456546 -86.41769409 13.7802887 C-86.40778946 12.66141769 -86.39788483 11.54254669 -86.38768005 10.38977051 C-86.38525016 9.41564461 -86.38282026 8.44151871 -86.38031673 7.43787384 C-86 5 -86 5 -84.69963169 3.18938446 C-81.78923679 1.15272058 -78.40243489 1.53215965 -74.97265625 1.53125 C-74.18733017 1.52363647 -73.40200409 1.51602295 -72.59288025 1.50817871 C-70.9328021 1.49737911 -69.27265601 1.49452407 -67.61254883 1.49902344 C-65.07452866 1.49999539 -62.53953627 1.4583871 -60.00195312 1.4140625 C-58.38802713 1.40885503 -56.77409064 1.40616731 -55.16015625 1.40625 C-54.4027565 1.38985474 -53.64535675 1.37345947 -52.86500549 1.35656738 C-49.03926855 1.40665461 -47.355969 1.66463326 -44.52807617 4.32885742 C-42.64675695 7.61748397 -42.40233734 10.04215087 -42.25 13.8125 C-42.19328125 14.97394531 -42.1365625 16.13539063 -42.078125 17.33203125 C-42.03945313 18.65267578 -42.03945313 18.65267578 -42 20 C-41.53851562 19.35933594 -41.07703125 18.71867187 -40.6015625 18.05859375 C-30.22971668 4.30462429 -17.47589495 -2.31799907 0 0 Z " fill="#489E58" transform="translate(716,403)"/>
<path d="M0 0 C2.91756886 3.55732347 2.99647679 5.25989475 2.96972656 9.80712891 C2.96714844 11.12648438 2.96457031 12.44583984 2.96191406 13.80517578 C2.94741211 14.48717041 2.93291016 15.16916504 2.91796875 15.87182617 C2.87601951 17.95733776 2.8769107 20.03962477 2.88378906 22.12548828 C2.78552071 32.17342745 2.78552071 32.17342745 1.02075195 35.29125977 C-1.41060691 37.66487521 -3.34691725 37.36512897 -6.68652344 37.39697266 C-15.95496788 37.87069315 -23.02457283 40.41695001 -29.81152344 46.86181641 C-38.57192502 56.69838801 -42.69925262 69.92089576 -42.78173828 82.9465332 C-42.7971315 84.70316536 -42.7971315 84.70316536 -42.81283569 86.49528503 C-42.82013702 87.74545914 -42.82743835 88.99563324 -42.83496094 90.28369141 C-42.85583791 92.26041188 -42.8767321 94.23713235 -42.89866066 96.21384144 C-42.95172132 101.07340235 -42.99618294 105.9329604 -43.02539062 110.79272461 C-43.04226249 113.52739247 -43.06691718 116.26177542 -43.10025024 118.99629211 C-43.13129791 121.56924437 -43.15065537 124.14236893 -43.15731812 126.71549988 C-43.17388458 127.8771315 -43.19045105 129.03876312 -43.20751953 130.2355957 C-43.21560638 131.2589653 -43.22369324 132.2823349 -43.23202515 133.3367157 C-43.62402344 135.89697266 -43.62402344 135.89697266 -44.91372681 137.72654724 C-47.94430255 139.80049325 -51.57577288 139.32213372 -55.12402344 139.29541016 C-55.95611328 139.29828033 -56.78820312 139.30115051 -57.64550781 139.30410767 C-59.40397828 139.30614828 -61.16247145 139.30061859 -62.92089844 139.28808594 C-65.61412257 139.27203168 -68.30584604 139.28793411 -70.99902344 139.30712891 C-72.70736009 139.30514647 -74.4156958 139.30130279 -76.12402344 139.29541016 C-76.93033203 139.30148285 -77.73664062 139.30755554 -78.56738281 139.31381226 C-84.12388809 139.24383427 -84.12388809 139.24383427 -86.33612156 137.70957184 C-88.10108457 135.22555457 -88.00413084 133.54301713 -88.01170349 130.50720215 C-88.02160812 129.38833115 -88.03151276 128.26946014 -88.04171753 127.11668396 C-88.03721588 125.8885347 -88.03271423 124.66038544 -88.02807617 123.39501953 C-88.03493942 122.10217545 -88.04180267 120.80933136 -88.0488739 119.47731018 C-88.06683904 115.92980719 -88.06563088 112.38255109 -88.05993152 108.83501625 C-88.05684485 105.87510436 -88.06292618 102.91524024 -88.06897026 99.95533514 C-88.08302453 92.97408938 -88.08144642 85.99296596 -88.07006836 79.01171875 C-88.05858235 71.80488718 -88.07266857 64.59842752 -88.09946483 57.39164495 C-88.12160022 51.20727332 -88.12826425 45.02301862 -88.12238842 38.83861017 C-88.11901287 35.14349113 -88.12147333 31.44861059 -88.13863945 27.75352478 C-88.1569369 23.6350843 -88.14294401 19.51737081 -88.12573242 15.39892578 C-88.13540039 14.17077652 -88.14506836 12.94262726 -88.1550293 11.67726135 C-88.14519516 10.55839035 -88.13536102 9.43951935 -88.12522888 8.28674316 C-88.1250196 7.31261726 -88.12481031 6.33849136 -88.12459469 5.3348465 C-87.62402344 2.89697266 -87.62402344 2.89697266 -85.81218052 1.08437347 C-82.60652777 -0.65517015 -79.49290237 -0.53186081 -75.93652344 -0.50146484 C-75.19700439 -0.50433502 -74.45748535 -0.5072052 -73.69555664 -0.51016235 C-72.13557162 -0.51219937 -70.57556084 -0.50669479 -69.015625 -0.49414062 C-66.63190435 -0.47808044 -64.24987904 -0.49400013 -61.86621094 -0.51318359 C-60.34797804 -0.5112011 -58.82974619 -0.50735728 -57.31152344 -0.50146484 C-56.24575073 -0.51057388 -56.24575073 -0.51057388 -55.15844727 -0.51986694 C-52.07866665 -0.47623517 -49.92356313 -0.2687057 -47.20605469 1.234375 C-44.24210236 4.34926935 -44.37035685 7.98140019 -44.06152344 12.08447266 C-43.97773437 13.17115234 -43.89394531 14.25783203 -43.80761719 15.37744141 C-43.74703125 16.20888672 -43.68644531 17.04033203 -43.62402344 17.89697266 C-42.94597656 17.10033203 -42.26792969 16.30369141 -41.56933594 15.48291016 C-33.03141348 5.67094783 -13.54559453 -10.85613615 0 0 Z " fill="#EE463E" transform="translate(728.6240234375,562.10302734375)"/>
<path d="M0 0 C1.07454941 -0.00855011 1.07454941 -0.00855011 2.17080688 -0.01727295 C3.68547087 -0.02671036 5.20015527 -0.03325193 6.71484375 -0.03710938 C9.02380453 -0.04681089 11.33187319 -0.07784275 13.640625 -0.109375 C15.11457807 -0.11590605 16.58853748 -0.12115612 18.0625 -0.125 C18.74911713 -0.1373468 19.43573425 -0.1496936 20.14315796 -0.16241455 C24.48767487 -0.14237483 27.20705744 0.54588088 30.6640625 3.203125 C31.9499783 5.77495661 31.80160079 7.62301824 31.81796265 10.50387573 C31.82656311 11.62834106 31.83516357 12.7528064 31.84402466 13.91134644 C31.84828461 15.15087067 31.85254456 16.3903949 31.85693359 17.66748047 C31.86919983 19.61874847 31.86919983 19.61874847 31.88171387 21.60943604 C31.9079358 25.9297071 31.92323992 30.24998788 31.9375 34.5703125 C31.94285928 36.05671317 31.94823679 37.54311377 31.95363235 39.02951431 C31.97525978 45.21114448 31.9939977 51.39277203 32.00525475 57.57443047 C32.0215027 66.43885324 32.0547019 75.30283828 32.11165559 84.16709602 C32.15032344 90.39729604 32.16988355 96.62737881 32.17517531 102.8576957 C32.17883269 106.58035652 32.19089399 110.3025505 32.22327805 114.02508163 C32.25888012 118.17698061 32.25499597 122.32793559 32.24755859 126.47998047 C32.26396393 127.71545624 32.28036926 128.95093201 32.29727173 130.22384644 C32.2362357 138.51587851 32.2362357 138.51587851 29.36465454 141.96498108 C25.73022948 143.63126063 22.40254415 143.79563485 18.4765625 143.76953125 C17.69643799 143.77572983 16.91631348 143.78192841 16.11254883 143.78831482 C14.46859989 143.7953962 12.82457899 143.79226831 11.18066406 143.77954102 C8.67117983 143.76566436 6.16542017 143.79977603 3.65625 143.83789062 C2.05468659 143.83884184 0.45311854 143.83698287 -1.1484375 143.83203125 C-1.89440186 143.84528946 -2.64036621 143.85854767 -3.40893555 143.87220764 C-6.89636911 143.81014222 -9.09347651 143.35995368 -12.03355408 141.45825195 C-15.60848889 136.4039823 -15.02502605 131.53728996 -14.96704102 125.48999023 C-14.97419632 124.19846039 -14.98135162 122.90693054 -14.98872375 121.57626343 C-15.00721872 118.04101741 -14.99431293 114.50652674 -14.97463346 110.97131228 C-14.95823289 107.26960817 -14.96706163 103.56795136 -14.97215271 99.8662262 C-14.97667156 93.65133614 -14.96081566 87.43674728 -14.93286133 81.22192383 C-14.90079599 74.03776418 -14.90083111 66.85414725 -14.9180761 59.669949 C-14.93394074 52.75594622 -14.92720904 45.84214234 -14.91013908 38.92814827 C-14.9032684 35.98680384 -14.90430107 33.04561884 -14.91168404 30.10427666 C-14.92076912 25.99816615 -14.89681258 21.89289403 -14.86938477 17.78686523 C-14.87591064 16.56545334 -14.88243652 15.34404144 -14.88916016 14.08561707 C-14.8764357 12.96826172 -14.86371124 11.85090637 -14.8506012 10.69969177 C-14.84779428 9.7290853 -14.84498735 8.75847883 -14.84209538 7.75846004 C-14.18729256 4.4526919 -12.93944602 3.27952704 -10.3359375 1.203125 C-6.83211953 0.03518568 -3.64739861 0.02244357 0 0 Z " fill="#EE463E" transform="translate(307.3359375,564.796875)"/>
<path d="M0 0 C9.21169491 1.81117891 17.79393337 10.7830733 23 18.1875 C30 30.10832534 30 30.10832534 30 34.1875 C30.7734375 33.84976563 31.546875 33.51203125 32.34375 33.1640625 C33.3853125 32.71804688 34.426875 32.27203125 35.5 31.8125 C36.5209375 31.37164062 37.541875 30.93078125 38.59375 30.4765625 C52.97949691 25.03241516 70.89233751 24.85265431 85 31.1875 C90.63813373 33.85669242 95.87687224 36.39294547 100 41.1875 C100.37493487 46.56156644 97.27012282 49.95089314 94.015625 53.88671875 C85.43779681 63.67807689 76.40164436 69.99993177 64 74.1875 C63.3296875 74.414375 62.659375 74.64125 61.96875 74.875 C56.79492186 76.30775241 51.58561881 76.42081134 46.25 76.5 C45.51644287 76.51772461 44.78288574 76.53544922 44.02709961 76.55371094 C39.45421131 76.54744026 36.6626467 75.92470928 33 73.1875 C32.41476562 72.75308594 31.82953125 72.31867188 31.2265625 71.87109375 C30.69804688 71.45988281 30.16953125 71.04867187 29.625 70.625 C24.53578014 66.9882828 19.64787412 66.20625952 13.5 65.9375 C8.70053305 65.53098777 6.02004219 64.59527631 2.62109375 61.171875 C-7.79242444 48.42472503 -11.27638027 35.70450147 -10.24072266 19.50878906 C-9.6012318 13.34217744 -8.41614109 6.29396711 -4.55078125 1.32421875 C-3 0.1875 -3 0.1875 0 0 Z " fill="#B1D082" transform="translate(773,367.8125)"/>
<path d="M0 0 C0.73856232 -0.00570007 1.47712463 -0.01140015 2.23806763 -0.01727295 C3.79981051 -0.02671145 5.3615732 -0.03325237 6.92333984 -0.03710938 C9.30471776 -0.04681146 11.68523094 -0.07784278 14.06640625 -0.109375 C15.58593239 -0.11590594 17.10546469 -0.12115606 18.625 -0.125 C19.68773636 -0.1435202 19.68773636 -0.1435202 20.77194214 -0.16241455 C25.17117898 -0.14272821 27.9482502 0.49736876 31.4453125 3.203125 C33.55542848 7.42335696 32.75413684 12.88172332 32.79541016 17.52441406 C32.8119704 18.8901473 32.83926261 20.25579382 32.87744141 21.62109375 C32.93227574 23.59322261 32.95095912 25.56625168 32.96875 27.5390625 C32.998479 29.31095947 32.998479 29.31095947 33.02880859 31.11865234 C32.4453125 34.203125 32.4453125 34.203125 30.42431641 36.58422852 C26.6642215 38.62759758 23.43485732 38.79730415 19.2578125 38.76953125 C18.08762573 38.77882912 18.08762573 38.77882912 16.89379883 38.78831482 C15.24984989 38.7953962 13.60582899 38.79226831 11.96191406 38.77954102 C9.45242983 38.76566436 6.94667017 38.79977603 4.4375 38.83789062 C2.83593659 38.83884184 1.23436854 38.83698287 -0.3671875 38.83203125 C-1.11315186 38.84528946 -1.85911621 38.85854767 -2.62768555 38.87220764 C-6.44296389 38.8043076 -8.40501428 38.31053986 -11.52929688 36.06835938 C-13.94629898 32.64912882 -14.17470008 30.88443346 -14.1484375 26.73046875 C-14.14585937 25.50134766 -14.14328125 24.27222656 -14.140625 23.00585938 C-14.11226563 21.73033203 -14.08390625 20.45480469 -14.0546875 19.140625 C-14.05726563 17.86123047 -14.05984375 16.58183594 -14.0625 15.26367188 C-13.95070972 4.61564732 -13.95070972 4.61564732 -10.5546875 1.203125 C-6.98690773 0.01386508 -3.71523261 0.02215918 0 0 Z " fill="#EE463E" transform="translate(306.5546875,508.796875)"/>
<path d="M0 0 C0.80277878 -0.01377182 1.60555756 -0.02754364 2.43266296 -0.04173279 C4.13138956 -0.06499793 5.8302073 -0.08226689 7.52905273 -0.09399414 C10.11808416 -0.12090009 12.70301497 -0.19579454 15.29101562 -0.27148438 C16.943983 -0.28814479 18.59698259 -0.30191016 20.25 -0.3125 C21.01895096 -0.34235489 21.78790192 -0.37220978 22.58015442 -0.40296936 C25.94124532 -0.37570519 27.99986128 -0.28062467 30.58895874 1.98709106 C32.18041992 3.87524414 32.18041992 3.87524414 33.53239441 5.75965881 C35.25157546 7.99775592 37.38821244 9.08010861 39.82421875 10.44140625 C39.82421875 11.10140625 39.82421875 11.76140625 39.82421875 12.44140625 C38.9528125 12.72113281 38.08140625 13.00085938 37.18359375 13.2890625 C25.98760065 17.05741083 15.95298482 21.69634604 7.54296875 30.25390625 C5.82421875 31.44140625 5.82421875 31.44140625 3.8828125 31.3984375 C-3.92130378 27.7703379 -8.37250407 18.85456022 -11.49609375 11.30078125 C-12.29541629 7.93811403 -12.13907473 5.75214308 -11.17578125 2.44140625 C-7.42141076 -0.06150741 -4.35844508 0.0654411 0 0 Z " fill="#489E58" transform="translate(499.17578125,545.55859375)"/>
</svg>
