<?xml version="1.0" encoding="UTF-8"?>
<svg version="1.1" xmlns="http://www.w3.org/2000/svg" width="1081" height="1081">
<path d="M0 0 C356.73 0 713.46 0 1081 0 C1081 356.73 1081 713.46 1081 1081 C724.27 1081 367.54 1081 0 1081 C0 724.27 0 367.54 0 0 Z " fill="#EE463E" transform="translate(0,0)"/>
<path d="M0 0 C2.11851501 -0.38095093 2.11851501 -0.38095093 4.76928711 -0.38818359 C6.2560923 -0.40236832 6.2560923 -0.40236832 7.77293396 -0.4168396 C9.38386681 -0.40773056 9.38386681 -0.40773056 11.02734375 -0.3984375 C12.67712975 -0.40274277 12.67712975 -0.40274277 14.36024475 -0.40713501 C16.68963128 -0.40917935 19.01903484 -0.40362375 21.34838867 -0.39111328 C24.91949813 -0.37508082 28.48947306 -0.39094236 32.06054688 -0.41015625 C34.32031501 -0.40817358 36.58008243 -0.40432943 38.83984375 -0.3984375 C39.91177475 -0.40451019 40.98370575 -0.41058289 42.08811951 -0.4168396 C43.08247513 -0.40738312 44.07683075 -0.39792664 45.10131836 -0.38818359 C45.97686874 -0.38579681 46.85241913 -0.38341003 47.75450134 -0.38095093 C50.46960028 0.07966812 51.32810405 0.85607551 53 3 C53.79614258 4.90332031 53.79614258 4.90332031 54.39453125 7.078125 C54.62479004 7.89796875 54.85504883 8.7178125 55.09228516 9.5625 C55.32995605 10.449375 55.56762695 11.33625 55.8125 12.25 C56.06821777 13.17296875 56.32393555 14.0959375 56.58740234 15.046875 C58.75319935 22.92153828 60.81492358 30.82600399 62.81958008 38.74316406 C64.054429 43.57742895 65.3983651 48.35175022 66.890625 53.11328125 C69.14437329 60.34258765 71.10903569 67.63640359 73.03710938 74.95776367 C73.62731606 77.1962843 74.22357539 79.43313436 74.8203125 81.66992188 C76.78290977 89.06941084 78.6596324 96.45726011 80 104 C82.26666392 97.65911597 83.91035466 91.33057703 85.3125 84.75 C87.56464472 74.5183333 90.32956539 64.49642593 93.28564453 54.44921875 C94.37162824 50.72584603 95.40624458 46.98883138 96.4375 43.25 C96.83978331 41.7994624 97.24212906 40.34894212 97.64453125 38.8984375 C98.38157976 36.23789945 99.11648485 33.57679629 99.84912109 30.91503906 C100.77111689 27.56743954 101.69786026 24.22117809 102.625 20.875 C102.91431396 19.81958008 103.20362793 18.76416016 103.50170898 17.67675781 C105.07846286 12.00026269 106.68937572 6.42549901 109 1 C111.43651611 -0.21825806 113.04561234 -0.1463506 115.76928711 -0.17700195 C116.76049057 -0.18983719 117.75169403 -0.20267242 118.77293396 -0.21589661 C119.84688919 -0.22328354 120.92084442 -0.23067047 122.02734375 -0.23828125 C123.12720108 -0.246353 124.22705841 -0.25442474 125.36024475 -0.26274109 C127.68960998 -0.27658675 130.01899555 -0.28730674 132.34838867 -0.29516602 C135.91949539 -0.31241304 139.48968471 -0.35629982 143.06054688 -0.40039062 C145.32030567 -0.41051419 147.58007236 -0.41903134 149.83984375 -0.42578125 C150.91177475 -0.44328934 151.98370575 -0.46079742 153.08811951 -0.47883606 C154.08247513 -0.47591049 155.07683075 -0.47298492 156.10131836 -0.4699707 C156.97686874 -0.47583694 157.85241913 -0.48170319 158.75450134 -0.48774719 C161 0 161 0 162.61653423 1.64144611 C164.39760491 4.67784301 164.37737735 6.71125089 164.38095093 10.22460938 C164.3894104 11.50327881 164.39786987 12.78194824 164.40658569 14.09936523 C164.40075293 15.51416143 164.39460843 16.92895637 164.38818359 18.34375 C164.39224918 19.83537175 164.39759099 21.32699049 164.40411377 22.81860352 C164.41779483 26.86816791 164.41248553 30.91750311 164.40297651 34.96707153 C164.39538399 39.20396546 164.40242439 43.44083969 164.40713501 47.67773438 C164.41259375 54.79300461 164.40539785 61.90818144 164.39111328 69.0234375 C164.37478651 77.25096878 164.38007494 85.47827704 164.3965925 93.70580292 C164.410204 100.76832743 164.41212868 107.83078478 164.40427649 114.89331818 C164.39959811 119.11210282 164.39897961 123.33078262 164.40888596 127.54956055 C164.41754849 131.51572109 164.41154696 135.48159394 164.39420319 139.44772339 C164.3902345 140.90379356 164.39137894 142.35988792 164.39799118 143.81594849 C164.40618079 145.80242044 164.39409293 147.78894526 164.38095093 149.77539062 C164.37981985 150.88740845 164.37868877 151.99942627 164.37752342 153.1451416 C163.95302316 156.3552421 163.30411751 157.74769814 161 160 C157.75366211 160.48583984 157.75366211 160.48583984 153.77734375 160.4609375 C153.0760585 160.46002106 152.37477325 160.45910461 151.65223694 160.4581604 C150.17197894 160.45212555 148.6917331 160.43638261 147.21166992 160.41162109 C144.94208985 160.37507391 142.67414067 160.37060196 140.40429688 160.37109375 C129.29516214 160.29516214 129.29516214 160.29516214 127 158 C126.73828697 156.16093254 126.73828697 156.16093254 126.7215271 153.88717651 C126.71036362 153.02618347 126.69920013 152.16519043 126.68769836 151.27810669 C126.68553818 150.33152191 126.68337799 149.38493713 126.68115234 148.40966797 C126.67110672 147.41451172 126.6610611 146.41935547 126.65071106 145.39404297 C126.61973557 142.09343055 126.60280406 138.79289974 126.5859375 135.4921875 C126.56723741 133.20817353 126.54766488 130.92416654 126.5272522 128.64016724 C126.47580259 122.61993522 126.43624564 116.59968076 126.39910889 110.5793457 C126.35914949 104.43955885 126.30802047 98.29986634 126.2578125 92.16015625 C126.16090138 80.10683698 126.07654537 68.0534646 126 56 C125.71670837 57.0833815 125.43341675 58.166763 125.14154053 59.28297424 C124.07391642 63.36399017 123.00403795 67.44441244 121.93353271 71.52467346 C121.47354156 73.27917531 121.01413406 75.03383031 120.55535889 76.78865051 C117.91689057 86.87908203 115.22948346 96.94140414 112.25 106.9375 C109.97904812 114.57109344 107.85656624 122.22336426 105.875 129.9375 C104.07763184 136.91894393 102.24636291 143.88495647 100.25 150.8125 C100.05132324 151.51818115 99.85264648 152.2238623 99.64794922 152.95092773 C98.77604628 155.92488631 98.2271299 157.7728701 96 160 C91.59998663 160.39948471 87.18541838 160.32901561 82.76928711 160.31567383 C80.57420079 160.31251683 78.38046615 160.33595761 76.18554688 160.36132812 C74.79166837 160.36360143 73.39778623 160.36430447 72.00390625 160.36328125 C70.73361572 160.36626221 69.4633252 160.36924316 68.15454102 160.37231445 C65 160 65 160 63.15161133 158.77050781 C61.76357606 156.63651761 61.17567231 154.78339079 60.5703125 152.30859375 C60.33497803 151.37297607 60.09964355 150.4373584 59.85717773 149.47338867 C59.61555908 148.47154541 59.37394043 147.46970215 59.125 146.4375 C58.5988362 144.33824557 58.0714794 142.23928981 57.54296875 140.140625 C57.28306152 139.09841797 57.0231543 138.05621094 56.75537109 136.98242188 C55.7127455 132.86583678 54.58771608 128.7751205 53.4375 124.6875 C53.23527832 123.96626953 53.03305664 123.24503906 52.82470703 122.50195312 C52.41991971 121.05910832 52.01465054 119.61639861 51.60888672 118.17382812 C50.98475643 115.94557788 50.36823837 113.71534537 49.75390625 111.484375 C47.960865 104.97953441 46.15806125 98.48266291 44.20846558 92.02275085 C41.86026821 84.21530245 39.79721892 76.36000711 37.83984375 68.4453125 C37.42792786 66.78834351 37.42792786 66.78834351 37.00769043 65.09790039 C36.33697096 62.39896612 35.66777504 59.69966401 35 57 C34.99413376 58.24614578 34.98826752 59.49229156 34.98222351 60.77619934 C34.92507899 72.50416072 34.8523609 84.23193521 34.76428509 95.95970631 C34.71950487 101.98948145 34.68026565 108.01918781 34.65356445 114.04907227 C34.62760781 119.86524611 34.58725977 125.68115638 34.53681374 131.49716759 C34.52009322 133.71915096 34.50861136 135.94117998 34.50238609 138.16321754 C34.49280135 141.26900674 34.46480959 144.3741137 34.43237305 147.47973633 C34.43380814 148.40402435 34.43524323 149.32831238 34.4367218 150.28060913 C34.42418365 151.12614853 34.41164551 151.97168793 34.39872742 152.84284973 C34.39181397 153.94485324 34.39181397 153.94485324 34.38476086 155.06911945 C33.88464165 157.57891332 33.02430609 158.47054997 31 160 C27.84545898 160.37231445 27.84545898 160.37231445 23.99609375 160.36328125 C22.97745995 160.36402901 22.97745995 160.36402901 21.93824768 160.36479187 C20.5051073 160.36245453 19.07196257 160.35274586 17.63891602 160.33618164 C15.44184831 160.31254678 13.245991 160.31562767 11.04882812 160.32226562 C0.27914633 160.27914633 0.27914633 160.27914633 -2 158 C-2.25168228 155.34159184 -2.25168228 155.34159184 -2.25396729 151.89527893 C-2.25960693 150.5926712 -2.26524658 149.29006348 -2.27105713 147.94798279 C-2.26716813 146.49600165 -2.26307177 145.04402105 -2.25878906 143.59204102 C-2.26149783 142.06953768 -2.26505812 140.54703566 -2.26940918 139.02453613 C-2.27854984 134.88199076 -2.27498185 130.73954468 -2.26865101 126.5969975 C-2.26359874 122.26753799 -2.26828039 117.93808716 -2.27142334 113.60862732 C-2.27506564 106.33599313 -2.27025739 99.06339952 -2.26074219 91.79077148 C-2.24986121 83.37698887 -2.25337955 74.9633032 -2.264395 66.54952294 C-2.27346525 59.33335112 -2.27475431 52.11720853 -2.26951766 44.90103287 C-2.26639599 40.58781497 -2.26599393 36.27464267 -2.27259064 31.96142769 C-2.27835953 27.90589222 -2.27437562 23.85048194 -2.26280212 19.79496002 C-2.26015291 18.30460506 -2.26092508 16.8142396 -2.26532745 15.32388878 C-2.27077386 13.29316453 -2.26274028 11.26241731 -2.25396729 9.23170471 C-2.25321323 8.09404443 -2.25245918 6.95638414 -2.25168228 5.78424931 C-2 3 -2 3 0 0 Z " fill="#F3EDE7" transform="translate(170,492)"/>
<path d="M0 0 C5.42117433 2.85843737 9.88455756 6.48628894 14 11 C14.185625 9.081875 14.185625 9.081875 14.375 7.125 C14.75 3.25 14.75 3.25 17 1 C19.94921875 0.74121094 19.94921875 0.74121094 23.6875 0.734375 C24.34580811 0.73246155 25.00411621 0.7305481 25.68237305 0.72857666 C27.0743854 0.7272155 28.46641047 0.73090717 29.85839844 0.73925781 C31.99182589 0.749959 34.12441131 0.73936094 36.2578125 0.7265625 C37.60937686 0.72788411 38.9609407 0.73044653 40.3125 0.734375 C42.16294922 0.73775879 42.16294922 0.73775879 44.05078125 0.74121094 C47 1 47 1 49 3 C49.25168228 4.8920145 49.25168228 4.8920145 49.25396729 7.24208069 C49.25960693 8.13213806 49.26524658 9.02219543 49.27105713 9.93922424 C49.26700867 10.91842331 49.26296021 11.89762238 49.25878906 12.90649414 C49.2622937 13.93596161 49.26579834 14.96542908 49.26940918 16.02609253 C49.27824514 19.44584812 49.27236771 22.86539837 49.265625 26.28515625 C49.26697184 28.65970398 49.26891252 31.03425144 49.27142334 33.40879822 C49.27437772 38.39650079 49.27006953 43.38413189 49.26074219 48.37182617 C49.24939084 54.75168893 49.25587772 61.13138261 49.26788712 67.51123905 C49.27513428 72.42100789 49.27280392 77.33073706 49.26763153 82.24050713 C49.26630068 84.59153704 49.26792292 86.94257061 49.27259064 89.29359627 C49.27769788 92.59174156 49.26988474 95.88961869 49.25878906 99.18774414 C49.26283752 100.15277359 49.26688599 101.11780304 49.27105713 102.11207581 C49.22303707 109.85874056 48.04572147 116.98224911 45.125 124.1875 C44.66480469 125.35345703 44.66480469 125.35345703 44.1953125 126.54296875 C42.72727059 129.56061045 40.90692695 132.24333363 39 135 C38.02160156 134.45730469 37.04320312 133.91460938 36.03515625 133.35546875 C26.88582009 128.33805317 18.50200675 124.11723476 8 123 C9.03057645 120.30464621 10.08288925 117.86074606 11.5625 115.375 C13.37934417 111.10936585 13.33854109 107.69496124 13.1875 103.125 C13.17396484 102.34125 13.16042969 101.5575 13.14648438 100.75 C13.11141789 98.83303218 13.05762072 96.91642249 13 95 C12.29037109 95.68835938 12.29037109 95.68835938 11.56640625 96.390625 C2.05564478 105.21542512 -7.26093595 107.52820573 -20.078125 107.27734375 C-31.89382285 106.44177149 -43.33421646 100.61866238 -51.41015625 91.97265625 C-63.28494045 77.2385874 -64.94712537 61.25302915 -64 43 C-62.51282149 29.1651467 -56.45839803 16.34459752 -46 7 C-40.11420226 2.66660523 -33.99524962 -0.01157526 -27 -2 C-18.40718119 -4.86427294 -8.31927226 -3.07950962 0 0 Z " fill="#F3EDE7" transform="translate(559,406)"/>
<path d="M0 0 C16.9171517 -1.01560945 32.26513767 2.12234222 45.515625 13.328125 C55.44035036 22.62790514 60.57977548 33.10003203 63.93359375 46.14453125 C64.15917969 46.93601562 64.38476562 47.7275 64.6171875 48.54296875 C66.17940066 54.51170042 66.9758859 61.04093911 65.93359375 67.14453125 C64.38067627 69.28485107 64.38067627 69.28485107 61.93359375 71.14453125 C59.25437555 71.51892915 56.99276641 71.65240644 54.31933594 71.59863281 C53.17729202 71.59950897 53.17729202 71.59950897 52.01217651 71.60040283 C49.50113989 71.59762098 46.99129741 71.56652577 44.48046875 71.53515625 C42.73741301 71.52769418 40.99434887 71.52200109 39.25128174 71.51800537 C34.66765099 71.50274626 30.08452873 71.46346224 25.50109863 71.41918945 C20.82241698 71.37824263 16.14365301 71.35999562 11.46484375 71.33984375 C2.28753723 71.29696811 -6.88939219 71.22871353 -16.06640625 71.14453125 C-15.47744873 73.05259485 -14.87604019 74.95681763 -14.26953125 76.859375 C-13.93598633 77.92019287 -13.60244141 78.98101074 -13.25878906 80.07397461 C-11.01065685 85.86323727 -7.19988004 90.49779397 -1.50390625 93.14453125 C5.30468979 95.17913124 14.55607122 95.89489394 20.99609375 92.51953125 C24.08560639 90.31632456 24.08560639 90.31632456 25.70703125 87.03515625 C27.71934566 84.57854509 28.80669601 84.16738602 31.98901367 83.59423828 C35.16308798 83.44036185 38.30447031 83.39207905 41.48120117 83.47216797 C43.49494787 83.51950431 45.50341377 83.51326886 47.51757812 83.5 C57.24471167 83.60835288 57.24471167 83.60835288 60.33569336 86.01416016 C61.93359375 88.14453125 61.93359375 88.14453125 62.05859375 90.83203125 C57.9519446 102.92383154 48.39117168 110.58704809 37.5078125 116.4140625 C20.63352922 124.58379746 0.38299466 124.12878092 -17.06640625 118.14453125 C-31.43049532 112.17763062 -42.99282803 100.37241871 -49 86.078125 C-55.32988026 68.66515769 -54.60968329 50.07854376 -47.78125 32.9140625 C-44.31180295 26.06214617 -39.4605744 20.55782766 -34.06640625 15.14453125 C-33.525 14.57992187 -32.98359375 14.0153125 -32.42578125 13.43359375 C-23.70740937 5.1115115 -11.79797907 0.82518946 0 0 Z " fill="#F3EDE7" transform="translate(551.06640625,533.85546875)"/>
<path d="M0 0 C1.75763672 -0.01160156 1.75763672 -0.01160156 3.55078125 -0.0234375 C16.96417353 0.00667112 30.4977765 2.62130352 40.5 12.25 C50.05488577 22.99444987 50.93894247 35.24892069 50.91069031 49.07043266 C50.90614705 51.48838271 50.92038736 53.90562579 50.93908691 56.32350159 C50.98173034 62.31648347 50.9931406 68.30944416 51.00531006 74.30255127 C51.01684881 79.39565994 51.04040049 84.48843742 51.08000183 89.58140755 C51.09352949 91.95736408 51.08941264 94.33286744 51.08459473 96.70884705 C51.0939341 98.16584856 51.10410261 99.62284507 51.11523438 101.07983398 C51.11728882 102.34713852 51.11934326 103.61444305 51.12145996 104.92015076 C51.52757887 108.49259908 52.50845575 110.31269459 54.5 113.25 C54.5 113.91 54.5 114.57 54.5 115.25 C50.33746725 115.34938095 46.17557521 115.42170617 42.01220703 115.46972656 C40.59802205 115.48975843 39.18391903 115.51699248 37.77001953 115.55175781 C35.72928581 115.60065489 33.6896531 115.62305123 31.6484375 115.640625 C29.81031494 115.6720459 29.81031494 115.6720459 27.93505859 115.70410156 C23.83866614 115.1625742 21.70578733 113.80368212 18.5 111.25 C17.01451773 108.95170668 16.40626939 106.86811157 15.5 104.25 C14.88125 104.95125 14.2625 105.6525 13.625 106.375 C4.86124668 115.16379261 -6.14884403 118.45079654 -18.25 118.5 C-29.05569606 118.48273456 -37.84895794 115.89890107 -46.5 109.25 C-54.75076963 100.54760929 -56.88764924 91.54501884 -56.77734375 79.828125 C-56.13696749 71.56636933 -52.61021778 64.80474344 -46.5 59.25 C-35.7657738 50.45628609 -20.58333476 49.13911994 -7.32568359 46.87939453 C-5.17409704 46.51031801 -3.02462359 46.1303161 -0.875 45.75 C0.39601563 45.5334375 1.66703125 45.316875 2.9765625 45.09375 C6.73610325 44.19346086 10.68953244 43.06046756 13.5 40.25 C13.94171515 37.19585527 13.97209366 34.30045134 13.5 31.25 C10.97031526 27.96824682 9.42268669 26.55756223 5.5 25.25 C-1.17235971 24.69751162 -6.67626659 24.80330063 -12.5 28.25 C-14.71832551 30.6584677 -16.4338775 33.15038074 -18.2421875 35.87475586 C-20.5 38.25 -20.5 38.25 -23.27734375 38.88110352 C-24.32019531 38.88037842 -25.36304688 38.87965332 -26.4375 38.87890625 C-28.15066406 38.88180664 -28.15066406 38.88180664 -29.8984375 38.88476562 C-31.08695312 38.86091797 -32.27546875 38.83707031 -33.5 38.8125 C-35.28277344 38.82893555 -35.28277344 38.82893555 -37.1015625 38.84570312 C-45.81547027 38.7719398 -45.81547027 38.7719398 -48.8671875 36.44506836 C-50.5 34.25 -50.5 34.25 -50.5625 30.5625 C-48.91371414 21.84979825 -43.42630608 14.5745978 -36.5 9.25 C-24.35404122 1.97388318 -14.04107698 -0.09268038 0 0 Z " fill="#F3EDE7" transform="translate(439.5,403.75)"/>
<path d="M0 0 C1.62228516 -0.01836914 1.62228516 -0.01836914 3.27734375 -0.03710938 C16.88751789 -0.06173575 29.75700181 2.52997091 39.96484375 12.171875 C47.1540429 20.28922021 49.98510797 29.01456585 50.02124023 39.74584961 C50.02646698 40.45432541 50.03169373 41.16280121 50.03707886 41.89274597 C50.04724212 43.41605887 50.05308571 44.93940574 50.05496025 46.46275139 C50.05865724 48.88138026 50.0754731 51.29961114 50.09571838 53.71815491 C50.15081698 60.58929008 50.18177631 67.46048181 50.20629883 74.33178711 C50.22224972 78.54921798 50.25254131 82.76636266 50.29106331 86.98364449 C50.30264111 88.58104967 50.30864302 90.17850615 50.30874443 91.77595329 C50.30946204 100.06963634 50.43697803 107.42269059 53.75 115.1875 C49.20845522 115.27485463 44.66712768 115.32801247 40.125 115.375 C38.83980469 115.40013672 37.55460938 115.42527344 36.23046875 115.45117188 C34.36455078 115.46567383 34.36455078 115.46567383 32.4609375 115.48046875 C30.74849854 115.50403442 30.74849854 115.50403442 29.00146484 115.52807617 C24.05681737 115.01014681 20.82317528 113.28891674 17.375 109.75 C15.75 107.1875 15.75 107.1875 15.75 103.1875 C15.09 103.1875 14.43 103.1875 13.75 103.1875 C13.48058594 103.785625 13.21117187 104.38375 12.93359375 105 C8.95450401 112.35409325 1.34595912 114.91918143 -6.25 117.1875 C-7.15685547 117.47753906 -7.15685547 117.47753906 -8.08203125 117.7734375 C-19.3764884 119.93057706 -31.60650372 118.6905445 -41.55078125 112.83203125 C-48.82353379 107.72329924 -53.88792281 101.81695533 -56.25 93.1875 C-56.66262811 90.21457297 -56.72861915 87.31098583 -56.6875 84.3125 C-56.67847656 83.52311035 -56.66945313 82.7337207 -56.66015625 81.92041016 C-56.40974455 73.46727633 -54.4838426 67.34024197 -48.8125 60.9375 C-38.63104439 51.88677628 -26.41528154 49.9026026 -13.4375 48.0625 C1.33051963 46.52002979 1.33051963 46.52002979 13.75 39.1875 C14.20895865 35.1333653 14.18184338 32.90723896 12.0625 29.375 C7.18070274 24.75708367 2.05412889 24.79564556 -4.37890625 24.953125 C-8.1666528 25.2623288 -10.23742193 25.82047437 -13.25 28.1875 C-14.95250343 30.46984156 -16.48471488 32.78710698 -17.953125 35.2265625 C-19.25 37.1875 -19.25 37.1875 -21.25 38.1875 C-25.55715501 38.45795213 -29.87281565 38.4191103 -34.1875 38.4375 C-35.39341797 38.458125 -36.59933594 38.47875 -37.84179688 38.5 C-38.99615234 38.50515625 -40.15050781 38.5103125 -41.33984375 38.515625 C-42.40066162 38.5249707 -43.46147949 38.53431641 -44.55444336 38.54394531 C-47.25 38.1875 -47.25 38.1875 -49.08813477 36.88964844 C-51.17457742 33.83298145 -50.86762321 30.66971847 -50.25 27.1875 C-46.34828933 16.08930076 -38.62834869 9.27613893 -28.25 4.1875 C-18.9059581 0.65080078 -9.90688026 0.00582073 0 0 Z " fill="#F3EDE7" transform="translate(860.25,531.8125)"/>
<path d="M0 0 C0.70833984 -0.00563965 1.41667969 -0.0112793 2.14648438 -0.01708984 C13.13025039 0.13305895 22.48165596 3.82257525 30.55078125 11.2734375 C41.62157264 23.23814372 41.90556746 37.5997299 41.87109375 52.96484375 C41.8756623 54.75558163 41.88096986 56.54631776 41.88697815 58.33705139 C41.89586289 62.06795435 41.8935348 65.79864264 41.88354492 69.52954102 C41.87199056 74.3101841 41.89238831 79.09009559 41.92146206 83.87064266 C41.93978851 87.55866687 41.93953994 91.24651392 41.93382454 94.93457222 C41.93367126 96.69803465 41.93972077 98.46150903 41.95211601 100.2249279 C41.96697803 102.68289622 41.95638999 105.13948725 41.93920898 107.59741211 C41.94887695 108.32315933 41.95854492 109.04890656 41.96850586 109.79664612 C41.91875822 113.19176309 41.66112162 115.0148526 39.59693909 117.76234436 C36.61048234 119.9061755 34.4975202 119.82964278 30.84375 119.84375 C29.56628906 119.84890625 28.28882813 119.8540625 26.97265625 119.859375 C26.31023926 119.85099609 25.64782227 119.84261719 24.96533203 119.83398438 C22.94311552 119.8125595 20.92445039 119.83379739 18.90234375 119.859375 C17.62488281 119.85421875 16.34742188 119.8490625 15.03125 119.84375 C13.86271484 119.83923828 12.69417969 119.83472656 11.49023438 119.83007812 C7.70963993 119.18909442 6.75418226 118.32958352 4.4375 115.3125 C3.94543457 112.18988037 3.94543457 112.18988037 3.95507812 108.46777344 C3.95116562 107.78753616 3.94725311 107.10729889 3.94322205 106.40644836 C3.93725514 104.93270543 3.94040261 103.45890348 3.9516449 101.98519135 C3.96893598 99.64672221 3.96138303 97.30948641 3.9473877 94.9710083 C3.91776135 89.16112738 3.93089066 83.35148258 3.94256592 77.54156494 C3.95079681 72.63440036 3.94271112 67.72777473 3.91343689 62.82068634 C3.90638181 60.52722416 3.92297386 58.23473093 3.94055176 55.94134521 C3.93984164 48.45491814 3.81500315 42.59029949 -0.5625 36.3125 C-5.60480342 32.38659596 -10.71098603 31.67305476 -17.01171875 31.92578125 C-21.86691205 32.66186722 -24.48363954 35.17199037 -27.75 38.625 C-31.45181775 44.11390219 -32.93441559 48.60791686 -32.96313477 55.20996094 C-32.97011383 55.85965347 -32.9770929 56.50934601 -32.98428345 57.1787262 C-33.00409416 59.30157848 -33.00375937 61.42393903 -33.00390625 63.546875 C-33.01569014 65.03185318 -33.02905684 66.51681957 -33.04393005 68.00177002 C-33.07997601 71.89348465 -33.10028029 75.78509458 -33.11547852 79.67694092 C-33.14039454 85.91952407 -33.17993166 92.16187624 -33.23737907 98.40424347 C-33.25370009 100.58186776 -33.25748385 102.75927279 -33.26039124 104.93695068 C-33.27057785 106.25552063 -33.28076447 107.57409058 -33.29125977 108.93261719 C-33.29553482 110.09508972 -33.29980988 111.25756226 -33.30421448 112.45526123 C-33.5625 115.3125 -33.5625 115.3125 -35.5625 118.3125 C-38.67944336 118.70068359 -38.67944336 118.70068359 -42.65234375 118.7109375 C-43.70283653 118.71524277 -43.70283653 118.71524277 -44.77455139 118.71963501 C-46.2565288 118.72167739 -47.73853307 118.71613524 -49.22045898 118.70361328 C-51.48808242 118.68758424 -53.75391714 118.70344167 -56.02148438 118.72265625 C-57.46094143 118.72067338 -58.90039738 118.71682878 -60.33984375 118.7109375 C-61.65202881 118.70755371 -62.96421387 118.70416992 -64.31616211 118.70068359 C-67.5625 118.3125 -67.5625 118.3125 -69.24116611 117.06536007 C-70.91125648 114.84984531 -70.94168115 113.63633619 -70.95018005 110.8785553 C-70.96008469 109.97148331 -70.96998932 109.06441132 -70.98019409 108.12985229 C-70.97569244 107.13704254 -70.9711908 106.14423279 -70.96655273 105.12133789 C-70.97341599 104.07393936 -70.98027924 103.02654083 -70.98735046 101.94740295 C-71.00568909 98.47651712 -71.00177076 95.00608025 -70.99609375 91.53515625 C-71.0006522 89.12763826 -71.00595676 86.72012158 -71.01197815 84.31260681 C-71.0209232 79.26279418 -71.01847026 74.21313958 -71.00854492 69.16333008 C-70.9970546 62.68532893 -71.01726125 56.2078728 -71.04646206 49.72994328 C-71.06479003 44.75687686 -71.06453834 39.78394185 -71.05882454 34.81085014 C-71.0586709 32.42218702 -71.06474998 30.03351523 -71.07711601 27.64488411 C-71.09195918 24.30725846 -71.08139714 20.97065001 -71.06420898 17.63305664 C-71.07387695 16.64227112 -71.08354492 15.6514856 -71.09350586 14.63067627 C-71.02142985 7.96192903 -71.02142985 7.96192903 -68.71620178 4.69981384 C-65.77551537 2.80556135 -63.67223304 2.79520488 -60.1875 2.78125 C-58.95515625 2.77609375 -57.7228125 2.7709375 -56.453125 2.765625 C-54.52726562 2.78882813 -54.52726562 2.78882813 -52.5625 2.8125 C-51.27859375 2.79703125 -49.9946875 2.7815625 -48.671875 2.765625 C-47.43953125 2.77078125 -46.2071875 2.7759375 -44.9375 2.78125 C-43.24753906 2.78801758 -43.24753906 2.78801758 -41.5234375 2.79492188 C-37.93525986 3.4221429 -36.75990673 4.46071366 -34.5625 7.3125 C-33.953125 9.890625 -33.953125 9.890625 -33.8125 12.5625 C-33.75578125 13.45453125 -33.6990625 14.3465625 -33.640625 15.265625 C-33.61484375 15.94109375 -33.5890625 16.6165625 -33.5625 17.3125 C-33.16160156 16.80460938 -32.76070313 16.29671875 -32.34765625 15.7734375 C-23.47837843 5.03376776 -13.82263724 0.10453593 0 0 Z " fill="#F3EDE7" transform="translate(453.5625,533.6875)"/>
<path d="M0 0 C2.03072002 -0.00437289 4.05926415 -0.0406999 6.08959961 -0.07861328 C7.37157227 -0.08248047 8.65354492 -0.08634766 9.97436523 -0.09033203 C11.14926514 -0.0985498 12.32416504 -0.10676758 13.53466797 -0.11523438 C17.2324444 0.47021993 18.34558798 1.44454187 20.60327148 4.37060547 C21.91186523 7.40966797 21.91186523 7.40966797 23.04077148 10.99560547 C23.24903564 11.64875732 23.4572998 12.30190918 23.671875 12.97485352 C25.48740381 18.75959327 27.07566315 24.60783518 28.65551758 30.46044922 C30.13536384 35.87772299 31.84076451 41.18560872 33.66577148 46.49560547 C36.47535767 54.68013027 38.65164366 62.94416534 40.60327148 71.37060547 C40.93327148 71.37060547 41.26327148 71.37060547 41.60327148 71.37060547 C41.76182617 70.60619141 41.92038086 69.84177734 42.08374023 69.05419922 C43.57416104 62.21143853 45.4257101 55.62622794 47.70458984 49.00415039 C49.05302933 45.07049568 50.25928629 41.1318845 51.35327148 37.12060547 C53.43301722 29.72595397 55.78378882 22.42293662 58.16577148 15.12060547 C58.55410156 13.90469727 58.94243164 12.68878906 59.3425293 11.43603516 C59.90665527 9.72528809 59.90665527 9.72528809 60.48217773 7.97998047 C60.81805908 6.9484082 61.15394043 5.91683594 61.5 4.85400391 C62.60327148 2.37060547 62.60327148 2.37060547 65.60327148 0.37060547 C70.23442404 -0.1019206 74.8881467 0.00024649 79.54077148 -0.00439453 C81.47339844 -0.04113281 81.47339844 -0.04113281 83.44506836 -0.07861328 C84.68192383 -0.08248047 85.9187793 -0.08634766 87.19311523 -0.09033203 C88.32612061 -0.0985498 89.45912598 -0.10676758 90.62646484 -0.11523438 C94.24666873 0.4756133 95.45077815 1.44185708 97.60327148 4.37060547 C97.47973061 9.96426187 95.52605917 15.17937145 93.72827148 20.43310547 C93.4251001 21.33158203 93.12192871 22.23005859 92.80957031 23.15576172 C89.87777829 31.74971697 86.73475727 40.26604242 83.5836792 48.78143311 C80.04949096 58.33359645 76.64935348 67.92096537 73.35327148 77.55810547 C67.50466529 94.61329225 67.50466529 94.61329225 64.66577148 102.49560547 C64.39539063 103.26541748 64.12500977 104.03522949 63.84643555 104.82836914 C61.4427555 111.41868709 61.4427555 111.41868709 58.60327148 113.37060547 C55.85099551 113.68108306 53.32940639 113.8148431 50.57592773 113.80419922 C49.79060165 113.80944107 49.00527557 113.81468292 48.19615173 113.82008362 C46.53605328 113.82650369 44.87590933 113.82516696 43.21582031 113.81665039 C40.67812873 113.80814688 38.14269334 113.83688782 35.60522461 113.86865234 C33.99129299 113.87026466 32.37735739 113.86968624 30.76342773 113.86669922 C30.00602798 113.8779332 29.24862823 113.88916718 28.46827698 113.90074158 C25.05870703 113.85574056 22.99998934 113.65807749 20.20507812 111.6328125 C18.55547767 109.303107 17.65329772 107.40070665 16.81420898 104.67919922 C16.51772461 103.74849609 16.22124023 102.81779297 15.91577148 101.85888672 C15.60639648 100.85212891 15.29702148 99.84537109 14.97827148 98.80810547 C12.07916122 89.73455426 8.96442804 80.78329907 5.60327148 71.87060547 C2.05448653 62.41863748 -1.28740753 52.92757284 -4.40820312 43.32592773 C-6.1407926 38.0265282 -7.96585801 32.78128181 -9.92797852 27.56201172 C-10.34942139 26.43359863 -10.77086426 25.30518555 -11.20507812 24.14257812 C-12.02057067 21.97438712 -12.84884734 19.81094673 -13.69189453 17.65332031 C-15.76290855 12.12910468 -17.23819146 8.11073056 -15.39672852 2.37060547 C-10.65936145 -0.78763924 -5.5749431 -0.00134774 0 0 Z " fill="#F3EDE7" transform="translate(715.396728515625,533.62939453125)"/>
<path d="M0 0 C0.31453125 0.72445313 0.6290625 1.44890625 0.953125 2.1953125 C4.70870663 11.1303605 4.70870663 11.1303605 10.75 18.5625 C12 20 12 20 12.4375 22.4375 C11.86288519 25.80310101 10.43402187 26.63358985 8 29 C1.19290127 39.72485339 0.49963115 52.94302889 2.53515625 65.23046875 C4.67474329 73.70697477 7.86386044 79.7965649 15 85 C19.79389359 87.85422595 24.57418781 87.69109261 30 87 C36.40665345 84.94428254 40.16412767 81.19568114 43.80859375 75.671875 C47.09357496 68.30490075 47.29087714 60.82959867 47.1875 52.875 C47.18685547 51.92496094 47.18621094 50.97492188 47.18554688 49.99609375 C47.15372036 44.89677857 46.87006156 40.02547558 46 35 C47.07636719 34.91363281 48.15273438 34.82726562 49.26171875 34.73828125 C57.97853535 33.93482338 65.30885997 32.59172145 73.36328125 29.0234375 C76 28 76 28 80 28 C80.65256456 29.70577342 81.29673041 31.41476089 81.9375 33.125 C82.29714844 34.07632813 82.65679688 35.02765625 83.02734375 36.0078125 C88.23379193 52.02443622 85.19566818 70.14993601 77.75 84.9375 C69.15681467 98.82086505 56.58154866 108.18293871 40.80078125 112.1171875 C22.29432581 116.02255689 4.07261293 112.57435555 -12 103 C-23.25728834 94.97335358 -31.33910863 82.44165246 -34.3125 68.9375 C-37.2509895 49.43152688 -34.48885556 31.4931526 -23.046875 15.22265625 C-17.7696333 8.94788715 -8.68164084 0 0 0 Z " fill="#F3EDE7" transform="translate(718,409)"/>
<path d="M0 0 C1.65795898 1.17138672 1.65795898 1.17138672 3 3 C3.37231445 5.58789062 3.37231445 5.58789062 3.36328125 8.65625 C3.36231445 10.31333984 3.36231445 10.31333984 3.36132812 12.00390625 C3.34521484 13.15761719 3.32910156 14.31132812 3.3125 15.5 C3.31572266 16.65371094 3.31894531 17.80742187 3.32226562 18.99609375 C3.26705173 27.5994224 3.26705173 27.5994224 1 31 C-1.46875 31.3359375 -1.46875 31.3359375 -4.5 31.375 C-12.46619387 31.87169314 -18.91265574 34.3448889 -24.375 40.3125 C-31.78429576 49.98225887 -33.2846673 59.92651091 -33.30859375 71.83203125 C-33.3337273 74.1165393 -33.35912565 76.40104445 -33.38476562 78.68554688 C-33.4136253 82.26488653 -33.4376649 85.84417625 -33.45629883 89.42358398 C-33.47786465 92.89331121 -33.51726438 96.36249161 -33.55859375 99.83203125 C-33.55870956 100.9070137 -33.55882538 101.98199615 -33.5589447 103.08955383 C-33.57228348 104.08456406 -33.58562225 105.07957428 -33.59936523 106.10473633 C-33.60697121 107.4175634 -33.60697121 107.4175634 -33.61473083 108.75691223 C-34.08350245 111.48616224 -34.78326862 112.37836156 -37 114 C-40.046875 114.38818359 -40.046875 114.38818359 -43.75 114.3984375 C-44.40452148 114.40130768 -45.05904297 114.40417786 -45.73339844 114.40713501 C-47.11524319 114.40917368 -48.49711693 114.40365746 -49.87890625 114.39111328 C-51.9928445 114.37505436 -54.10487113 114.39096601 -56.21875 114.41015625 C-57.56250422 114.40817378 -58.90625724 114.40433002 -60.25 114.3984375 C-61.47203125 114.39505371 -62.6940625 114.39166992 -63.953125 114.38818359 C-67 114 -67 114 -68.66704082 112.75132847 C-70.34973976 110.54048915 -70.37481262 109.3508943 -70.3742218 106.59056091 C-70.38123611 105.68901276 -70.38825043 104.7874646 -70.39547729 103.8585968 C-70.38783356 102.8719957 -70.38018982 101.88539459 -70.37231445 100.86889648 C-70.37596512 99.82803894 -70.37961578 98.7871814 -70.38337708 97.71478271 C-70.39149774 94.26672157 -70.37786045 90.81912809 -70.36328125 87.37109375 C-70.36276287 84.98120626 -70.36327972 82.59131834 -70.36479187 80.20143127 C-70.36470208 75.19029382 -70.3542581 70.17931703 -70.33618164 65.16821289 C-70.31348213 58.73274975 -70.31295191 52.29752124 -70.31969929 45.86202908 C-70.32303443 40.92680258 -70.31641796 35.99162995 -70.30657005 31.05641365 C-70.30271083 28.68285466 -70.30157281 26.30928968 -70.3031559 23.93572807 C-70.30352516 20.62427136 -70.29094567 17.31312 -70.2746582 14.00170898 C-70.27713562 13.01308365 -70.27961304 12.02445831 -70.28216553 11.00587463 C-70.27508072 10.1071463 -70.26799591 9.20841797 -70.26069641 8.28245544 C-70.25864354 7.49914069 -70.25659067 6.71582594 -70.25447559 5.90877438 C-70 4 -70 4 -68 2 C-63.74257862 1.60136504 -59.47052426 1.67097459 -55.1965332 1.68432617 C-53.07385794 1.68748311 -50.95258064 1.66404239 -48.83007812 1.63867188 C-47.48177259 1.63639854 -46.13346331 1.63569554 -44.78515625 1.63671875 C-42.94256226 1.63224731 -42.94256226 1.63224731 -41.06274414 1.62768555 C-38 2 -38 2 -36.10791016 3.34033203 C-34.42193807 5.86594645 -34.47367976 8.18955655 -34.3125 11.1875 C-34.24675781 12.27417969 -34.18101562 13.36085938 -34.11328125 14.48046875 C-34.05720703 15.72763672 -34.05720703 15.72763672 -34 17 C-33.6596875 16.49210937 -33.319375 15.98421875 -32.96875 15.4609375 C-24.87484946 3.96587662 -14.34889586 -1.97782078 0 0 Z " fill="#F3EDE7" transform="translate(684,405)"/>
<path d="M0 0 C1.65795898 1.15551758 1.65795898 1.15551758 3 3 C3.37231445 5.69555664 3.37231445 5.69555664 3.36328125 8.91015625 C3.36231445 10.64168945 3.36231445 10.64168945 3.36132812 12.40820312 C3.34521484 13.61412109 3.32910156 14.82003906 3.3125 16.0625 C3.31572266 17.27228516 3.31894531 18.48207031 3.32226562 19.72851562 C3.26689925 28.73310075 3.26689925 28.73310075 1 31 C-0.82779617 31.17641704 -2.66425994 31.26755276 -4.5 31.3125 C-12.44666169 31.87467391 -18.92243565 34.35557345 -24.375 40.3125 C-31.66802996 49.80992038 -33.28564342 59.24337908 -33.30859375 70.953125 C-33.33373149 73.28646107 -33.3591298 75.61979435 -33.38476562 77.953125 C-33.41361203 81.61587936 -33.43764557 85.27858557 -33.45629883 88.94140625 C-33.47786761 92.48721855 -33.51727355 96.03249611 -33.55859375 99.578125 C-33.55870956 100.67811829 -33.55882538 101.77811157 -33.5589447 102.91143799 C-33.57228348 103.92969666 -33.58562225 104.94795532 -33.59936523 105.99707031 C-33.60697121 107.34106903 -33.60697121 107.34106903 -33.61473083 108.71221924 C-34.07955619 111.47241549 -34.75511582 112.36683714 -37 114 C-40.046875 114.38818359 -40.046875 114.38818359 -43.75 114.3984375 C-44.40452148 114.40130768 -45.05904297 114.40417786 -45.73339844 114.40713501 C-47.11524319 114.40917368 -48.49711693 114.40365746 -49.87890625 114.39111328 C-51.9928445 114.37505436 -54.10487113 114.39096601 -56.21875 114.41015625 C-57.56250422 114.40817378 -58.90625724 114.40433002 -60.25 114.3984375 C-61.47203125 114.39505371 -62.6940625 114.39166992 -63.953125 114.38818359 C-67 114 -67 114 -68.66704082 112.74853516 C-70.34278821 110.55034089 -70.37481603 109.38074984 -70.3742218 106.63525391 C-70.38123611 105.74356506 -70.38825043 104.85187622 -70.39547729 103.9331665 C-70.38783356 102.95748718 -70.38018982 101.98180786 -70.37231445 100.9765625 C-70.37596512 99.94706482 -70.37961578 98.91756714 -70.38337708 97.85687256 C-70.39149816 94.44608176 -70.3778592 91.03576371 -70.36328125 87.625 C-70.36276283 85.25992839 -70.36327982 82.89485634 -70.36479187 80.52978516 C-70.36470208 75.56992166 -70.35425794 70.61022046 -70.33618164 65.65039062 C-70.31349438 59.28452743 -70.31294966 52.91890152 -70.31969929 46.55300903 C-70.32303667 41.6683541 -70.3164135 36.78375352 -70.30657005 31.89910889 C-70.3027138 29.55149622 -70.30157159 27.20387751 -70.3031559 24.85626221 C-70.30352569 21.57853625 -70.29093021 18.30111744 -70.2746582 15.0234375 C-70.27713562 14.04775818 -70.27961304 13.07207886 -70.28216553 12.0668335 C-70.27508072 11.17514465 -70.26799591 10.28345581 -70.26069641 9.36474609 C-70.25864354 8.58972748 -70.25659067 7.81470886 -70.25447559 7.01620483 C-70 5 -70 5 -68 2 C-65.05078125 1.62768555 -65.05078125 1.62768555 -61.3125 1.63671875 C-60.65419189 1.63622025 -59.99588379 1.63572174 -59.31762695 1.63520813 C-57.92558779 1.63754896 -56.53354443 1.6472782 -55.14160156 1.66381836 C-53.0080795 1.68741066 -50.87580681 1.6843804 -48.7421875 1.67773438 C-38.27909311 1.72090689 -38.27909311 1.72090689 -36 4 C-35.69940057 6.36509361 -35.50484988 8.74441881 -35.375 11.125 C-35.30023437 12.40632812 -35.22546875 13.68765625 -35.1484375 15.0078125 C-35.09945312 15.99523437 -35.05046875 16.98265625 -35 18 C-34.38125 17.12988281 -34.38125 17.12988281 -33.75 16.2421875 C-25.12110649 4.57006815 -15.04909746 -2.07433506 0 0 Z " fill="#F3EEE8" transform="translate(693,533)"/>
<path d="M0 0 C0.65310654 -0.00145523 1.30621307 -0.00291046 1.97911072 -0.00440979 C3.35501584 -0.00275479 4.73094024 0.00876223 6.10668945 0.02954102 C8.21189915 0.05855317 10.3145973 0.05013403 12.41992188 0.03710938 C13.75912681 0.04334578 15.09832381 0.05173597 16.4375 0.0625 C17.6531665 0.07224854 18.86883301 0.08199707 20.12133789 0.09204102 C23.15234375 0.49609375 23.15234375 0.49609375 24.81839275 1.73863888 C26.52030853 3.9808803 26.52714803 5.22125479 26.52656555 8.01942444 C26.53708702 9.40961037 26.53708702 9.40961037 26.54782104 10.82788086 C26.54017731 11.84253418 26.53253357 12.8571875 26.5246582 13.90258789 C26.52830887 14.97270615 26.53195953 16.0428244 26.53572083 17.14537048 C26.54384234 20.69082391 26.53020343 24.23582264 26.515625 27.78125 C26.51510663 30.23839823 26.51562345 32.69554688 26.51713562 35.1526947 C26.51704583 40.30506573 26.50660105 45.45728052 26.48852539 50.60961914 C26.46582622 57.22668288 26.46529556 63.84351842 26.47204304 70.46061039 C26.47537808 75.53480573 26.46876189 80.60894867 26.4589138 85.68313408 C26.45505439 88.12367924 26.45391664 90.56423021 26.45549965 93.00477791 C26.45586888 96.40963048 26.44329014 99.81418602 26.42700195 103.21899414 C26.42947937 104.23567169 26.43195679 105.25234924 26.43450928 106.29983521 C26.42388206 107.6857914 26.42388206 107.6857914 26.41304016 109.0997467 C26.41098729 109.90518449 26.40893442 110.71062227 26.40681934 111.54046726 C26.15234375 113.49609375 26.15234375 113.49609375 24.15234375 115.49609375 C19.60974097 115.89637793 15.05267735 115.82510025 10.49438477 115.81176758 C8.22688628 115.80861052 5.96069615 115.83205135 3.69335938 115.85742188 C2.2539079 115.85969516 0.81445291 115.86039823 -0.625 115.859375 C-1.93718506 115.86235596 -3.24937012 115.86533691 -4.60131836 115.8684082 C-7.84765625 115.49609375 -7.84765625 115.49609375 -9.52632236 114.24994564 C-11.19599116 112.03373685 -11.22683644 110.82024114 -11.2353363 108.06214905 C-11.24524094 107.15507706 -11.25514557 106.24800507 -11.26535034 105.31344604 C-11.26084869 104.32063629 -11.25634705 103.32782654 -11.25170898 102.30493164 C-11.25857224 101.25753311 -11.26543549 100.21013458 -11.27250671 99.1309967 C-11.29084534 95.66011087 -11.28692701 92.189674 -11.28125 88.71875 C-11.28580845 86.31123201 -11.29111301 83.90371533 -11.2971344 81.49620056 C-11.30607945 76.44638793 -11.30362651 71.39673333 -11.29370117 66.34692383 C-11.28221085 59.86892268 -11.3024175 53.39146655 -11.33161831 46.91353703 C-11.34994628 41.94047061 -11.34969459 36.9675356 -11.34398079 31.99444389 C-11.34382715 29.60578077 -11.34990623 27.21710898 -11.36227226 24.82847786 C-11.37711543 21.49085221 -11.36655339 18.15424376 -11.34936523 14.81665039 C-11.3590332 13.82586487 -11.36870117 12.83507935 -11.37866211 11.81427002 C-11.30663728 5.15025878 -11.30663728 5.15025878 -9.01382446 1.88241577 C-5.94305222 -0.08284212 -3.62716111 -0.00552372 0 0 Z " fill="#F3EDE7" transform="translate(350.84765625,536.50390625)"/>
<path d="M0 0 C10.35282521 4.16653579 17.74083693 13.36816145 22.12109375 23.40625 C22.47171875 24.355 22.82234375 25.30375 23.18359375 26.28125 C23.82425781 26.08789062 24.46492187 25.89453125 25.125 25.6953125 C26.42244141 25.30472656 26.42244141 25.30472656 27.74609375 24.90625 C28.59300781 24.65101563 29.43992187 24.39578125 30.3125 24.1328125 C31.25996094 23.85179687 32.20742188 23.57078125 33.18359375 23.28125 C34.86388672 22.74757813 34.86388672 22.74757813 36.578125 22.203125 C49.60263069 18.87291553 62.5382602 21.76085862 73.93359375 28.46875 C77.89470486 30.99236111 77.89470486 30.99236111 79.18359375 32.28125 C78.94908753 38.07284309 77.19501921 41.29561869 73.24609375 45.34375 C72.74956299 45.86324219 72.25303223 46.38273437 71.74145508 46.91796875 C61.98250422 56.80579677 49.75359444 61.20264127 35.93359375 61.96875 C29.59574696 61.80660264 26.53374679 59.90155778 21.75 55.9453125 C18.61485458 53.91247849 16.25701394 53.64642122 12.55859375 53.28125 C7.01168989 52.64247611 3.85717261 51.52627411 -0.09765625 47.5546875 C-8.83229066 36.00114835 -9.96972787 24.25275408 -8.81640625 10.28125 C-7.95861442 6.63055303 -6.92660254 3.40033576 -4.81640625 0.28125 C-2.81640625 -0.71875 -2.81640625 -0.71875 0 0 Z " fill="#B1CE81" transform="translate(731.81640625,376.71875)"/>
<path d="M0 0 C5.83516749 3.45422177 9.58866472 10.22828314 11.5625 16.5625 C12.63944798 25.99958644 12.72917774 36.30594635 7.5625 44.5625 C3.59584275 49.49401983 -0.96050889 53.04526165 -7.2734375 53.984375 C-14.33723042 54.30464773 -19.09950547 53.26738355 -24.4375 48.5625 C-30.26294777 42.73705223 -32.76234792 36.17127038 -33.00805664 28.06738281 C-32.97216077 18.02088963 -31.68156251 10.12246989 -24.4921875 2.5 C-17.55613052 -3.02837014 -8.09235356 -3.3330575 0 0 Z " fill="#EE473F" transform="translate(562.4375,432.4375)"/>
<path d="M0 0 C0.67671753 -0.00287018 1.35343506 -0.00574036 2.05065918 -0.00869751 C3.47958209 -0.01073647 4.90853302 -0.00521819 6.33740234 0.00732422 C8.52374725 0.02338239 10.70824379 0.00747216 12.89453125 -0.01171875 C14.28385824 -0.00973629 15.67318409 -0.00589254 17.0625 0 C18.32642578 0.00338379 19.59035156 0.00676758 20.89257812 0.01025391 C24.03125 0.3984375 24.03125 0.3984375 25.9440918 1.59716797 C27.41665608 4.03700163 27.40365486 5.77456498 27.39453125 8.6171875 C27.39388672 9.63167969 27.39324219 10.64617187 27.39257812 11.69140625 C27.37646484 12.74972656 27.36035156 13.80804688 27.34375 14.8984375 C27.34697266 15.95675781 27.35019531 17.01507813 27.35351562 18.10546875 C27.29835975 25.99777287 27.29835975 25.99777287 25.03125 29.3984375 C21.91430664 29.78662109 21.91430664 29.78662109 17.94140625 29.796875 C16.89091347 29.80118027 16.89091347 29.80118027 15.81919861 29.80557251 C14.3372212 29.80761489 12.85521693 29.80207274 11.37329102 29.78955078 C9.10566758 29.77352174 6.83983286 29.78937917 4.57226562 29.80859375 C3.13280857 29.80661088 1.69335262 29.80276628 0.25390625 29.796875 C-1.05827881 29.79349121 -2.37046387 29.79010742 -3.72241211 29.78662109 C-6.96875 29.3984375 -6.96875 29.3984375 -8.89526367 28.19970703 C-10.34666002 25.76431876 -10.35688044 24.00873038 -10.3671875 21.1796875 C-10.37105469 20.16519531 -10.37492187 19.15070313 -10.37890625 18.10546875 C-10.36730469 17.04714844 -10.35570312 15.98882812 -10.34375 14.8984375 C-10.35535156 13.84011719 -10.36695313 12.78179687 -10.37890625 11.69140625 C-10.37310547 10.16966797 -10.37310547 10.16966797 -10.3671875 8.6171875 C-10.36380371 7.68841797 -10.36041992 6.75964844 -10.35693359 5.80273438 C-9.96875 3.3984375 -9.96875 3.3984375 -8.87939453 1.59716797 C-5.95409311 -0.23815403 -3.42487723 0.0091691 0 0 Z " fill="#F3EDE7" transform="translate(349.96875,491.6015625)"/>
<path d="M0 0 C0.78919826 19.29151292 0.78919826 19.29151292 -4 25 C-9.45185946 30.45185946 -14.85871246 33.13490906 -22.5625 33.375 C-27.08005493 33.22647765 -30.26523076 32.73275798 -34 30 C-36.81746751 26.81181308 -38.26425105 24.21578916 -38.5625 20 C-38.33621104 16.40680559 -37.28601249 13.93333965 -34.703125 11.30078125 C-26.83162292 5.28883127 -15.24514249 3.84508607 -5.8125 1.5090332 C-0.43932854 0 -0.43932854 0 0 0 Z " fill="#EE4941" transform="translate(876,594)"/>
<path d="M0 0 C0.10901505 2.83439137 0.18777904 5.66450203 0.25 8.5 C0.30027344 9.68722656 0.30027344 9.68722656 0.3515625 10.8984375 C0.44704059 16.7226012 -0.60869387 21.18791801 -4 26 C-10.03774982 31.61344287 -16.44107479 33.42953 -24.59765625 33.2578125 C-28.75440475 32.81172242 -31.64474268 31.12159227 -34.8125 28.5 C-37.40706587 25.22265363 -37.52367964 21.30560859 -37.46484375 17.28515625 C-36.76869319 13.86290349 -35.05741548 12.42939975 -32.41015625 10.2890625 C-28.77232277 8.34338171 -24.93404861 7.21141421 -21 6 C-20.14672119 5.73606445 -19.29344238 5.47212891 -18.41430664 5.20019531 C-15.7792149 4.39390855 -13.14042763 3.6011233 -10.5 2.8125 C-9.59507812 2.53986328 -8.69015625 2.26722656 -7.7578125 1.98632812 C-6.89929688 1.72916016 -6.04078125 1.47199219 -5.15625 1.20703125 C-4.38087891 0.9747583 -3.60550781 0.74248535 -2.80664062 0.50317383 C-1 0 -1 0 0 0 Z " fill="#EE4840" transform="translate(455,466)"/>
<path d="M0 0 C6.96723628 4.06898021 10.44982076 9.8542537 12.6875 17.4375 C12.6875 18.7575 12.6875 20.0775 12.6875 21.4375 C-2.1625 21.4375 -17.0125 21.4375 -32.3125 21.4375 C-30.41138378 11.9319189 -28.99743321 6.47732884 -21.125 1 C-14.69853272 -2.5702596 -6.77863397 -3.06216284 0 0 Z " fill="#EE4D45" transform="translate(567.3125,561.5625)"/>
<path d="M0 0 C2.09133135 -0.02684294 4.17753011 -0.10168155 6.26757812 -0.17749023 C16.04913038 -0.36738473 16.04913038 -0.36738473 19.58203125 2.06323242 C21.0816636 3.81933288 22.22193588 5.5340207 23.36132812 7.53540039 C24.02132812 8.19540039 24.68132813 8.85540039 25.36132812 9.53540039 C24.2759375 10.06649414 23.19054687 10.59758789 22.07226562 11.14477539 C20.62684573 11.85809949 19.18153924 12.5716534 17.73632812 13.28540039 C17.02347656 13.63344727 16.310625 13.98149414 15.57617188 14.34008789 C9.31589394 17.44150999 3.76316499 21.08682886 -1.63867188 25.53540039 C-7.21101586 23.08019915 -10.3018227 18.62979743 -13.51367188 13.59790039 C-14.98667462 9.58805958 -14.99360545 6.79460332 -14.63867188 2.53540039 C-10.99561922 -1.10765226 -4.9564064 0.04222895 0 0 Z " fill="#F3EAE4" transform="translate(513.638671875,520.464599609375)"/>
</svg>
