<?xml version="1.0" encoding="UTF-8"?>
<svg version="1.1" xmlns="http://www.w3.org/2000/svg" width="1080" height="1080">
<path d="M0 0 C356.4 0 712.8 0 1080 0 C1080 356.4 1080 712.8 1080 1080 C723.6 1080 367.2 1080 0 1080 C0 723.6 0 367.2 0 0 Z " fill="#105B3B" transform="translate(0,0)"/>
<path d="M0 0 C1.78216164 -0.01902626 1.78216164 -0.01902626 3.60032654 -0.03843689 C4.88472122 -0.03550125 6.16911591 -0.03256561 7.49243164 -0.02954102 C8.8104628 -0.03478287 10.12849396 -0.04002472 11.48646545 -0.04542542 C14.27655604 -0.05435998 17.06636047 -0.05193011 19.85644531 -0.04199219 C23.42897424 -0.03050626 27.00051419 -0.05070459 30.57291317 -0.07990932 C33.98363843 -0.10268793 37.3941321 -0.09580413 40.80493164 -0.09204102 C42.72848732 -0.10889198 42.72848732 -0.10889198 44.69090271 -0.12608337 C45.88216263 -0.11670242 47.07342255 -0.10732147 48.30078125 -0.09765625 C49.34874374 -0.09749008 50.39670624 -0.09732391 51.47642517 -0.09715271 C54.96004889 0.5403888 56.07698379 1.62097166 58.21508789 4.40405273 C59.17588806 6.57627869 59.17588806 6.57627869 59.8359375 8.97021484 C60.09460098 9.88203018 60.35326447 10.79384552 60.61976624 11.73329163 C60.88712082 12.72679123 61.1544754 13.72029083 61.42993164 14.74389648 C61.72471909 15.79641098 62.01950653 16.84892548 62.32322693 17.93333435 C62.96245211 20.220413 63.59583065 22.50913193 64.22406006 24.79925537 C65.22576446 28.44288805 66.24707361 32.08048998 67.27416992 35.71704102 C69.27367904 42.80333911 71.25235763 49.89527326 73.2265625 56.98864746 C73.77794057 58.96781869 74.33062487 60.94662026 74.88378906 62.92529297 C78.54599631 76.02534245 82.18667848 89.12985129 85.62524414 102.29077148 C85.98230186 103.65692345 85.98230186 103.65692345 86.34657288 105.05067444 C91.21508789 123.85846059 91.21508789 123.85846059 91.21508789 129.40405273 C91.87508789 129.40405273 92.53508789 129.40405273 93.21508789 129.40405273 C93.34995605 128.38303467 93.48482422 127.3620166 93.6237793 126.31005859 C94.56268347 120.10794141 96.10699111 114.05707523 97.59008789 107.96655273 C97.76127136 107.26018677 97.93245483 106.5538208 98.10882568 105.8260498 C102.70951156 86.90223561 107.94318368 68.14983658 113.21508789 49.40405273 C113.69123535 47.70925781 113.69123535 47.70925781 114.17700195 45.98022461 C115.37388096 41.73250525 116.58309402 37.48892133 117.81665039 33.25170898 C118.90907719 29.49797828 119.9531033 25.73248904 120.98852539 21.96264648 C121.60555062 19.75556986 122.22273562 17.5485379 122.84008789 15.34155273 C123.25629395 13.79467773 123.25629395 13.79467773 123.6809082 12.21655273 C124.08841309 10.77602539 124.08841309 10.77602539 124.50415039 9.30639648 C124.85533936 8.03010376 124.85533936 8.03010376 125.21362305 6.72802734 C126.46223707 3.83052444 127.77044221 2.40456001 130.21508789 0.40405273 C132.94702148 -0.10388184 132.94702148 -0.10388184 136.11352539 -0.11352539 C137.30155762 -0.12613403 138.48958984 -0.13874268 139.71362305 -0.1517334 C140.99285645 -0.14363647 142.27208984 -0.13553955 143.59008789 -0.12719727 C144.9067041 -0.13102417 146.22332031 -0.13485107 147.57983398 -0.13879395 C150.36404223 -0.1446845 153.14773639 -0.1361414 155.93188477 -0.11743164 C159.49658122 -0.09464103 163.06007307 -0.10776667 166.62472534 -0.1317215 C170.02994219 -0.14967057 173.43483683 -0.13709504 176.84008789 -0.12719727 C178.75893799 -0.13934265 178.75893799 -0.13934265 180.71655273 -0.1517334 C182.49860107 -0.13282043 182.49860107 -0.13282043 184.31665039 -0.11352539 C185.36159668 -0.11034302 186.40654297 -0.10716064 187.4831543 -0.10388184 C191.04891892 0.55908271 192.02496157 1.52589461 194.21508789 4.40405273 C194.60601883 7.08488801 194.75197692 9.3547013 194.71629333 12.0333252 C194.72459493 13.19190544 194.72459493 13.19190544 194.73306423 14.37389135 C194.74668729 16.9643497 194.73169309 19.55384731 194.71679688 22.14428711 C194.72057946 24.0004365 194.726079 25.85658308 194.73316956 27.71272278 C194.74714934 32.75610176 194.73593667 37.79914055 194.71945834 42.84250069 C194.70562433 48.11639815 194.71206604 53.39027552 194.71559143 58.66418457 C194.71829486 67.52137749 194.70480653 76.378435 194.68164062 85.2355957 C194.65503009 95.480787 194.65328331 105.72575185 194.66502899 115.97096586 C194.67580218 125.81997295 194.6696233 135.66889799 194.65547371 145.51789856 C194.64970993 149.71240677 194.64979967 153.90685503 194.65453911 158.10136414 C194.65930578 163.03931558 194.64922003 167.97701855 194.62758446 172.91492271 C194.62201219 174.72897694 194.62155531 176.54305503 194.62653732 178.35711098 C194.63247768 180.82994463 194.62000952 183.30201543 194.60276794 185.77478027 C194.61178301 186.85629435 194.61178301 186.85629435 194.6209802 187.95965719 C194.58238711 190.99526847 194.352445 193.14354496 192.92619419 195.84853363 C190.03164084 198.47989151 186.46269499 197.97272865 182.75024414 197.93530273 C181.92052597 197.93912964 181.0908078 197.94295654 180.23594666 197.94689941 C178.48166694 197.94962052 176.72734679 197.94224533 174.97314453 197.92553711 C172.29049907 197.90415564 169.61053982 197.92531621 166.92797852 197.95092773 C165.22289449 197.94828396 163.51781213 197.94315795 161.81274414 197.93530273 C161.01159683 197.94339966 160.21044952 197.95149658 159.38502502 197.95983887 C155.9775221 197.90261485 153.75401645 197.8164812 151.00172806 195.71022415 C148.81773345 192.89115289 148.72042637 191.52138774 148.73406982 187.98773193 C148.72857117 186.88839325 148.72307251 185.78905457 148.71740723 184.65640259 C148.73897888 182.85458023 148.73897888 182.85458023 148.76098633 181.01635742 C148.76040222 179.74780914 148.75981812 178.47926086 148.75921631 177.17227173 C148.75806885 173.69718585 148.78158247 170.22265247 148.80951214 166.74769497 C148.83452091 163.11488587 148.83686736 159.48206403 148.84161377 155.84918213 C148.85404515 148.97141236 148.88686874 142.09389698 148.92701173 135.21623921 C148.97172456 127.38561798 148.99371521 119.55498459 149.01379347 111.72426748 C149.05560141 95.61738033 149.12595637 79.510749 149.21508789 63.40405273 C148.96994446 64.48974297 148.96994446 64.48974297 148.71984863 65.59736633 C147.9614534 68.94651744 147.19767096 72.29441906 146.43383789 75.64233398 C146.17699219 76.78029419 145.92014648 77.91825439 145.65551758 79.09069824 C143.45757791 88.69644546 140.76144126 98.10527559 137.93383789 107.54077148 C136.22294476 113.29498626 134.69962184 119.08793344 133.21508789 124.90405273 C130.95847451 133.7214631 128.48709764 142.45685636 125.89746094 151.18188477 C123.32117313 159.90873121 120.96416831 168.68820879 118.69970703 177.50097656 C117.01133277 183.93596052 115.26606028 190.45828775 112.21508789 196.40405273 C107.33537416 198.8439096 99.90102256 197.75877348 94.47583008 197.80908203 C92.72204935 197.83068752 90.96837719 197.86482105 89.21508789 197.91162109 C86.6859528 197.97851557 84.1590444 198.00605798 81.62915039 198.02514648 C80.84673981 198.05297714 80.06432922 198.0808078 79.25820923 198.10948181 C77.03393555 198.10107422 77.03393555 198.10107422 73.21508789 197.40405273 C70.21718257 194.03995426 68.74267063 190.76263678 67.68774414 186.41967773 C67.45563232 185.49372803 67.22352051 184.56777832 66.984375 183.61376953 C66.75113525 182.63706299 66.51789551 181.66035645 66.27758789 180.65405273 C65.76055089 178.58214029 65.24230836 176.51052833 64.72290039 174.43920898 C64.46927734 173.41585449 64.2156543 172.3925 63.9543457 171.33813477 C62.92093367 167.23656746 61.79871428 163.16282661 60.65258789 159.09155273 C60.45028564 158.36935547 60.2479834 157.6471582 60.03955078 156.90307617 C59.6349612 155.45971054 59.22977453 154.01651214 58.82397461 152.57348633 C57.7796408 148.85257604 56.74822442 145.12808415 55.71508789 141.40405273 C55.29454055 139.89102479 54.87396771 138.37800394 54.45336914 136.86499023 C53.65628078 133.99596916 52.86203968 131.12618743 52.07055664 128.25561523 C51.68139615 126.84671619 51.29207013 125.43786286 50.90258789 124.02905273 C50.70407227 123.31015869 50.50555664 122.59126465 50.30102539 121.85058594 C48.99706872 117.15224205 47.65709713 112.46540642 46.29711914 107.78295898 C45.95398682 106.59686035 45.61085449 105.41076172 45.25732422 104.1887207 C44.59081589 101.88833802 43.92045275 99.58906648 43.24511719 97.29125977 C41.14948455 90.04776345 39.31599397 82.77118689 37.58618164 75.43261719 C37.3570105 74.46504738 37.12783936 73.49747757 36.89172363 72.50058746 C36.33168535 70.13534755 35.77283425 67.76983395 35.21508789 65.40405273 C35.21693148 66.05488956 35.21877506 66.70572639 35.22067451 67.37628555 C35.26483254 83.20852721 35.29793422 99.04074747 35.31871223 114.87303543 C35.32902725 122.52939311 35.34309189 130.18570971 35.3659668 137.84204102 C35.38589378 144.51486544 35.39880269 151.1876601 35.40326488 157.86051345 C35.40587344 161.39412987 35.41200934 164.92766115 35.426548 168.46125031 C35.44264184 172.40476586 35.44306802 176.34819791 35.44213867 180.29174805 C35.44932922 181.46491074 35.45651978 182.63807343 35.46392822 183.8467865 C35.46117889 184.92088272 35.45842957 185.99497894 35.45559692 187.10162354 C35.45744051 188.03447803 35.4592841 188.96733253 35.46118355 189.92845535 C35.19879048 192.56799642 34.64142954 194.17954084 33.21508789 196.40405273 C30.0176565 198.00276843 26.54449673 197.58826955 23.03149414 197.60717773 C22.22018539 197.61287781 21.40887665 197.61857788 20.57298279 197.62445068 C18.85563462 197.63390259 17.1382683 197.64043542 15.42089844 197.64428711 C12.7914274 197.6540016 10.16273506 197.68502591 7.53344727 197.71655273 C5.86613421 197.72308191 4.19881555 197.72833272 2.53149414 197.73217773 C1.35013634 197.75069794 1.35013634 197.75069794 0.14491272 197.76959229 C-5.22491118 197.74763931 -5.22491118 197.74763931 -7.49268532 196.35625458 C-9.47913007 193.35527895 -9.19765808 190.29200702 -9.16586304 186.81237793 C-9.17054301 186.03197285 -9.17522298 185.25156777 -9.18004477 184.44751406 C-9.19204142 181.82413175 -9.1825195 179.20126734 -9.1730957 176.57788086 C-9.17715934 174.70055333 -9.18250004 172.82322818 -9.18902588 170.94590759 C-9.20273007 165.84061534 -9.19738804 160.73550449 -9.18788862 155.63020897 C-9.18030808 150.2944425 -9.18733316 144.95869186 -9.19204712 139.6229248 C-9.19750936 130.66142988 -9.19030077 121.70000907 -9.17602539 112.73852539 C-9.159698 102.36894241 -9.16498618 91.99953637 -9.18150461 81.62995768 C-9.19510613 72.73649023 -9.19704567 63.84307613 -9.1891886 54.94960165 C-9.18450474 49.63369438 -9.18390678 44.31787035 -9.19379807 39.00196838 C-9.20244606 34.00495153 -9.19648557 29.00816341 -9.1791153 24.01117134 C-9.17513884 22.17411746 -9.17630421 20.33704442 -9.18290329 18.49999809 C-9.19106328 15.99831216 -9.18086499 13.49736594 -9.16586304 10.99572754 C-9.1725552 10.2633413 -9.17924737 9.53095506 -9.18614233 8.77637529 C-9.15209733 5.86307164 -9.11959483 3.88378573 -7.42433262 1.45380306 C-4.95412125 -0.12791754 -2.91326281 0.01503133 0 0 Z " fill="#ED463D" transform="translate(90.784912109375,509.595947265625)"/>
<path d="M0 0 C2.45134924 2.16850125 4.77847697 4.38819776 7.0546875 6.73828125 C8.0446875 7.72828125 8.0446875 7.72828125 9.0546875 8.73828125 C9.09207031 8.12339844 9.12945313 7.50851562 9.16796875 6.875 C9.23371094 6.06675781 9.29945313 5.25851562 9.3671875 4.42578125 C9.42519531 3.62527344 9.48320313 2.82476562 9.54296875 2 C10.19032665 -0.86122309 10.63452016 -1.57990755 13.0546875 -3.26171875 C15.90174641 -3.54779405 18.52540698 -3.65827703 21.37109375 -3.625 C22.58949196 -3.62574776 22.58949196 -3.62574776 23.83250427 -3.62651062 C25.54811044 -3.62417158 27.26372014 -3.61445303 28.97924805 -3.59790039 C31.61082485 -3.57427587 34.24139076 -3.57734437 36.87304688 -3.58398438 C38.53906856 -3.57840865 40.20508597 -3.57129943 41.87109375 -3.5625 C42.66068985 -3.56341141 43.45028595 -3.56432281 44.2638092 -3.56526184 C49.82364958 -3.49275667 49.82364958 -3.49275667 52.0546875 -1.26171875 C52.31195641 1.03520489 52.31195641 1.03520489 52.32211304 3.9650116 C52.33490799 5.62786446 52.33490799 5.62786446 52.34796143 7.3243103 C52.34660187 9.15767441 52.34660187 9.15767441 52.34521484 11.02807617 C52.35193207 12.31125229 52.35864929 13.59442841 52.36557007 14.91648865 C52.38328329 18.44620936 52.38792824 21.97583316 52.38920164 25.50559402 C52.39062314 27.71585519 52.39489316 29.92609175 52.40019608 32.13634682 C52.41872826 39.86296778 52.4268645 47.58951966 52.42529297 55.31616211 C52.42409727 62.48920633 52.44507812 69.66194684 52.4767803 76.83491439 C52.50308397 83.00924997 52.5136541 89.18348744 52.51238215 95.35787851 C52.51187574 99.03776306 52.5173757 102.71737907 52.53873825 106.39720726 C52.74258826 144.15206896 52.74258826 144.15206896 40.0546875 160.73828125 C37.51851484 159.47997451 34.99726508 158.19489009 32.48046875 156.8984375 C22.10233437 151.58453005 12.58675337 147.78468125 1.0546875 145.73828125 C1.47621094 145.14660156 1.89773438 144.55492187 2.33203125 143.9453125 C2.87988281 143.15511719 3.42773438 142.36492187 3.9921875 141.55078125 C4.53746094 140.77347656 5.08273437 139.99617187 5.64453125 139.1953125 C7.91472102 135.2397741 8.18136547 131.37336709 8.15234375 126.875 C8.14912109 125.98876953 8.14589844 125.10253906 8.14257812 124.18945312 C8.13419922 123.27744141 8.12582031 122.36542969 8.1171875 121.42578125 C8.11267578 120.49443359 8.10816406 119.56308594 8.10351562 118.60351562 C8.09177984 116.31503752 8.07536113 114.02669317 8.0546875 111.73828125 C7.4978125 112.269375 6.9409375 112.80046875 6.3671875 113.34765625 C1.55173952 117.80519931 -2.88553582 121.21559889 -8.9453125 123.73828125 C-9.8115625 124.13015625 -10.6778125 124.52203125 -11.5703125 124.92578125 C-25.11927259 129.56095181 -40.02740991 126.90085575 -52.83984375 121.5234375 C-67.43365838 114.32048178 -77.40592803 102.17759588 -83.3203125 87.17578125 C-90.00516069 66.52965719 -88.72010717 43.69364135 -79.1328125 24.23828125 C-71.32747872 9.23039109 -61.02288154 -0.56676903 -44.953125 -6.3359375 C-30.44360519 -10.4155862 -12.21808293 -9.38232098 0 0 Z " fill="#479D57" transform="translate(569.9453125,409.26171875)"/>
<path d="M0 0 C14.26962855 12.24007728 22.64576227 28.63615169 26 47 C26.18433594 47.94617188 26.36867188 48.89234375 26.55859375 49.8671875 C27.09109241 53.64651426 27.22191448 57.37840148 27.25 61.1875 C27.2809375 62.25387695 27.2809375 62.25387695 27.3125 63.34179688 C27.35152606 68.52738523 27.35152606 68.52738523 25.7345686 70.70132923 C23.61304502 72.28971303 22.54819908 72.37086376 19.91877747 72.36076355 C19.09006638 72.36488754 18.26135529 72.36901154 17.40753174 72.3732605 C16.04915192 72.35708176 16.04915192 72.35708176 14.66333008 72.34057617 C13.70704208 72.34101425 12.75075409 72.34145233 11.76548767 72.34190369 C8.59996223 72.3398112 5.43496433 72.31645816 2.26953125 72.29296875 C0.07663767 72.28737444 -2.11625966 72.28310356 -4.30915833 72.28010559 C-10.08456754 72.26864387 -15.8597509 72.23916511 -21.6350708 72.20599365 C-27.52686508 72.17532146 -33.4186958 72.16160635 -39.31054688 72.14648438 C-50.87379722 72.11429681 -62.43687984 72.06308431 -74 72 C-73.23407632 74.40627375 -72.45947877 76.80915811 -71.6796875 79.2109375 C-71.46530029 79.88761475 -71.25091309 80.56429199 -71.0300293 81.26147461 C-68.31954602 89.55444299 -63.80854445 95.87171215 -56 100 C-48.00335344 103.17185422 -38.79517015 103.33226357 -30.625 100.5625 C-26.73187252 98.77020645 -25.17575856 96.93014768 -22.8515625 93.390625 C-19.42219819 89.42094155 -16.86681718 88.40916683 -11.81814575 88.03977966 C-8.61760576 87.9584405 -5.43481144 87.98732411 -2.23535156 88.10131836 C0.25899138 88.18781178 2.74647679 88.20383605 5.2421875 88.20898438 C6.83340007 88.23288718 8.42455923 88.26074314 10.015625 88.29296875 C10.75733948 88.3005571 11.49905396 88.30814545 12.26324463 88.31596375 C15.70004876 88.45819643 17.67931961 88.75808713 20.45605469 90.8527832 C22 93 22 93 22.6875 96.0625 C20.64372008 107.76778499 10.0670535 117.58259183 0.75 124.25 C-18.8381535 136.3809091 -42.21580922 139.2088816 -64.47387695 133.97729492 C-81.36910562 129.46777204 -97.16602002 119.29731136 -106.65234375 104.40625 C-108.21107714 101.64574507 -109.63213559 98.85972785 -111 96 C-111.46535156 95.02804687 -111.93070312 94.05609375 -112.41015625 93.0546875 C-120.20011426 75.65787166 -120.99402143 52.16128752 -115 34 C-111.48557447 25.32240611 -107.07156413 17.15577201 -101 10 C-100.3709375 9.1853125 -99.741875 8.370625 -99.09375 7.53125 C-75.58114695 -20.89443429 -27.96097218 -21.03222688 0 0 Z " fill="#EC463D" transform="translate(606,576)"/>
<path d="M0 0 C10.06850548 9.33757949 14.39168135 20.55313398 15.11359787 34.13759613 C15.28037491 39.21834401 15.29970856 44.2994874 15.30496025 49.38261032 C15.30866574 52.26697724 15.32550016 55.15101301 15.34571838 58.03530884 C15.40076666 66.22643895 15.43190189 74.4176137 15.45629883 82.60888672 C15.47218183 87.64137517 15.50239097 92.67362004 15.54106331 97.70598221 C15.55268776 99.61568238 15.55864343 101.52542604 15.55874443 103.43516159 C15.55893675 106.10075139 15.57721705 108.7656674 15.59936523 111.43115234 C15.59478806 112.21359314 15.59021088 112.99603394 15.585495 113.80218506 C15.64942852 118.64865294 16.60049349 121.68573878 19 126 C19 126.99 19 127.98 19 129 C14.12538525 129.09924823 9.25136503 129.17164581 4.37597656 129.21972656 C2.71929675 129.23978009 1.06268718 129.26703029 -0.59375 129.30175781 C-2.98194758 129.35055512 -5.36920547 129.37303064 -7.7578125 129.390625 C-8.85973434 129.42159271 -8.85973434 129.42159271 -9.98391724 129.45318604 C-15.93207997 129.4557523 -19.40820357 127.51630722 -23.609375 123.4375 C-25.7624883 120.72398735 -27.51991571 118.12163232 -29 115 C-29.78375 116.03125 -30.5675 117.0625 -31.375 118.125 C-38.57164063 126.50976526 -49.23565371 130.76474715 -60 132 C-76.31186222 132.85972302 -90.79006805 131.37855739 -104.2734375 121.30078125 C-111.47224482 114.55779361 -115.89400748 105.34263767 -116.30078125 95.4765625 C-116.31521989 93.85943474 -116.31895838 92.24217932 -116.3125 90.625 C-116.32861328 89.82578125 -116.34472656 89.0265625 -116.36132812 88.203125 C-116.36985869 77.65934775 -112.55231084 68.58658436 -105.1015625 61.08984375 C-91.54700991 49.62642102 -73.99478445 47.33417703 -57.04101562 45.12207031 C-43.09360113 43.52231905 -43.09360113 43.52231905 -31 37 C-28.91244232 32.82488465 -29.65144537 27.48927887 -30.6875 23.0625 C-32.41601211 20.34626669 -33.95510309 19.89118934 -37 19 C-38.485 18.505 -38.485 18.505 -40 18 C-42.61864161 17.8515056 -45.1932477 17.7689973 -47.8125 17.75 C-48.86147461 17.7190625 -48.86147461 17.7190625 -49.93164062 17.6875 C-54.73321854 17.65156677 -57.93613759 18.45634533 -62 21 C-64.75007237 23.94650611 -66.96745606 26.95071918 -69.1875 30.3125 C-71 33 -71 33 -73 34 C-77.38846485 34.25812405 -81.78068944 34.2710009 -86.17578125 34.29516602 C-88.3600131 34.31238187 -90.54273175 34.35627034 -92.7265625 34.40039062 C-94.11717638 34.41051777 -95.50780311 34.41903381 -96.8984375 34.42578125 C-98.16349121 34.44036377 -99.42854492 34.45494629 -100.73193359 34.4699707 C-104 34 -104 34 -106.38134766 32.16870117 C-108.75691685 28.98586842 -109 26.98270272 -109 23 C-107.11721183 15.51839439 -103.10885408 9.6679776 -98 4 C-97.52304687 3.46761719 -97.04609375 2.93523438 -96.5546875 2.38671875 C-73.83315526 -19.68052853 -23.80263549 -19.82800186 0 0 Z " fill="#EB463D" transform="translate(979,572)"/>
<path d="M0 0 C0.71021301 0.00021149 1.42042603 0.00042297 2.15216064 0.00064087 C12.69276679 0.03202323 22.43977262 0.52256489 32.375 4.375 C33.303125 4.725625 34.23125 5.07625 35.1875 5.4375 C46.88217209 10.57174628 54.64156992 19.64900276 59.375 31.375 C61.07564174 37.39222583 61.673269 43.13247311 61.67797852 49.36376953 C61.68641785 50.21215393 61.69485718 51.06053833 61.70355225 51.93463135 C61.72911762 54.70903148 61.74142138 57.48332554 61.75390625 60.2578125 C61.77010357 62.20117002 61.78728586 64.14451955 61.80540466 66.08786011 C61.8509115 71.18467503 61.8858068 76.28150107 61.91760254 81.37841797 C61.96963934 89.54212939 62.03487827 97.70572274 62.10581779 105.8692894 C62.12853561 108.71144316 62.14487864 111.5535822 62.16053772 114.39578247 C62.17395179 116.1455298 62.18756723 117.89527559 62.20141602 119.64501953 C62.20533607 120.82035751 62.20533607 120.82035751 62.20933533 122.0194397 C62.1599263 131.35794709 62.1599263 131.35794709 66.375 139.375 C66.375 140.035 66.375 140.695 66.375 141.375 C61.2338937 141.49916286 56.09367154 141.58960196 50.95141602 141.6496582 C49.20451645 141.67470857 47.45772072 141.70875917 45.71118164 141.75219727 C43.19130768 141.81327206 40.67282618 141.84130335 38.15234375 141.86328125 C37.37914291 141.88908768 36.60594208 141.9148941 35.80931091 141.94148254 C30.0869302 141.94440199 26.52136574 140.34539461 22.375 136.375 C20.81640625 133.91796875 20.81640625 133.91796875 19.9375 131.5625 C19.62941406 130.77230469 19.32132812 129.98210937 19.00390625 129.16796875 C18.79636719 128.57628906 18.58882813 127.98460937 18.375 127.375 C17.98570312 127.88289062 17.59640625 128.39078125 17.1953125 128.9140625 C9.21911135 138.72809802 -1.21581258 143.68351848 -13.625 145.375 C-29.34952247 146.20512707 -44.32195062 144.90883888 -56.9453125 134.453125 C-65.74103319 126.07933925 -69.53909975 116.62929954 -70.03198242 104.45117188 C-70.19275135 93.51374031 -67.69982334 84.83250228 -60.6015625 76.375 C-54.63326929 70.33593652 -47.48857082 67.23921454 -39.625 64.375 C-38.93535156 64.05998535 -38.24570312 63.7449707 -37.53515625 63.42041016 C-33.65163597 62.0253402 -29.76941039 61.43421878 -25.703125 60.7890625 C-23.93743964 60.49515404 -22.17181655 60.20087129 -20.40625 59.90625 C-17.64462824 59.4518555 -14.88251935 59.00120704 -12.11914062 58.55761719 C-9.43691229 58.12465907 -6.75754518 57.67652929 -4.078125 57.2265625 C-3.26531067 57.1003653 -2.45249634 56.97416809 -1.61505127 56.84414673 C4.83238796 55.74721246 11.4353282 53.95834795 16.4375 49.5625 C17.84527826 46.27768407 17.80216638 43.91437854 17.375 40.375 C14.88675823 35.39851646 12.48231855 33.42383183 7.375 31.375 C4.54958817 30.94220976 1.79176386 30.9097397 -1.0625 30.9375 C-1.78759766 30.91751953 -2.51269531 30.89753906 -3.25976562 30.87695312 C-8.82860435 30.88195657 -12.08493303 32.12100817 -16.625 35.375 C-18.77567389 37.8140359 -18.77567389 37.8140359 -20.375 40.5 C-22.3891948 43.67188621 -23.45135067 45.25923378 -26.625 47.375 C-30.87197426 47.80657512 -35.12791911 47.78905024 -39.39404297 47.80053711 C-41.48654659 47.81242358 -43.57608847 47.86159872 -45.66796875 47.91210938 C-47.005194 47.92157584 -48.3424373 47.92880981 -49.6796875 47.93359375 C-51.49702393 47.95377563 -51.49702393 47.95377563 -53.35107422 47.97436523 C-57.55647898 47.20447197 -59.01769864 45.69796604 -61.625 42.375 C-63.10090681 34.72711924 -59.5365453 28.81601126 -55.625 22.375 C-47.89269931 11.04583306 -34.33682852 4.31605145 -21.23046875 1.26171875 C-14.20815699 -0.05984268 -7.11941589 -0.0194914 0 0 Z " fill="#479D57" transform="translate(415.625,401.625)"/>
<path d="M0 0 C2.02416546 1.420735 3.85028251 2.93355281 5.6953125 4.578125 C6.28699219 5.05507813 6.87867188 5.53203125 7.48828125 6.0234375 C16.07919194 13.57130164 21.01044933 25.72503677 21.8825779 36.99886703 C21.9599974 39.60904999 21.97710058 42.21241292 21.9699707 44.82373047 C21.97508163 45.80533646 21.98019257 46.78694244 21.98545837 47.79829407 C21.99925961 51.01403035 21.99840601 54.22955029 21.99609375 57.4453125 C21.99998336 59.68970824 22.00431858 61.93410325 22.00907898 64.17849731 C22.01651889 68.86706946 22.01626424 73.55556625 22.01098633 78.24414062 C22.00516747 84.2601278 22.02219167 90.27580953 22.045331 96.29174614 C22.06003201 100.91903493 22.06094547 105.54624928 22.05782127 110.17355728 C22.05833542 112.39278905 22.06359063 114.61202488 22.07363319 116.83123398 C22.08592178 119.92399062 22.07925364 123.01614035 22.06762695 126.10888672 C22.07527069 127.02838608 22.08291443 127.94788544 22.09078979 128.89524841 C22.08377548 129.73619553 22.07676117 130.57714264 22.0695343 131.443573 C22.06970204 132.17392698 22.06986979 132.90428097 22.07004261 133.65676689 C21.577489 136.18224283 20.74884456 137.05850805 18.6953125 138.578125 C15.80095704 138.88871038 13.12620268 139.02230283 10.23046875 139.01171875 C9.40075058 139.0169606 8.57103241 139.02220245 7.71617126 139.02760315 C5.96191527 139.03402446 4.20761622 139.0326849 2.45336914 139.02416992 C-0.2291345 139.01566638 -2.90950405 139.04440691 -5.59179688 139.07617188 C-7.29687436 139.07778417 -9.00195562 139.07720581 -10.70703125 139.07421875 C-11.50817856 139.08545273 -12.30932587 139.09668671 -13.13475037 139.10826111 C-16.43183775 139.06706548 -18.75809096 138.95179749 -21.51895142 137.06437683 C-24.01913052 133.58341739 -23.83909372 130.42176716 -23.77124023 126.29638672 C-23.77354645 125.4633049 -23.77585266 124.63022308 -23.77822876 123.77189636 C-23.78085725 121.96419328 -23.77441703 120.15645942 -23.75997734 118.3488121 C-23.73807336 115.48059013 -23.74181478 112.61342211 -23.75245667 109.74514771 C-23.77412089 102.61718183 -23.75684968 95.48944856 -23.73095703 88.36151123 C-23.7094824 82.34443759 -23.70772168 76.32804086 -23.73387337 70.31097794 C-23.73820039 67.49787959 -23.71364913 64.68597993 -23.68833923 61.87301636 C-23.59355991 48.94772491 -23.59355991 48.94772491 -29.3046875 37.578125 C-35.01639911 32.28213692 -41.33918158 32.17299712 -48.78125 32.234375 C-55.29552767 32.86991429 -58.58387935 35.89555703 -63.1171875 40.328125 C-65.75909221 44.25324057 -67.08356863 48.04018325 -68.3046875 52.578125 C-68.47835846 53.12448105 -68.65202942 53.6708371 -68.83096313 54.23374939 C-69.5030521 57.55979526 -69.45750816 60.85767231 -69.46240234 64.23657227 C-69.46748306 65.00286957 -69.47256378 65.76916687 -69.47779846 66.5586853 C-69.48848078 68.21905445 -69.49710931 69.8794378 -69.50391769 71.53982735 C-69.51572345 74.1664339 -69.53517819 76.79287729 -69.55703735 79.41941833 C-69.61861444 86.88592125 -69.67278154 94.35240473 -69.70605469 101.8190918 C-69.72696434 106.38850897 -69.76223064 110.95762397 -69.80681229 115.52686882 C-69.82099475 117.26878245 -69.82969978 119.01074948 -69.83286667 120.75271797 C-69.83775917 123.18515963 -69.86087064 125.61679389 -69.88818359 128.04907227 C-69.88517746 128.7707106 -69.88217133 129.49234894 -69.8790741 130.2358551 C-69.92685232 133.09170452 -69.99240631 135.10746043 -71.59538269 137.5234375 C-74.67268708 139.4222179 -78.25834594 139.02455234 -81.76953125 139.01171875 C-82.59924942 139.0169606 -83.42896759 139.02220245 -84.28382874 139.02760315 C-86.03808473 139.03402446 -87.79238378 139.0326849 -89.54663086 139.02416992 C-92.2291345 139.01566638 -94.90950405 139.04440691 -97.59179688 139.07617188 C-99.29687436 139.07778417 -101.00195562 139.07720581 -102.70703125 139.07421875 C-103.50817856 139.08545273 -104.30932587 139.09668671 -105.13475037 139.10826111 C-108.5411076 139.0657002 -110.76146799 138.99257468 -113.51636505 136.89072418 C-115.71243948 134.05083369 -115.80709858 132.63447463 -115.81262207 129.0748291 C-115.82390137 127.95602859 -115.83518066 126.83722809 -115.84680176 125.68452454 C-115.83870483 124.4615416 -115.83060791 123.23855865 -115.82226562 121.97851562 C-115.8292749 120.68713181 -115.83628418 119.39574799 -115.84350586 118.06523132 C-115.86173673 114.52590349 -115.85467306 110.98704218 -115.84198952 107.44770622 C-115.83186045 103.74332296 -115.84125493 100.03897956 -115.84753418 96.33459473 C-115.85481089 90.11377797 -115.8452224 83.89315119 -115.82617188 77.67236328 C-115.8044029 70.48085319 -115.81145427 63.2897967 -115.8334775 56.0982976 C-115.85163096 49.92321913 -115.85419014 43.7482772 -115.84372282 37.57318068 C-115.83748752 33.88532546 -115.83665304 30.19768343 -115.84986877 26.50984192 C-115.86357186 22.39886624 -115.84457867 18.28867221 -115.82226562 14.17773438 C-115.83036255 12.95475143 -115.83845947 11.73176849 -115.84680176 10.47172546 C-115.83552246 9.35292496 -115.82424316 8.23412445 -115.81262207 7.0814209 C-115.81111397 6.10951561 -115.80960587 5.13761032 -115.80805206 4.13625336 C-115.15405269 0.81259001 -113.96057165 -0.37542289 -111.3046875 -2.421875 C-108.54549503 -2.83213941 -106.19144293 -3.00703824 -103.43359375 -2.98828125 C-102.67425034 -2.99447983 -101.91490692 -3.00067841 -101.1325531 -3.00706482 C-99.52970662 -3.01415501 -97.92678637 -3.0110028 -96.32397461 -2.99829102 C-93.87800765 -2.98443629 -91.43587755 -3.01848515 -88.99023438 -3.05664062 C-87.42968657 -3.05759203 -85.86913399 -3.05573187 -84.30859375 -3.05078125 C-83.2177523 -3.07066856 -83.2177523 -3.07066856 -82.10487366 -3.09095764 C-78.19645183 -3.01970075 -76.45262883 -2.53853703 -73.34863281 -0.09082031 C-70.81479985 3.21781107 -70.61732413 5.26111608 -70.4921875 9.390625 C-70.44449219 10.55207031 -70.39679688 11.71351563 -70.34765625 12.91015625 C-70.33347656 13.79058594 -70.31929688 14.67101562 -70.3046875 15.578125 C-69.92699219 15.02125 -69.54929687 14.464375 -69.16015625 13.890625 C-53.52015033 -7.79294292 -22.92014105 -14.1405616 0 0 Z " fill="#EC463D" transform="translate(461.3046875,568.421875)"/>
<path d="M0 0 C0.78391113 -0.00524185 1.56782227 -0.0104837 2.37548828 -0.0158844 C4.02961037 -0.02229565 5.6837781 -0.02097918 7.33789062 -0.01245117 C9.86671121 -0.00393417 12.3932771 -0.03272266 14.921875 -0.06445312 C16.53124932 -0.06606514 18.14062764 -0.06548759 19.75 -0.0625 C20.88139404 -0.07935097 20.88139404 -0.07935097 22.03564453 -0.09654236 C25.52382154 -0.05029383 27.49091917 0.1403055 30.30102539 2.28613281 C35.16192 8.91812118 36.88621017 18.34422057 39.15234375 26.1796875 C41.01046841 32.5490246 42.92337024 38.89938966 44.8828125 45.23828125 C45.26546013 46.4765139 45.26546013 46.4765139 45.65583801 47.73976135 C46.7011085 51.1186647 47.74815692 54.49701358 48.79638672 57.875 C54.20930176 75.32956912 54.20930176 75.32956912 56.32763672 83.50439453 C56.82725344 85.49318083 56.82725344 85.49318083 57.875 87.43359375 C58.09526855 86.66208984 58.31553711 85.89058594 58.54248047 85.09570312 C64.00822758 65.997905 69.69539961 46.98387749 75.72460938 28.05615234 C76.80279246 24.66097396 77.86341695 21.26074143 78.921875 17.859375 C79.53004539 15.94623123 80.13933147 14.03344159 80.75 12.12109375 C81.01184082 11.26757324 81.27368164 10.41405273 81.54345703 9.53466797 C81.92026611 8.37668701 81.92026611 8.37668701 82.3046875 7.1953125 C82.61768799 6.20470825 82.61768799 6.20470825 82.93701172 5.1940918 C84.26220595 2.70685192 85.37744187 1.7803512 87.875 0.43359375 C90.58916613 0.12926144 93.06818214 -0.0108748 95.78125 0 C96.54296509 -0.00524185 97.30468018 -0.0104837 98.08947754 -0.0158844 C99.69652083 -0.02229471 101.30361109 -0.02098039 102.91064453 -0.01245117 C105.36706102 -0.00393378 107.82115647 -0.03272389 110.27734375 -0.06445312 C111.84114514 -0.06606515 113.40495063 -0.06548759 114.96875 -0.0625 C116.06733337 -0.07935097 116.06733337 -0.07935097 117.18811035 -0.09654236 C120.47829481 -0.0516486 122.57452137 0.24161803 125.36914062 2.02709961 C127.48876089 5.41443699 127.30925545 7.47804276 126.875 11.43359375 C126.18938474 14.22909589 125.25753798 16.89988037 124.26953125 19.6015625 C123.99415024 20.38156616 123.71876923 21.16156982 123.43504333 21.96520996 C122.52966895 24.52103509 121.60874067 27.07094935 120.6875 29.62109375 C120.04889405 31.41414533 119.41121152 33.20752604 118.77441406 35.0012207 C116.82349581 40.48431525 114.85150916 45.95968074 112.875 51.43359375 C112.28238133 53.07682003 111.68977037 54.7200491 111.09716797 56.36328125 C108.90469997 62.43884211 106.70914778 68.51326972 104.50463867 74.58447266 C101.08026374 84.02536168 97.75434468 93.49533523 94.5 102.99609375 C93.31954027 106.42602027 92.13823459 109.85565397 90.95654297 113.28515625 C90.25117721 115.33851897 89.54950147 117.3931541 88.85205078 119.44921875 C87.93729119 122.13704222 87.00295745 124.81717534 86.0625 127.49609375 C85.68182373 128.63896851 85.68182373 128.63896851 85.29345703 129.80493164 C83.63342607 134.45291033 82.09659513 136.87374533 77.875 139.43359375 C74.7049069 140.01147939 71.59050671 139.99452399 68.375 139.96484375 C67.46169922 139.96867065 66.54839844 139.97249756 65.60742188 139.97644043 C63.68097834 139.97915628 61.75449772 139.97181799 59.828125 139.95507812 C56.88457792 139.93366343 53.94347145 139.95489046 51 139.98046875 C49.12499463 139.97782542 47.24999077 139.97270032 45.375 139.96484375 C44.49779297 139.97294067 43.62058594 139.9810376 42.71679688 139.98937988 C38.72571059 139.92833561 36.41613206 139.74818884 32.90893555 137.70922852 C30.74450743 135.28759432 29.81710313 133.57064411 28.83203125 130.4921875 C28.49002686 129.4602124 28.14802246 128.4282373 27.7956543 127.36499023 C27.24711792 125.63551147 27.24711792 125.63551147 26.6875 123.87109375 C26.05090351 121.94854986 25.41411281 120.02606725 24.77345276 118.10487366 C24.29425651 116.66772167 23.8168193 115.22998225 23.34092712 113.79173279 C19.73666259 102.93134822 15.87981046 92.15792379 12.0625 81.37109375 C11.28017774 79.15571413 10.49795114 76.94030073 9.71582031 74.72485352 C4.49109237 59.93738727 -0.79179032 45.17168616 -6.15356445 30.43334961 C-7.48596055 26.76982941 -8.80908818 23.10307352 -10.125 19.43359375 C-10.45846436 18.50691895 -10.79192871 17.58024414 -11.13549805 16.62548828 C-12.82997268 11.7688141 -13.63461832 8.46565482 -12.125 3.43359375 C-8.68305642 -0.26898819 -4.74329588 -0.01846121 0 0 Z " fill="#EC463D" transform="translate(747.125,561.56640625)"/>
<path d="M0 0 C0.21914063 0.60585938 0.43828125 1.21171875 0.6640625 1.8359375 C3.52045693 9.38332116 6.78969631 17.34778561 12.9375 22.8125 C15 25 15 25 15.125 27.5 C13.67514905 30.72189101 11.49582322 32.50417678 9 35 C-0.04367851 48.58138387 0.18095964 67.86980625 3.23828125 83.3515625 C5.65894664 91.76802986 9.7557137 99.35210795 17.4375 103.8125 C24.29888245 107.01043047 31.27052662 107.15195948 38.58203125 105.37109375 C45.78041526 102.63644361 50.29186403 97.66408441 53.5078125 90.765625 C56.96996238 82.02122358 58.19296484 74.70817356 58.1875 65.375 C58.18886963 64.39184814 58.19023926 63.40869629 58.19165039 62.39575195 C58.15104627 56.34573768 57.7757339 50.6335727 56.33984375 44.73046875 C56.22769531 44.15941406 56.11554688 43.58835937 56 43 C57.83066441 41.16933559 60.84700695 41.73817017 63.3125 41.625 C73.10216222 40.97898168 81.81170273 38.80588049 90.74609375 34.76953125 C93.28243122 33.90357201 95.3381818 33.86385762 98 34 C105.94149603 55.50943942 106.3545399 78.08770568 96.84863281 99.2265625 C88.16579876 117.3715874 73.90912351 128.48715061 55.41772461 135.23730469 C47.5512998 137.975712 40.22901014 138.21717774 31.98242188 138.24023438 C29.90192675 138.24987522 27.82244862 138.2809061 25.7421875 138.3125 C14.5276781 138.40380439 5.05402728 136.53066329 -4.9375 131.4375 C-5.61498291 131.09235352 -6.29246582 130.74720703 -6.99047852 130.39160156 C-21.84556291 122.5150987 -33.36925085 109.95725221 -39 94 C-45.84085929 71.36719095 -46.32586804 50.06870136 -35.41821289 28.68969727 C-31.63858195 21.82521417 -26.62804546 16.39107513 -21 11 C-20.35933594 10.37480469 -19.71867188 9.74960937 -19.05859375 9.10546875 C-13.68540205 4.18108192 -7.51321197 -0.4481565 0 0 Z " fill="#479D57" transform="translate(758,409)"/>
<path d="M0 0 C1.31226563 -0.02578125 2.62453125 -0.0515625 3.9765625 -0.078125 C7.375 0.25 7.375 0.25 9.0625 1.32128906 C11.08256909 4.28976856 10.7642286 6.88374314 10.7734375 10.4375 C10.77630768 11.13641357 10.77917786 11.83532715 10.78213501 12.55541992 C10.78417425 14.03142101 10.77865403 15.50744921 10.76611328 16.98339844 C10.7500558 19.24215138 10.7659647 21.49911518 10.78515625 23.7578125 C10.78317379 25.19271228 10.77933006 26.62761095 10.7734375 28.0625 C10.77005371 29.36832031 10.76666992 30.67414062 10.76318359 32.01953125 C10.375 35.25 10.375 35.25 9.09472656 37.16674805 C6.01117613 39.10906963 2.30395873 38.85105741 -1.25 39.0625 C-8.7438452 39.70777859 -14.05004978 40.86171106 -19.625 46.25 C-20.4603125 47.04083984 -20.4603125 47.04083984 -21.3125 47.84765625 C-31.98734792 59.13630793 -34.06734414 73.85744113 -33.99609375 88.74609375 C-34.00280342 90.11085522 -34.01138915 91.47560861 -34.02174377 92.84034729 C-34.0614765 98.58129894 -34.06303356 104.32216586 -34.06079102 110.06323242 C-34.06073993 113.59687681 -34.07988003 117.13002267 -34.11012459 120.66353035 C-34.12091689 122.65102407 -34.10879812 124.63859966 -34.09629822 126.62608337 C-34.10633377 127.83156326 -34.11636932 129.03704315 -34.12670898 130.27905273 C-34.12654282 131.33841537 -34.12637665 132.39777802 -34.12620544 133.48924255 C-34.75420468 136.96512964 -35.8314727 138.14303938 -38.625 140.25 C-41.46603832 140.64792556 -43.91182294 140.81171751 -46.75 140.78125 C-47.53391113 140.7850769 -48.31782227 140.78890381 -49.12548828 140.79284668 C-50.77963549 140.79556353 -52.43382583 140.7882181 -54.08789062 140.77148438 C-56.61686162 140.75006892 -59.14299214 140.77129097 -61.671875 140.796875 C-63.28125626 140.79423168 -64.89063575 140.78910661 -66.5 140.78125 C-67.2542627 140.78934692 -68.00852539 140.79744385 -68.78564453 140.80578613 C-72.09692642 140.74677729 -74.1611 140.60699234 -76.82463169 138.55728245 C-79.02563629 135.73656002 -79.12543134 134.36106 -79.12620544 130.81590271 C-79.13603958 129.71248535 -79.14587372 128.60906799 -79.15600586 127.47221375 C-79.14633789 126.26636124 -79.13666992 125.06050873 -79.12670898 123.81811523 C-79.13481346 121.90789078 -79.13481346 121.90789078 -79.14308167 119.95907593 C-79.15704001 116.46937983 -79.145865 112.98017655 -79.12937045 109.49050784 C-79.1155193 105.83905065 -79.12197998 102.18762205 -79.12550354 98.53614807 C-79.12820528 92.40528418 -79.11473215 86.27461612 -79.09155273 80.14379883 C-79.06493122 73.05343623 -79.06319971 65.9634008 -79.0749411 58.87300533 C-79.08571519 52.05353444 -79.07953552 45.23418202 -79.06538582 38.41472054 C-79.05962396 35.51165025 -79.0597102 32.60866659 -79.06445122 29.70559502 C-79.07010379 25.65437839 -79.05091596 21.6036517 -79.02905273 17.55249023 C-79.03355438 16.34461349 -79.03805603 15.13673676 -79.04269409 13.89225769 C-79.03278946 12.79166016 -79.02288483 11.69106262 -79.01268005 10.55711365 C-79.01025016 9.59903525 -79.00782026 8.64095686 -79.00531673 7.65384579 C-78.625 5.25 -78.625 5.25 -77.32562351 3.44256687 C-74.40677191 1.39571423 -71.00103371 1.82417957 -67.5625 1.8515625 C-66.38095337 1.84725723 -66.38095337 1.84725723 -65.17553711 1.84286499 C-63.51122315 1.84082478 -61.84688519 1.84635168 -60.18261719 1.85888672 C-57.63422053 1.87494191 -55.08740979 1.85903756 -52.5390625 1.83984375 C-50.9218715 1.84182619 -49.30468148 1.84566989 -47.6875 1.8515625 C-46.92493896 1.84548981 -46.16237793 1.83941711 -45.37670898 1.8331604 C-40.16276026 1.90252312 -40.16276026 1.90252312 -37.65307617 3.52416992 C-36.43528912 5.5684674 -36.20247664 6.8891214 -36.11328125 9.26171875 C-36.07783203 10.01904297 -36.04238281 10.77636719 -36.00585938 11.55664062 C-35.97202148 12.73516602 -35.97202148 12.73516602 -35.9375 13.9375 C-35.90333984 14.73478516 -35.86917969 15.53207031 -35.83398438 16.35351562 C-35.75161896 18.31851904 -35.68662933 20.28423696 -35.625 22.25 C-35.15191406 21.53714844 -34.67882812 20.82429687 -34.19140625 20.08984375 C-28.23271018 11.45960753 -21.0242359 3.37222686 -10.4296875 0.6953125 C-6.93157973 0.13990263 -3.54144626 0.04191061 0 0 Z " fill="#ED463D" transform="translate(719.625,560.75)"/>
<path d="M0 0 C2.29162667 2.37831748 2.34563897 4.02816482 2.37606812 7.26234436 C2.36169708 7.96242111 2.34732605 8.66249786 2.33251953 9.38378906 C2.33160309 10.10727036 2.33068665 10.83075165 2.32974243 11.57615662 C2.3237068 13.10349093 2.30796156 14.63081343 2.28320312 16.15795898 C2.24665895 18.49995338 2.24218397 20.84036728 2.24267578 23.18261719 C2.23284579 24.66635486 2.2211893 26.1500818 2.20751953 27.63378906 C2.20529388 28.33589005 2.20306824 29.03799103 2.20077515 29.7613678 C2.10375479 34.71021005 2.10375479 34.71021005 -0.12841797 36.94238281 C-2.08144198 37.12019545 -4.04282492 37.21021702 -6.00341797 37.25488281 C-16.00569584 37.91801726 -24.55424078 41.04123815 -31.38232422 48.57910156 C-40.23088496 60.5553415 -42.56804722 73.04398933 -42.53466797 87.59472656 C-42.54391958 88.98573516 -42.5548965 90.37673323 -42.56750488 91.76771545 C-42.61016867 96.88339229 -42.62157344 101.99904442 -42.63372803 107.11486816 C-42.64525198 111.46331944 -42.66875533 115.81138144 -42.7084198 120.15966988 C-42.72197734 122.19116235 -42.71782569 124.22212704 -42.7130127 126.25364685 C-42.72312378 127.48245071 -42.73323486 128.71125458 -42.74365234 129.97729492 C-42.74570679 131.05965927 -42.74776123 132.14202362 -42.74987793 133.25718689 C-43.12841797 135.94238281 -43.12841797 135.94238281 -44.4161377 137.79093933 C-47.45755664 139.83617811 -51.08419317 139.36751355 -54.62841797 139.34082031 C-55.46050781 139.34369049 -56.29259766 139.34656067 -57.14990234 139.34951782 C-58.90837281 139.35155843 -60.66686598 139.34602874 -62.42529297 139.33349609 C-65.1185171 139.31744183 -67.81024057 139.33334427 -70.50341797 139.35253906 C-72.21175462 139.35055663 -73.92009033 139.34671295 -75.62841797 139.34082031 C-76.43472656 139.34689301 -77.24103516 139.3529657 -78.07177734 139.35922241 C-83.63018553 139.28922046 -83.63018553 139.28922046 -85.84093666 137.75023651 C-87.59563681 135.28632411 -87.50581599 133.64210668 -87.5093689 130.62854004 C-87.52205811 128.975476 -87.52205811 128.975476 -87.53500366 127.28901672 C-87.52893097 126.07956894 -87.52285828 124.87012115 -87.51660156 123.62402344 C-87.52185852 122.35068649 -87.52711548 121.07734955 -87.53253174 119.76542664 C-87.54622037 116.2716257 -87.54090048 112.77809023 -87.53139448 109.28428459 C-87.52380582 105.63014885 -87.53084128 101.97603603 -87.53555298 98.32189941 C-87.54101286 92.18509841 -87.53381288 86.04840567 -87.51953125 79.91162109 C-87.50320421 72.81390472 -87.50849256 65.71644685 -87.52501047 58.61873674 C-87.53861877 52.52778677 -87.54054824 46.43691468 -87.53269446 40.34595442 C-87.5280143 36.7067742 -87.52740241 33.06771553 -87.53730392 29.42854309 C-87.54756867 25.37245338 -87.533347 21.31681023 -87.51660156 17.26074219 C-87.52267426 16.0512944 -87.52874695 14.84184662 -87.53500366 13.5957489 C-87.52654419 12.49370621 -87.51808472 11.39166351 -87.5093689 10.25622559 C-87.50823782 9.29684837 -87.50710674 8.33747116 -87.50594139 7.34902191 C-87.12841797 4.94238281 -87.12841797 4.94238281 -85.83619118 3.13452911 C-82.85671051 1.0546412 -79.31863634 1.51690695 -75.81201172 1.54394531 C-74.59361351 1.53964005 -74.59361351 1.53964005 -73.3506012 1.5352478 C-71.63501284 1.53320761 -69.9194012 1.53873441 -68.20385742 1.55126953 C-65.57206506 1.56734526 -62.94180357 1.55140945 -60.31005859 1.53222656 C-58.64403957 1.5342086 -56.9780215 1.53805145 -55.31201172 1.54394531 C-54.52241562 1.53787262 -53.73281952 1.53179993 -52.91929626 1.52554321 C-50.7043457 1.55419922 -50.7043457 1.55419922 -47.12841797 1.94238281 C-45.15276177 4.90586711 -44.86464938 5.62258654 -44.71435547 8.95410156 C-44.65634766 10.09008789 -44.65634766 10.09008789 -44.59716797 11.24902344 C-44.56623047 12.03470703 -44.53529297 12.82039063 -44.50341797 13.62988281 C-44.44541016 14.82581055 -44.44541016 14.82581055 -44.38623047 16.04589844 C-44.29209303 18.01101756 -44.20917165 19.97666822 -44.12841797 21.94238281 C-43.79970703 21.38550781 -43.47099609 20.82863281 -43.13232422 20.25488281 C-36.8723284 10.21174589 -28.73320552 3.08043969 -17.31591797 -0.30761719 C-11.8716738 -1.50427284 -5.11770245 -2.54300149 0 0 Z " fill="#479D57" transform="translate(717.12841796875,404.0576171875)"/>
<path d="M0 0 C0.78153946 -0.00761353 1.56307892 -0.01522705 2.36830139 -0.02307129 C4.01820691 -0.03385721 5.66818061 -0.0367315 7.31811523 -0.03222656 C9.83628721 -0.03125439 12.35140862 -0.0728829 14.86914062 -0.1171875 C16.47525409 -0.1223951 18.0813781 -0.12508268 19.6875 -0.125 C20.81115211 -0.1495929 20.81115211 -0.1495929 21.95750427 -0.17468262 C25.46525083 -0.12854415 27.65693369 0.30415805 30.61074829 2.22410583 C34.16165354 7.23471039 33.58362612 12.00026748 33.50952148 17.99829102 C33.5134642 19.27031372 33.51740692 20.54233643 33.52146912 21.85290527 C33.53143233 25.33448313 33.51029424 28.81524505 33.48298907 32.29670453 C33.4591327 35.94232923 33.46210382 39.58793847 33.46168518 43.23362732 C33.45705939 49.35437813 33.43343219 55.47481754 33.3972168 61.59545898 C33.3554659 68.67044215 33.33790073 75.74514508 33.33459705 82.82024437 C33.33099658 90.35592193 33.3121221 97.89149877 33.28747678 105.42713428 C33.28125068 107.59742 33.2776128 109.76769805 33.27444267 111.93799019 C33.26744206 115.98165069 33.24304851 120.02502383 33.21655273 124.06860352 C33.21555573 125.87266914 33.21555573 125.87266914 33.21453857 127.71318054 C33.20456345 128.81370758 33.19458832 129.91423462 33.18431091 131.04811096 C33.17966041 132.00396874 33.1750099 132.95982653 33.17021847 133.9446497 C32.89632536 136.60298922 32.34939606 138.22945966 30.91015625 140.46875 C27.65907107 142.09429259 24.08119719 141.65316026 20.5078125 141.671875 C19.25755531 141.68042511 19.25755531 141.68042511 17.98204041 141.68914795 C16.21761343 141.69860044 14.45316879 141.70513292 12.6887207 141.70898438 C9.9868299 141.71869904 7.28569685 141.74972304 4.58398438 141.78125 C2.87109828 141.78777913 1.15820673 141.79302996 -0.5546875 141.796875 C-1.36413315 141.8092218 -2.1735788 141.8215686 -3.0075531 141.83428955 C-8.59171043 141.81206642 -8.59171043 141.81206642 -10.80293369 140.28807831 C-12.57597882 137.78149195 -12.47000763 136.06184581 -12.4775238 133.00305176 C-12.48742844 131.86735245 -12.49733307 130.73165314 -12.50753784 129.5615387 C-12.50303619 128.31468796 -12.49853455 127.06783722 -12.49389648 125.78320312 C-12.50075974 124.4708519 -12.50762299 123.15850067 -12.51469421 121.80638123 C-12.5326603 118.20516202 -12.53145101 114.604186 -12.52575183 111.00293541 C-12.5226653 107.99828788 -12.52874634 104.99368742 -12.53479058 101.98904657 C-12.54884516 94.90232598 -12.54726647 87.81572592 -12.53588867 80.72900391 C-12.52440265 73.41311127 -12.53848885 66.09758502 -12.56528515 58.78174067 C-12.58742002 52.50395194 -12.59408467 46.22627841 -12.58820873 39.94845343 C-12.58483306 36.19744438 -12.58729447 32.44667028 -12.60445976 28.69569397 C-12.62275617 24.51499102 -12.60876482 20.3350043 -12.59155273 16.15429688 C-12.6012207 14.90744614 -12.61088867 13.6605954 -12.62084961 12.3759613 C-12.61101547 11.24026199 -12.60118134 10.10456268 -12.59104919 8.93444824 C-12.59083991 7.94557365 -12.59063063 6.95669907 -12.590415 5.93785858 C-12.08984375 3.46875 -12.08984375 3.46875 -10.28848362 1.65338898 C-6.97619794 -0.13128835 -3.67308861 0.00098495 0 0 Z " fill="#EC463D" transform="translate(306.08984375,565.53125)"/>
<path d="M0 0 C7.21747866 0.74188474 11.49623392 4.55836421 17 9 C17.65484375 9.5259375 18.3096875 10.051875 18.984375 10.59375 C25.85425211 16.77033676 29.99700484 25.81113174 34 34 C34.7734375 33.66226563 35.546875 33.32453125 36.34375 32.9765625 C37.3853125 32.53054688 38.426875 32.08453125 39.5 31.625 C40.5209375 31.18414062 41.541875 30.74328125 42.59375 30.2890625 C56.896279 24.87640818 72.83705414 25.2823663 87 31 C90.80533177 32.79931119 94.44748125 34.74204317 98 37 C98.76054688 37.43183594 99.52109375 37.86367188 100.3046875 38.30859375 C102 40 102 40 102.46484375 42.8515625 C101.26550603 50.97480793 93.63181722 58.04309054 87.546875 63.15234375 C76.09212323 71.46230937 64.50140669 75.53179982 50.4375 75.625 C48.97280273 75.69267578 48.97280273 75.69267578 47.47851562 75.76171875 C40.58572462 75.82626663 36.96872465 74.24771681 31.84130859 69.64355469 C28.60180978 66.75197341 25.56623643 66.02700408 21.28125 65.953125 C14.02359771 65.76985095 10.12342258 64.59894605 4.96875 59.37890625 C-4.90818052 47.44428187 -8.13889695 34.31354678 -7 19 C-5.86097097 12.32056788 -4.53055478 5.218576 0 0 Z " fill="#AFCE81" transform="translate(770,368)"/>
<path d="M0 0 C8.39183144 3.85261353 12.75140805 9.57678493 16.31640625 17.91015625 C19.5871439 27.40368194 19.49205578 40.64337164 16.078125 50.12109375 C12.33163384 57.36973969 7.62882125 62.9457137 -0.109375 65.93359375 C-7.36114719 68.03855447 -14.18217469 68.24887962 -21.171875 65.18359375 C-29.31603032 60.55564517 -33.64806251 53.33427339 -36.265625 44.5 C-38.59299865 32.51679638 -37.61389662 20.68901216 -31.046875 10.24609375 C-23.53466144 -0.26360404 -12.4311115 -3.73930493 0 0 Z " fill="#105B3B" transform="translate(562.921875,435.87890625)"/>
<path d="M0 0 C1.24457726 -0.00786278 1.24457726 -0.00786278 2.51429749 -0.0158844 C4.26855348 -0.02230571 6.02285253 -0.02096615 7.77709961 -0.01245117 C10.45960325 -0.00394763 13.1399728 -0.03268816 15.82226562 -0.06445312 C17.52734311 -0.06606542 19.23242437 -0.06548706 20.9375 -0.0625 C21.73864731 -0.07373398 22.53979462 -0.08496796 23.36521912 -0.09654236 C26.83371034 -0.05320512 29.11070117 0.15418255 32.03930664 2.08203125 C33.94846988 5.08334678 34.05156495 7.00735222 34.06640625 10.5546875 C34.07414062 12.32875977 34.07414062 12.32875977 34.08203125 14.13867188 C34.0665625 15.37037109 34.05109375 16.60207031 34.03515625 17.87109375 C34.050625 19.09892578 34.06609375 20.32675781 34.08203125 21.59179688 C34.076875 22.77580078 34.07171875 23.95980469 34.06640625 25.1796875 C34.06189453 26.25919678 34.05738281 27.33870605 34.05273438 28.45092773 C33.38379009 32.30587695 32.51579349 33.8789694 29.53515625 36.43359375 C26.47800571 36.91651354 23.98861416 37.08978398 20.9375 37.02734375 C19.69148766 37.02740417 19.69148766 37.02740417 18.42030334 37.02746582 C16.66773901 37.02211338 14.91517508 37.00454215 13.1628418 36.97558594 C10.47825969 36.93368122 7.79618253 36.93452138 5.11132812 36.94140625 C3.40753463 36.93091514 1.70375407 36.91797746 0 36.90234375 C-0.80317154 36.90214233 -1.60634308 36.90194092 -2.43385315 36.9017334 C-5.39911452 36.83862531 -7.83836313 36.77976455 -10.46899414 35.32617188 C-11.99040849 32.43477594 -11.85427994 29.93435211 -11.86328125 26.68359375 C-11.86615143 26.02907227 -11.86902161 25.37455078 -11.87197876 24.70019531 C-11.87401743 23.31835056 -11.86850121 21.93647682 -11.85595703 20.5546875 C-11.83989811 18.44074925 -11.85580976 16.32872262 -11.875 14.21484375 C-11.87301753 12.87108953 -11.86917377 11.52733651 -11.86328125 10.18359375 C-11.85989746 8.9615625 -11.85651367 7.73953125 -11.85302734 6.48046875 C-11.46484375 3.43359375 -11.46484375 3.43359375 -10.46899414 1.53881836 C-7.16942735 -0.28078681 -3.6741186 -0.01342912 0 0 Z " fill="#EC463D" transform="translate(305.46484375,509.56640625)"/>
<path d="M0 0 C0.1173794 3.49971199 0.18763961 6.99890955 0.25 10.5 C0.30027344 11.97339844 0.30027344 11.97339844 0.3515625 13.4765625 C0.45366764 21.13444797 -0.89773759 26.31769273 -5.859375 32.20703125 C-13.84187452 38.98555874 -20.10794492 40.61459778 -30.6484375 40.34375 C-35.96005257 39.79896897 -39.74551405 38.48637593 -43.3671875 34.4921875 C-46.40299093 29.9908238 -46.92888075 25.29268513 -46 20 C-43.41029262 14.38896735 -39.38762018 11.67031301 -34 9 C-29.66349698 7.52070257 -25.25988568 6.40628281 -20.8125 5.3125 C-18.50585435 4.72784273 -16.19983797 4.14069585 -13.89453125 3.55078125 C-12.88237549 3.29981689 -11.87021973 3.04885254 -10.82739258 2.7902832 C-7.98790088 2.05533136 -7.98790088 2.05533136 -5.3190918 0.90307617 C-3 0 -3 0 0 0 Z " fill="#135A3B" transform="translate(951,636)"/>
<path d="M0 0 C0.1173794 3.49971199 0.18763961 6.99890955 0.25 10.5 C0.30027344 11.97339844 0.30027344 11.97339844 0.3515625 13.4765625 C0.45751355 21.42289128 -1.18061632 26.53618577 -6.1875 32.6875 C-7.115625 33.450625 -8.04375 34.21375 -9 35 C-9.556875 35.46664062 -10.11375 35.93328125 -10.6875 36.4140625 C-18.01181039 41.53535766 -27.43414045 41.270494 -36 40 C-39.30761444 38.89746185 -41.76123498 37.69851141 -44 35 C-46.6028093 29.78564714 -46.65571247 24.71160075 -46 19 C-43.33352066 13.42463411 -37.45146604 11.33301228 -32 9 C-27.60869941 7.57634251 -23.16529737 6.43004011 -18.6875 5.3125 C-16.3990591 4.72791784 -14.11127061 4.14077434 -11.82421875 3.55078125 C-10.82479248 3.29981689 -9.82536621 3.04885254 -8.7956543 2.7902832 C-6.04948013 2.01398718 -2.82103872 0 0 0 Z " fill="#105B3B" transform="translate(435,478)"/>
<path d="M0 0 C7.14876477 4.11489875 12.19185826 10.12807085 14.625 18 C14.625 20.31 14.625 22.62 14.625 25 C-3.195 25 -21.015 25 -39.375 25 C-38.10444428 14.83555427 -35.41837978 8.85750776 -27.39453125 2.44140625 C-19.29996174 -3.33595574 -9.08902392 -4.10740623 0 0 Z " fill="#115A3B" transform="translate(572.375,596)"/>
<path d="M0 0 C0.75934341 -0.00761353 1.51868683 -0.01522705 2.30104065 -0.02307129 C3.90386677 -0.03385565 5.50676307 -0.03673213 7.10961914 -0.03222656 C9.55539722 -0.03125438 11.99803427 -0.07288367 14.44335938 -0.1171875 C16.00389973 -0.12239514 17.56445095 -0.12508268 19.125 -0.125 C19.85222763 -0.14139526 20.57945526 -0.15779053 21.32872009 -0.17468262 C25.30474039 -0.1208617 26.93693485 0.30665849 30.01660156 2.90698242 C30.71366211 3.75236572 31.41072266 4.59774902 32.12890625 5.46875 C33.2170944 6.42475043 34.31802128 7.36686688 35.44140625 8.28125 C36.32828125 9.003125 37.21515625 9.725 38.12890625 10.46875 C35.91750767 12.68014858 33.78735563 13.5153187 30.92285156 14.67675781 C22.08894348 18.26028566 14.73514953 22.73070683 7.12890625 28.46875 C6.3503125 29.05140625 5.57171875 29.6340625 4.76953125 30.234375 C4.228125 30.64171875 3.68671875 31.0490625 3.12890625 31.46875 C-4.24970404 24.97557295 -11.81737313 16.76221304 -12.49609375 6.40625 C-11.87109375 3.46875 -11.87109375 3.46875 -10.32397461 1.81445312 C-6.93589505 -0.0443201 -3.77028465 0.00104134 0 0 Z " fill="#469C57" transform="translate(499.87109375,545.53125)"/>
</svg>
